<svg xmlns="http://www.w3.org/2000/svg" width="4096" height="4096" viewBox="0 0 1254 1254" fill="none">
  <path d="M 906.0 228.0 L 900.0 229.0 L 875.0 243.0 L 849.0 264.0 L 850.0 268.0 L 864.0 275.0 L 879.0 285.0 L 902.0 304.0 L 904.0 304.0 L 904.0 301.0 L 905.0 300.0 L 909.0 275.0 L 909.0 244.0 Z M 548.0 226.0 L 543.0 223.0 L 532.0 219.0 L 518.0 216.0 L 500.0 214.0 L 456.0 213.0 L 410.0 215.0 L 380.0 220.0 L 361.0 226.0 L 342.0 235.0 L 321.0 250.0 L 307.0 264.0 L 295.0 281.0 L 289.0 293.0 L 283.0 309.0 L 280.0 321.0 L 276.0 348.0 L 276.0 385.0 L 281.0 419.0 L 288.0 441.0 L 294.0 453.0 L 301.0 463.0 L 310.0 471.0 L 321.0 477.0 L 330.0 480.0 L 343.0 482.0 L 353.0 482.0 L 365.0 480.0 L 377.0 476.0 L 395.0 465.0 L 412.0 447.0 L 422.0 432.0 L 429.0 418.0 L 437.0 398.0 L 443.0 378.0 L 455.0 326.0 L 463.0 304.0 L 470.0 290.0 L 484.0 271.0 L 495.0 260.0 L 509.0 250.0 L 526.0 242.0 L 541.0 238.0 L 554.0 236.0 L 554.0 232.0 Z M 942.0 164.0 L 926.0 165.0 L 900.0 173.0 L 871.0 187.0 L 846.0 203.0 L 823.0 221.0 L 800.0 243.0 L 782.0 263.0 L 777.0 263.0 L 768.0 260.0 L 752.0 257.0 L 727.0 254.0 L 572.0 254.0 L 557.0 256.0 L 545.0 259.0 L 523.0 269.0 L 509.0 280.0 L 501.0 289.0 L 494.0 299.0 L 486.0 314.0 L 478.0 336.0 L 463.0 397.0 L 453.0 425.0 L 441.0 449.0 L 426.0 470.0 L 410.0 486.0 L 396.0 496.0 L 382.0 502.0 L 382.0 917.0 L 386.0 945.0 L 393.0 970.0 L 402.0 992.0 L 412.0 1010.0 L 426.0 1030.0 L 431.0 1036.0 L 456.0 1060.0 L 476.0 1074.0 L 501.0 1087.0 L 530.0 1097.0 L 565.0 1103.0 L 603.0 1103.0 L 633.0 1098.0 L 661.0 1089.0 L 682.0 1079.0 L 701.0 1067.0 L 710.0 1060.0 L 728.0 1042.0 L 734.0 1034.0 L 735.0 1029.0 L 717.0 1034.0 L 711.0 1034.0 L 710.0 1035.0 L 704.0 1034.0 L 705.0 1029.0 L 710.0 1027.0 L 719.0 1021.0 L 734.0 1008.0 L 743.0 997.0 L 752.0 981.0 L 752.0 978.0 L 750.0 978.0 L 733.0 986.0 L 728.0 985.0 L 728.0 981.0 L 737.0 969.0 L 744.0 955.0 L 749.0 940.0 L 753.0 917.0 L 753.0 898.0 L 751.0 898.0 L 742.0 911.0 L 730.0 925.0 L 718.0 937.0 L 701.0 951.0 L 695.0 954.0 L 687.0 960.0 L 666.0 970.0 L 650.0 975.0 L 633.0 978.0 L 605.0 978.0 L 598.0 977.0 L 579.0 972.0 L 567.0 966.0 L 555.0 958.0 L 543.0 946.0 L 536.0 936.0 L 530.0 924.0 L 524.0 901.0 L 523.0 842.0 L 524.0 472.0 L 529.0 452.0 L 536.0 439.0 L 547.0 427.0 L 554.0 422.0 L 564.0 417.0 L 579.0 413.0 L 589.0 412.0 L 713.0 412.0 L 727.0 413.0 L 744.0 416.0 L 763.0 422.0 L 781.0 431.0 L 796.0 442.0 L 809.0 455.0 L 820.0 470.0 L 828.0 485.0 L 835.0 505.0 L 839.0 529.0 L 839.0 558.0 L 837.0 574.0 L 833.0 591.0 L 828.0 605.0 L 818.0 625.0 L 803.0 646.0 L 787.0 662.0 L 766.0 677.0 L 750.0 685.0 L 733.0 691.0 L 710.0 695.0 L 660.0 697.0 L 644.0 700.0 L 631.0 704.0 L 615.0 711.0 L 602.0 719.0 L 593.0 726.0 L 578.0 741.0 L 571.0 750.0 L 559.0 771.0 L 548.0 804.0 L 545.0 825.0 L 545.0 854.0 L 547.0 869.0 L 549.0 875.0 L 551.0 875.0 L 565.0 861.0 L 576.0 853.0 L 595.0 843.0 L 606.0 839.0 L 627.0 834.0 L 644.0 832.0 L 725.0 832.0 L 750.0 830.0 L 784.0 824.0 L 806.0 818.0 L 835.0 807.0 L 853.0 798.0 L 874.0 785.0 L 892.0 771.0 L 916.0 747.0 L 937.0 720.0 L 950.0 699.0 L 964.0 671.0 L 976.0 638.0 L 981.0 618.0 L 987.0 583.0 L 989.0 535.0 L 987.0 506.0 L 982.0 476.0 L 977.0 456.0 L 964.0 421.0 L 953.0 399.0 L 936.0 373.0 L 936.0 369.0 L 944.0 347.0 L 952.0 316.0 L 956.0 295.0 L 959.0 269.0 L 959.0 232.0 L 957.0 214.0 L 951.0 183.0 L 945.0 166.0 Z M 926.0 192.0 L 928.0 194.0 L 934.0 224.0 L 935.0 235.0 L 935.0 271.0 L 932.0 296.0 L 925.0 327.0 L 920.0 344.0 L 918.0 346.0 L 914.0 346.0 L 901.0 332.0 L 873.0 308.0 L 844.0 289.0 L 822.0 278.0 L 811.0 274.0 L 809.0 272.0 L 809.0 268.0 L 812.0 264.0 L 837.0 240.0 L 856.0 225.0 L 871.0 215.0 L 901.0 199.0 L 920.0 192.0 Z" fill="#2563EB" fill-rule="evenodd"/>
</svg>
