<svg width="16" height="16" viewBox="0 0 16 16" fill="none" xmlns="http://www.w3.org/2000/svg">
<mask id="mask0_328_742" style="mask-type:luminance" maskUnits="userSpaceOnUse" x="0" y="0" width="16" height="16">
<path d="M15.82 8C15.82 12.3202 12.3181 15.8221 7.99788 15.8221C3.67766 15.8221 0.175781 12.3202 0.175781 8C0.175781 3.67977 3.67766 0.179771 7.99788 0.179771C12.3181 0.179771 15.82 3.68164 15.82 8Z" fill="white"/>
</mask>
<g mask="url(#mask0_328_742)">
<mask id="mask1_328_742" style="mask-type:luminance" maskUnits="userSpaceOnUse" x="-7" y="-1" width="30" height="18">
<path d="M22.543 -0.621735H-6.49072V16.3146H22.543V-0.621735Z" fill="white"/>
</mask>
<g mask="url(#mask1_328_742)">
<path d="M22.543 -0.621735H-6.49072V16.3146H22.543V-0.621735Z" fill="#3D9635"/>
<mask id="mask2_328_742" style="mask-type:luminance" maskUnits="userSpaceOnUse" x="-7" y="-1" width="30" height="18">
<path d="M22.543 -0.621735H-6.49072V16.3146H22.543V-0.621735Z" fill="white"/>
</mask>
<g mask="url(#mask2_328_742)">
<path d="M1.72448 4.17976C1.69639 4.57489 1.65894 5.27152 1.99602 5.34268C2.40238 5.38201 2.17766 4.65542 2.3256 4.52246C2.35369 4.45691 2.40425 4.45692 2.40799 4.53931V5.15729C2.40425 5.35766 2.53534 5.41572 2.63834 5.45692C2.74508 5.44755 2.81624 5.45317 2.85744 5.55617C2.87429 5.91197 2.89115 6.26778 2.908 6.62358C2.908 6.62358 3.15519 6.69474 3.16643 6.02433C3.17954 5.6292 3.08778 5.29961 3.14208 5.22283C3.14208 5.14605 3.23946 5.14231 3.30688 5.17976C3.41362 5.25467 3.46043 5.34643 3.62522 5.31085C3.87616 5.23969 4.02785 5.11984 4.0316 4.92695C4.01662 4.74343 3.99601 4.55991 3.91736 4.37639C3.92859 4.34456 3.86868 4.25654 3.87991 4.22283C3.92486 4.29399 3.99414 4.2865 4.00913 4.22283C3.96605 4.08238 3.90051 3.94568 3.79189 3.88763C3.702 3.81085 3.57279 3.82583 3.5241 3.98875C3.50163 4.17602 3.59339 4.40074 3.73009 4.58238C3.76005 4.65354 3.79938 4.77152 3.78253 4.87826C3.7095 4.91946 3.63646 4.90261 3.57653 4.83706C3.57653 4.83706 3.37617 4.68725 3.37617 4.65354C3.43047 4.31272 3.38927 4.27527 3.35931 4.17976C3.33871 4.05055 3.27691 4.00748 3.22822 3.91946C3.17766 3.86703 3.11024 3.86703 3.07841 3.91946C2.99039 4.07302 3.0316 4.40073 3.09527 4.54868C3.14208 4.68538 3.21136 4.76965 3.17953 4.76965C3.15144 4.84643 3.09526 4.8277 3.05406 4.73969C2.99414 4.55617 2.9829 4.28463 2.9829 4.16291C2.96417 4.00935 2.94545 3.68538 2.84433 3.60298C2.7844 3.52059 2.69264 3.55991 2.66081 3.63669C2.65519 3.7865 2.65332 3.93819 2.67017 4.07677C2.73946 4.32021 2.76005 4.53557 2.79376 4.7865C2.80312 5.12171 2.60088 4.93257 2.61024 4.7659C2.65706 4.55055 2.64396 4.2116 2.60276 4.12546C2.57092 4.03931 2.5316 4.01871 2.45107 4.03369C2.3874 4.02808 2.22448 4.20785 2.17766 4.5056C2.17766 4.5056 2.13834 4.65729 2.12148 4.79399C2.09901 4.94755 1.99788 5.05617 1.92672 4.77339C1.86492 4.5674 1.82748 4.06178 1.72635 4.17976" fill="#FAFAFF"/>
<path d="M2.83148 5.80336C2.47193 5.97752 2.1255 6.14231 1.77344 6.31273C1.78655 6.07115 2.27718 5.63857 2.61051 5.63295C2.82774 5.64044 2.77343 5.71722 2.83148 5.80336Z" fill="#FAFAFF"/>
<path d="M4.18145 3.56179C4.16086 3.56179 4.14026 3.57677 4.11404 3.58239C4.0279 3.60861 3.94737 3.68351 3.97172 3.82958C4.07284 4.44943 4.14026 4.92321 4.24326 5.54494C4.26011 5.61797 4.19831 5.71348 4.11965 5.70411C3.98669 5.61423 3.95299 5.4307 3.72452 5.43819C3.55973 5.44007 3.37059 5.61984 3.34624 5.79213C3.32003 5.92883 3.30879 6.07864 3.34624 6.19849C3.46235 6.33894 3.6028 6.32396 3.72452 6.29213C3.82565 6.25093 3.90804 6.1498 3.94362 6.17415C3.96609 6.21347 3.93987 6.53745 3.47171 6.78651C3.18332 6.91572 2.95298 6.94756 2.82939 6.7116C2.75261 6.56366 2.83501 6.00374 2.64775 6.13295C2.08969 7.57115 3.95486 7.77153 4.16272 6.191C4.17583 6.14606 4.21703 6.10299 4.24699 6.11235C4.2601 6.11797 4.27134 6.13482 4.27509 6.16666C4.23202 7.59737 2.83313 7.69475 2.59531 7.24531C2.53538 7.13857 2.51853 6.90449 2.51291 6.76216C2.50167 6.67602 2.4792 6.62733 2.45486 6.60673C2.39868 6.56366 2.3219 6.67602 2.30505 6.86891C2.2807 7.02434 2.2882 7.06741 2.2882 7.21722C2.3631 8.34831 4.16459 7.86142 4.45673 6.92883C4.6028 6.44569 4.45486 6.08052 4.50355 6.03557H4.50542H4.5073L4.51291 6.0337C4.69268 6.22658 4.94362 6.05805 4.99793 5.9925C5.02228 5.95879 5.08032 5.93819 5.12152 5.98127C5.2601 6.08239 5.50542 6.0337 5.55598 5.85767C5.58594 5.68539 5.61029 5.50748 5.61591 5.32209C5.52415 5.35018 5.45299 5.37078 5.42115 5.40261C5.41366 5.41011 5.40992 5.41947 5.40804 5.42883C5.40055 5.47939 5.39306 5.52996 5.38557 5.58239C5.38557 5.58614 5.38182 5.59175 5.37995 5.59363C5.3762 5.60112 5.37059 5.60673 5.3631 5.61048C5.33127 5.62733 5.27696 5.61797 5.27322 5.57115C5.23015 5.37453 5.05224 5.34831 4.94363 5.65355C4.87059 5.71348 4.73763 5.72471 4.72452 5.6367C4.74137 5.43258 4.65898 5.40449 4.49419 5.50187C4.44175 5.09737 4.38932 4.70973 4.33501 4.30524C4.4043 4.30524 4.4661 4.35392 4.52977 4.27527C4.46048 4.06366 4.31816 3.63295 4.23763 3.59175C4.23763 3.59175 4.23014 3.58239 4.2264 3.57864C4.2264 3.57677 4.22265 3.5749 4.22077 3.5749C4.22077 3.5749 4.21703 3.57115 4.21516 3.57115C4.21142 3.57115 4.20767 3.56741 4.2058 3.56741C4.19831 3.56741 4.19082 3.56366 4.18333 3.56741M3.68146 5.78838C3.71704 5.78276 3.75823 5.79775 3.7807 5.85018C3.79756 5.89325 3.78071 5.93632 3.76198 5.95879V5.96254C3.74887 5.98127 3.70018 5.97377 3.6646 5.97377C3.62153 5.97377 3.60092 5.96441 3.57658 5.92883C3.56347 5.88951 3.60093 5.85205 3.61778 5.82396C3.61778 5.82396 3.62152 5.81647 3.62527 5.8146C3.63838 5.80336 3.66085 5.79213 3.68519 5.79026" fill="#FAFAFF"/>
<path d="M5.4383 3.52995C5.38961 3.53183 5.34841 3.54493 5.31096 3.56366C5.2192 3.65168 5.19673 3.794 5.26977 3.88201C5.34093 3.91385 5.41022 3.98688 5.3634 4.02621C5.16303 4.23969 4.64243 4.59737 4.61621 4.66291V4.66666V4.6704C4.64243 4.68913 4.96827 4.68913 5.00385 4.67227V4.6704C5.11621 4.62733 5.64805 4.02059 5.64805 4.02059C5.61996 3.99624 5.5956 3.97939 5.56751 3.95692C5.53755 3.93257 5.5413 3.90636 5.56751 3.88014C5.6986 3.80336 5.65741 3.63482 5.58812 3.55804C5.53194 3.5337 5.47763 3.52433 5.42894 3.52808M5.40459 3.71535C5.43643 3.7116 5.47575 3.74156 5.49635 3.78463C5.51695 3.82958 5.50572 3.87265 5.47388 3.88014C5.44017 3.88763 5.39711 3.85767 5.37651 3.81272C5.35591 3.76778 5.36715 3.72471 5.39898 3.71722C5.40085 3.71722 5.40272 3.71535 5.40459 3.71535Z" fill="#FAFAFF"/>
<path d="M1.809 6.82208C1.6105 7.14043 1.59365 7.61234 1.70226 7.75467C1.76031 7.82021 1.85581 7.85017 1.92697 7.82957C2.05244 7.77527 2.10676 7.52246 2.07679 7.42882C2.03559 7.36328 2.00189 7.35205 1.96069 7.40823C1.87267 7.58613 1.83522 7.46441 1.8296 7.36328C1.81649 7.17414 1.83335 6.99999 1.85395 6.86141C1.87642 6.71909 1.85395 6.76403 1.809 6.82021" fill="#FAFAFF"/>
<path d="M10.3128 6.31459C10.1217 5.90073 9.85395 5.49062 9.76968 5.33332C9.68353 5.17602 9.04496 4.24718 8.95133 4.14231C8.74346 3.89512 9.29028 4.2453 8.88204 3.75467C8.72661 3.62171 8.71912 3.61422 8.5899 3.5056C8.52436 3.45879 8.36706 3.37639 8.33897 3.51497C8.32399 3.63856 8.33335 3.70598 8.35207 3.8071C8.36705 3.87639 8.46818 3.99062 8.51687 4.05617C9.16481 4.92882 9.74159 5.80897 10.2959 6.91759C10.3839 6.87639 10.3633 6.38388 10.3128 6.31459Z" fill="#FAFAFF"/>
<path d="M9.46835 7.70036C9.43089 7.74343 9.56199 7.92508 9.7324 7.92321C10.0189 7.89137 10.268 7.73033 10.5021 7.30898C10.5639 7.2116 10.6743 6.99999 10.6762 6.83707C10.6987 5.88014 10.6294 5.13482 10.4852 4.44381C10.4758 4.37452 10.4815 4.29587 10.4927 4.27714C10.5114 4.25467 10.5732 4.27714 10.6069 4.22283C10.6556 4.17415 10.4777 3.76029 10.3766 3.60111C10.3391 3.52995 10.3279 3.48314 10.268 3.61048C10.2062 3.71347 10.1631 3.89325 10.1687 4.06179C10.3054 5.00373 10.3466 5.8277 10.4365 6.76965C10.444 6.86141 10.4309 6.9925 10.3691 7.04681C10.1444 7.28089 9.82228 7.56928 9.47022 7.70036" fill="#FAFAFF"/>
<path d="M13.3219 7.69475C13.1159 7.81273 13.1159 7.94943 13.2826 7.95505C13.5672 7.92134 13.9043 7.89887 14.1365 7.54681C14.1983 7.44943 14.2713 7.18164 14.2751 7.01872C14.2976 6.06179 14.2639 5.12546 14.1197 4.43445C14.1103 4.36703 14.0803 4.2116 14.0916 4.191C14.1103 4.14419 14.2021 4.19662 14.2358 4.14231C14.2845 4.09363 13.9942 3.72097 13.8931 3.56179C13.8575 3.49063 13.8444 3.44381 13.7845 3.57115C13.7227 3.67228 13.7002 3.85767 13.7245 4.02059C13.8743 5.04306 13.9886 6.0337 14.011 6.94007C13.9979 7.02621 13.9942 7.07303 13.9549 7.18164C13.865 7.29587 13.7657 7.44007 13.674 7.50936C13.5803 7.57864 13.3837 7.64419 13.3182 7.69475" fill="#FAFAFF"/>
<path d="M13.4737 6.77714C13.4718 6.53931 13.4774 6.33145 13.4699 6.15167C13.4624 5.97377 13.38 5.30336 13.3538 5.15916C13.3257 5.01497 13.2995 4.79774 13.2583 4.62546C13.2471 4.55991 13.2115 4.34456 13.2227 4.32396C13.2396 4.27527 13.3032 4.32583 13.3351 4.26965C13.3819 4.21909 13.1722 3.67415 13.0654 3.51871C13.0261 3.44755 12.9568 3.4719 12.8707 3.58613C12.7901 3.66104 12.8201 3.82958 12.8501 3.9925C13.0542 5.05991 13.2077 6.17976 13.174 7.19662C13.1647 7.28276 13.4755 6.93819 13.4737 6.77527" fill="#FAFAFF"/>
<path d="M11.9626 5.45317C11.8334 5.44943 11.5638 5.20224 11.4851 5.05617C11.4551 4.9719 11.4757 4.89137 11.5001 4.84268C11.5469 4.81272 11.6218 4.77714 11.6761 4.81085C11.6761 4.81085 11.7323 4.8895 11.7211 4.90074C11.7903 4.93445 11.8222 4.91572 11.8297 4.88576C11.8353 4.83519 11.8091 4.80523 11.8091 4.75092C11.839 4.60111 12.0094 4.57864 12.075 4.67227C12.1218 4.73033 12.1387 4.85392 12.1461 4.93819C12.1461 4.98126 12.0769 4.9307 12.0375 4.93819C11.9982 4.94943 11.9888 4.99437 11.9851 5.03557C11.9776 5.14418 11.9645 5.31834 11.9626 5.44943" fill="#FAFAFF"/>
<path d="M9.58594 7.04306C9.62152 6.71721 9.57283 6.05429 9.56908 5.86141C9.55598 5.4101 9.48108 4.53369 9.44737 4.38763C9.40617 4.11235 9.55973 4.41759 9.53913 4.25654C9.48857 3.98313 9.33688 3.79587 9.15711 3.54306C9.09906 3.46066 9.10092 3.44381 9.01104 3.56366C8.91178 3.78838 8.99793 3.94193 9.02227 4.11609C9.15148 4.68538 9.2264 5.20785 9.26385 5.72658C9.29943 6.24343 9.30879 6.88763 9.27695 7.43444C9.37433 7.43819 9.52976 7.27714 9.58407 7.04306" fill="#FAFAFF"/>
<path d="M13.912 6.52246C13.6854 6.14044 13.3427 5.69475 13.251 5.54119C13.1592 5.38763 12.3858 4.2528 12.2865 4.15168C12.0038 3.8558 12.4157 4.10299 12.2322 3.87265C12.0768 3.70224 12.0319 3.64793 11.897 3.54493C11.8296 3.50186 11.7903 3.41947 11.7678 3.55991C11.7603 3.68351 11.7491 3.82583 11.7584 3.9307C11.7584 3.98875 11.8184 4.09549 11.8689 4.16104C12.5562 5.00561 13.3053 6.03744 13.9064 7.11984C13.9925 7.0749 13.9626 6.58801 13.9083 6.52059" fill="#FAFAFF"/>
<path d="M11.163 11.0168C10.9626 11.0693 10.9682 11.279 11.0974 11.3708C8.97571 11.3708 5.72291 11.3333 5.02628 11.3333C4.63489 11.3333 3.40081 11.2865 3.37646 11.2865C3.64051 11.6741 4.0244 11.7528 4.52627 11.7603C5.46822 11.7603 9.83152 11.7491 11.0731 11.7491C10.9851 11.9064 11.0824 12.1573 11.1517 12.2041C11.1517 12.2041 11.1555 12.206 11.1574 12.2079C11.1592 12.2079 11.163 12.2079 11.1648 12.2097H11.1667C11.2491 12.2285 11.2866 12.1685 11.3147 12.1255C11.4476 12.1367 12.1986 12.1479 12.2678 12.1255C12.3147 12.1929 12.3615 12.2565 12.4495 12.2453C12.603 12.2135 12.7266 12.1966 12.7304 11.882C12.7304 11.882 12.7154 11.3464 12.3634 11.3801C12.281 11.3914 12.0469 11.4157 12.0469 11.4157C11.7772 11.3839 11.5787 11.3801 11.2753 11.3689C11.3034 11.3333 11.3521 11.1891 11.2922 11.1367C11.2753 11.1236 11.2529 11.1161 11.221 11.1198H11.2173C11.2173 11.1198 11.2135 11.1198 11.2135 11.118C11.2135 11.118 11.2098 11.1142 11.2079 11.1124C11.2079 11.1124 11.2079 11.1124 11.2079 11.1105C11.1929 11.088 11.1836 11.0337 11.1742 11.0187H11.1723L11.1705 11.0168H11.1686M11.3128 11.7828C11.6218 11.7977 11.912 11.7865 12.2229 11.8015C12.2716 11.8446 12.2472 11.9401 12.2154 11.9569C12.2154 11.9569 12.2117 11.9588 12.2098 11.9588H12.2023C12.1012 11.955 12.0431 11.9532 11.942 11.9513C11.942 11.9457 11.942 11.9419 11.9401 11.9363C11.9158 11.8652 11.7435 11.8708 11.7023 11.9251C11.7023 11.9251 11.7023 11.9251 11.7023 11.9288C11.7023 11.9288 11.7023 11.9326 11.7004 11.9326C11.7004 11.9344 11.7004 11.9382 11.6986 11.9382C11.6986 11.9401 11.6986 11.9438 11.6986 11.9457C11.6986 11.9494 11.6986 11.9513 11.6986 11.9532C11.5637 11.97 11.4401 11.9494 11.3034 11.9438C11.2641 11.8951 11.2678 11.8052 11.3147 11.7828" fill="#FAFAFF"/>
<path d="M5.79764 3.85392C5.59165 4.44568 5.91561 5.09175 6.1422 5.02808C6.30512 5.0955 6.40812 4.78651 6.47554 4.44568C6.52048 4.35205 6.55606 4.34081 6.57853 4.3895C6.57292 4.84081 6.61036 4.94007 6.72647 5.07677C6.9849 5.27527 7.19839 5.10299 7.21524 5.08613C7.2321 5.06928 7.41748 4.88389 7.41748 4.88389C7.46243 4.83707 7.52235 4.83332 7.58603 4.87452C7.64782 4.9307 7.63846 5.02808 7.76954 5.09362C7.88003 5.13857 8.11786 5.10486 8.17217 5.00935C8.2452 4.88201 8.26393 4.84081 8.29763 4.79025C8.35007 4.71909 8.43996 4.75093 8.43996 4.7734C8.43247 4.81273 8.38003 4.85205 8.41561 4.92321C8.47741 4.97003 8.49239 4.94007 8.52984 4.92883C8.66093 4.86703 8.76019 4.58239 8.76019 4.58239C8.7658 4.47565 8.70588 4.48501 8.66655 4.50561C8.61599 4.53557 8.61411 4.54681 8.56355 4.57864C8.49988 4.58801 8.37442 4.6292 8.31262 4.5337C8.24895 4.41947 8.24894 4.26029 8.20213 4.14419C8.20213 4.13482 8.11786 3.96254 8.19464 3.9513C8.23397 3.95879 8.31823 3.98126 8.33134 3.9101C8.37254 3.84081 8.24332 3.64606 8.15531 3.54868C8.07853 3.46441 7.97367 3.45505 7.87067 3.53932C7.79951 3.60486 7.80887 3.67977 7.79576 3.74905C7.77704 3.82958 7.78078 3.92883 7.86318 4.0337C7.93434 4.17415 8.06543 4.35767 8.02236 4.61235C8.02236 4.61235 7.94558 4.73407 7.81262 4.71909C7.75831 4.70598 7.66842 4.68351 7.61973 4.32771C7.58415 4.05992 7.62722 3.68351 7.51486 3.50748C7.47366 3.40074 7.44371 3.29962 7.34446 3.48126C7.31637 3.55243 7.20213 3.66104 7.2864 3.88389C7.35382 4.02434 7.38191 4.25467 7.35194 4.51123C7.30513 4.58426 7.29389 4.60861 7.23209 4.68164C7.14595 4.77527 7.04857 4.75093 6.97741 4.71535C6.91 4.66853 6.85569 4.64606 6.82385 4.49999C6.82947 4.26778 6.84258 3.88763 6.79951 3.80711C6.73771 3.68164 6.63471 3.72658 6.58977 3.76404C6.37816 3.95692 6.2733 4.28463 6.20963 4.54306C6.15157 4.7322 6.0879 4.67789 6.04483 4.60299C5.93809 4.50186 5.93059 3.71909 5.80138 3.84831" fill="#FAFAFF"/>
<path d="M6.49426 5.0749C6.49426 5.0749 6.49052 5.0749 6.48865 5.07864H6.48677C6.47179 5.08801 6.45494 5.11048 6.41936 5.13669C6.35944 5.20598 6.34819 5.25467 6.35194 5.39138C6.35568 5.40636 6.46617 5.71722 6.56167 5.93445C6.62534 6.16104 6.68528 6.42134 6.64221 6.66666C6.49239 6.99063 6.19277 7.28089 5.9025 7.44007C5.75456 7.48688 5.62722 7.47003 5.59351 7.44007C5.50924 7.38201 5.5055 7.28089 5.51111 7.26404V7.26216C5.75456 7.09175 6.03546 6.95317 6.25269 6.49437C6.31823 6.31834 6.33696 6.21347 6.27329 5.94194C6.24894 5.84269 6.21711 5.75842 6.14782 5.68726C6.18902 5.66853 6.29577 5.74718 6.31449 5.69662C6.28827 5.56741 6.20213 5.39325 6.10288 5.30336C6.01674 5.22471 5.92123 5.21535 5.84258 5.28838C5.75269 5.33894 5.73396 5.51685 5.77703 5.67602C5.82384 5.794 5.95493 5.81273 6.04669 6.05243C6.04856 6.06741 6.07853 6.2322 6.03172 6.29774C5.99427 6.41572 5.50924 6.79774 5.47553 6.82022C5.47553 6.82022 5.47553 6.82021 5.47553 6.82209H5.47366V6.82022C5.47366 6.81085 5.47366 6.78464 5.47366 6.74531C5.46991 6.67415 5.49987 6.5131 5.49613 6.48501V6.48314C5.33508 6.58801 5.28452 6.90449 5.25456 6.99812C4.84819 7.27902 4.3894 7.48876 4.12348 7.77153C3.9849 7.98876 5.07479 7.52434 5.20213 7.46816C5.20213 7.46816 5.204 7.46816 5.20587 7.4719C5.23021 7.49812 5.23209 7.58988 5.30513 7.67415C5.41749 7.82771 5.65906 7.92321 5.89314 7.86329C6.2864 7.72097 6.51299 7.45318 6.74333 7.15542C6.77703 7.10673 6.8276 7.07115 6.87442 7.10673C7.03359 7.46254 7.49052 7.71347 8.08041 7.73969C8.21711 7.5749 8.15156 7.4925 8.09726 7.45692C8.0804 7.44568 7.80512 7.33707 7.76205 7.23033C7.73396 7.13108 7.7995 7.04119 7.93246 6.97565C8.31074 6.92883 8.68527 6.87827 9.04482 6.76216C9.04857 6.64044 9.11973 6.46067 9.16655 6.38014C9.20026 6.32583 9.22085 6.32022 9.23021 6.31273C9.23021 6.31273 9.23021 6.30523 9.23021 6.30149L9.16842 6.26404L7.95868 6.25842C7.9437 6.2528 7.93246 6.24718 7.92497 6.24156V6.23969V6.23595V6.2322V6.22846V6.22471V6.22096C7.93059 6.2116 7.94558 6.20411 7.9643 6.19849C8.25269 6.15917 8.76767 6.0749 8.80138 5.58239C8.79576 5.32583 8.6909 5.15729 8.37442 5.11048C8.14221 5.1292 7.97741 5.35392 8.00362 5.60111C7.99239 5.66666 8.0261 5.79774 7.95868 5.81272C7.51486 5.85392 7.02984 6.13108 7.01299 6.33145C7.01299 6.33145 7.01112 6.33145 7.01112 6.33332H7.00924H7.00737H6.99613C6.96804 6.32396 6.93059 6.27714 6.9362 6.20973C6.91935 5.86516 6.807 5.47565 6.63097 5.17602C6.5673 5.11422 6.54108 5.08801 6.52235 5.08613H6.51486M8.28452 5.52808C8.31074 5.52434 8.34445 5.5337 8.37815 5.55242C8.42684 5.58051 8.45494 5.62171 8.45119 5.65168V5.65542V5.65917C8.45119 5.65917 8.45119 5.66104 8.45119 5.66291C8.45119 5.66291 8.45119 5.66478 8.45119 5.66666C8.44932 5.66853 8.44558 5.67228 8.4437 5.67415C8.42123 5.69475 8.36693 5.69288 8.31637 5.66291C8.26955 5.63482 8.23771 5.59175 8.24145 5.56179C8.24145 5.56179 8.24145 5.55992 8.24145 5.55804C8.24145 5.5543 8.24333 5.55055 8.2452 5.54681C8.2452 5.54681 8.24519 5.54306 8.24707 5.54119C8.24707 5.54119 8.25082 5.53557 8.25269 5.53557C8.26018 5.52995 8.27141 5.52434 8.28265 5.52434M7.15719 6.54681C7.15719 6.54681 7.16468 6.54681 7.16842 6.54681C7.30326 6.58239 7.50175 6.58613 7.67403 6.60299C7.81448 6.61235 7.88378 6.72284 7.75269 6.76778C7.62348 6.81273 7.498 6.84643 7.498 7.0337C7.51486 7.12733 7.51111 7.17602 7.498 7.19849C7.498 7.19849 7.49426 7.20224 7.49426 7.20411V7.20598L7.49239 7.20786C7.49239 7.20786 7.48678 7.20973 7.4849 7.2116H7.48115C7.44745 7.21722 7.4025 7.18538 7.37066 7.16853C7.29014 7.11048 7.06542 6.9719 7.03359 6.67228C7.02984 6.60486 7.07853 6.54681 7.16093 6.54119" fill="#FAFAFF"/>
<path d="M3.2508 3.85955C3.39125 3.92509 3.65155 3.897 3.64032 3.67228C3.64032 3.65355 3.6347 3.58426 3.63283 3.56741C3.60474 3.5 3.52795 3.51685 3.50923 3.58614C3.50361 3.60861 3.51859 3.64419 3.49987 3.6573C3.48863 3.66854 3.44369 3.66292 3.44556 3.60112C3.44556 3.58052 3.43246 3.55992 3.42309 3.54681C3.41373 3.54119 3.40811 3.53932 3.39312 3.53932C3.3744 3.53932 3.3744 3.54494 3.36504 3.56179C3.35942 3.57865 3.35381 3.59363 3.35381 3.61423C3.35193 3.6367 3.34257 3.64419 3.32759 3.64794C3.31073 3.64794 3.31447 3.64794 3.29949 3.64044C3.29013 3.63108 3.27889 3.62734 3.27889 3.61048C3.27889 3.59363 3.27515 3.56554 3.26953 3.5543C3.26204 3.54494 3.25081 3.53932 3.23583 3.53558C3.15905 3.53558 3.1553 3.62359 3.15904 3.65543C3.15342 3.66104 3.14968 3.81835 3.25455 3.85955" fill="#FAFAFF"/>
<path d="M7.335 5.58987C7.47545 5.65542 7.80692 5.61796 7.72639 5.40261C7.72639 5.38201 7.72078 5.31459 7.71891 5.29587C7.69082 5.23032 7.61403 5.2453 7.59531 5.31459C7.58969 5.33706 7.60467 5.37264 7.58594 5.38388C7.57471 5.39512 7.52977 5.38763 7.53164 5.32583C7.53164 5.30523 7.51665 5.28463 7.50916 5.27152C7.4998 5.2659 7.49418 5.26403 7.4792 5.26403C7.46047 5.26403 7.46048 5.27152 7.44924 5.2865C7.44363 5.30336 7.43801 5.31834 7.43801 5.33706C7.43426 5.35954 7.42677 5.36703 7.40991 5.3689C7.39306 5.3689 7.3968 5.37264 7.38182 5.36141C7.37246 5.35205 7.36122 5.3483 7.36122 5.33145C7.36122 5.31459 7.35748 5.2865 7.35186 5.27714C7.34437 5.2659 7.33126 5.26216 7.31816 5.25841C7.24138 5.25841 7.23762 5.34455 7.24137 5.37826C7.23575 5.38575 7.23388 5.53931 7.33688 5.58426" fill="#FAFAFF"/>
<path d="M9.71695 4.87265C9.85553 4.9382 10.1177 4.91198 10.1065 4.68539C10.1065 4.66479 10.1008 4.59925 10.099 4.58052C10.0709 4.51498 9.99223 4.52996 9.97538 4.59924C9.96976 4.62172 9.98474 4.6573 9.96414 4.67041C9.95291 4.68164 9.90796 4.67602 9.90983 4.61235C9.90983 4.59363 9.89485 4.57116 9.88548 4.55992C9.87799 4.5543 9.87051 4.55243 9.85553 4.55243C9.8368 4.55243 9.8368 4.55805 9.82557 4.5749C9.82182 4.59175 9.81433 4.60861 9.81433 4.62733C9.81433 4.64981 9.80497 4.6573 9.78811 4.65917C9.76939 4.65917 9.77313 4.66291 9.76002 4.65168C9.75253 4.64232 9.73942 4.63857 9.73942 4.62172C9.73942 4.60486 9.73568 4.57677 9.73194 4.56554C9.72445 4.55617 9.71133 4.55056 9.69822 4.54681C9.62144 4.54681 9.61583 4.63483 9.62144 4.66666C9.61583 4.67415 9.61208 4.82771 9.71695 4.87078" fill="#FAFAFF"/>
<path d="M10.9495 6.6704C10.7061 6.94381 10.8147 7.397 10.869 7.49437C10.9476 7.65355 11.0132 7.75655 11.1686 7.8352C11.311 7.94007 11.4214 7.8764 11.4814 7.80149C11.6237 7.65355 11.6256 7.27527 11.693 7.20037C11.7398 7.06366 11.8578 7.08613 11.9158 7.14793C11.972 7.22846 12.0375 7.27902 12.1181 7.32209C12.251 7.44007 12.4102 7.46067 12.5675 7.35392C12.6742 7.294 12.7454 7.21722 12.8072 7.06366C12.8765 6.8764 12.839 5.86329 12.8241 5.35205C12.8184 5.31273 12.6855 4.6498 12.6855 4.64419C12.6855 4.6367 12.6686 4.30711 12.6536 4.22658C12.6518 4.19475 12.6443 4.18538 12.6761 4.18913C12.7117 4.22097 12.7154 4.22097 12.7379 4.2322C12.7735 4.23969 12.8072 4.17789 12.7847 4.12171C12.6742 3.91759 12.5619 3.71348 12.4533 3.50936C12.4271 3.48314 12.3915 3.45505 12.3503 3.51685C12.311 3.55243 12.266 3.6161 12.2679 3.69849C12.2772 3.84456 12.3035 3.9925 12.3128 4.1367C12.3578 4.38389 12.4008 4.63295 12.4458 4.88201C12.487 5.41385 12.4982 5.90074 12.5394 6.43258C12.5338 6.6573 12.4626 6.95505 12.3971 6.98314C12.3971 6.98314 12.2978 7.04119 12.2304 6.97752C12.1817 6.95879 11.987 6.65355 11.987 6.65355C11.8877 6.56179 11.8222 6.58801 11.751 6.65355C11.5563 6.84269 11.4683 7.19475 11.3353 7.44007C11.2997 7.49437 11.2042 7.53932 11.0956 7.43445C10.8222 7.06366 10.9832 6.53183 10.9477 6.66853" fill="#FAFAFF"/>
<path d="M9.77894 3.56928C9.90441 3.62172 9.99055 3.87265 9.96246 3.99812C9.93624 4.14981 9.8707 4.31647 9.82388 4.294C9.77145 4.2734 9.85946 4.14231 9.8089 4.00186C9.78081 3.91198 9.61039 3.74531 9.62912 3.69849C9.59354 3.5955 9.70029 3.55055 9.77894 3.56928Z" fill="#FAFAFF"/>
<path d="M11.352 6.82021C11.3782 6.51684 11.3332 6.33145 11.3257 6.15167C11.3183 5.97377 11.1235 4.52808 11.0842 4.39137C11.0374 4.13669 11.2733 4.35767 11.2471 4.20973C11.1647 4.02246 10.9625 3.74905 10.8988 3.58613C10.8595 3.51684 10.8763 3.45504 10.7902 3.5674C10.7115 3.8277 10.6834 4.03931 10.7134 4.20224C10.9175 5.26965 11.1272 6.24343 11.0954 7.26029C11.1928 7.26029 11.3051 7.03744 11.352 6.81834" fill="#FAFAFF"/>
<path d="M13.4832 3.9307C13.5975 3.98688 13.6649 4.30336 13.6518 4.39512C13.6293 4.55992 13.5675 4.73782 13.5245 4.71535C13.4776 4.69475 13.5338 4.47003 13.5113 4.40074C13.4851 4.30336 13.3297 4.12359 13.3465 4.06928C13.3147 3.95879 13.4121 3.91011 13.4814 3.9307" fill="#FAFAFF"/>
<path d="M5.02602 6.24718C5.13463 6.28838 5.1983 6.52059 5.18707 6.588C5.16459 6.70972 5.10654 6.84081 5.06534 6.82396C5.02039 6.8071 5.0747 6.64231 5.05223 6.59175C5.04286 6.46815 4.89119 6.40261 4.89493 6.35017C4.86684 6.25092 4.95673 6.23407 5.02414 6.24905" fill="#FAFAFF"/>
<path d="M2.11805 3.4925C2.2791 3.54119 2.28847 3.77714 2.27536 3.84643C2.25289 3.9719 2.19671 4.10861 2.15551 4.08988C2.11056 4.0749 2.15551 3.90261 2.13304 3.85018C2.10869 3.77527 1.97386 3.63857 1.98884 3.59924C1.957 3.51497 2.05063 3.47752 2.11618 3.4925" fill="#FAFAFF"/>
<path d="M5.29013 4.60673C5.16653 4.67227 5.11972 4.87077 5.1965 4.98875C5.26766 5.08988 5.38189 5.05242 5.39687 5.05242C5.51672 5.0674 5.58975 4.82583 5.58975 4.82583C5.58975 4.82583 5.59349 4.75654 5.4493 4.88575C5.38937 4.89699 5.3819 4.87452 5.36691 4.84081C5.35381 4.77901 5.35755 4.71534 5.38564 4.65167C5.40811 4.59175 5.36129 4.56553 5.292 4.60673" fill="#FAFAFF"/>
<path d="M6.21346 3.40261C6.15167 3.44381 6.02807 3.57302 6.02432 3.71909C6.02058 3.80148 6.00372 3.80148 6.0599 3.85579C6.09923 3.91197 6.13856 3.90823 6.21721 3.86516C6.26216 3.83332 6.27713 3.80897 6.29399 3.75279C6.31271 3.65916 6.19474 3.79774 6.17976 3.69287C6.15354 3.59549 6.23032 3.55617 6.30148 3.46066C6.30336 3.39699 6.30148 3.35017 6.21346 3.40261Z" fill="#FAFAFF"/>
<path d="M6.95849 3.53557C6.93228 3.59363 6.90043 3.90261 6.90418 3.90261C6.88171 3.99437 6.99968 4.0337 7.05399 3.91572C7.13264 3.69849 7.13264 3.60861 7.14014 3.51497C7.11579 3.37452 7.02029 3.38014 6.95849 3.53557Z" fill="#FAFAFF"/>
<path d="M11.6533 5.92321C11.6701 5.90636 12.3143 5.44943 12.3143 5.44943C12.3799 5.42696 12.3649 5.68538 12.3349 5.68351C12.348 5.73595 11.6982 6.17789 11.6533 6.15917C11.6214 6.18164 11.5877 5.98126 11.6533 5.92508" fill="#FAFAFF"/>
<path d="M12.2416 5.91946C12.3558 5.97564 12.4008 6.30898 12.3877 6.39887C12.3914 6.5749 12.2772 6.71534 12.2341 6.69287C12.1873 6.67227 12.2397 6.47564 12.2154 6.40448C12.191 6.3071 12.0936 6.12171 12.1105 6.06928C12.0787 5.95879 12.1704 5.90074 12.2416 5.91946Z" fill="#FAFAFF"/>
<path d="M8.40245 7.35392C8.44739 7.28837 8.58597 7.19287 8.58784 7.19287C8.65151 7.16103 8.71519 7.21909 8.70957 7.21347C8.7208 7.27714 8.67024 7.33706 8.68522 7.42321C8.69833 7.45691 8.70956 7.49437 8.77323 7.48126C8.87623 7.40073 8.96987 7.39512 9.07286 7.3895C9.15152 7.39512 9.15339 7.52808 9.1047 7.52995C8.91556 7.57115 8.83129 7.62171 8.69458 7.67227C8.63091 7.70972 8.5766 7.66291 8.5766 7.65729C8.5766 7.65167 8.53915 7.61984 8.56537 7.53557C8.57099 7.46815 8.5429 7.4307 8.48672 7.43819C8.44365 7.46253 8.4062 7.47751 8.3856 7.42695C8.37624 7.39137 8.37436 7.37264 8.40245 7.35204" fill="#FAFAFF"/>
<path d="M12.9214 7.53182C12.9495 7.5674 12.9663 7.59924 12.9195 7.65729C12.8745 7.69849 12.8427 7.72096 12.7959 7.76216C12.7753 7.79961 12.7603 7.85392 12.8259 7.87264C12.9457 7.90635 13.2247 7.7247 13.2247 7.72096C13.2697 7.68725 13.2547 7.62358 13.251 7.62358C13.2247 7.59362 13.1648 7.61047 13.1255 7.60673C13.1068 7.60673 13.045 7.59736 13.073 7.54306C13.0974 7.50935 13.1068 7.48875 13.1236 7.44568C13.1423 7.40448 13.1273 7.37639 13.0581 7.35392C12.9888 7.34081 12.9607 7.3483 12.8839 7.35392C12.8427 7.36328 12.8277 7.38201 12.8202 7.43257C12.824 7.50935 12.8689 7.50373 12.9176 7.53369" fill="#FAFAFF"/>
</g>
</g>
</g>
</svg>
