<svg width="32" height="32" viewBox="0 0 32 32" fill="none" xmlns="http://www.w3.org/2000/svg">
<path d="M28.8001 6.39961H25.3153C24.4865 3.62841 21.9169 1.59961 18.8801 1.59961C15.1745 1.59961 12.1601 4.61401 12.1601 8.31961C12.1601 9.65081 12.5537 10.8892 13.2225 11.9356C7.22246 12.6748 2.56006 17.8012 2.56006 23.9996C2.56006 24.1693 2.62749 24.3321 2.74751 24.4522C2.86753 24.5722 3.03032 24.6396 3.20006 24.6396H11.3569L12.5057 28.6556C12.5825 28.9308 12.8353 29.1196 13.1201 29.1196H16.6401C16.8161 29.1196 16.9761 29.19 17.0913 29.3084C17.2065 29.4236 17.2801 29.5836 17.2801 29.7596C17.2801 29.9293 17.3475 30.0921 17.4675 30.2122C17.5875 30.3322 17.7503 30.3996 17.9201 30.3996C18.0898 30.3996 18.2526 30.3322 18.3726 30.2122C18.4926 30.0921 18.5601 29.9293 18.5601 29.7596C18.5601 29.5356 18.5185 29.318 18.4481 29.1196H20.1601C20.5121 29.1196 20.8001 29.4076 20.8001 29.7596C20.8001 29.9293 20.8675 30.0921 20.9875 30.2122C21.1075 30.3322 21.2703 30.3996 21.4401 30.3996C21.6098 30.3996 21.7726 30.3322 21.8926 30.2122C22.0126 30.0921 22.0801 29.9293 22.0801 29.7596C22.0801 28.7004 21.2193 27.8396 20.1601 27.8396H17.1233L16.2081 24.6396H18.5601C22.0897 24.6396 24.9601 21.7692 24.9601 18.2396C24.9601 16.4284 24.1985 14.7932 22.9857 13.6284C23.9073 12.9148 24.6369 11.9708 25.0913 10.8796H25.6001C27.7153 10.8796 29.4401 9.15801 29.4401 7.03961C29.4401 6.86987 29.3726 6.70708 29.2526 6.58706C29.1326 6.46704 28.9698 6.39961 28.8001 6.39961ZM5.44006 23.3596H3.85926C3.92966 22.1468 4.20166 20.9884 4.63686 19.9132C5.20326 20.8252 6.20806 21.4396 7.36006 21.4396C9.12326 21.4396 10.5601 20.0028 10.5601 18.2396C10.5601 18.0699 10.4926 17.9071 10.3726 17.7871C10.2526 17.667 10.0898 17.5996 9.92006 17.5996C9.56486 17.5996 9.28006 17.8844 9.28006 18.2396C9.28006 19.2988 8.41926 20.1596 7.36006 20.1596C6.32966 20.1596 5.48806 19.3436 5.44326 18.3228C7.27366 15.3436 10.4961 13.3084 14.1985 13.1324C15.0593 13.9708 16.1441 14.5756 17.3537 14.8572C16.2689 19.9644 11.6737 23.3596 5.44006 23.3596ZM13.6033 27.8396L12.6881 24.6396H14.8769L15.7921 27.8396H13.6033ZM23.6801 18.2396C23.6801 21.062 21.3825 23.3596 18.5601 23.3596H11.7345C15.3153 21.7628 17.8369 18.7836 18.6209 15.0268C18.7073 15.03 18.7937 15.0396 18.8801 15.0396C19.9521 15.0396 20.9601 14.7804 21.8625 14.3324C22.9729 15.2732 23.6801 16.6748 23.6801 18.2396ZM18.8801 13.7596C15.8785 13.7596 13.4401 11.318 13.4401 8.31961C13.4401 5.31801 15.8785 2.87961 18.8801 2.87961C21.8785 2.87961 24.3201 5.31801 24.3201 8.31961C24.3201 11.318 21.8785 13.7596 18.8801 13.7596ZM25.6001 9.59961H25.4721C25.5553 9.18361 25.6001 8.75801 25.6001 8.31961C25.6001 8.10201 25.5873 7.89081 25.5681 7.67961H28.0769C27.7921 8.78361 26.7905 9.59961 25.6001 9.59961Z" fill="#5379B2"/>
<path d="M20.7999 7.68039C21.1534 7.68039 21.4399 7.39385 21.4399 7.04039C21.4399 6.68693 21.1534 6.40039 20.7999 6.40039C20.4464 6.40039 20.1599 6.68693 20.1599 7.04039C20.1599 7.39385 20.4464 7.68039 20.7999 7.68039Z" fill="#5379B2"/>
</svg>
