<svg width="32" height="32" viewBox="0 0 32 32" fill="none" xmlns="http://www.w3.org/2000/svg">
<g clip-path="url(#clip0_450_2214)">
<path d="M2.58006 11.2954C2.90506 11.1854 3.23506 11.1354 3.58006 11.1354C4.04006 11.1354 4.49506 11.2304 4.92006 11.4204C9.09006 13.2804 9.90006 18.6254 9.13006 21.6454C8.92006 23.2854 9.27006 24.6304 10.0901 25.3404C10.4751 25.6754 10.9601 25.8504 11.4901 25.8504C11.7301 25.8504 11.9751 25.8154 12.2301 25.7454C12.4751 25.6754 12.6351 25.4104 12.6101 25.1304C12.4151 23.2554 12.2901 19.7554 13.6401 17.3354C13.9701 16.7504 14.4701 16.2504 15.0951 15.9054C17.0151 14.8354 18.4801 13.7004 19.5701 12.4304C20.2051 11.6904 20.6651 10.7704 20.8851 9.76539C21.5901 6.63039 22.8801 4.91039 24.9401 4.36539C25.4451 3.47539 26.2751 2.86039 27.4201 2.53539C27.4501 2.53039 27.4851 2.52539 27.5151 2.52539C27.6451 2.52539 27.7601 2.59539 27.8251 2.71039C27.8951 2.85539 27.8601 3.03039 27.7351 3.13039C27.4601 3.36539 27.3351 3.71539 27.3401 4.21539C29.1451 4.77539 30.1801 5.89539 30.4351 7.54039C30.4451 7.60539 30.4751 7.66539 30.5201 7.70039L31.7401 8.72539C31.9101 8.86039 32.0051 9.06539 32.0001 9.27539C31.9901 9.79039 31.7201 11.5104 28.8251 11.9404C28.6501 11.9704 28.4551 12.0904 28.4251 12.2654C28.3401 12.7354 28.6751 13.4804 29.3101 14.2604C29.6701 14.6954 29.8801 15.2704 29.9001 15.8654L29.9251 16.5654C29.9501 17.1504 29.8451 17.7204 29.6201 18.2554C29.1401 19.4004 28.4151 20.9354 27.7001 21.7404C27.5101 21.9604 27.2801 22.3054 27.2551 22.7304C27.1851 23.8654 27.4101 24.9004 27.9351 25.9154C28.0751 26.1904 28.3101 26.3904 28.5851 26.4904L29.3851 26.7804C29.9801 27.0004 30.3601 27.5904 30.2951 28.2254C30.2201 28.9354 29.6301 29.4704 28.9151 29.4704H27.3251C26.4951 29.4704 25.7551 28.9504 25.4751 28.1704L24.2651 24.7554C23.7951 25.6204 23.0051 26.2504 21.9701 26.6054L23.4401 26.9604C24.0201 27.1004 24.4251 27.6054 24.4251 28.2004C24.4251 28.9004 23.8501 29.4704 23.1501 29.4704H15.6301C15.6051 29.4704 15.5851 29.4654 15.5501 29.4554C15.5351 29.4554 15.5201 29.4504 15.4651 29.4204C15.4451 29.4104 15.4151 29.3904 15.3851 29.3604C15.1151 29.0704 14.7451 28.9104 14.3601 28.9104C14.1951 28.9104 14.0351 28.9404 13.8901 29.0004C13.1101 29.3204 12.3201 29.4754 11.5401 29.4754C10.1801 29.4754 8.90506 28.9904 7.85506 28.0754C5.88006 26.3504 5.10506 23.4954 5.83506 20.6104C6.26506 18.6304 5.75006 16.9904 4.10506 15.1104C4.02506 15.0204 3.91006 14.9654 3.78506 14.9654C3.69006 14.9654 3.60006 15.0004 3.53006 15.0604L3.01006 15.5054C2.99006 15.5204 2.96506 15.5354 2.94006 15.5504C2.47506 15.7854 1.97506 15.9954 1.51506 15.9954C1.35506 15.9954 1.20506 15.9704 1.06506 15.9204C0.670061 15.7804 0.360062 15.4504 0.110062 14.9004L0.0900593 14.8354C-0.28994 13.1604 0.54006 11.9654 2.58006 11.2954ZM0.74506 14.6504C0.910061 15.0004 1.09006 15.2054 1.29506 15.2804C1.35506 15.3004 1.43006 15.3104 1.51006 15.3104C1.84006 15.3104 2.24506 15.1304 2.59006 14.9654L3.09006 14.5354C3.28506 14.3704 3.52506 14.2804 3.78506 14.2804C4.11006 14.2804 4.41006 14.4204 4.62006 14.6604C6.42506 16.7204 6.99006 18.5454 6.50506 20.7654C5.84006 23.4054 6.53506 26.0054 8.31006 27.5504C9.23506 28.3554 10.3501 28.7804 11.5501 28.7804C12.2401 28.7804 12.9451 28.6354 13.6401 28.3604C13.8701 28.2654 14.1051 28.2204 14.3601 28.2204C14.8701 28.2204 15.3901 28.4254 15.7701 28.7804H23.1501C23.4751 28.7804 23.7351 28.5154 23.7351 28.1954C23.7351 27.9204 23.5501 27.6854 23.2851 27.6204L20.2501 26.9004C20.0851 26.8604 19.9701 26.7004 19.9851 26.5354C20.0001 26.3604 20.1351 26.2254 20.3101 26.2154C21.9501 26.1154 23.1551 25.4404 23.7201 24.3154C24.2451 23.2604 24.1351 21.9604 23.4451 20.9154C22.7551 19.8754 21.6301 19.3054 20.2851 19.3054C20.1851 19.3054 20.0851 19.3104 19.9701 19.3154C19.7801 19.3154 19.6301 19.1704 19.6151 18.9904C19.6051 18.8004 19.7501 18.6354 19.9401 18.6254C20.0551 18.6154 20.1701 18.6104 20.2851 18.6104C21.8451 18.6104 23.2051 19.3104 24.0151 20.5304C24.6451 21.4854 24.8751 22.6454 24.6351 23.7304L26.1251 27.9254C26.3101 28.4304 26.7901 28.7754 27.3251 28.7754H28.9201C29.2801 28.7754 29.5801 28.5004 29.6151 28.1454C29.6451 27.8254 29.4551 27.5254 29.1601 27.4154L28.3601 27.1254C27.9201 26.9654 27.5501 26.6454 27.3301 26.2204C26.7551 25.1104 26.5001 23.9204 26.5751 22.6704C26.6051 22.1854 26.8201 21.6954 27.1951 21.2754C27.8751 20.5004 28.6101 18.8754 28.9901 17.9754C29.1801 17.5354 29.2651 17.0604 29.2451 16.5804L29.2201 15.8804C29.2001 15.4354 29.0451 15.0104 28.7851 14.6854C28.0101 13.7354 27.6301 12.8054 27.7501 12.1304C27.8301 11.6804 28.2201 11.3254 28.7251 11.2454C31.0301 10.9054 31.3051 9.73539 31.3101 9.23539L30.0901 8.21039C29.9201 8.06539 29.8051 7.85539 29.7651 7.63039C29.5701 6.34539 28.8101 5.47039 27.4501 4.96039C27.4851 5.14539 27.5351 5.33039 27.5901 5.51539C27.6451 5.69539 27.5401 5.89039 27.3551 5.94039C27.3251 5.95039 27.2901 5.95539 27.2551 5.95539C27.1051 5.95539 26.9701 5.85039 26.9251 5.70539C26.7501 5.11039 26.5451 4.26539 26.7201 3.54039C25.6901 4.10039 25.1501 5.06039 25.0701 6.45539C25.0601 6.63539 24.9051 6.78039 24.7051 6.78039C24.6101 6.77539 24.5251 6.73539 24.4651 6.66539C24.4051 6.59539 24.3701 6.50539 24.3751 6.41539C24.4001 5.98539 24.4701 5.57039 24.5801 5.20039C23.1001 5.82539 22.1351 7.33039 21.5551 9.90539C21.3051 11.0204 20.8001 12.0404 20.0901 12.8604C18.9401 14.1904 17.4151 15.3804 15.4251 16.4854C14.9151 16.7754 14.5001 17.1754 14.2401 17.6504C12.9851 19.9054 13.1051 23.2504 13.2901 25.0404C13.3551 25.6654 12.9851 26.2304 12.4101 26.3904C12.1001 26.4754 11.7901 26.5204 11.4901 26.5204C10.7901 26.5204 10.1501 26.2854 9.63506 25.8404C8.64006 24.9754 8.21006 23.4004 8.45506 21.5004C9.16506 18.6854 8.44506 13.7254 4.64006 12.0304C4.29506 11.8804 3.94006 11.8004 3.57506 11.8004C3.30506 11.8004 3.04506 11.8454 2.79006 11.9254C1.12006 12.5004 0.47006 13.3654 0.74506 14.6504Z" fill="#5379B2"/>
<path d="M27.31 6.76074C27.94 6.76074 28.46 7.27074 28.46 7.90574C28.46 8.54074 27.945 9.05574 27.31 9.05574C26.675 9.05574 26.16 8.54574 26.16 7.90574C26.16 7.27074 26.68 6.76074 27.31 6.76074Z" fill="#5379B2"/>
</g>
<defs>
<clipPath id="clip0_450_2214">
<rect width="32" height="32" fill="white" transform="matrix(-1 0 0 1 32 0)"/>
</clipPath>
</defs>
</svg>
