<svg width="32" height="32" viewBox="0 0 32 32" fill="none" xmlns="http://www.w3.org/2000/svg">
<g clip-path="url(#clip0_450_2208)">
<rect width="32" height="32" fill="white"/>
<path d="M30.8644 3.84788C30.491 3.73428 30.1009 3.75502 29.7176 3.74047C29.3347 3.72457 28.9554 3.65944 28.5893 3.54671C27.9049 3.33808 27.3122 2.95117 26.7771 2.48471C25.7194 1.56294 24.7621 0.466896 23.3354 0.130748C20.3469 -0.573739 17.4733 1.69108 15.8733 3.98995C15.1577 5.01759 14.65 6.22537 14.716 7.49722C14.767 8.48555 15.1898 9.40701 15.9548 9.98676C15.9472 10.0472 15.9552 10.1086 15.9781 10.165C16.3798 11.1199 16.4827 12.1411 15.984 13.082C15.4654 14.0602 14.5719 14.7095 13.6644 15.3026C11.609 16.645 9.86713 18.5468 8.78014 20.7475C8.15576 22.0141 7.75723 23.3661 7.6499 24.7748C7.60106 25.4217 8.61432 25.4186 8.66285 24.7748C8.84951 22.3221 10.0849 20.0254 11.7428 18.2394C12.5855 17.3313 13.535 16.6054 14.5635 15.9217C15.4931 15.3026 16.3888 14.5248 16.8968 13.5148C17.3759 12.5623 17.4406 11.5242 17.1706 10.5275C18.2168 10.7272 19.3327 10.3616 20.1621 9.71468C21.2323 8.87895 21.7596 7.53994 21.8421 6.21701C21.8832 5.54867 21.7988 4.87856 21.5932 4.24098C21.3941 3.62625 20.686 3.88935 20.887 4.50903C21.5596 6.58504 20.5473 9.92083 17.9502 9.84376C16.8809 9.8128 15.8596 8.9647 15.7414 7.94418C15.6129 6.82214 16.0671 5.50076 16.6846 4.59013C18.0578 2.56488 20.766 0.323894 23.3939 1.19553C24.5876 1.59172 25.3936 2.67074 26.34 3.43373C26.8754 3.8649 27.4475 4.2125 28.098 4.44558C28.7937 4.6932 29.4821 4.71549 30.2098 4.75913C30.6239 4.7842 30.9117 4.89037 30.9785 5.21785C31.0348 5.49395 30.9163 5.9115 30.786 6.22599C30.5004 6.92057 30.0306 7.6427 29.3773 8.04168C28.8307 8.37554 28.2015 8.55122 27.5601 8.549C26.9358 8.54652 26.3907 8.52269 25.8133 8.80931C24.6218 9.40113 24.4395 10.7878 24.3427 12.021C24.2338 13.4108 24.4718 14.7879 24.2643 16.177C24.0484 17.6225 23.6278 19.029 23.2473 20.4377C22.6432 22.6747 21.9174 25.3282 22.7667 27.6036C23.1185 28.5455 23.7622 29.0584 24.74 29.3886C25.1239 29.518 25.7685 29.7446 25.8055 30.2887C25.8295 30.6373 25.5482 30.8521 25.2278 30.8666C23.966 30.9248 22.4182 30.8666 21.1549 30.8666H20.7566C20.1033 30.8666 20.1033 31.8745 20.7566 31.8745H24.6339C24.8601 31.8745 25.085 31.8828 25.309 31.8407C25.9175 31.7259 26.4156 31.209 26.5223 30.6054C26.6377 29.9445 26.3136 29.2642 25.7066 28.9572C25.2259 28.7142 24.6859 28.7556 24.2376 28.4189C23.4788 27.849 23.2371 26.7818 23.1717 25.8903C23.0716 24.5216 23.3376 23.1541 23.663 21.8309C24.0422 20.2882 24.53 18.7715 24.838 17.2118C24.987 16.4559 25.1059 15.683 25.1214 14.9117C25.1367 14.158 25.062 13.4058 25.0642 12.6521C25.0673 11.4867 25.342 9.77349 26.7569 9.54908C27.0587 9.50111 27.3666 9.56302 27.6706 9.55528C28.0434 9.54614 28.4136 9.49167 28.7731 9.39309C29.3897 9.22223 30.0004 8.91579 30.4714 8.47966C31.564 7.46751 33.076 4.52296 30.8644 3.84788Z" fill="#436BA8"/>
<path d="M18.2294 28.8092C19.1556 27.8983 19.5183 26.5187 19.4978 25.154C19.4704 23.32 18.5091 21.5204 17.1598 20.2984C16.4048 19.6147 15.5013 19.1036 14.5011 18.8823C13.8662 18.7418 13.5949 19.7128 14.2317 19.8539C16.0756 20.2622 17.5568 21.8269 18.1862 23.5642C18.538 24.5362 18.5853 25.5892 18.287 26.5812C18.0178 27.4754 17.4187 28.5167 16.4984 28.8717C16.0025 29.0636 16.0187 29.6146 16.6331 29.5929C17.0351 29.5774 17.4376 29.566 17.8399 29.5545C18.1868 29.5446 18.8721 29.4645 19.1188 29.7737C19.2828 29.9786 19.2669 30.5475 19.0899 30.7391C18.8174 31.0359 18.0381 30.9227 17.6797 30.9227C16.6047 30.9227 15.5299 30.9238 14.4551 30.9261C13.383 30.9292 12.3129 30.9908 11.2411 30.9951C10.4484 30.9985 9.54746 31.057 8.79864 30.7521C8.45176 30.611 8.2175 30.3692 8.05977 30.0749C8.08155 30.0656 8.10457 30.0585 8.12603 30.0485C8.98934 29.6607 9.65697 28.63 9.61683 27.6794C9.57857 26.7675 8.61726 25.6331 7.66747 26.3147C6.93202 26.8428 6.77243 27.958 6.77523 28.7971C6.77614 29.0795 6.80269 29.3611 6.85456 29.6387C6.78892 29.6524 6.72389 29.6638 6.66043 29.6722C5.95703 29.7672 5.19825 29.7842 4.49951 29.6517C3.01027 29.3701 1.35738 28.174 0.89819 26.6803C0.360605 24.9361 1.17818 23.1071 2.14975 21.6764C2.6357 20.9596 3.48905 20.0254 4.17597 19.4921C4.42485 19.2986 4.8103 18.9495 5.15283 18.9659C5.59646 18.9851 5.50344 19.718 5.33264 19.9688C5.06323 20.3643 4.67062 20.6906 4.35174 21.0475C3.96187 21.4792 3.60055 21.9357 3.27004 22.414C2.67054 23.2925 2.21229 24.3387 2.33891 25.4233C2.5461 27.1935 4.05775 28.278 5.80708 28.1558C6.45355 28.1109 6.45852 27.1034 5.80708 27.1483C5.04736 27.2012 4.2469 27.0189 3.75567 26.3943C3.14528 25.6176 3.26506 24.5269 3.68193 23.6933C4.19992 22.6579 5.01221 21.8265 5.79308 20.9877C6.14804 20.6061 6.48092 20.1622 6.50301 19.6218C6.52417 19.1095 6.23049 18.6266 5.78063 18.3837C4.77297 17.8376 3.64896 18.8343 2.96173 19.4794C2.19922 20.195 1.56768 21.058 1.05188 21.9624C-0.00587316 23.8196 -0.513904 26.1993 0.727084 28.1004C1.75777 29.679 3.59389 30.4432 5.43873 30.4751C5.96916 30.4844 6.52759 30.4612 7.06611 30.3649C7.18817 30.6621 7.36789 30.9325 7.59498 31.1607C8.31394 31.8667 9.39595 31.9704 10.3535 31.9939C11.5668 32.0249 12.7801 31.9419 13.9934 31.9367C15.2438 31.9311 16.4943 31.9295 17.7447 31.9317C18.2761 31.9317 18.8099 31.9782 19.2722 31.6696C19.4703 31.5366 19.6357 31.3609 19.7562 31.1557C19.8767 30.9504 19.9491 30.7207 19.9681 30.4837C20.0584 29.4549 19.163 28.8231 18.2294 28.8092ZM7.84915 27.8945C7.92008 27.5807 8.38736 26.8369 8.74357 27.2848C8.83161 27.3953 8.86055 27.5417 8.86552 27.6825C8.8901 28.3755 8.41442 28.9225 7.81618 29.2701C7.75582 28.8346 7.74991 28.3304 7.84915 27.8945ZM24.029 3.0332C23.3772 3.0332 23.3757 4.04072 24.029 4.04072C24.6823 4.04072 24.6817 3.0332 24.029 3.0332Z" fill="#436BA8"/>
</g>
<defs>
<clipPath id="clip0_450_2208">
<rect width="32" height="32" fill="white"/>
</clipPath>
</defs>
</svg>
