<svg width="16" height="16" viewBox="0 0 16 16" fill="none" xmlns="http://www.w3.org/2000/svg">
<path d="M8.00196 16C12.4192 16 16 12.4192 16 8.00195C16 3.58475 12.4192 0.00390244 8.00196 0.00390244C3.58475 0.00390244 0.00390625 3.58475 0.00390625 8.00195C0.00390625 12.4192 3.58475 16 8.00196 16Z" fill="#112ABA"/>
<path d="M15.5131 10.7455C15.4777 10.8426 15.4403 10.939 15.401 11.0345C15.3067 11.2648 15.2017 11.4899 15.0869 11.7088C14.9175 12.0324 14.7265 12.3428 14.5159 12.6383L9.94495 10.2295L9.19605 9.83473L7.99792 9.20339L6.75684 9.8574L6.00809 10.252L1.47981 12.6382C1.40744 12.5368 1.33733 12.4335 1.26992 12.3286C1.13614 12.1211 1.01182 11.9073 0.897713 11.6873C0.739764 11.3842 0.600884 11.0696 0.482422 10.7453L2.37391 9.7484L3.79485 8.99964L5.703 7.99399L3.73404 6.95621L2.3131 6.20746L0.487227 5.24535C0.525663 5.1404 0.566351 5.0365 0.609292 4.93366C0.704782 4.70364 0.810782 4.47933 0.926692 4.26087C1.0938 3.94557 1.28133 3.64274 1.48792 3.35431L6.00794 5.73616L6.75669 6.13074L7.99777 6.78475L9.1959 6.15326L9.9448 5.75868L14.5075 3.35431C14.5801 3.45551 14.6501 3.55821 14.7175 3.66271C14.8523 3.8708 14.9774 4.0855 15.0924 4.30636C15.2504 4.6086 15.3894 4.92209 15.508 5.24535L13.6821 6.20746L12.2612 6.95621L10.2922 7.99399L12.2004 8.99964L13.6213 9.7484L15.5128 10.7453L15.5131 10.7455Z" fill="#FAFAFF"/>
<path d="M4.82089 6.29319H3.21632L3.05222 6.20761L0.609863 4.93365C0.705353 4.70364 0.811353 4.47933 0.927262 4.26087L4.65708 6.20761L4.82104 6.29319H4.82089Z" fill="#D9022A"/>
<path d="M15.0926 4.30651L11.4564 6.20776L11.2929 6.29334H9.68799L9.94488 6.15911L14.7176 3.66301C14.8524 3.8711 14.9775 4.08581 15.0925 4.30666L15.0926 4.30651Z" fill="#D9022A"/>
<path d="M6.36116 9.6951L6.00817 9.87767L1.27015 12.3287C1.13637 12.1212 1.01206 11.9074 0.897949 11.6875L4.65284 9.74855L4.75659 9.6951H6.36116Z" fill="#D9022A"/>
<path d="M15.4014 11.0345C15.3072 11.2648 15.2022 11.4899 15.0873 11.7088L11.3316 9.74855L11.229 9.6951H12.8336L12.9361 9.74855L15.4014 11.0344V11.0345Z" fill="#D9022A"/>
<path d="M15.9962 8.00195C15.9962 8.33977 15.9754 8.67293 15.9347 8.99979C15.9032 9.25323 15.8598 9.50322 15.8048 9.74855H9.94524V15.7613C9.69991 15.8227 9.45007 15.8728 9.19633 15.9108C8.80536 15.9695 8.40553 16 7.9982 16C7.59086 16 7.16176 15.9673 6.75713 15.9042C6.50339 15.8647 6.2537 15.8132 6.00837 15.7505V9.74855H0.191431C0.136629 9.50322 0.0930884 9.25323 0.0615586 8.99979C0.0208702 8.67293 0 8.33977 0 8.00195C0 7.64747 0.0231221 7.29869 0.0678643 6.95636C0.100745 6.70292 0.145788 6.45294 0.202241 6.20761H6.00837V0.253287C6.2537 0.190528 6.50339 0.13903 6.75713 0.0995422C7.16161 0.0364827 7.57615 0.00375175 7.9982 0.00375175C8.42025 0.00375175 8.80536 0.0342306 9.19633 0.092936C9.45007 0.131072 9.69991 0.181069 9.94524 0.242477V6.20761H15.794C15.8505 6.45294 15.8955 6.70292 15.9284 6.95636C15.9731 7.29869 15.9962 7.64747 15.9962 8.00195Z" fill="#FAFAFF"/>
<path d="M15.9961 8.00195C15.9961 8.33977 15.9752 8.67293 15.9345 8.99979H9.19618V15.9108C8.80521 15.9695 8.40538 16 7.99805 16C7.59071 16 7.16161 15.9673 6.75698 15.9042V8.99964H0.0615586C0.0208702 8.67278 0 8.33962 0 8.0018C0 7.64732 0.0231221 7.29854 0.0678643 6.95621H6.75713V0.0995422C7.16161 0.0364827 7.57615 0.00375175 7.9982 0.00375175C8.42025 0.00375175 8.80536 0.0342306 9.19633 0.092936V6.95636H15.9285C15.9733 7.29869 15.9964 7.64747 15.9964 8.00195H15.9961Z" fill="#D9022A"/>
</svg>
