<svg width="32" height="32" viewBox="0 0 32 32" fill="none" xmlns="http://www.w3.org/2000/svg">
<path d="M10.1174 22.1146C11.8747 23.0233 12.7033 21.9943 13.6833 20.5965C14.3398 20.8296 15.0561 20.9623 15.7377 21.1074L15.7251 21.1479C15.5604 21.6842 15.5588 22.2252 15.7665 22.7504C15.9703 23.2656 16.364 23.6667 16.5801 24.166C16.7628 24.5884 16.58 25.2141 17.1551 25.3696C18.0102 25.6009 19.7919 23.8121 20.3345 23.2229C20.8056 22.7114 21.2552 22.1693 21.4442 21.4885C21.8006 21.4713 22.1594 21.4155 22.5135 21.3684C25.9585 20.9097 28.5083 19.4422 30.9834 16.9798C31.6053 16.361 32.0057 16.0926 31.334 15.3574C29.1883 13.0085 26.5679 10.9053 23.4336 10.1051L22.7509 9.94357C22.0554 9.79482 22.1275 9.84682 21.6083 9.38307L20.8913 8.76332C19.8118 7.852 17.907 6.60525 16.4289 6.53819C15.8519 6.53063 15.4791 6.50757 14.9548 6.77244L14.094 7.25738C12.6574 8.07994 11.3624 9.02388 10.2593 10.2678C9.39875 11.2381 9.16237 11.7213 9.74669 12.8736C9.68137 12.959 9.49981 13.0486 9.40644 13.1092C8.75294 13.5327 8.11175 13.9579 7.52075 14.4679C7.24881 13.9629 6.88581 13.525 6.49425 13.1094C5.14412 11.6765 3.45669 10.8367 1.47569 10.6578C0.902372 10.606 0.170685 10.6609 0.448622 11.453C0.514246 11.6401 0.623123 11.8093 0.724998 11.9783L1.08837 12.5918C2.27669 14.6538 2.81056 16.4801 1.28731 18.5337C1.02681 18.8849 0.693998 19.1999 0.462997 19.5694C0.0296841 20.2623 0.553873 20.6646 1.27694 20.6237L1.91081 20.5571C3.81081 20.2845 5.632 19.4411 6.85981 17.9232C7.07081 17.6624 7.23919 17.3774 7.41475 17.0928C7.8975 17.6126 8.96681 18.3338 9.55575 18.7101C9.16669 18.7027 8.71937 18.6111 8.47137 19.0015C8.29687 19.2763 8.36319 19.6565 8.43831 19.9535C8.66806 20.8613 9.32069 21.6429 10.1174 22.1146ZM16.2262 7.49138C17.6374 7.60438 19.4691 8.80038 20.4829 9.71232L20.4585 9.706C20.1676 9.6325 19.8248 9.66907 19.5244 9.66957C17.8969 9.67232 16.1993 9.98432 14.6561 10.4801L13.2694 10.9921C12.6846 11.2334 12.1057 11.4921 11.55 11.7952L10.6095 12.3645C10.2487 11.7577 10.4756 11.5315 10.9007 11.039C11.7865 10.0126 12.8966 9.10419 14.0661 8.41232L14.7526 8.01769C15.2713 7.71225 15.6041 7.46207 16.2262 7.49138ZM20.4896 10.6428C21.1144 10.6851 21.7446 10.7555 22.3596 10.8738C22.7582 10.9505 23.1497 11.0609 23.5509 11.1226C22.887 12.089 22.2899 13.3538 22.1908 14.5459C21.4929 14.296 20.8099 14.0373 20.0614 13.9971C18.492 13.9126 18.1669 14.9324 18.7836 16.1876C19.5572 17.7618 21.1463 18.5488 22.8284 18.6633C22.9116 18.6689 22.9109 18.8019 22.9374 18.8667C23.141 19.3639 23.4536 19.7563 23.7631 20.1902C23.5353 20.2216 23.3116 20.2775 23.0859 20.3208L22.3906 20.4241C21.4901 20.5316 20.5951 20.5167 19.6898 20.5159C19.0294 20.5153 18.4756 20.5006 17.8227 20.4321L16.5278 20.2614C15.8296 20.1456 15.1254 19.9969 14.4466 19.7958L13.2036 19.3663C11.555 18.7586 10.0001 17.9479 8.6245 16.843L8.13037 16.4314C7.42775 15.8058 7.165 15.5544 6.63656 16.4929C5.74512 18.075 4.33312 18.9552 2.63687 19.4308L1.66894 19.6289C4.14369 16.7344 3.2875 14.6118 1.71343 11.6899C3.64912 11.9084 5.48237 13.1013 6.5275 14.7266C7.15775 15.7067 7.26644 15.8379 8.26375 15.1183L11.0383 13.2289L12.2134 12.5562C13.9944 11.6338 15.9161 11.0225 17.9059 10.7659L19.0331 10.6496C19.5129 10.6224 20.0088 10.6331 20.4896 10.6428ZM24.5386 11.5082C26.6554 12.365 29.0832 14.1845 30.548 15.9919C29.7113 16.9139 28.6942 17.7293 27.6754 18.4348C26.8343 19.0014 25.771 19.5859 24.7791 19.8556C23.855 18.8784 23.2259 17.3952 23.0862 16.0785C22.9386 14.6874 23.3699 13.3454 24.0592 12.1496C24.1838 11.9334 24.3216 11.6853 24.4941 11.5042L24.5386 11.5082ZM20.0227 14.9595C20.7381 15.0431 21.4245 15.3139 22.0901 15.5783C22.1213 15.6681 22.1084 15.8066 22.1113 15.9036L22.1432 16.3861C22.1914 16.8169 22.2938 17.2285 22.4274 17.6402L21.9348 17.5333C20.9764 17.2284 20.1224 16.6424 19.6532 15.7298C19.5504 15.5299 19.2921 15.017 19.6796 14.9594C19.7581 14.9478 19.9546 14.9323 20.0227 14.9595ZM10.5533 19.6778C11.5012 19.7134 11.8684 19.9444 12.7482 20.2479C12.5028 20.6682 11.9638 21.3138 11.4936 21.4758C10.6446 21.6034 9.60012 20.539 9.39556 19.7725C9.38581 19.7361 9.371 19.7144 9.3485 19.6848C9.44387 19.6599 9.59062 19.6779 9.692 19.6779L10.5533 19.6778ZM17.374 21.3624L20.3999 21.54C20.3699 21.5642 20.1869 21.8661 20.1413 21.928C19.7334 22.4821 19.2409 22.9802 18.7137 23.4221L17.6048 24.3137C17.5225 24.0131 17.4504 23.7269 17.3071 23.4474C17.0509 22.9475 16.6219 22.5514 16.5889 21.9582C16.5521 21.2951 16.9287 21.3536 17.374 21.3624Z" fill="#5379B2"/>
<path d="M25.8158 15.7031C26.9956 15.7231 27.6523 14.4844 26.9483 13.6403C26.718 13.3641 26.4205 13.244 26.0715 13.2096C24.4839 13.1046 24.0971 15.3921 25.8158 15.7031ZM26.0701 14.1488C26.4438 14.351 26.2591 14.7872 25.8555 14.7211C25.4683 14.5654 25.6741 14.0722 26.0701 14.1488Z" fill="#5379B2"/>
</svg>
