<svg width="333" height="228" viewBox="0 0 333 228" fill="none" xmlns="http://www.w3.org/2000/svg">
<rect width="333" height="228" rx="8" fill="#F5F5F5"/>
<path d="M186.547 86.6665C192.505 86.6665 197.48 91.642 197.234 97.6001V130.4C197.234 136.358 192.198 141.333 186.302 141.333H146.684C140.726 141.333 135.75 136.358 135.75 130.4V97.6001C135.75 91.642 140.725 86.6665 146.622 86.6665H186.547ZM146.622 92.9321C144.165 92.9321 141.954 95.0817 141.954 97.6001V130.707C141.954 133.163 144.104 135.375 146.622 135.375H186.547C189.065 135.375 190.908 133.225 190.908 130.707V97.6001C190.908 95.1433 188.758 92.9323 186.24 92.9321H146.622ZM171.62 109.455C173.156 107.55 176.289 107.858 177.21 110.069L183.782 125.424C184.704 127.574 183.168 130.092 180.957 130.092H151.658C148.833 130.092 147.604 127.329 148.832 125.118L155.773 114.184C157.002 112.341 159.827 111.973 161.056 113.877L162.284 115.413C163.513 117.317 166.338 117.317 167.566 115.413L171.62 109.455ZM180.957 97.2925C183.414 97.2925 185.625 99.5045 185.625 101.961C185.625 104.418 183.414 106.629 180.957 106.629C178.5 106.629 176.289 104.48 176.289 101.961C176.289 100.733 176.596 99.7499 177.518 98.8286C178.439 97.9073 179.729 97.2925 180.957 97.2925Z" fill="#626568"/>
</svg>
