<svg width="375" height="531" viewBox="0 0 375 531" fill="none" xmlns="http://www.w3.org/2000/svg">
<path d="M186.145 482.016C100.584 467.646 24.7408 522.427 -37.143 442.915C-79.1982 388.88 -43.1069 372.677 -60.6831 284.742C-82.6534 174.823 -64.6878 69.5212 -18.161 8.11249C47.1569 -78.0979 151.815 -7.42249 225.108 -11.6986C313.638 -16.8637 380.719 -136.828 421.663 -63.1176C462.608 10.5924 515.832 487.229 410.432 524.766C342.952 548.798 273.062 496.614 186.145 482.016Z" fill="#F0F2F8"/>
<path d="M286.167 211.444C285.342 212.12 284.225 212.601 281.991 213.563C281.185 213.91 278.151 215.214 277.873 214.597C277.781 214.391 277.655 214.274 279.069 213.434C281.106 212.223 281.965 211.656 283.683 210.522C284.198 210.183 284.856 209.741 284.767 209.469C284.697 209.257 283.62 209.606 282.804 209.866C276.915 211.745 276.383 211.814 276.325 211.698C276.208 211.467 277.906 210.368 278.589 209.944C281.276 208.279 283.443 207.617 283.328 207.181C283.264 206.937 282.457 207.212 282.06 207.343C281.444 207.547 280.986 207.699 280.494 207.914C279.904 208.172 279.489 208.416 279.383 208.475C278.047 209.221 275.781 210.041 275.666 209.831C275.453 209.439 282.562 205.247 282.401 204.967C282.32 204.826 280.483 205.816 277.267 206.892C275.893 207.352 274.663 207.763 274.558 207.555C274.295 207.033 281.407 203.13 281.2 202.733C280.966 202.285 273.875 206.233 273.427 205.477C272.99 204.74 280.456 200.893 280.241 200.482C280.027 200.074 272.657 203.767 272.425 203.327C272.196 202.894 279.109 198.896 278.854 198.405C278.601 197.919 271.838 201.89 271.377 200.898C271.072 200.24 278.235 196.972 277.922 196.262C277.859 196.119 276.324 196.927 273.685 197.74C272.649 198.059 270.23 198.805 270.087 198.484C269.838 197.926 276.633 194.516 276.467 194.179C276.283 193.807 269.791 197.177 269.418 196.498C268.955 195.655 275.673 192.524 275.46 192.097C275.246 191.669 268.575 195.17 268.274 194.406C267.89 193.431 274.669 190.411 274.427 189.91C274.185 189.412 267.376 192.43 267.157 191.971C266.937 191.512 273.516 188.026 273.331 187.649C273.143 187.267 266.163 190.539 265.928 190.079C265.694 189.619 272.368 185.85 272.161 185.452C271.956 185.057 265.234 188.37 265.026 187.971C264.819 187.571 271.401 183.864 271.154 183.371C270.903 182.87 263.819 186.131 263.619 185.721C263.419 185.309 270.361 181.655 270.152 181.222C269.944 180.789 262.81 183.996 262.586 183.534C262.374 183.097 268.931 179.578 268.729 179.176C268.524 178.767 261.587 182.125 261.164 181.371C261.043 181.157 261.52 180.68 262.101 180.098C263.017 179.182 263.94 178.616 265.901 177.571C267.141 176.911 267.76 176.582 267.977 176.494C270.842 175.333 273.752 176.102 274.376 176.278C278.079 177.322 280.11 180.362 281.632 182.617C282.22 183.488 282.92 184.88 284.321 187.665C285.554 190.117 286.293 191.588 286.935 193.113C288.874 197.719 290.487 201.532 289.441 205.803C289.21 206.746 288.537 209.5 286.167 211.441L286.167 211.444Z" fill="#E3D1B5"/>
<path d="M306.779 201.972L305.609 202.792L305.41 202.455L306.615 201.61C306.507 201.372 306.392 201.12 306.269 200.854C306.264 200.843 306.259 200.832 306.254 200.82L306.203 200.856L304.975 201.718L304.776 201.381L305.476 200.891L306.088 200.462C305.971 200.21 305.848 199.948 305.721 199.677L304.34 200.644L304.141 200.308L305.552 199.319C305.433 199.066 305.309 198.805 305.18 198.537L303.705 199.571L303.506 199.235L305.01 198.181C304.888 197.927 304.762 197.667 304.634 197.402L303.071 198.497L302.872 198.161L304.462 197.047C304.342 196.803 304.22 196.554 304.095 196.302C304.09 196.292 304.085 196.282 304.079 196.271L302.436 197.423L302.237 197.087L303.905 195.919C303.779 195.665 303.65 195.408 303.518 195.147L301.802 196.35L301.603 196.014L303.34 194.796C303.212 194.543 303.081 194.287 302.948 194.028L301.167 195.276L300.968 194.939L302.769 193.678C302.638 193.426 302.506 193.171 302.372 192.913L300.532 194.203L300.334 193.866L302.19 192.566C302.058 192.314 301.924 192.06 301.788 191.805L299.897 193.129L299.698 192.793L301.603 191.459C301.469 191.209 301.333 190.956 301.195 190.701L299.264 192.056L299.065 191.719L301.009 190.356C300.872 190.106 300.734 189.856 300.596 189.603L298.628 190.982L298.429 190.646L300.405 189.261C300.267 189.013 300.127 188.763 299.986 188.512L297.994 189.909L297.795 189.572L299.794 188.172C299.654 187.925 299.512 187.676 299.37 187.427L297.36 188.835L297.161 188.499L299.174 187.088C299.105 186.968 299.034 186.847 298.963 186.727C298.89 186.601 298.817 186.475 298.742 186.349L298.716 186.367L296.724 187.763L296.525 187.426L298.498 186.044L298.544 186.012C298.399 185.767 298.253 185.521 298.106 185.275L298.028 185.33L296.091 186.688L295.892 186.352L297.818 185.002L297.905 184.94C297.758 184.696 297.61 184.452 297.46 184.209L297.37 184.272L295.456 185.613L295.257 185.277L297.172 183.935L297.256 183.877C297.106 183.634 296.955 183.393 296.804 183.15L296.749 183.189L294.821 184.54L294.622 184.204L296.543 182.857L296.595 182.821C296.522 182.707 296.45 182.592 296.377 182.478C296.296 182.351 296.215 182.225 296.134 182.101L296.047 182.162L294.185 183.467L293.987 183.13L295.8 181.859L295.923 181.773C295.766 181.531 295.61 181.293 295.455 181.058L295.205 181.234L293.551 182.394L293.353 182.057L294.906 180.968L295.241 180.734C295.08 180.493 294.922 180.257 294.765 180.025L294.183 180.433L292.917 181.32L292.718 180.984L293.816 180.215L294.545 179.704C294.383 179.465 294.221 179.231 294.06 179.001L292.914 179.804L292.283 180.247L292.084 179.91L292.45 179.654L293.837 178.682C292.997 176.628 292.225 174.745 291.49 172.97C290.754 171.188 290.054 169.517 289.361 167.889C288.393 165.615 287.151 162.762 287.091 158.839C287.083 158.261 287.101 157.783 287.119 157.464C289.156 151.942 288.076 146.931 285.323 145.306C285.3 145.291 285.275 145.277 285.251 145.264C285.067 145.162 284.86 145.064 284.633 144.979C283.48 144.545 281.826 144.395 280.281 145.095C279.428 145.482 278.799 146.042 278.347 146.587C277.736 147.325 277.448 148.033 277.368 148.244C276.985 149.238 276.967 150.128 277.004 150.71C277.015 150.878 277.03 151.02 277.042 151.131C277.06 151.293 277.085 151.458 277.116 151.626C277.264 152.419 277.559 153.277 278.014 154.062C278.232 154.438 278.487 154.796 278.78 155.124C278.849 155.202 278.921 155.278 278.995 155.351C279.33 155.686 279.709 155.98 280.133 156.216C280.265 156.288 280.391 156.35 280.512 156.403C281.534 156.847 282.236 156.682 283.448 157.597C283.609 157.719 284.049 158.063 284.518 158.626C284.675 158.816 284.837 159.03 284.991 159.269C285.211 159.609 286.01 160.776 286.126 163.795C286.175 165.089 286.156 166.848 285.865 168.932C285.883 168.982 285.903 169.031 285.921 169.08C287.157 172.335 288.394 175.589 289.63 178.844C289.632 178.848 289.634 178.854 289.636 178.857C291.248 181.764 294.681 187.564 302.049 199.466C302.386 200.01 302.731 200.568 303.085 201.138C303.283 201.457 303.484 201.781 303.687 202.108C304.44 203.322 305.988 203.768 307.271 203.143L307.294 203.132C307.15 202.805 306.976 202.417 306.774 201.97L306.779 201.972ZM285.103 155.359C285.07 155.383 285.036 155.405 285.001 155.427C284.655 155.654 284.271 155.821 283.856 155.915C283.646 155.963 283.436 155.99 283.226 155.997C282.06 156.04 280.917 155.493 280.038 154.547C279.842 154.335 279.659 154.105 279.491 153.856C279.081 153.245 278.766 152.527 278.588 151.735C278.019 149.207 279.027 146.774 280.879 145.927C281.093 145.829 281.319 145.752 281.556 145.698C281.883 145.624 282.211 145.601 282.535 145.621C283.397 145.674 284.233 146.045 284.944 146.654C285.831 147.412 286.522 148.538 286.825 149.878C287.332 152.134 286.585 154.313 285.103 155.359Z" fill="#5379B2"/>
<path d="M306.686 193.14L291.495 172.973L289.392 170.181L285.978 169.133C285.957 169.111 285.936 169.091 285.917 169.072C284.233 168.628 281.994 167.941 279.436 166.868C277.266 165.959 276.532 165.47 276.132 165.069C276.041 164.977 275.974 164.896 275.946 164.863C275.683 164.556 275.509 164.201 275.399 163.805L275.399 163.804C275.399 163.804 275.399 163.804 275.4 163.804C275.026 162.477 275.35 160.727 275.351 159.054C275.351 158.554 275.323 158.061 275.239 157.589C275.239 157.589 275.238 157.586 275.238 157.585C275.231 157.545 275.223 157.504 275.214 157.464C275.206 157.423 275.198 157.383 275.188 157.343C275.17 157.26 275.149 157.177 275.126 157.094C275.119 157.067 275.11 157.038 275.102 157.011C275.099 157.001 275.097 156.991 275.093 156.981C275.084 156.95 275.074 156.918 275.064 156.886C275.062 156.878 275.059 156.87 275.057 156.863C275.045 156.827 275.033 156.792 275.021 156.757C275.006 156.711 274.989 156.665 274.972 156.62C274.96 156.589 274.948 156.557 274.936 156.526C274.891 156.41 274.842 156.297 274.789 156.183C274.775 156.151 274.759 156.118 274.743 156.086C274.74 156.078 274.736 156.071 274.732 156.064C274.714 156.029 274.697 155.994 274.679 155.959C274.66 155.922 274.641 155.885 274.621 155.848C274.602 155.811 274.581 155.774 274.561 155.738C274.499 155.628 274.434 155.52 274.366 155.412C274.344 155.376 274.321 155.34 274.297 155.305C274.274 155.269 274.251 155.234 274.227 155.2C274.227 155.2 274.226 155.2 274.225 155.199C274.204 155.169 274.183 155.139 274.162 155.108C274.144 155.083 274.126 155.058 274.109 155.034L274.072 154.984C274.048 154.951 274.024 154.92 273.999 154.888C273.975 154.855 273.95 154.824 273.926 154.792C273.918 154.782 273.91 154.772 273.902 154.763C273.882 154.737 273.86 154.711 273.839 154.686C273.784 154.618 273.728 154.552 273.672 154.488C273.644 154.457 273.617 154.426 273.59 154.395C273.572 154.375 273.555 154.356 273.536 154.336C273.511 154.309 273.486 154.281 273.46 154.255C273.46 154.254 273.458 154.253 273.458 154.252C273.429 154.222 273.4 154.192 273.371 154.162C273.328 154.117 273.284 154.074 273.239 154.03C273.208 153.999 273.176 153.969 273.144 153.939C273.062 153.861 272.978 153.785 272.893 153.711C272.866 153.688 272.838 153.664 272.811 153.64C272.772 153.607 272.734 153.576 272.696 153.544C272.667 153.52 272.638 153.497 272.609 153.474C272.584 153.453 272.557 153.433 272.53 153.412C272.496 153.385 272.461 153.359 272.427 153.332C272.392 153.306 272.356 153.28 272.321 153.254C272.285 153.228 272.25 153.203 272.214 153.178C272.112 153.106 272.009 153.036 271.904 152.97C271.852 152.938 271.801 152.906 271.748 152.874C271.707 152.848 271.667 152.823 271.625 152.8C271.623 152.799 271.621 152.798 271.619 152.796C271.574 152.769 271.529 152.744 271.484 152.72C271.481 152.718 271.478 152.716 271.476 152.715C271.438 152.694 271.401 152.674 271.363 152.654C271.31 152.625 271.257 152.598 271.204 152.572C271.183 152.56 271.161 152.55 271.139 152.539C271.106 152.523 271.073 152.506 271.04 152.491L271.04 152.491C271.031 152.485 271.021 152.481 271.012 152.478C271.007 152.474 271 152.472 270.993 152.468C270.976 152.46 270.958 152.452 270.942 152.445C270.925 152.438 270.908 152.429 270.892 152.422C270.792 152.378 270.692 152.336 270.591 152.295C270.552 152.279 270.512 152.265 270.473 152.25C270.45 152.241 270.427 152.233 270.404 152.225C270.372 152.213 270.34 152.201 270.308 152.191C270.298 152.186 270.288 152.183 270.278 152.18C270.229 152.163 270.181 152.147 270.132 152.132C270.086 152.117 270.041 152.104 269.995 152.09C269.974 152.083 269.952 152.077 269.929 152.072C269.904 152.064 269.88 152.057 269.855 152.05C269.832 152.045 269.809 152.039 269.787 152.033C269.766 152.027 269.746 152.021 269.724 152.017C269.698 152.01 269.672 152.004 269.646 151.998C269.527 151.969 269.406 151.944 269.285 151.923C269.067 151.884 268.847 151.857 268.628 151.843C268.565 151.838 268.502 151.835 268.436 151.834C268.366 151.832 268.295 151.83 268.223 151.831C268.168 151.831 268.111 151.832 268.055 151.834C268.029 151.833 268.002 151.835 267.976 151.836C267.945 151.837 267.914 151.838 267.883 151.84C267.862 151.841 267.841 151.843 267.819 151.843C267.803 151.844 267.788 151.845 267.77 151.847C267.741 151.849 267.71 151.851 267.681 151.854C267.654 151.856 267.625 151.858 267.597 151.861C267.565 151.865 267.533 151.867 267.5 151.872C267.47 151.875 267.439 151.878 267.408 151.882C267.361 151.887 267.313 151.894 267.267 151.901C265.862 152.101 264.333 152.753 263.441 154.082C263.385 154.164 263.333 154.25 263.283 154.338C263.082 154.687 262.945 155.042 262.854 155.392C262.506 156.726 262.838 157.973 262.966 158.454C263.205 159.353 263.62 160.122 264.105 160.77C265.37 162.462 267.113 163.327 267.474 163.501C268.651 164.065 269.605 164.203 270.503 164.282C271.771 164.393 272.926 164.386 274.435 165.297C274.734 165.477 275.008 165.67 275.262 165.871C276.197 166.613 276.832 167.459 277.25 168.123C278 168.253 279.143 168.514 280.432 169.091C280.93 169.35 281.732 169.804 282.619 170.496C284.555 172.005 285.366 173.448 287.552 176.272C288.033 176.893 288.737 177.784 289.634 178.848C289.789 179.031 289.948 179.219 290.115 179.413C290.724 179.382 291.551 179.405 292.454 179.66C292.606 179.704 292.761 179.753 292.918 179.81C293.029 179.85 293.141 179.895 293.253 179.943C293.451 180.028 293.639 180.121 293.82 180.221C293.946 180.291 294.068 180.364 294.186 180.44C294.447 180.606 294.687 180.787 294.91 180.975C295.014 181.062 295.113 181.151 295.209 181.241C295.428 181.446 295.626 181.658 295.804 181.866C295.892 181.967 295.974 182.068 296.051 182.168C296.242 182.412 296.407 182.648 296.546 182.864C296.622 182.981 296.689 183.093 296.751 183.195C296.885 183.418 296.987 183.607 297.062 183.742C297.098 183.807 297.136 183.874 297.175 183.941C297.237 184.05 297.303 184.163 297.372 184.278C297.509 184.508 297.658 184.752 297.82 185.007C297.888 185.114 297.958 185.224 298.03 185.334C298.178 185.563 298.335 185.801 298.501 186.047C298.572 186.154 298.644 186.26 298.718 186.37C298.799 186.489 298.881 186.608 298.965 186.73C300.443 188.871 302.512 191.624 305.129 194.957C306.598 196.827 308.24 198.88 310.046 201.109C310.055 201.12 310.063 201.131 310.072 201.142C310.125 201.207 310.221 201.213 310.282 201.156C310.287 201.152 310.292 201.147 310.296 201.143C311.102 200.387 311.209 199.147 310.545 198.265L306.685 193.142L306.686 193.14ZM273.086 161.53C272.268 162.469 271.019 162.865 269.694 162.733C269.38 162.702 269.063 162.642 268.747 162.553C268.742 162.551 268.737 162.55 268.733 162.548C268.704 162.54 268.673 162.531 268.644 162.522C268.61 162.512 268.577 162.502 268.544 162.491C268.517 162.482 268.49 162.473 268.464 162.464C268.434 162.454 268.404 162.444 268.373 162.433C268.343 162.423 268.313 162.411 268.283 162.4C268.253 162.39 268.224 162.378 268.194 162.366C268.153 162.35 268.111 162.333 268.069 162.315C268.038 162.302 268.005 162.288 267.974 162.274C267.925 162.253 267.877 162.231 267.829 162.208C267.794 162.192 267.758 162.175 267.723 162.157C267.718 162.154 267.712 162.151 267.706 162.149C267.686 162.139 267.665 162.129 267.645 162.118C267.626 162.108 267.606 162.098 267.587 162.088C267.569 162.079 267.553 162.07 267.536 162.06C267.482 162.032 267.429 162.003 267.376 161.972C267.356 161.961 267.336 161.949 267.315 161.937C267.289 161.921 267.262 161.906 267.236 161.89C267.203 161.87 267.17 161.85 267.137 161.829C267.108 161.811 267.08 161.793 267.052 161.774C267.016 161.751 266.981 161.727 266.945 161.703C266.868 161.651 266.79 161.596 266.714 161.538C266.686 161.518 266.659 161.497 266.631 161.476C266.604 161.455 266.576 161.433 266.549 161.412C266.515 161.385 266.481 161.357 266.448 161.33C266.4 161.29 266.352 161.251 266.305 161.209C266.254 161.165 266.204 161.119 266.155 161.074C266.132 161.053 266.11 161.033 266.089 161.012C266.085 161.008 266.08 161.004 266.076 161C266.054 160.978 266.031 160.956 266.009 160.934C265.986 160.911 265.963 160.889 265.941 160.867C265.914 160.84 265.888 160.812 265.862 160.785C265.841 160.764 265.82 160.742 265.8 160.719C265.754 160.671 265.71 160.622 265.667 160.572C265.65 160.554 265.633 160.534 265.617 160.515C265.59 160.484 265.564 160.454 265.54 160.423C265.52 160.4 265.501 160.376 265.482 160.352C265.45 160.312 265.419 160.272 265.389 160.232C265.297 160.113 265.211 159.991 265.129 159.867C265.083 159.799 265.04 159.73 264.998 159.66C264.984 159.637 264.972 159.614 264.958 159.59C264.923 159.53 264.889 159.469 264.856 159.409C264.832 159.364 264.809 159.32 264.786 159.276C264.763 159.23 264.741 159.185 264.719 159.14C264.705 159.112 264.692 159.082 264.678 159.052C264.422 158.492 264.266 157.913 264.216 157.349C264.182 156.976 264.195 156.608 264.256 156.254L264.257 156.253C264.367 155.616 264.632 155.026 265.061 154.534C265.061 154.533 265.062 154.532 265.063 154.531C265.357 154.193 265.707 153.926 266.096 153.73C266.122 153.716 266.15 153.703 266.176 153.691C266.201 153.679 266.226 153.667 266.251 153.657C266.258 153.653 266.266 153.649 266.272 153.647C266.295 153.636 266.317 153.627 266.34 153.618C266.45 153.571 266.564 153.53 266.681 153.494C266.704 153.487 266.729 153.479 266.754 153.472C266.765 153.469 266.777 153.466 266.789 153.462C266.809 153.457 266.828 153.451 266.849 153.446C266.893 153.435 266.936 153.425 266.98 153.414C267.013 153.407 267.046 153.4 267.08 153.393C267.087 153.391 267.094 153.39 267.1 153.388C267.13 153.382 267.16 153.377 267.191 153.373C267.2 153.37 267.209 153.369 267.219 153.368C267.238 153.365 267.257 153.361 267.277 153.358C267.293 153.356 267.309 153.354 267.325 153.351C267.351 153.347 267.378 153.343 267.404 153.34C267.471 153.332 267.539 153.325 267.607 153.321C267.627 153.319 267.647 153.318 267.667 153.316C267.737 153.311 267.807 153.309 267.877 153.308C267.904 153.307 267.931 153.307 267.957 153.307C268.021 153.307 268.085 153.308 268.148 153.311C268.154 153.311 268.16 153.311 268.166 153.312C268.183 153.312 268.2 153.314 268.217 153.314C268.256 153.316 268.294 153.318 268.333 153.322C268.379 153.325 268.425 153.329 268.47 153.334C268.47 153.334 268.474 153.334 268.476 153.334C268.52 153.339 268.566 153.344 268.612 153.35C268.617 153.351 268.622 153.351 268.627 153.352C268.669 153.358 268.711 153.364 268.755 153.371C268.763 153.372 268.771 153.373 268.778 153.375C268.813 153.38 268.849 153.386 268.884 153.393C268.905 153.396 268.928 153.401 268.949 153.404C268.983 153.411 269.017 153.418 269.051 153.426C269.093 153.434 269.135 153.445 269.177 153.454C269.211 153.462 269.245 153.47 269.28 153.48C269.331 153.492 269.382 153.507 269.433 153.522C269.466 153.531 269.498 153.54 269.531 153.552C269.589 153.57 269.647 153.588 269.705 153.608C269.738 153.619 269.77 153.63 269.802 153.642C269.804 153.643 269.805 153.643 269.806 153.644C269.842 153.655 269.876 153.669 269.911 153.683C269.965 153.702 270.017 153.724 270.069 153.746C270.1 153.759 270.133 153.773 270.164 153.786C270.251 153.825 270.339 153.865 270.425 153.908C270.462 153.926 270.499 153.945 270.535 153.964C270.625 154.011 270.713 154.06 270.801 154.11C270.838 154.131 270.875 154.153 270.912 154.176C270.944 154.196 270.977 154.215 271.008 154.236C271.016 154.241 271.024 154.246 271.032 154.251C271.097 154.291 271.161 154.334 271.226 154.378C271.254 154.398 271.283 154.418 271.31 154.438C271.337 154.457 271.364 154.476 271.391 154.496C271.439 154.531 271.488 154.567 271.535 154.605C271.556 154.621 271.577 154.637 271.598 154.654C271.653 154.697 271.707 154.742 271.761 154.787C271.789 154.81 271.815 154.833 271.842 154.856C271.871 154.881 271.899 154.907 271.928 154.933C271.946 154.949 271.964 154.965 271.982 154.981C272.194 155.176 272.388 155.38 272.567 155.592C272.598 155.63 272.629 155.667 272.66 155.706C272.671 155.718 272.68 155.73 272.69 155.743C272.762 155.833 272.83 155.924 272.896 156.017C272.917 156.046 272.937 156.075 272.958 156.106C272.975 156.131 272.992 156.155 273.008 156.181C273.01 156.181 273.011 156.184 273.013 156.188C273.029 156.213 273.046 156.238 273.062 156.264C273.08 156.29 273.097 156.317 273.114 156.344C273.13 156.37 273.146 156.397 273.162 156.423C273.195 156.476 273.226 156.53 273.256 156.584C273.27 156.609 273.284 156.634 273.297 156.658C273.301 156.665 273.305 156.672 273.308 156.679C273.335 156.728 273.361 156.78 273.386 156.83C273.4 156.856 273.413 156.885 273.426 156.912C273.453 156.967 273.479 157.022 273.502 157.077C273.539 157.159 273.573 157.242 273.605 157.324C273.627 157.381 273.648 157.438 273.667 157.494C273.677 157.522 273.686 157.55 273.696 157.577C273.716 157.639 273.736 157.699 273.753 157.76C273.76 157.783 273.766 157.807 273.773 157.83C273.782 157.859 273.789 157.886 273.795 157.915C273.803 157.942 273.81 157.971 273.816 157.998C273.823 158.026 273.83 158.055 273.836 158.082C273.843 158.11 273.848 158.138 273.854 158.167C273.86 158.193 273.865 158.219 273.869 158.245C273.87 158.251 273.872 158.256 273.873 158.261C273.878 158.286 273.882 158.31 273.887 158.335C273.891 158.363 273.896 158.392 273.9 158.419C273.904 158.441 273.907 158.462 273.909 158.484C273.921 158.564 273.93 158.646 273.937 158.727C273.94 158.764 273.943 158.801 273.945 158.838L273.946 158.85C273.976 159.368 273.917 159.874 273.763 160.343C273.62 160.778 273.397 161.18 273.091 161.533L273.086 161.53Z" fill="#5379B2"/>
<path d="M275.235 157.583C275.228 157.542 275.22 157.502 275.212 157.461C275.203 157.421 275.195 157.38 275.186 157.34C275.167 157.257 275.146 157.175 275.123 157.092C275.116 157.064 275.107 157.036 275.099 157.008C275.096 156.998 275.094 156.989 275.09 156.979C275.082 156.947 275.071 156.915 275.061 156.884C275.059 156.876 275.056 156.868 275.054 156.86C275.042 156.825 275.03 156.789 275.018 156.754C275.003 156.708 274.986 156.663 274.969 156.618C274.957 156.586 274.946 156.555 274.933 156.523C274.888 156.407 274.839 156.294 274.786 156.181C274.772 156.149 274.756 156.116 274.74 156.083C274.737 156.075 274.733 156.068 274.729 156.062C274.712 156.027 274.694 155.991 274.676 155.956C274.657 155.919 274.639 155.882 274.618 155.846C274.599 155.808 274.578 155.771 274.558 155.736C274.496 155.626 274.432 155.517 274.363 155.409C274.341 155.373 274.318 155.338 274.295 155.302C274.271 155.266 274.248 155.232 274.224 155.198C274.224 155.198 274.223 155.197 274.223 155.197C274.201 155.166 274.181 155.136 274.159 155.106C274.141 155.081 274.124 155.056 274.106 155.032L274.07 154.982C274.046 154.949 274.021 154.917 273.997 154.885C273.972 154.853 273.947 154.821 273.923 154.789C273.915 154.779 273.907 154.769 273.899 154.76C273.879 154.735 273.857 154.708 273.836 154.683C273.781 154.616 273.726 154.55 273.669 154.485C273.642 154.454 273.614 154.423 273.587 154.392C273.569 154.373 273.552 154.353 273.534 154.334C273.508 154.306 273.483 154.278 273.457 154.252C273.457 154.251 273.455 154.25 273.455 154.25C273.426 154.22 273.397 154.19 273.368 154.16C273.325 154.115 273.281 154.071 273.237 154.028C273.205 153.997 273.174 153.966 273.141 153.936C273.059 153.858 272.975 153.783 272.89 153.709C272.863 153.685 272.835 153.662 272.808 153.638C272.77 153.605 272.732 153.573 272.693 153.541C272.664 153.517 272.635 153.494 272.606 153.471C272.581 153.451 272.554 153.43 272.528 153.41C272.493 153.383 272.459 153.357 272.424 153.33C272.389 153.303 272.354 153.277 272.318 153.251C272.282 153.225 272.247 153.2 272.211 153.175C272.109 153.104 272.006 153.034 271.901 152.968C271.849 152.935 271.798 152.903 271.745 152.871C271.705 152.846 271.664 152.821 271.622 152.798C271.62 152.796 271.618 152.795 271.616 152.794C271.571 152.767 271.526 152.742 271.481 152.717C271.478 152.715 271.476 152.714 271.473 152.712C271.435 152.692 271.398 152.672 271.36 152.651C271.307 152.623 271.254 152.596 271.201 152.569C271.18 152.558 271.158 152.547 271.136 152.537C271.104 152.52 271.07 152.504 271.038 152.489L271.037 152.488C271.028 152.483 271.018 152.479 271.01 152.475C271.003 152.472 270.996 152.469 270.989 152.466C270.973 152.458 270.956 152.45 270.939 152.442C270.923 152.435 270.906 152.426 270.889 152.419C270.79 152.374 270.69 152.332 270.589 152.292C270.549 152.276 270.51 152.261 270.47 152.247C270.448 152.238 270.425 152.23 270.402 152.221C270.37 152.21 270.338 152.198 270.306 152.187C270.295 152.183 270.285 152.18 270.275 152.176C270.227 152.16 270.179 152.144 270.13 152.128C270.084 152.114 270.039 152.1 269.993 152.087C269.971 152.08 269.949 152.074 269.927 152.068C269.902 152.061 269.877 152.054 269.852 152.047C269.83 152.041 269.807 152.035 269.785 152.029C269.764 152.024 269.743 152.018 269.722 152.014C269.696 152.007 269.67 152.001 269.644 151.995C269.524 151.966 269.404 151.941 269.283 151.919C269.064 151.88 268.845 151.853 268.626 151.84C268.563 151.835 268.499 151.832 268.434 151.83C268.363 151.828 268.293 151.827 268.221 151.828C268.165 151.827 268.109 151.829 268.053 151.83C268.027 151.83 268 151.832 267.974 151.833C267.943 151.834 267.912 151.835 267.881 151.837C267.86 151.838 267.838 151.839 267.817 151.84C267.801 151.841 267.785 151.842 267.768 151.843C267.738 151.846 267.708 151.848 267.679 151.851C267.651 151.853 267.623 151.855 267.595 151.858C267.563 151.861 267.531 151.864 267.498 151.868C267.467 151.872 267.436 151.875 267.405 151.879C267.359 151.884 267.311 151.891 267.265 151.898C267.074 152.197 266.875 152.509 266.664 152.84C266.494 153.106 266.303 153.403 266.09 153.73C266.118 153.716 266.145 153.703 266.171 153.69C266.196 153.678 266.221 153.667 266.246 153.656C266.253 153.652 266.261 153.649 266.267 153.646C266.29 153.636 266.312 153.626 266.335 153.617C266.445 153.57 266.56 153.529 266.676 153.493C266.699 153.486 266.724 153.478 266.749 153.471C266.76 153.468 266.772 153.465 266.784 153.462C266.804 153.456 266.824 153.45 266.844 153.446C266.888 153.434 266.931 153.424 266.975 153.414C267.008 153.406 267.041 153.399 267.075 153.392C267.082 153.39 267.089 153.389 267.095 153.387C267.125 153.382 267.156 153.376 267.186 153.372C267.195 153.369 267.204 153.368 267.214 153.367C267.233 153.364 267.252 153.36 267.272 153.358C267.288 153.355 267.304 153.353 267.32 153.35C267.347 153.346 267.373 153.343 267.399 153.34C267.466 153.331 267.534 153.324 267.602 153.32C267.622 153.318 267.642 153.317 267.662 153.315C267.732 153.31 267.802 153.308 267.872 153.307C267.899 153.306 267.926 153.306 267.952 153.306C268.016 153.306 268.08 153.307 268.144 153.31C268.149 153.31 268.155 153.31 268.161 153.311C268.178 153.311 268.195 153.313 268.212 153.313C268.251 153.315 268.289 153.317 268.328 153.321C268.374 153.324 268.42 153.328 268.465 153.333C268.465 153.333 268.469 153.333 268.471 153.333C268.516 153.338 268.562 153.343 268.607 153.349C268.612 153.35 268.617 153.35 268.622 153.351C268.665 153.358 268.706 153.363 268.75 153.37C268.758 153.371 268.766 153.372 268.774 153.374C268.808 153.379 268.844 153.385 268.879 153.392C268.901 153.395 268.923 153.4 268.944 153.404C268.978 153.41 269.012 153.417 269.046 153.425C269.088 153.434 269.13 153.444 269.172 153.453C269.206 153.461 269.241 153.47 269.275 153.479C269.326 153.491 269.377 153.506 269.428 153.521C269.461 153.53 269.493 153.54 269.526 153.551C269.584 153.569 269.642 153.588 269.701 153.607C269.733 153.619 269.765 153.63 269.797 153.641C269.799 153.642 269.8 153.642 269.802 153.643C269.837 153.655 269.872 153.668 269.907 153.682C269.96 153.702 270.012 153.723 270.064 153.745C270.095 153.758 270.128 153.772 270.159 153.786C270.246 153.824 270.334 153.864 270.42 153.907C270.457 153.925 270.494 153.944 270.53 153.964C270.62 154.01 270.708 154.059 270.796 154.109C270.833 154.13 270.87 154.152 270.907 154.175C270.939 154.195 270.972 154.214 271.004 154.235C271.012 154.24 271.02 154.245 271.028 154.25C271.092 154.291 271.156 154.334 271.221 154.378C271.249 154.397 271.278 154.417 271.306 154.437C271.333 154.456 271.359 154.476 271.386 154.495C271.434 154.53 271.483 154.566 271.53 154.604C271.551 154.62 271.573 154.636 271.593 154.653C271.648 154.696 271.702 154.741 271.757 154.786C271.784 154.809 271.81 154.833 271.837 154.855C271.866 154.88 271.894 154.906 271.923 154.932C271.941 154.948 271.959 154.964 271.977 154.981C272.189 155.176 272.383 155.38 272.562 155.592C272.594 155.628 272.625 155.667 272.655 155.705C272.666 155.717 272.675 155.729 272.685 155.743C272.757 155.832 272.825 155.923 272.891 156.016C272.912 156.046 272.932 156.074 272.953 156.105C272.97 156.13 272.987 156.154 273.003 156.18C273.005 156.181 273.006 156.184 273.008 156.187C273.025 156.211 273.041 156.237 273.058 156.263C273.076 156.289 273.092 156.316 273.109 156.343C273.125 156.37 273.142 156.396 273.157 156.423C273.19 156.475 273.221 156.53 273.251 156.584C273.265 156.608 273.279 156.633 273.292 156.657C273.296 156.664 273.3 156.672 273.303 156.678C273.33 156.727 273.356 156.779 273.381 156.829C273.395 156.855 273.409 156.884 273.421 156.911C273.448 156.966 273.474 157.021 273.497 157.076C273.534 157.158 273.568 157.241 273.6 157.323C273.622 157.381 273.643 157.437 273.662 157.493C273.672 157.521 273.682 157.549 273.691 157.577C273.712 157.638 273.731 157.698 273.748 157.759C273.755 157.782 273.762 157.806 273.768 157.829C273.777 157.858 273.784 157.885 273.791 157.914C273.798 157.942 273.805 157.969 273.811 157.997C273.819 158.026 273.826 158.054 273.831 158.081C273.838 158.109 273.844 158.137 273.849 158.166C273.855 158.192 273.86 158.218 273.864 158.244C273.866 158.25 273.867 158.255 273.868 158.26C273.873 158.285 273.877 158.309 273.882 158.334C273.886 158.363 273.891 158.391 273.895 158.418C273.899 158.44 273.902 158.461 273.905 158.483C273.916 158.564 273.925 158.645 273.932 158.726C273.935 158.763 273.939 158.8 273.94 158.837L273.941 158.849C274.071 158.725 274.196 158.61 274.314 158.502C274.533 158.303 274.864 158 275.235 157.589C275.235 157.589 275.235 157.587 275.234 157.585L275.235 157.583Z" fill="#5379B2"/>
<path d="M215.879 138.495C215.879 142.374 200.915 145.519 182.456 145.519C163.998 145.519 149.033 142.374 149.033 138.495C149.033 138.464 149.034 138.433 149.035 138.402H149.033V125.836C149.086 127.682 152.531 129.36 158.123 130.607C160.97 131.243 164.374 131.766 168.171 132.144C172.502 132.575 177.345 132.816 182.455 132.816C187.566 132.816 192.406 132.575 196.737 132.144C200.634 131.758 204.118 131.215 207.01 130.557C212.263 129.363 215.567 127.783 215.857 126.043V138.245C215.872 138.328 215.879 138.412 215.879 138.496V138.495Z" fill="#FAFAFF"/>
<path d="M182.456 146.288C173.478 146.288 165.028 145.552 158.664 144.215C151.763 142.764 148.264 140.84 148.264 138.495C148.264 138.473 148.264 138.451 148.264 138.429C148.264 138.421 148.264 138.412 148.264 138.402V125.836C148.264 125.415 148.602 125.073 149.023 125.067C149.441 125.06 149.79 125.393 149.803 125.813C149.832 126.812 152.073 128.47 158.292 129.857C161.141 130.493 164.491 131.004 168.249 131.379C172.707 131.823 177.487 132.047 182.456 132.047C187.426 132.047 192.206 131.823 196.662 131.379C200.513 130.997 203.937 130.467 206.841 129.807C212.673 128.482 214.93 126.929 215.099 125.917C215.165 125.522 215.522 125.245 215.921 125.277C216.32 125.31 216.627 125.643 216.627 126.044V138.188C216.641 138.29 216.648 138.394 216.648 138.496C216.648 140.841 213.149 142.765 206.248 144.215C199.885 145.552 191.435 146.289 182.456 146.289L182.456 146.288ZM149.803 138.345C149.805 138.378 149.806 138.41 149.804 138.444C149.803 138.461 149.802 138.479 149.802 138.496C149.802 139.55 152.206 141.287 158.98 142.71C165.242 144.026 173.58 144.751 182.456 144.751C191.331 144.751 199.669 144.026 205.931 142.71C212.705 141.287 215.109 139.55 215.109 138.496C215.109 138.456 215.106 138.414 215.099 138.373C215.092 138.331 215.088 138.288 215.088 138.245V128.311C213.562 129.455 210.919 130.457 207.182 131.306C204.216 131.981 200.727 132.519 196.814 132.909C192.307 133.357 187.476 133.585 182.456 133.585C177.435 133.585 172.604 133.357 168.095 132.909C164.276 132.529 160.865 132.007 157.955 131.357C154.08 130.493 151.356 129.469 149.802 128.297V138.345H149.803Z" fill="#5379B2"/>
<path d="M215.879 125.792C215.879 125.876 215.872 125.959 215.857 126.043C215.567 127.783 212.264 129.363 207.01 130.557C200.915 129.197 192.269 128.348 182.678 128.348C173.087 128.348 164.229 129.218 158.123 130.607C152.531 129.36 149.086 127.682 149.033 125.836C149.033 125.821 149.033 125.807 149.033 125.792C149.033 121.913 163.997 118.768 182.456 118.768C200.915 118.768 215.879 121.913 215.879 125.792Z" fill="#89A2C8"/>
<path d="M158.124 131.375C158.067 131.375 158.012 131.369 157.956 131.357C151.59 129.938 148.33 128.088 148.264 125.858C148.264 125.84 148.264 125.816 148.264 125.792C148.264 123.447 151.763 121.523 158.664 120.073C165.028 118.736 173.477 118 182.456 118C191.436 118 199.885 118.736 206.249 120.073C213.149 121.524 216.649 123.448 216.649 125.792C216.649 125.917 216.638 126.044 216.617 126.17C216.273 128.233 213.099 129.961 207.183 131.306C207.072 131.332 206.956 131.332 206.845 131.306C200.606 129.915 191.798 129.116 182.68 129.116C173.561 129.116 164.553 129.933 158.295 131.356C158.238 131.369 158.181 131.375 158.124 131.375ZM182.456 119.537C173.581 119.537 165.243 120.262 158.981 121.578C152.207 123.001 149.803 124.738 149.803 125.792V125.808C149.832 126.802 152.032 128.439 158.124 129.818C164.479 128.394 173.414 127.578 182.68 127.578C191.945 127.578 200.59 128.355 207.009 129.768C212.716 128.451 214.933 126.917 215.1 125.915C215.107 125.872 215.111 125.831 215.111 125.791C215.111 124.737 212.707 123 205.932 121.577C199.67 120.261 191.333 119.536 182.457 119.536L182.456 119.537Z" fill="#F7F3ED"/>
<path d="M190.49 146.251H172.255C171.742 146.251 171.327 145.835 171.327 145.324V132.723C171.327 132.211 171.743 131.796 172.255 131.796H190.512C191.024 131.796 191.439 132.212 191.439 132.723C191.439 133.235 191.024 133.65 190.512 133.65H173.182V144.396H190.49C191.002 144.396 191.417 144.811 191.417 145.323C191.417 145.834 191.001 146.25 190.49 146.25V146.251Z" fill="#5379B2"/>
<path d="M189.95 139.748H177.524C177.108 139.748 176.771 139.411 176.771 138.996C176.771 138.58 177.108 138.243 177.524 138.243H189.95C190.365 138.243 190.702 138.58 190.702 138.996C190.702 139.411 190.365 139.748 189.95 139.748Z" fill="#5379B2"/>
<path d="M195.131 140.082C195.824 140.082 196.385 139.521 196.385 138.829C196.385 138.137 195.824 137.575 195.131 137.575C194.439 137.575 193.877 138.137 193.877 138.829C193.877 139.521 194.439 140.082 195.131 140.082Z" fill="#5379B2"/>
<path d="M200.926 139.414C201.618 139.414 202.18 138.853 202.18 138.161C202.18 137.469 201.618 136.907 200.926 136.907C200.233 136.907 199.672 137.469 199.672 138.161C199.672 138.853 200.233 139.414 200.926 139.414Z" fill="#5379B2"/>
<path d="M206.582 138.44C207.274 138.44 207.836 137.878 207.836 137.186C207.836 136.494 207.274 135.933 206.582 135.933C205.889 135.933 205.328 136.494 205.328 137.186C205.328 137.878 205.889 138.44 206.582 138.44Z" fill="#5379B2"/>
<path d="M57.3392 251.668H56.3805C56.1961 251.668 56.0324 251.577 55.9323 251.437C55.9143 251.413 55.8985 251.386 55.8846 251.357L55.8833 251.354V251.353C55.8487 251.281 55.8301 251.203 55.8301 251.118C55.8301 251.113 55.8301 251.107 55.8301 251.102C55.8384 250.806 56.0808 250.568 56.3792 250.568H56.6982L57.0083 251.102L57.3378 251.668H57.3392Z" fill="#5379B2"/>
<path d="M87.5697 251.118C87.5697 251.422 87.3239 251.668 87.02 251.668H86.062L86.3922 251.102L86.7036 250.568H87.02C87.3183 250.568 87.5614 250.806 87.569 251.102C87.569 251.107 87.569 251.113 87.569 251.118H87.5697Z" fill="#5379B2"/>
<path d="M51.5662 241.756L51.8867 242.306H50.9301C50.6262 242.306 50.3804 242.06 50.3804 241.756C50.3804 241.663 50.4039 241.574 50.4446 241.497L50.4536 241.482C50.466 241.461 50.4791 241.44 50.4936 241.421C50.5012 241.411 50.5088 241.402 50.5164 241.393C50.5247 241.384 50.533 241.376 50.5413 241.367C50.5503 241.358 50.5586 241.35 50.5675 241.342C50.5765 241.334 50.5855 241.327 50.5952 241.32C50.6048 241.313 50.6138 241.306 50.6235 241.299C50.6338 241.292 50.6449 241.285 50.6559 241.278C50.6573 241.278 50.658 241.277 50.6594 241.276C50.6684 241.271 50.6767 241.266 50.6856 241.262C50.6953 241.257 50.705 241.253 50.7147 241.249C50.7236 241.245 50.7319 241.242 50.7402 241.239C50.7492 241.235 50.7575 241.233 50.7665 241.23C50.7754 241.227 50.7837 241.224 50.7927 241.222C50.81 241.217 50.8286 241.214 50.8466 241.211C50.8555 241.21 50.8645 241.209 50.8742 241.208C50.8922 241.206 50.9101 241.205 50.9288 241.205H50.9308C51.1263 241.205 51.3079 241.309 51.406 241.478L51.5676 241.755L51.5662 241.756Z" fill="#5379B2"/>
<path d="M93.0218 241.756C93.0218 242.06 92.7753 242.305 92.4721 242.305H91.5293L91.8235 241.801L92.0114 241.478C92.1081 241.312 92.2856 241.209 92.4776 241.206H92.4879C92.4914 241.206 92.4955 241.206 92.499 241.206C92.7898 241.22 93.0211 241.461 93.0211 241.755L93.0218 241.756Z" fill="#5379B2"/>
<path d="M68.5997 272.093C68.338 272.245 68.0009 272.156 67.8483 271.894L55.9323 251.437L55.8847 251.357L55.8833 251.354V251.353L55.7369 251.102L51.3836 243.629L50.9319 242.853L46.1864 251.116L61.4514 277.274C61.6047 277.537 61.5156 277.874 61.2532 278.027C61.1662 278.078 61.0708 278.101 60.9769 278.101C60.7877 278.101 60.6033 278.004 60.501 277.829L45.0751 251.395C44.9757 251.226 44.975 251.015 45.073 250.844L50.4429 241.496L50.4519 241.481C50.4643 241.461 50.4775 241.44 50.492 241.421C50.4996 241.411 50.5072 241.402 50.5148 241.393C50.5231 241.383 50.5313 241.376 50.5396 241.367C50.5486 241.358 50.5569 241.349 50.5659 241.342C50.5749 241.334 50.5838 241.327 50.5935 241.319C50.6032 241.312 50.6121 241.305 50.6218 241.298C50.6322 241.291 50.6432 241.284 50.6543 241.278C50.6557 241.278 50.6564 241.276 50.6577 241.276C50.6667 241.271 50.675 241.266 50.684 241.262C50.6936 241.257 50.7033 241.252 50.713 241.248C50.722 241.244 50.7303 241.241 50.7385 241.238C50.7475 241.235 50.7558 241.233 50.7648 241.229C50.7738 241.227 50.7821 241.224 50.791 241.222C50.8083 241.217 50.8269 241.213 50.8449 241.211C50.8539 241.209 50.8629 241.209 50.8725 241.207C50.8905 241.205 50.9084 241.204 50.9271 241.204H50.9292C51.1246 241.204 51.3063 241.309 51.4043 241.478L51.566 241.755L51.8864 242.304L56.7003 250.568L57.0104 251.101L57.3399 251.667L68.7993 271.34C68.9527 271.603 68.8636 271.94 68.6004 272.092L68.5997 272.093Z" fill="#5379B2"/>
<path d="M98.3388 251.397L82.8618 277.764C82.7596 277.938 82.5759 278.036 82.3873 278.036C82.2927 278.036 82.1967 278.011 82.109 277.96C81.8472 277.806 81.7595 277.469 81.9135 277.207L97.2283 251.115L92.5822 243.683L91.8225 244.939L88.0963 251.102L75.5284 271.888C75.375 272.151 75.0387 272.24 74.7762 272.087C74.5138 271.933 74.4247 271.596 74.578 271.334L86.0603 251.668L86.3904 251.102L86.7019 250.568L91.5268 242.305L91.8211 241.8L92.0089 241.478C92.1056 241.311 92.2831 241.208 92.4751 241.205H92.4855C92.4889 241.205 92.4931 241.205 92.4965 241.205C92.6885 241.21 92.8647 241.313 92.9607 241.48L98.3395 250.844C98.4376 251.015 98.4362 251.225 98.3368 251.396L98.3388 251.397Z" fill="#5379B2"/>
<path d="M71.7004 296.024C64.6867 296.024 58.9805 290.32 58.9805 283.309C58.9805 276.298 64.6867 270.594 71.7004 270.594C78.7141 270.594 84.4203 276.298 84.4203 283.309C84.4203 290.32 78.7141 296.024 71.7004 296.024Z" fill="#5379B2"/>
<path d="M69.3454 282.765C69.0989 282.765 68.8482 282.709 68.6078 282.595C67.9289 282.274 67.3667 281.522 67.1029 280.581C66.6629 279.009 67.1567 277.408 68.2279 276.935C68.6624 276.743 69.1514 276.757 69.6058 276.971C70.2847 277.291 70.8469 278.043 71.1108 278.984C71.5507 280.556 71.0569 282.157 69.9857 282.63C69.7812 282.72 69.5644 282.765 69.3454 282.765Z" fill="#F0E8DB"/>
<path d="M66.3741 287.343C66.3008 287.343 66.2269 287.339 66.153 287.329C65.4389 287.242 64.7572 286.753 64.2814 285.985C63.4691 284.675 63.5133 282.985 64.3822 282.137C64.7683 281.76 65.2752 281.588 65.8112 281.654C66.5253 281.74 67.2077 282.231 67.6829 282.998C68.4951 284.308 68.4509 285.998 67.582 286.846C67.2498 287.17 66.8271 287.343 66.3741 287.343Z" fill="#F0E8DB"/>
<path d="M74.0542 282.765C73.8346 282.765 73.6184 282.72 73.414 282.63C72.3428 282.157 71.8489 280.556 72.2889 278.984C72.552 278.043 73.1149 277.291 73.7938 276.97C74.2483 276.756 74.7373 276.743 75.1717 276.935C76.2429 277.408 76.7374 279.009 76.2968 280.581C76.0337 281.522 75.4708 282.274 74.7918 282.594C74.5515 282.708 74.3008 282.765 74.0542 282.765Z" fill="#F0E8DB"/>
<path d="M77.0252 287.343C76.5721 287.343 76.1501 287.17 75.8172 286.846C74.9484 285.998 74.9042 284.308 75.7164 282.998C76.1923 282.231 76.8746 281.74 77.5881 281.653C78.1234 281.589 78.631 281.76 79.0171 282.137C79.8859 282.985 79.9301 284.675 79.1179 285.985C78.6421 286.753 77.9597 287.242 77.2462 287.329C77.1716 287.338 77.0977 287.343 77.0245 287.343H77.0252Z" fill="#F0E8DB"/>
<path d="M71.6996 289.819C70.4944 289.819 69.6179 289.444 69.0944 288.704C68.1668 287.392 68.7767 285.469 68.9079 285.097C69.2761 284.057 70.2022 282.946 71.6996 282.946C73.1969 282.946 74.1231 284.057 74.4912 285.097C74.6232 285.469 75.233 287.392 74.3048 288.704C73.7812 289.444 72.9048 289.819 71.6996 289.819Z" fill="#F0E8DB"/>
<path d="M92.4783 241.206C92.2863 241.209 92.1081 241.312 92.0121 241.479L91.8243 241.801L91.53 242.306L86.7051 250.569L86.3936 251.103L86.0635 251.669H57.3409L57.0115 251.103L56.7013 250.569L51.8874 242.306L51.567 241.756L51.4054 241.479C51.3073 241.31 51.1263 241.206 50.9302 241.206H92.479H92.4783Z" fill="#E3D1B5"/>
<path d="M56.6998 250.569L57.0099 251.103H55.737L51.3838 243.63V241.756H51.5661L51.8859 242.306L56.6998 250.569Z" fill="#5379B2"/>
<path d="M91.8235 241.801V244.94L88.0973 251.103H86.3921L86.7036 250.569L91.5292 242.306L91.8235 241.801Z" fill="#5379B2"/>
<path d="M63.0576 336.667L63.063 336.679C63.0661 336.686 63.0692 336.693 63.0722 336.7C63.0685 336.688 63.0636 336.678 63.0576 336.667Z" fill="#5379B2"/>
<path d="M63.0576 336.667L63.063 336.679C63.0661 336.686 63.0692 336.693 63.0722 336.7C63.0685 336.688 63.0636 336.678 63.0576 336.667Z" fill="#5379B2"/>
<path d="M63.0576 336.667L63.063 336.679C63.0661 336.686 63.0692 336.693 63.0722 336.7C63.0685 336.688 63.0636 336.678 63.0576 336.667Z" fill="#5379B2"/>
<path d="M94.3802 341.61C94.3633 341.578 94.3421 341.548 94.3177 341.52L94.3073 341.507L82.9431 328.376L79.796 321.34C79.7275 321.187 79.5862 321.079 79.4205 321.053C79.2551 321.026 79.0876 321.086 78.9751 321.21L76.3723 324.089L72.5717 324.076C72.4296 324.076 72.2936 324.136 72.1987 324.243L69.6782 327.08L65.9583 327.036C65.8171 327.034 65.6823 327.093 65.587 327.197L62.9127 330.11L59.1098 330.097C58.9692 330.096 58.8341 330.156 58.7404 330.261L56.1432 333.136L52.3969 333.101C52.2282 333.099 52.0701 333.184 51.9768 333.325C51.8843 333.466 51.8701 333.645 51.9388 333.799L55.0854 340.834L57.2995 358.076C57.3053 358.124 57.3193 358.171 57.3391 358.215L67.2355 380.342C67.3471 380.592 67.6404 380.704 67.8906 380.592L104.041 364.424C104.291 364.313 104.403 364.019 104.292 363.769L94.3951 341.642C94.3903 341.631 94.3857 341.621 94.3794 341.61L94.3802 341.61Z" fill="#5379B2"/>
<path d="M93.8497 368.314C93.5995 368.426 93.3064 368.314 93.1946 368.064L83.2982 345.937C83.2785 345.893 83.265 345.846 83.2592 345.797L81.0358 328.484C81.0012 328.213 81.1934 327.964 81.4649 327.929C81.7365 327.894 81.9854 328.086 82.0203 328.358L84.2342 345.599L94.1008 367.66C94.2126 367.91 94.1006 368.203 93.8505 368.314L93.8497 368.314Z" fill="#FAFAFF"/>
<path d="M78.1399 330.479L76.6303 331.154C76.3802 331.266 76.0871 331.154 75.9753 330.904C75.8634 330.654 75.9754 330.361 76.2256 330.249L77.7351 329.574C77.9853 329.462 78.2783 329.574 78.3902 329.824C78.502 330.074 78.39 330.367 78.1399 330.479ZM74.3658 332.167L72.8562 332.842C72.6061 332.954 72.313 332.842 72.2012 332.592C72.0893 332.342 72.2013 332.049 72.4515 331.937L73.961 331.262C74.2111 331.15 74.5042 331.262 74.6161 331.512C74.7279 331.762 74.6159 332.055 74.3658 332.167ZM70.5917 333.855L69.0821 334.53C68.832 334.642 68.5389 334.53 68.427 334.28C68.3152 334.03 68.4272 333.737 68.6774 333.625L70.1869 332.95C70.437 332.838 70.7301 332.95 70.842 333.2C70.9538 333.45 70.8418 333.743 70.5917 333.855ZM66.8175 335.543L65.308 336.218C65.0579 336.33 64.7648 336.218 64.6529 335.968C64.5411 335.718 64.6531 335.425 64.9032 335.313L66.4128 334.638C66.6629 334.526 66.956 334.638 67.0678 334.888C67.1797 335.138 67.0677 335.431 66.8175 335.543ZM63.0434 337.231L61.5339 337.906C61.2838 338.018 60.9907 337.906 60.8788 337.656C60.767 337.406 60.879 337.113 61.1291 337.001L62.6387 336.326C62.8888 336.214 63.1819 336.326 63.2937 336.576C63.4056 336.826 63.2936 337.119 63.0434 337.231ZM59.2693 338.919L57.7598 339.594C57.5096 339.706 57.2166 339.594 57.1047 339.344C56.9929 339.094 57.1049 338.801 57.355 338.689L58.8646 338.014C59.1147 337.902 59.4078 338.014 59.5196 338.264C59.6315 338.514 59.5195 338.807 59.2693 338.919Z" fill="#FAFAFF"/>
<path d="M80.8803 347.544L59.7447 356.997C59.4945 357.109 59.2014 356.997 59.0896 356.747C58.9778 356.497 59.0897 356.204 59.3399 356.092L80.4756 346.639C80.7257 346.527 81.0188 346.639 81.1307 346.889C81.2425 347.139 81.1305 347.432 80.8803 347.544Z" fill="#FAFAFF"/>
<path d="M72.6591 364.26C72.4153 364.369 72.1423 364.423 71.8533 364.418C71.0174 364.4 70.0984 363.885 69.3951 363.039C68.2199 361.626 67.9814 359.764 68.8515 358.802C69.1952 358.422 69.6841 358.219 70.2275 358.23C71.0634 358.247 71.9824 358.762 72.6857 359.608C73.8609 361.021 74.1 362.883 73.2293 363.846C73.068 364.024 72.8749 364.163 72.6591 364.26Z" fill="#F0E8DB"/>
<path d="M71.6716 370.568C71.5993 370.6 71.5238 370.628 71.4466 370.653C70.6855 370.888 69.7691 370.697 68.9317 370.13C67.4935 369.156 66.7575 367.407 67.2556 366.148C67.4713 365.604 67.8986 365.209 68.4574 365.036C69.2185 364.801 70.1349 364.992 70.9723 365.559C72.4105 366.533 73.1465 368.282 72.6484 369.54C72.4629 370.01 72.1209 370.367 71.6722 370.568L71.6716 370.568Z" fill="#F0E8DB"/>
<path d="M77.6879 362.011C77.4722 362.107 77.2396 362.158 76.9993 362.16C75.7009 362.166 74.4728 360.747 74.2031 358.93C74.0412 357.841 74.2699 356.813 74.8145 356.178C75.1688 355.765 75.6457 355.537 76.1581 355.534C77.4558 355.528 78.6846 356.947 78.9542 358.764C79.1161 359.853 78.8874 360.881 78.3429 361.515C78.155 361.734 77.9326 361.902 77.6882 362.011L77.6879 362.011Z" fill="#F0E8DB"/>
<path d="M83.0476 365.48C82.5989 365.681 82.1036 365.697 81.6307 365.523C80.3605 365.056 79.5474 363.341 79.7802 361.62C79.9158 360.618 80.3844 359.807 81.067 359.397C81.5689 359.095 82.1475 359.04 82.6972 359.242C83.9673 359.71 84.7802 361.424 84.5476 363.146C84.412 364.148 83.9431 364.958 83.2609 365.369C83.1915 365.411 83.1199 365.448 83.0476 365.48Z" fill="#F0E8DB"/>
<path d="M78.5425 370.668C77.3015 371.223 76.2318 371.244 75.3628 370.729C73.8081 369.809 73.5492 367.529 73.5129 367.081C73.413 365.845 73.8509 364.281 75.38 363.597C76.909 362.913 78.3668 363.629 79.2217 364.528C79.5311 364.853 81.058 366.566 80.7079 368.339C80.512 369.329 79.7835 370.113 78.5425 370.668Z" fill="#F0E8DB"/>
<path d="M306.595 242.314L312.23 277.68C312.511 279.45 314.176 280.656 315.946 280.374L318.489 279.969L319.818 288.311C319.935 289.043 320.624 289.543 321.356 289.426C321.723 289.368 322.031 289.167 322.233 288.888C322.435 288.61 322.53 288.255 322.472 287.888L321.143 279.546L323.686 279.141C325.456 278.859 326.663 277.195 326.381 275.426L320.747 240.059C320.465 238.289 318.8 237.083 317.03 237.365L314.488 237.77L314.124 235.488L311.47 235.911L311.834 238.193L309.291 238.598C307.52 238.88 306.313 240.544 306.595 242.314Z" fill="#FAFAFF"/>
<path d="M310.889 232.264L313.543 231.841L318.262 261.466L315.608 261.889L310.889 232.264Z" fill="#5379B2"/>
<path d="M322.233 259.781L324.618 274.751C324.85 276.206 323.943 277.561 322.591 277.776L316.687 278.717C315.336 278.932 314.052 277.927 313.82 276.471L311.435 261.501C311.253 260.359 311.966 259.296 313.026 259.127L319.983 258.019C321.044 257.85 322.051 258.639 322.233 259.781L322.233 259.781Z" fill="#5379B2"/>
<path d="M321.476 290.18C322.032 290.092 322.52 289.792 322.851 289.336C323.181 288.881 323.315 288.324 323.226 287.769L322.017 280.18L323.806 279.895C325.99 279.547 327.484 277.488 327.136 275.306L321.502 239.939C321.154 237.756 319.095 236.264 316.911 236.611L309.172 237.844C306.988 238.192 305.494 240.251 305.841 242.434L311.476 277.801C311.823 279.983 313.883 281.476 316.067 281.128L317.856 280.843L319.065 288.432C319.248 289.579 320.33 290.363 321.477 290.18L321.476 290.18ZM317.15 238.118C318.503 237.903 319.778 238.827 319.993 240.179L325.627 275.546C325.843 276.897 324.918 278.172 323.565 278.388L321.023 278.793C320.607 278.859 320.323 279.25 320.389 279.666L321.718 288.008C321.742 288.161 321.706 288.315 321.614 288.44C321.523 288.566 321.389 288.648 321.236 288.673C320.92 288.723 320.622 288.507 320.571 288.191L319.242 279.849C319.176 279.433 318.785 279.149 318.369 279.215L315.826 279.62C314.474 279.836 313.198 278.912 312.983 277.56L307.349 242.194C307.134 240.842 308.058 239.567 309.411 239.351L317.15 238.118Z" fill="#5379B2"/>
<path d="M315.102 230.572L309.014 231.542C308.436 231.634 308.041 232.179 308.133 232.757L308.222 233.315C308.314 233.893 308.859 234.288 309.437 234.196L315.524 233.226C316.103 233.134 316.498 232.589 316.406 232.011L316.317 231.453C316.225 230.875 315.68 230.48 315.102 230.572Z" fill="#5379B2"/>
<path d="M319.781 265.715L324.36 264.986C324.777 264.92 325.06 264.528 324.994 264.112C324.928 263.696 324.536 263.413 324.12 263.479L319.541 264.209C319.124 264.275 318.841 264.666 318.907 265.082C318.973 265.498 319.364 265.782 319.781 265.715Z" fill="#5379B2"/>
<path d="M320.593 270.814L325.173 270.085C325.589 270.018 325.873 269.627 325.807 269.211C325.74 268.795 325.349 268.511 324.933 268.578L320.353 269.307C319.937 269.374 319.653 269.765 319.719 270.181C319.786 270.597 320.177 270.88 320.593 270.814Z" fill="#5379B2"/>
<path d="M322.33 343.001L317.506 369.508C317.318 370.539 316.33 371.223 315.298 371.035L293.81 367.125C292.778 366.937 292.095 365.948 292.282 364.918L297.106 338.41C297.743 334.911 299.745 332.005 302.463 330.14C303.254 329.597 303.789 328.754 303.96 327.811L304.621 324.181L320.309 327.036L319.649 330.666C319.475 331.621 319.696 332.604 320.25 333.401C320.253 333.405 320.256 333.41 320.258 333.413C322.126 336.11 322.963 339.519 322.33 343L322.33 343.001Z" fill="#AEBED6"/>
<path d="M321.357 322.538L305.225 319.602C304.725 319.511 304.245 319.842 304.154 320.343L303.422 324.363C303.331 324.863 303.663 325.343 304.164 325.434L320.296 328.369C320.796 328.461 321.276 328.129 321.367 327.629L322.099 323.608C322.19 323.108 321.858 322.629 321.357 322.538Z" fill="#5379B2"/>
<path d="M305.736 324.908C305.505 324.866 305.351 324.645 305.393 324.413L306.001 321.072C306.043 320.841 306.265 320.688 306.496 320.73C306.728 320.772 306.881 320.993 306.839 321.224L306.231 324.566C306.189 324.796 305.967 324.95 305.736 324.908Z" fill="#FAFAFF"/>
<path d="M309.1 325.52C308.869 325.478 308.716 325.257 308.758 325.026L309.366 321.684C309.408 321.454 309.629 321.3 309.86 321.342C310.091 321.384 310.244 321.605 310.202 321.837L309.594 325.178C309.552 325.408 309.331 325.562 309.1 325.52Z" fill="#FAFAFF"/>
<path d="M312.463 326.132C312.233 326.09 312.079 325.869 312.121 325.638L312.729 322.296C312.771 322.066 312.992 321.912 313.224 321.954C313.455 321.996 313.608 322.217 313.566 322.449L312.958 325.79C312.916 326.02 312.694 326.174 312.463 326.132Z" fill="#FAFAFF"/>
<path d="M315.827 326.744C315.596 326.702 315.442 326.481 315.484 326.25L316.092 322.908C316.134 322.678 316.356 322.524 316.587 322.566C316.818 322.608 316.971 322.829 316.929 323.061L316.321 326.402C316.279 326.633 316.057 326.786 315.827 326.744Z" fill="#FAFAFF"/>
<path d="M319.19 327.356C318.96 327.314 318.806 327.093 318.848 326.862L319.456 323.521C319.498 323.29 319.719 323.136 319.951 323.178C320.182 323.22 320.335 323.442 320.293 323.673L319.685 327.014C319.643 327.245 319.422 327.398 319.19 327.356Z" fill="#FAFAFF"/>
<path d="M313.902 349.309L302.771 347.283C301.563 347.064 300.406 347.864 300.186 349.071L300.186 349.072C299.966 350.279 300.767 351.436 301.975 351.656L313.107 353.682C314.314 353.902 315.472 353.101 315.691 351.894L315.691 351.893C315.911 350.686 315.11 349.529 313.902 349.309Z" fill="#E3D1B5"/>
<path d="M309.113 356.444L311.138 345.317C311.358 344.11 310.557 342.953 309.349 342.733L309.349 342.733C308.141 342.513 306.984 343.314 306.764 344.521L304.739 355.648C304.519 356.855 305.32 358.012 306.528 358.232L306.529 358.232C307.736 358.452 308.894 357.652 309.113 356.444Z" fill="#E3D1B5"/>
<path d="M117.944 185.136L104.472 208.469C103.948 209.376 102.787 209.687 101.879 209.163L82.9645 198.243C82.0562 197.718 81.7454 196.557 82.2693 195.65L95.7406 172.317C97.5189 169.237 100.383 167.175 103.571 166.334C104.498 166.09 105.285 165.477 105.765 164.646L107.61 161.451L121.419 169.424L119.574 172.619C119.089 173.46 118.966 174.46 119.219 175.397C119.22 175.402 119.222 175.407 119.223 175.411C120.073 178.58 119.713 182.071 117.944 185.135L117.944 185.136Z" fill="#AEBED6"/>
<path d="M123.921 165.541L109.721 157.343C109.28 157.088 108.717 157.239 108.463 157.679L106.42 161.218C106.166 161.659 106.317 162.222 106.757 162.476L120.958 170.675C121.398 170.929 121.961 170.778 122.216 170.338L124.259 166.799C124.513 166.359 124.362 165.796 123.921 165.541Z" fill="#5379B2"/>
<path d="M108.415 162.511C108.212 162.394 108.142 162.133 108.259 161.93L109.957 158.989C110.074 158.786 110.335 158.715 110.538 158.833C110.742 158.951 110.812 159.211 110.694 159.414L108.996 162.355C108.879 162.558 108.619 162.628 108.415 162.511Z" fill="#FAFAFF"/>
<path d="M111.376 164.22C111.173 164.103 111.103 163.843 111.221 163.64L112.919 160.699C113.036 160.495 113.296 160.425 113.499 160.543C113.702 160.66 113.773 160.92 113.655 161.124L111.957 164.065C111.84 164.268 111.58 164.338 111.376 164.22Z" fill="#FAFAFF"/>
<path d="M114.337 165.93C114.134 165.813 114.064 165.552 114.181 165.349L115.879 162.408C115.996 162.205 116.257 162.134 116.46 162.252C116.664 162.37 116.733 162.629 116.616 162.833L114.917 165.774C114.8 165.977 114.54 166.047 114.337 165.93Z" fill="#FAFAFF"/>
<path d="M117.298 167.639C117.095 167.522 117.024 167.262 117.142 167.058L118.84 164.117C118.957 163.914 119.218 163.844 119.421 163.962C119.625 164.079 119.694 164.339 119.576 164.542L117.878 167.483C117.761 167.686 117.501 167.757 117.298 167.639Z" fill="#FAFAFF"/>
<path d="M120.258 169.349C120.055 169.231 119.985 168.971 120.102 168.768L121.801 165.826C121.918 165.623 122.178 165.553 122.382 165.671C122.585 165.788 122.655 166.048 122.537 166.252L120.839 169.193C120.722 169.396 120.462 169.466 120.258 169.349Z" fill="#FAFAFF"/>
<path d="M107.883 188.237L98.0847 182.58C97.0215 181.966 95.6623 182.33 95.0487 183.392L95.0484 183.393C94.4348 184.456 94.7993 185.815 95.8624 186.429L105.661 192.086C106.724 192.7 108.083 192.336 108.697 191.273L108.697 191.272C109.311 190.21 108.946 188.851 107.883 188.237Z" fill="#E3D1B5"/>
<path d="M100.97 193.342L106.625 183.547C107.239 182.484 106.874 181.125 105.811 180.511L105.811 180.511C104.748 179.897 103.388 180.261 102.775 181.324L97.1198 191.118C96.5062 192.181 96.8707 193.54 97.9338 194.154L97.9344 194.154C98.9975 194.768 100.357 194.404 100.97 193.342Z" fill="#E3D1B5"/>
<path d="M199.213 455.608V463.543C199.213 463.815 198.993 464.035 198.72 464.035C198.448 464.035 198.228 463.815 198.228 463.543V455.608C198.228 451.158 194.606 447.538 190.155 447.538C185.703 447.538 182.082 451.158 182.082 455.608V463.543C182.082 463.815 181.861 464.035 181.589 464.035C181.318 464.035 181.097 463.815 181.097 463.543V455.608C181.097 453.834 181.61 452.178 182.495 450.78C182.713 450.435 182.954 450.107 183.215 449.796C184.878 447.815 187.372 446.554 190.156 446.554C192.939 446.554 195.433 447.815 197.096 449.796C197.357 450.107 197.598 450.435 197.816 450.78C198.701 452.178 199.214 453.834 199.214 455.608H199.213Z" fill="#5379B2"/>
<path d="M182.081 463.543C182.081 463.814 181.861 464.035 181.589 464.035H173.401C173.673 464.035 173.894 463.815 173.894 463.543V463.051H181.589C181.861 463.051 182.081 463.271 182.081 463.543Z" fill="#5379B2"/>
<path d="M211.343 437.525V463.543C211.343 463.814 211.122 464.035 210.851 464.035H206.909C206.637 464.035 206.417 463.815 206.417 463.543V437.525H211.344H211.343Z" fill="#5379B2"/>
<path d="M206.908 464.035H198.72C198.449 464.035 198.228 463.815 198.228 463.543C198.228 463.271 198.449 463.051 198.72 463.051H206.416V463.543C206.416 463.814 206.636 464.035 206.908 464.035Z" fill="#5379B2"/>
<path d="M211.343 437.034V437.526H168.966V437.034C168.966 436.762 169.186 436.542 169.458 436.542H210.85C211.122 436.542 211.342 436.762 211.342 437.034H211.343Z" fill="#5379B2"/>
<path d="M206.416 443.169H173.894V444.153H206.416V443.169Z" fill="#5379B2"/>
<path d="M183.935 450.288C183.935 450.56 183.714 450.78 183.442 450.78H173.894V449.796H183.442C183.714 449.796 183.935 450.017 183.935 450.288Z" fill="#5379B2"/>
<path d="M182.081 456.916C182.081 457.187 181.861 457.408 181.589 457.408H173.894V456.424H181.589C181.861 456.424 182.081 456.644 182.081 456.916Z" fill="#5379B2"/>
<path d="M206.416 449.796V450.78H196.866C196.595 450.78 196.374 450.56 196.374 450.288C196.374 450.016 196.594 449.796 196.866 449.796H206.416Z" fill="#5379B2"/>
<path d="M206.416 450.78V456.424H199.213V455.608C199.213 453.834 198.7 452.178 197.815 450.78H206.416Z" fill="#D6BB8F"/>
<path d="M206.416 457.407H199.213V463.051H206.416V457.407Z" fill="#D6BB8F"/>
<path d="M206.416 456.423V457.407H198.747C198.475 457.407 198.254 457.187 198.254 456.915C198.254 456.643 198.474 456.423 198.747 456.423H206.416Z" fill="#5379B2"/>
<path d="M214.768 436.649L190.462 417.217C190.282 417.073 190.027 417.073 189.847 417.217L165.541 436.649C165.378 436.78 165.314 436.999 165.384 437.196C165.453 437.393 165.639 437.525 165.848 437.525H214.461C214.67 437.525 214.856 437.393 214.925 437.196C214.994 436.999 214.931 436.78 214.768 436.649H214.768Z" fill="#5379B2"/>
<path d="M203.415 433.11C203.307 433.11 203.198 433.075 203.107 433.002L190.155 422.647L184.832 426.903C184.619 427.073 184.31 427.038 184.139 426.826C183.97 426.614 184.004 426.304 184.217 426.134L189.848 421.632C190.028 421.489 190.283 421.489 190.463 421.632L203.723 432.233C203.935 432.403 203.97 432.713 203.8 432.925C203.703 433.047 203.56 433.11 203.415 433.11H203.415Z" fill="#FAFAFF"/>
<path d="M206.415 437.525H173.893V443.168H206.415V437.525Z" fill="#D6BB8F"/>
<path d="M206.415 444.153V449.796H197.094C195.432 447.815 192.938 446.554 190.154 446.554C187.37 446.554 184.876 447.815 183.214 449.796H173.893V444.153H206.415H206.415Z" fill="#D6BB8F"/>
<path d="M182.494 450.78C181.609 452.178 181.096 453.834 181.096 455.608V456.424H173.893V450.78H182.494Z" fill="#D6BB8F"/>
<path d="M181.096 457.407H173.893V463.05H181.096V457.407Z" fill="#D6BB8F"/>
<path d="M173.893 437.525V463.543C173.893 463.814 173.673 464.035 173.401 464.035H169.459C169.187 464.035 168.967 463.815 168.967 463.543V437.525H173.894H173.893Z" fill="#5379B2"/>
<path d="M173.893 437.034V437.526H172.909V437.034C172.909 436.762 173.129 436.542 173.401 436.542C173.673 436.542 173.893 436.762 173.893 437.034Z" fill="#5379B2"/>
<path d="M207.401 437.034V437.526H206.416V437.034C206.416 436.762 206.636 436.542 206.908 436.542C207.181 436.542 207.401 436.762 207.401 437.034Z" fill="#5379B2"/>
<path d="M275.194 414.276C268.822 408.775 262.449 403.274 256.076 397.773C256.565 397.195 257.401 396.281 258.597 395.354C261.09 393.417 262.848 393.204 265.94 391.294C266.75 390.793 267.956 389.989 269.331 388.815L282.351 400.172C282.032 400.408 281.548 400.818 281.126 401.442C280.135 402.906 280.184 404.516 280.178 404.942C280.159 406.452 279.265 409.136 275.194 414.276Z" fill="#6486B9"/>
<path d="M261.873 409.647C262.305 408.738 262.379 407.772 262.068 407.063C261.861 406.59 261.489 406.249 261.022 406.103C259.87 405.744 258.401 406.653 257.678 408.172C257.246 409.08 257.172 410.046 257.483 410.755C257.593 411.006 257.749 411.219 257.941 411.387C258.111 411.535 258.31 411.648 258.53 411.716C259.681 412.075 261.151 411.166 261.873 409.647L261.873 409.647Z" fill="#FAFAFF"/>
<path d="M256.491 410.442C256.642 409.523 256.443 408.681 255.948 408.129C255.576 407.716 255.066 407.505 254.511 407.536C253.262 407.606 252.083 408.89 251.826 410.456C251.675 411.375 251.873 412.218 252.368 412.769C252.42 412.827 252.474 412.88 252.531 412.93C252.883 413.237 253.328 413.389 253.806 413.363C254.457 413.326 255.09 412.96 255.583 412.395C256.034 411.877 256.369 411.192 256.491 410.442Z" fill="#FAFAFF"/>
<path d="M266.414 410.807C266.207 410.364 265.818 410.042 265.32 409.901C264.576 409.69 263.629 409.894 262.788 410.445C261.381 411.367 260.68 412.947 261.192 414.038C261.289 414.247 261.427 414.428 261.598 414.577C261.79 414.744 262.022 414.87 262.286 414.945C263.031 415.156 263.977 414.952 264.819 414.401C266.226 413.479 266.927 411.899 266.415 410.807L266.414 410.807Z" fill="#FAFAFF"/>
<path d="M265.877 417.452C265.834 416.898 265.555 416.421 265.095 416.109C264.788 415.901 264.419 415.776 264.016 415.739C263.613 415.7 263.175 415.748 262.73 415.886C261.212 416.353 260.101 417.695 260.202 418.943C260.24 419.42 260.451 419.84 260.803 420.147C260.86 420.196 260.92 420.242 260.984 420.286C261.597 420.702 262.46 420.784 263.349 420.51C264.867 420.043 265.978 418.7 265.878 417.453L265.877 417.452Z" fill="#FAFAFF"/>
<path d="M260.357 416.684C260.776 415.627 260.809 414.136 259.646 413.122C258.484 412.108 257.012 412.343 256.021 412.902C255.667 413.102 253.891 414.182 253.722 415.829C253.627 416.758 254.054 417.643 254.99 418.46C255.926 419.277 256.861 419.58 257.769 419.359C259.379 418.969 260.208 417.062 260.357 416.684Z" fill="#FAFAFF"/>
<path d="M287.874 391.251L277.483 382.187C276.509 381.337 274.919 381.563 273.937 382.688L268.749 388.636C268.543 388.872 268.567 389.23 268.804 389.436L281.87 400.835C282.106 401.04 282.464 401.016 282.67 400.78L287.859 394.832C288.84 393.707 288.848 392.101 287.874 391.251Z" fill="#6486B9"/>
<path d="M282.473 394.445L275.051 387.97C274.815 387.764 274.79 387.407 274.996 387.171C275.202 386.935 275.56 386.911 275.796 387.116L283.218 393.591C283.454 393.797 283.479 394.155 283.273 394.391C283.067 394.626 282.709 394.651 282.473 394.445Z" fill="#FAFAFF"/>
<path d="M273.529 417.525C273.574 417.473 273.619 417.421 273.663 417.368C273.753 417.265 273.84 417.161 273.927 417.058C273.948 417.034 273.97 417.009 273.99 416.984C274.054 416.908 274.118 416.83 274.182 416.756C274.67 416.168 275.123 415.598 275.541 415.047C275.55 415.037 275.556 415.027 275.563 415.017C275.75 414.75 275.626 414.397 275.469 414.26L275.468 414.259L275.013 413.865L272.072 411.317L272.067 411.313C271.579 410.888 271.294 410.255 271.284 409.578C271.244 407.115 270.15 404.767 268.28 403.136C266.411 401.505 264.001 400.785 261.557 401.065C260.898 401.14 260.244 400.945 259.762 400.528L256.829 397.995L256.344 397.576C256.167 397.424 255.922 397.399 255.725 397.496C255.639 397.581 255.552 397.668 255.465 397.755C254.75 398.474 254.009 399.268 253.241 400.149C247.665 406.541 240.571 415.211 238.93 418.613C238.328 419.86 238.44 421.339 239.221 422.474C239.827 423.355 242.082 425.501 245.925 428.853C249.767 432.205 252.2 434.148 253.155 434.629C253.486 434.795 253.835 434.91 254.191 434.975C254.232 434.983 254.272 434.989 254.314 434.995C254.375 435.004 254.435 435.012 254.497 435.018C254.533 435.022 254.569 435.025 254.605 435.027C254.662 435.031 254.721 435.034 254.779 435.037C254.805 435.038 254.832 435.037 254.857 435.037C254.878 435.037 254.897 435.037 254.918 435.038C254.968 435.037 255.018 435.036 255.068 435.033C255.101 435.032 255.133 435.029 255.165 435.027C255.218 435.023 255.272 435.019 255.326 435.012C255.922 434.943 256.503 434.736 257.02 434.393C260.167 432.306 267.794 424.1 273.37 417.708L273.393 417.683C273.438 417.63 273.484 417.578 273.53 417.526L273.529 417.525ZM262.788 410.445C263.629 409.894 264.576 409.69 265.32 409.901C265.818 410.042 266.206 410.364 266.414 410.807C266.926 411.9 266.225 413.478 264.818 414.401C263.977 414.952 263.029 415.156 262.285 414.944C262.021 414.87 261.789 414.744 261.597 414.577C261.426 414.428 261.289 414.247 261.191 414.038C260.68 412.946 261.38 411.367 262.787 410.445L262.788 410.445ZM261.022 406.103C261.489 406.248 261.861 406.59 262.067 407.063C262.378 407.773 262.304 408.738 261.872 409.647C261.15 411.166 259.68 412.075 258.529 411.715C258.309 411.648 258.11 411.535 257.94 411.386C257.748 411.219 257.592 411.006 257.482 410.754C257.172 410.045 257.246 409.08 257.677 408.172C258.4 406.653 259.87 405.743 261.021 406.103L261.022 406.103ZM253.805 413.362C253.327 413.389 252.882 413.237 252.53 412.93C252.473 412.88 252.419 412.826 252.367 412.769C251.872 412.218 251.674 411.375 251.825 410.456C252.082 408.889 253.261 407.606 254.51 407.536C255.065 407.504 255.575 407.715 255.947 408.129C256.443 408.68 256.64 409.523 256.49 410.441C256.367 411.191 256.033 411.877 255.581 412.395C255.089 412.959 254.456 413.325 253.805 413.362ZM257.769 419.359C256.861 419.58 255.926 419.277 254.99 418.46C254.053 417.643 253.627 416.759 253.722 415.829C253.89 414.182 255.667 413.101 256.021 412.902C257.011 412.343 258.483 412.108 259.646 413.122C260.809 414.136 260.776 415.626 260.357 416.684C260.207 417.062 259.378 418.969 257.769 419.359ZM263.349 420.509C262.46 420.783 261.598 420.701 260.984 420.285C260.92 420.241 260.859 420.195 260.802 420.146C260.451 419.839 260.24 419.419 260.201 418.942C260.101 417.694 261.212 416.352 262.73 415.885C263.174 415.747 263.613 415.699 264.016 415.738C264.419 415.775 264.787 415.9 265.094 416.109C265.554 416.421 265.833 416.898 265.877 417.451C265.977 418.699 264.866 420.041 263.348 420.508L263.349 420.509Z" fill="#D6BB8F"/>
<path d="M255.725 397.495C255.639 397.58 255.552 397.667 255.465 397.754C255.486 397.711 255.512 397.671 255.545 397.634C255.597 397.574 255.658 397.527 255.725 397.495Z" fill="#6486B9"/>
<path d="M269.603 389.38C269.478 389.525 269.346 389.661 269.209 389.789C268.339 390.604 267.25 391.121 265.92 391.753C263.653 392.828 260.701 394.229 256.829 397.995L256.343 397.576C256.166 397.423 255.921 397.399 255.724 397.495C259.916 393.347 263.163 391.806 265.434 390.729C266.91 390.028 267.976 389.522 268.749 388.636C268.954 388.4 269.312 388.376 269.549 388.582C269.785 388.788 269.809 389.146 269.603 389.381L269.603 389.38Z" fill="#6486B9"/>
<path d="M275.563 415.016C275.751 414.749 275.626 414.396 275.47 414.259L275.468 414.258L275.013 413.864C278.221 409.514 279.208 406.398 279.967 404.005C280.412 402.601 280.775 401.452 281.465 400.48C281.574 400.326 281.69 400.178 281.817 400.033C282.022 399.798 282.38 399.773 282.617 399.979C282.853 400.185 282.877 400.543 282.671 400.779C281.898 401.665 281.541 402.79 281.048 404.347C280.281 406.765 279.183 410.233 275.564 415.015L275.563 415.016Z" fill="#6486B9"/>
<path d="M278.948 417.781L277.6 419.326L281.62 422.832L282.968 421.287L278.948 417.781Z" fill="#D6BB8F"/>
<path d="M293.519 430.15L292.754 430.049C292.38 430 292.047 429.842 291.782 429.611C291.33 429.216 291.077 428.611 291.161 427.973L291.514 425.293C291.55 425.024 291.448 424.756 291.243 424.578L286.213 420.189L284.639 421.993C284.433 422.229 284.076 422.254 283.839 422.048L278.076 417.021C277.841 416.815 277.815 416.457 278.021 416.221L284.109 409.242C284.314 409.007 284.673 408.982 284.909 409.188L290.672 414.215C290.908 414.421 290.932 414.779 290.727 415.015L289.152 416.819L294.802 421.748C295.751 422.576 296.22 423.815 296.056 425.064L295.596 428.558C295.463 429.57 294.532 430.284 293.52 430.151L293.519 430.15Z" fill="#6486B9"/>
<path d="M292.113 432.268C292.171 432.058 292.103 431.835 291.939 431.691C291.775 431.548 291.544 431.512 291.344 431.597C290.536 431.942 286.46 433.711 285.607 434.689C284.592 435.852 284.712 437.626 285.877 438.642C287.042 439.658 288.815 439.537 289.831 438.373C290.684 437.395 291.883 433.116 292.114 432.269L292.113 432.268Z" fill="#D6BB8F"/>
<path d="M283.997 431.986L270.444 447.522C269.763 448.303 268.573 448.384 267.792 447.703L254.835 436.4C254.413 436.032 254.187 435.508 254.19 434.974C254.231 434.982 254.271 434.988 254.313 434.993C254.373 435.003 254.434 435.011 254.496 435.017C254.531 435.021 254.567 435.023 254.604 435.026C254.661 435.03 254.719 435.033 254.778 435.035C254.804 435.037 254.83 435.037 254.856 435.036C254.876 435.036 254.896 435.036 254.916 435.037C254.967 435.036 255.016 435.035 255.067 435.032C255.1 435.031 255.132 435.028 255.164 435.026C255.217 435.022 255.271 435.017 255.324 435.011C255.921 434.942 256.502 434.735 257.018 434.392C260.165 432.305 267.793 424.099 273.369 417.707L273.392 417.682C273.437 417.629 273.483 417.577 273.529 417.524C273.574 417.473 273.619 417.421 273.663 417.368C273.753 417.265 273.84 417.161 273.927 417.058C273.948 417.034 273.97 417.009 273.99 416.984C274.054 416.908 274.118 416.83 274.182 416.755C274.747 416.978 275.274 417.297 275.737 417.7L283.483 424.458C284.21 425.092 284.723 425.881 285.017 426.732C285.619 428.481 285.298 430.496 283.998 431.986L283.997 431.986Z" fill="#6486B9"/>
<path d="M97.5953 411.448L111.115 406.064L137.347 432.296L131.907 445.958C131.848 446.104 131.802 446.256 131.772 446.411C131.734 446.616 131.653 446.784 131.527 446.909C129.83 448.607 120.613 442.142 110.94 432.47C101.268 422.798 94.8033 413.581 96.501 411.883C96.6137 411.771 96.759 411.694 96.9358 411.652C97.1598 411.598 97.3807 411.533 97.5945 411.448L97.5953 411.448Z" fill="#5379B2"/>
<path d="M121.157 422.253C128.401 429.497 135.649 433.993 137.347 432.295C139.044 430.598 134.548 423.349 127.305 416.106C120.061 408.862 112.813 404.366 111.115 406.064C109.418 407.761 113.913 415.01 121.157 422.253Z" fill="#5379B2"/>
<path d="M113.544 408.493C113.173 408.864 113.165 409.561 113.466 410.496C113.717 411.275 114.183 412.22 114.833 413.28C115.448 414.284 116.227 415.391 117.144 416.557C117.522 417.039 117.924 417.53 118.347 418.028C118.372 418.058 118.398 418.088 118.424 418.119C118.461 418.162 118.498 418.206 118.536 418.249C118.579 418.299 118.622 418.35 118.665 418.4C118.826 418.586 118.99 418.773 119.157 418.961C119.952 419.858 120.812 420.771 121.725 421.684C122.082 422.041 122.439 422.39 122.794 422.729C122.892 422.822 122.989 422.915 123.086 423.006C124.49 424.33 125.875 425.514 127.177 426.519C128.841 427.803 130.372 428.796 131.642 429.418C132.828 429.999 133.786 430.256 134.411 430.125C134.617 430.082 134.787 429.996 134.917 429.866C135.246 429.537 135.29 428.95 135.084 428.169C134.901 427.473 134.521 426.621 133.971 425.658C133.899 425.531 133.823 425.403 133.745 425.273C133.081 424.164 132.208 422.922 131.164 421.609C131.147 421.587 131.13 421.566 131.113 421.545C130.513 420.793 129.858 420.017 129.154 419.23C129.119 419.191 129.083 419.152 129.048 419.113C129.005 419.064 128.961 419.016 128.917 418.967C128.231 418.21 127.502 417.442 126.734 416.675C126.195 416.135 125.655 415.614 125.119 415.114C124.922 414.931 124.726 414.75 124.531 414.572C124.351 414.409 124.172 414.248 123.994 414.09C123.923 414.028 123.853 413.966 123.783 413.904C123.286 413.468 122.795 413.051 122.312 412.656C121.879 412.303 121.453 411.967 121.036 411.651L120.994 411.618C120.948 411.584 120.902 411.549 120.857 411.515C120.146 410.981 119.462 410.502 118.815 410.086C118.213 409.698 117.643 409.365 117.115 409.091C116.997 409.03 116.881 408.972 116.768 408.917C115.216 408.164 114.062 407.973 113.543 408.492L113.544 408.493Z" fill="#C0CCDD"/>
<path d="M109.097 413.128L104.373 417.852C106.468 421.276 109.535 425.552 113.903 429.85C117.943 433.825 121.928 436.672 125.188 438.666L129.912 433.942C126.782 432.276 122.541 428.977 118.302 424.738C114.062 420.498 110.764 416.257 109.097 413.128Z" fill="#FAFAFF"/>
<path d="M118.417 438.01C118.216 437.81 118.195 437.486 118.377 437.261C118.572 437.02 118.926 436.982 119.166 437.178C121.469 439.04 123.903 440.783 126.402 442.359C127.506 443.055 128.644 443.733 129.784 444.371C130.054 444.523 130.151 444.865 129.999 445.135C129.848 445.406 129.505 445.502 129.235 445.35C128.078 444.703 126.924 444.015 125.802 443.308C123.267 441.709 120.797 439.94 118.46 438.051C118.444 438.038 118.429 438.025 118.416 438.011L118.417 438.01Z" fill="#FAFAFF"/>
<mask id="mask0_328_1877" style="mask-type:alpha" maskUnits="userSpaceOnUse" x="113" y="191" width="155" height="212">
<path d="M267.195 296.785C264.891 354.399 233.203 402.218 188.922 402.218C146.307 402.218 113.368 352.066 113.368 296.785C113.368 238.557 146.307 191.353 188.922 191.353C231.537 191.353 267.195 238.557 267.195 296.785Z" fill="#D9D9D9"/>
</mask>
<g mask="url(#mask0_328_1877)">
<path d="M124.895 405.315C130.949 387.793 135.859 375.12 139.746 361.463C146.082 339.198 145.186 313.737 144.136 290.608C151.534 288.867 156.034 288.823 160.541 288.767C187.622 290.033 215.444 286.733 242.188 279.456C211.668 321.306 235.266 365.92 235.437 368.491C233.121 379.621 235.697 394.173 238.39 405.315H124.889H124.895Z" fill="#36454D"/>
<path d="M207.56 355.299C216.08 360.026 228.941 365.03 239.125 368.491C248.751 345.086 253.368 320.797 253.368 301.788C253.368 299.063 253.097 295.137 251.787 291.289C250.454 287.429 248.088 283.642 243.858 281.22C242.581 280.474 241.132 279.866 239.501 279.412C239.153 279.783 238.821 280.159 238.473 280.546C231.185 288.861 224.805 301.495 219.514 310.945C219.447 311.542 219.375 312.122 219.309 312.686C217.114 330.412 214.443 338.557 207.554 355.293L207.56 355.299Z" fill="#568F8F"/>
<path d="M219.314 312.686C225.208 309.645 230.118 304.802 235.232 300.467C240.087 296.359 245.665 292.494 251.792 291.283C250.459 287.424 248.093 283.636 243.863 281.215C242.121 280.64 240.286 280.369 238.478 280.546C231.19 288.861 224.81 301.495 219.519 310.944C219.452 311.542 219.38 312.122 219.314 312.686Z" fill="#496969"/>
<path d="M145.092 283.001C154.276 306.195 185.819 344.158 186.793 343.312C206.476 326.409 229.294 308.628 248.48 282.326C241.514 273.391 233.491 266.502 226.43 260.038C227.719 237.33 227.232 226.029 223.329 216.53C219.585 207.446 213.454 200.374 205.774 196.078C198.287 191.87 189.325 190.306 179.699 192.064C159.971 195.674 150.455 211.239 150.455 227.793C150.455 231.359 150.815 235.285 151.567 239.42C153.32 248.798 157.201 259.209 163.941 268.63C156.189 273.225 151.008 279.49 145.092 282.989V283.001Z" fill="#C96565"/>
<path d="M214.62 250.788C216.406 261.299 211.353 272.645 202.357 278.367C193.361 284.09 180.943 283.83 172.185 277.753C163.427 271.677 158.849 260.138 161.055 249.699C178.377 250.672 195.75 250.81 214.62 250.794V250.788Z" fill="#A64848"/>
<path d="M150.461 227.804C150.461 231.37 150.82 235.296 151.572 239.431C151.639 233.244 152.839 227.091 155.227 221.39C159.706 210.697 168.42 201.773 179.157 197.427C187.55 194.032 197.11 193.546 205.774 196.084C198.288 191.876 189.325 190.311 179.699 192.069C159.971 195.68 150.456 211.244 150.456 227.798L150.461 227.804Z" fill="#A64848"/>
<path d="M217.866 248.687C220.276 240.653 221.432 232.238 221.261 223.856C221.996 228.042 222.742 232.26 222.538 236.501C222.344 240.742 221.111 245.055 217.866 248.687Z" fill="#A64848"/>
<path d="M157.76 244.374C157.976 245.37 158.224 246.376 158.506 247.415C159.231 250.064 160.182 252.845 161.393 255.764C169.913 276.377 181.408 281.342 196.043 277.234C208.998 273.601 216.744 262.515 216.827 246.663C216.849 243.169 216.49 239.448 215.743 235.522C215.428 233.891 215.063 232.233 214.61 230.535C208.152 206.135 186.566 203.421 172.174 210.691C160.298 216.674 154.21 227.765 157.76 244.38V244.374Z" fill="#F3CAB9"/>
<path opacity="0.32" d="M157.76 244.374C157.727 239.238 157.998 234.112 159.309 229.158C161.139 222.247 165.313 215.618 171.754 212.527C176.587 210.21 182.276 210.105 187.446 211.476C192.616 212.848 197.321 215.618 201.578 218.852C207.494 223.331 212.758 229.02 215.744 235.517C216.49 239.442 216.85 243.164 216.827 246.658C204.575 235.13 191.056 225.178 174.641 221.893C167.049 226.61 160.658 238.204 158.507 247.415" fill="#E78972"/>
<path d="M176.77 254.907C173.253 252.779 168.399 253.143 165.413 255.654C166.27 253.575 168.321 252.043 170.55 251.816C172.789 251.601 175.1 252.69 176.77 254.907Z" fill="#283445"/>
<path d="M163.179 246.404C164.13 244.391 166.054 242.887 168.216 242.445C170.378 242.002 172.739 242.638 174.641 244.435C173.983 243.053 173.27 241.654 172.208 240.554C171.136 239.448 169.654 238.663 168.133 238.779C166.381 238.917 164.888 240.239 164.058 241.787C163.224 243.335 162.914 245.115 163.185 246.404H163.179Z" fill="#762105"/>
<path d="M194.021 251.789C196.553 248.554 201.225 247.183 204.913 248.472C203.376 246.829 200.91 246.127 198.748 246.708C196.575 247.283 194.789 249.118 194.021 251.789Z" fill="#283445"/>
<path d="M204.133 239.039C202.292 237.546 199.709 237.004 197.354 237.601C194.999 238.21 192.931 239.935 191.831 242.578C191.875 240.924 191.958 239.238 192.544 237.657C193.119 236.075 194.252 234.616 195.834 234.013C197.642 233.322 199.704 233.886 201.23 234.986C202.756 236.092 203.834 237.679 204.138 239.039H204.133Z" fill="#762105"/>
<path d="M183.66 258.689C183.715 258.689 183.776 258.684 183.831 258.661C184.113 258.567 184.268 258.258 184.174 257.976C183.77 256.771 183.599 255.51 183.66 254.238C183.676 253.94 183.444 253.685 183.145 253.674C182.858 253.669 182.592 253.89 182.581 254.188C182.515 255.598 182.703 256.986 183.145 258.324C183.223 258.551 183.433 258.695 183.66 258.695V258.689Z" fill="#AD3F37"/>
<path d="M181.132 263.339C185.124 262.477 191.04 260.237 194.22 258.159C195.895 259.585 196.326 262.084 195.453 264.075C194.579 266.065 192.489 267.331 190.338 268.044C186.402 269.355 182.15 268.194 181.132 263.339Z" fill="#FAFAFF"/>
<path d="M219.293 251.999C209.572 234.406 193.146 220.223 172.705 215.391C163.891 225.255 158.279 239.896 159.717 252.397C153.303 242.837 152.026 229.977 156.648 219.433C161.265 208.889 171.715 201.071 183.155 199.816C194.594 198.561 206.592 204.034 212.962 213.627C219.707 223.751 219.917 236.794 219.298 251.999H219.293Z" fill="#C96565"/>
<path d="M139.524 294.507C134.808 316.977 129.141 348.968 132.928 357.715C136.467 365.926 170.951 375.861 189.413 382.524C196.098 375.137 198.486 363.902 199.47 353.618C178.405 334.637 158.113 319.896 139.524 294.507Z" fill="#496969"/>
<path d="M210.966 334.338C207.256 342.643 198.951 348.492 189.983 349.996C181.02 351.5 171.599 348.901 164.157 343.682C156.715 338.457 151.18 330.783 147.752 322.367C144.313 313.952 142.897 304.818 142.162 296.055C149.494 294.733 156.599 292.229 163.814 289.785C170.045 298.111 178.25 304.956 187.241 309.38C190.033 306.317 194.517 304.923 198.553 305.863C202.589 306.803 205.995 310.049 207.433 314.19C207.024 310.806 207.671 307.301 209.279 304.293C209.982 302.972 211.237 301.6 212.685 301.927C213.863 302.186 214.665 303.397 214.936 304.586C216.644 312.211 217.23 323.186 217.23 330.357C217.241 337.948 210.723 336.793 210.971 334.338H210.966Z" fill="#EA9C69"/>
<path d="M216.086 325.309C215.964 321.953 215.378 319.255 214.787 319.277C214.195 319.299 213.803 322.036 213.93 325.392C214.051 328.748 214.637 331.446 215.229 331.424C215.821 331.402 216.213 328.665 216.086 325.309Z" fill="#B3673D"/>
<path d="M212.702 313.88C212.647 312.387 212.243 311.193 211.795 311.21C211.347 311.226 211.027 312.448 211.082 313.941C211.137 315.434 211.541 316.628 211.989 316.612C212.437 316.595 212.757 315.373 212.702 313.88Z" fill="#B3673D"/>
<path d="M214.665 309.838C214.609 308.346 214.206 307.151 213.758 307.168C213.31 307.184 212.989 308.406 213.045 309.899C213.1 311.392 213.504 312.586 213.952 312.57C214.399 312.553 214.72 311.331 214.665 309.838Z" fill="#B3673D"/>
<path d="M215.842 313.891C215.787 312.398 215.56 311.199 215.334 311.204C215.107 311.21 214.969 312.426 215.024 313.919C215.079 315.412 215.306 316.612 215.533 316.606C215.759 316.601 215.897 315.384 215.842 313.891Z" fill="#B3673D"/>
<path d="M180.047 314.384C183.995 321.135 185.035 329.251 189.032 335.969C189.646 336.997 190.298 338.048 190.525 339.215C190.763 340.392 190.481 341.747 189.541 342.482C188.081 343.605 185.975 342.742 184.448 341.714C177.742 337.202 173.059 329.799 171.859 321.804C171.499 319.404 171.494 316.772 172.832 314.743C174.164 312.719 178.101 311.066 180.047 314.384Z" fill="#DD804C"/>
<path d="M185.41 331.678C184.177 328.223 182.502 325.668 181.661 325.967C180.821 326.266 181.141 329.307 182.374 332.762C183.607 336.218 185.283 338.772 186.123 338.474C186.964 338.175 186.643 335.134 185.41 331.678Z" fill="#B3673D"/>
<path d="M178.328 321.709C177.952 320.659 177.249 319.946 176.752 320.123C176.254 320.3 176.16 321.295 176.536 322.345C176.912 323.396 177.614 324.109 178.112 323.932C178.61 323.755 178.704 322.76 178.328 321.709Z" fill="#B3673D"/>
<path d="M179.936 318.287C179.56 317.237 178.858 316.523 178.36 316.7C177.863 316.877 177.769 317.873 178.145 318.923C178.521 319.974 179.223 320.687 179.72 320.51C180.218 320.333 180.312 319.338 179.936 318.287Z" fill="#B3673D"/>
<path d="M182.48 321.184C182.104 320.134 181.518 319.382 181.169 319.504C180.821 319.625 180.843 320.582 181.219 321.632C181.595 322.683 182.181 323.435 182.529 323.313C182.878 323.186 182.856 322.235 182.48 321.184Z" fill="#B3673D"/>
<path d="M151.672 308.711C151.943 306.604 153.458 302.872 154.387 301.219C155.045 300.052 156.206 299.068 157.544 299.035C159.999 299.737 161.978 301.534 163.35 303.619C164.721 305.714 165.556 308.108 166.313 310.497C166.673 311.619 166.993 312.918 166.368 313.903C165.711 314.931 164.24 315.158 163.09 314.76C161.945 314.35 160.215 312.111 159.402 311.448C159.402 314.4 160.104 318.702 159.855 321.643C159.778 322.489 159.684 323.385 159.175 324.065C158.578 324.867 157.5 325.198 156.505 325.138C155.509 325.071 154.569 324.662 153.674 324.198C151.888 323.269 150.213 322.13 148.687 320.803" fill="#DD804C"/>
<path d="M165.655 292.942C168.348 294.457 171.256 297.581 174.004 296.563C175.044 296.176 175.635 290.896 176.719 288.159C177.045 287.346 177.443 286.473 178.256 286.113C179.119 285.737 180.125 286.124 180.971 286.567C184.034 288.176 186.671 290.581 188.584 293.456C189.286 294.518 189.906 295.856 189.397 297.022C188.911 298.134 187.506 298.62 186.295 298.438C185.084 298.255 184.023 297.575 182.779 296.923C182.668 298.504 182.928 300.091 182.906 301.672C182.873 303.265 182.486 304.94 181.314 306.018C180.103 307.129 178.35 307.351 176.708 307.522" fill="#EA9C69"/>
<path d="M161.243 265.507C159.59 255.847 153.878 246.852 145.679 240.991C139.458 248.964 136.445 258.595 136.943 268.642C144.739 267.464 152.535 266.286 161.243 265.507Z" fill="#EA9C69"/>
<path d="M148.349 247.421C148.963 247.83 149.56 248.284 150.146 248.754C155.283 252.817 158.854 258.529 159.999 264.589C158.583 264.462 157.168 264.384 155.725 264.373C151.186 264.329 146.574 264.937 142.002 266.679C141.582 259.673 143.788 252.967 148.349 247.427V247.421Z" fill="#DB8C9F"/>
<path d="M148.349 247.421C148.963 247.83 149.56 248.284 150.146 248.754C149.82 248.864 149.521 249.047 149.284 249.273C148.515 250.009 146.928 253.785 147.951 257.351C148.753 260.132 151.13 262.294 153.823 263.583C154.437 263.876 155.078 264.135 155.725 264.362C151.186 264.318 146.574 264.926 142.002 266.668C141.582 259.674 143.788 252.967 148.349 247.427V247.421Z" fill="#C96387"/>
<path d="M125.403 286.008C126.017 288.552 127.167 290.841 128.721 292.831C128.728 292.853 128.736 292.861 128.743 292.853C133.824 299.356 143.257 302.535 152.805 300.196C159.219 298.626 164.444 294.877 167.645 290.128C170.664 285.638 171.875 280.264 170.587 274.989C167.927 264.108 155.664 257.76 143.196 260.801C130.717 263.853 122.755 275.133 125.403 286.008Z" fill="#EA9C69"/>
<path d="M128.743 292.853C133.824 299.355 143.256 302.535 152.805 300.196C159.219 298.626 164.444 294.877 167.645 290.127C162.962 293.915 157.588 296.768 151.727 298.012C143.787 299.687 134.93 298.001 128.748 292.853H128.743Z" fill="#DD804C"/>
<path d="M127.869 290.216C119.294 287.783 111.647 281.541 107.03 273.203C114.743 267.967 123.684 265.938 132.713 267.287C131.004 274.629 129.296 281.972 127.869 290.216Z" fill="#EA9C69"/>
<path d="M112.609 276.321C112.935 276.946 113.289 277.554 113.659 278.151C116.905 283.421 121.759 287.324 127.134 288.944C127.134 287.584 127.189 286.218 127.294 284.847C127.631 280.512 128.56 276.161 130.506 271.948C124.225 270.942 117.983 272.456 112.609 276.327V276.321Z" fill="#DB8C9F"/>
<path d="M112.609 276.321C112.935 276.946 113.289 277.554 113.659 278.152C113.787 277.847 113.975 277.577 114.201 277.372C114.926 276.703 118.464 275.514 121.599 276.808C124.043 277.814 125.796 280.28 126.736 282.962C126.951 283.576 127.123 284.206 127.289 284.842C127.626 280.507 128.555 276.156 130.501 271.942C124.231 270.936 117.989 272.451 112.614 276.321H112.609Z" fill="#C96387"/>
<path d="M150.461 287.739C147.044 286.257 142.903 286.561 139.735 288.53C141.084 286.971 143.108 286.02 145.175 285.964C147.243 285.909 149.317 286.744 150.461 287.739Z" fill="#805539"/>
<path d="M161.514 283.001C161.481 279.822 163.753 276.758 166.8 275.874C165.036 275.57 163.123 276.338 162.062 277.776C160.978 279.213 160.807 281.259 161.509 283.001H161.514Z" fill="#805539"/>
<path d="M163.565 286.788C163.576 287.546 163.488 288.347 163.023 288.939C162.57 289.547 161.813 289.785 160.967 289.403C160.591 290.509 159.606 291.383 158.468 291.654C157.334 291.913 155.902 291.609 155.128 290.758C155.885 291.853 157.096 292.4 158.318 292.422C158.998 292.433 159.667 292.162 160.159 291.698C160.646 291.233 160.95 290.575 161.099 289.934C161.464 290.454 162.277 290.509 162.819 290.161C163.361 289.812 163.643 289.177 163.748 288.552C163.858 287.927 163.803 287.241 163.565 286.788Z" fill="#805539"/>
<path d="M160.928 289.89C161.066 288.806 160.668 287.833 160.115 286.904C160.895 287.706 161.381 288.762 160.928 289.89Z" fill="#805539"/>
<path d="M161.63 284.98C161.154 284.311 159.783 284.46 158.561 285.328C157.339 286.191 156.731 287.435 157.212 288.109C157.688 288.778 160.552 287.496 160.552 287.496C160.552 287.496 162.111 285.655 161.635 284.986L161.63 284.98Z" fill="#DB8C9F"/>
<path d="M198.409 356.985C200.549 361.364 202.711 365.787 204.121 370.609C205.525 375.43 206.167 380.732 205.171 385.703C203.28 395.163 195.418 401.793 187.545 401.881C185.51 401.903 183.055 401.124 182.508 398.713C182.076 396.844 183.083 394.876 184.354 393.737C185.632 392.603 187.158 391.984 188.496 390.967C192.239 388.103 193.947 382.209 193.632 376.779C193.317 371.338 191.304 366.279 189.015 361.629C192.184 359.694 195.363 357.792 198.415 356.979L198.409 356.985Z" fill="#EA9C69"/>
<path d="M140.576 315.102C140.935 317.922 142.328 320.576 144.131 322.705C142.533 324.878 143.113 328.427 145.104 330.44C144.518 331.314 143.926 332.248 143.816 333.304C143.705 334.36 144.269 335.576 145.037 336.699C144.203 339.015 145.557 341.587 147.31 343.229C151.993 347.608 161.619 348.354 161.619 348.354C161.619 348.354 162.216 348.907 163.101 349.703C165.169 351.561 168.79 354.751 169.946 355.293C171.19 349.703 172.346 341.786 173.59 336.196C171.837 335.112 169.542 334.205 167.707 333.321C167.436 333.193 167.176 333.072 166.938 332.945C167.209 324.446 163.079 315.86 156.339 310.906C155.233 310.093 153.668 309.391 152.629 310.298C151.484 311.304 152.098 313.228 152.8 314.599C154.149 317.259 155.504 319.918 156.013 322.86C152.281 319.603 148.548 316.352 144.833 313.095C143.904 312.282 142.649 311.42 141.565 311.989C140.57 312.531 140.421 313.936 140.57 315.091L140.576 315.102Z" fill="#F3CAB9"/>
<path opacity="0.32" d="M163.101 349.709C165.169 351.566 168.79 354.757 169.946 355.299C171.19 349.709 172.346 341.791 173.59 336.201C171.837 335.117 169.542 334.211 167.707 333.326C165.252 338.474 163.693 344.041 163.101 349.709Z" fill="#E78972"/>
<path d="M166.269 356.565C166.203 361.087 166.407 365.627 166.894 370.138C181.214 373.533 195.529 376.917 209.838 380.317C216.014 381.788 222.726 383.823 228.615 381.451C237.71 377.796 242.189 359.694 242.189 359.694C242.189 359.694 229.3 350.024 220.006 348.111C206.15 345.269 192.571 341.094 178.682 335.438C175.613 334.172 172.506 332.845 169.393 331.435C167.469 339.662 166.396 348.111 166.269 356.57V356.565Z" fill="#568F8F"/>
<path d="M212.664 347.348C216.965 348.083 220.731 350.842 223.467 354.237C226.204 357.643 228.029 361.679 229.677 365.721C230.749 360.982 229.417 355.779 226.226 352.136C223.025 348.492 218.027 346.502 212.664 347.348Z" fill="#496969"/>
<path d="M213.25 344.959C221.748 340.657 232.8 342.007 240.005 348.238C231.838 344.412 222.378 344.948 213.25 344.959Z" fill="#496969"/>
<path d="M166.269 356.565C167.154 352.269 168.597 348.105 170.543 344.18C171.925 341.387 173.634 338.656 176.144 336.804C176.912 336.229 177.775 335.764 178.687 335.433C175.619 334.166 172.511 332.839 169.398 331.43C167.474 339.657 166.402 348.105 166.275 356.565H166.269Z" fill="#496969"/>
</g>
<path d="M211.232 174.005C209.788 174.375 209.705 174.645 209.484 179.353C209.268 183.755 209.309 184.065 210.067 183.944C211.446 183.742 211.623 183.193 211.905 178.19C212.127 174.109 212.076 173.787 211.232 174.005Z" fill="#C89037"/>
<path d="M221.247 179.871C219.673 179.448 219.693 179.494 216.345 182.947C213.875 185.498 213.423 186.296 214.217 186.599C215.09 186.918 215.231 186.834 218.506 183.709C221.612 180.757 222.214 180.127 221.247 179.871Z" fill="#C89037"/>
</svg>
