<svg width="285" height="347" viewBox="0 0 285 347" fill="none" xmlns="http://www.w3.org/2000/svg">
<path d="M241.167 93.4438C240.342 94.1199 239.225 94.6006 236.991 95.5627C236.185 95.9101 233.151 97.2137 232.873 96.5966C232.781 96.391 232.655 96.2744 234.069 95.4336C236.106 94.2233 236.965 93.6562 238.683 92.5221C239.198 92.1827 239.856 91.7405 239.767 91.4694C239.697 91.2574 238.62 91.6055 237.804 91.8662C231.915 93.7448 231.383 93.8136 231.325 93.6978C231.208 93.4669 232.906 92.3679 233.589 91.9442C236.276 90.2786 238.443 89.6175 238.328 89.1812C238.264 88.9366 237.457 89.212 237.06 89.3432C236.444 89.5475 235.986 89.6992 235.494 89.9144C234.904 90.1723 234.489 90.4161 234.383 90.4753C233.047 91.2209 230.781 92.0411 230.666 91.8308C230.453 91.439 237.562 87.2467 237.401 86.9671C237.32 86.8261 235.483 87.8164 232.267 88.892C230.893 89.3515 229.663 89.7634 229.558 89.5552C229.295 89.0329 236.407 85.1303 236.2 84.7325C235.966 84.285 228.875 88.2333 228.427 87.4775C227.99 86.7396 235.456 82.8932 235.241 82.4824C235.027 82.0744 227.657 85.7667 227.425 85.3274C227.196 84.8937 234.109 80.8964 233.854 80.4053C233.601 79.9186 226.838 83.8897 226.377 82.8982C226.072 82.2397 233.235 78.9724 232.922 78.2615C232.859 78.1187 231.324 78.9273 228.685 79.7404C227.649 80.0595 225.23 80.8049 225.087 80.4842C224.838 79.9263 231.633 76.5163 231.467 76.1793C231.283 75.8072 224.791 79.1766 224.418 78.4984C223.955 77.6546 230.673 74.5241 230.46 74.0972C230.246 73.6688 223.575 77.1698 223.274 76.4062C222.89 75.431 229.669 72.4107 229.427 71.9104C229.185 71.4125 222.376 74.4297 222.157 73.9707C221.937 73.5117 228.516 70.0262 228.331 69.6493C228.143 69.2671 221.163 72.5393 220.928 72.0789C220.694 71.6195 227.368 67.8496 227.161 67.4518C226.956 67.0573 220.234 70.3704 220.026 69.9715C219.819 69.5713 226.401 65.8644 226.154 65.3709C225.903 64.8702 218.819 68.1313 218.619 67.7212C218.419 67.3094 225.361 63.655 225.152 63.2216C224.944 62.7887 217.81 65.996 217.586 65.5343C217.374 65.0968 223.931 61.5777 223.729 61.1762C223.524 60.7674 216.587 64.1248 216.164 63.3712C216.043 63.1573 216.52 62.6799 217.101 62.0983C218.017 61.1823 218.94 60.6157 220.901 59.5713C222.141 58.9112 222.76 58.5821 222.977 58.4938C225.842 57.3333 228.752 58.1019 229.376 58.278C233.079 59.3224 235.11 62.3615 236.632 64.617C237.22 65.4877 237.92 66.8803 239.321 69.6651C240.554 72.1174 241.293 73.5875 241.935 75.1134C243.874 79.7191 245.487 83.5324 244.441 87.8028C244.21 88.746 243.537 91.4997 241.167 93.4412L241.167 93.4438Z" fill="#E3D1B5"/>
<path d="M261.779 83.9716L260.609 84.7917L260.41 84.4547L261.615 83.6102C261.507 83.3717 261.392 83.1198 261.269 82.8541C261.264 82.8428 261.259 82.8316 261.254 82.8203L261.203 82.8565L259.975 83.7177L259.776 83.3815L260.476 82.8909L261.088 82.4621C260.971 82.21 260.848 81.9482 260.721 81.6767L259.34 82.6441L259.141 82.3079L260.552 81.319C260.433 81.0663 260.309 80.8047 260.18 80.5366L258.705 81.5709L258.506 81.2347L260.01 80.1807C259.888 79.9274 259.762 79.6668 259.634 79.4017L258.071 80.4969L257.872 80.1607L259.462 79.0468C259.342 78.8034 259.22 78.5543 259.095 78.3018C259.09 78.2917 259.085 78.2817 259.079 78.2712L257.436 79.4233L257.237 79.0871L258.905 77.9187C258.779 77.665 258.65 77.4076 258.518 77.1472L256.802 78.3501L256.603 78.0139L258.34 76.7961C258.212 76.5434 258.081 76.2866 257.948 76.0276L256.167 77.2757L255.968 76.9395L257.769 75.6782C257.638 75.4256 257.506 75.1714 257.372 74.9135L255.532 76.2032L255.334 75.8663L257.19 74.5658C257.058 74.3142 256.924 74.0599 256.788 73.8048L254.897 75.1295L254.698 74.7933L256.603 73.4592C256.469 73.2086 256.333 72.956 256.195 72.7012L254.264 74.0556L254.065 73.7194L256.009 72.3566C255.872 72.1065 255.734 71.8556 255.596 71.6031L253.628 72.9819L253.429 72.6457L255.405 71.2611C255.267 71.0129 255.127 70.763 254.986 70.5122L252.994 71.9087L252.795 71.5725L254.794 70.1719C254.654 69.9247 254.512 69.6765 254.37 69.4267L252.36 70.8355L252.161 70.4993L254.174 69.0885C254.105 68.9678 254.034 68.8474 253.963 68.727C253.89 68.601 253.817 68.475 253.742 68.3488L253.716 68.3668L251.724 69.7626L251.525 69.4264L253.498 68.0438L253.544 68.0118C253.399 67.7669 253.253 67.521 253.106 67.2754L253.028 67.3298L251.091 68.6879L250.892 68.3517L252.818 67.0019L252.905 66.9402C252.758 66.6965 252.61 66.4523 252.46 66.2092L252.37 66.2721L250.456 67.6135L250.257 67.2774L252.172 65.935L252.256 65.8768C252.106 65.6343 251.955 65.3927 251.804 65.1505L251.749 65.189L249.821 66.5399L249.622 66.2037L251.543 64.8576L251.595 64.8211C251.522 64.7067 251.45 64.5923 251.377 64.4782C251.296 64.3514 251.215 64.2254 251.134 64.1011L251.047 64.162L249.185 65.4669L248.987 65.13L250.8 63.8595L250.923 63.7734C250.766 63.5307 250.61 63.2928 250.455 63.0584L250.205 63.2342L248.551 64.3937L248.353 64.0568L249.906 62.9681L250.241 62.7339C250.08 62.4932 249.922 62.257 249.765 62.0251L249.183 62.4331L247.917 63.3198L247.718 62.9836L248.816 62.2148L249.545 61.7036C249.383 61.4654 249.221 61.2308 249.06 61.0013L247.914 61.8039L247.283 62.2466L247.084 61.9104L247.45 61.654L248.837 60.6821C247.997 58.6281 247.225 56.7454 246.49 54.9704C245.754 53.1884 245.054 51.5167 244.361 49.8895C243.393 47.6147 242.151 44.762 242.091 40.839C242.083 40.2607 242.101 39.7827 242.119 39.4641C244.156 33.9416 243.076 28.9313 240.323 27.3059C240.3 27.2914 240.275 27.2772 240.251 27.2642C240.067 27.1616 239.86 27.0645 239.633 26.9791C238.48 26.5449 236.826 26.3954 235.281 27.0954C234.428 27.4819 233.799 28.0423 233.347 28.5873C232.736 29.3248 232.448 30.0334 232.368 30.2436C231.985 31.238 231.967 32.1276 232.004 32.7103C232.015 32.8777 232.03 33.0199 232.042 33.1315C232.06 33.2929 232.085 33.4577 232.116 33.6265C232.264 34.4192 232.559 35.277 233.014 36.0616C233.232 36.4376 233.487 36.7962 233.78 37.124C233.849 37.2024 233.921 37.2783 233.995 37.3512C234.33 37.686 234.709 37.9805 235.133 38.2157C235.265 38.2882 235.391 38.3502 235.512 38.4032C236.534 38.847 237.236 38.6822 238.448 39.5968C238.609 39.719 239.049 40.0633 239.518 40.6263C239.675 40.8159 239.837 41.0301 239.991 41.2691C240.211 41.6091 241.01 42.7762 241.126 45.7947C241.175 47.0893 241.156 48.8476 240.865 50.9325C240.883 50.9824 240.903 51.0307 240.921 51.0805C242.157 54.3346 243.394 57.5892 244.63 60.844C244.632 60.848 244.634 60.8537 244.636 60.8569C246.248 63.7639 249.681 69.5637 257.049 81.4659C257.386 82.01 257.731 82.5678 258.085 83.1379C258.283 83.4575 258.484 83.7808 258.687 84.1085C259.44 85.3219 260.988 85.7684 262.271 85.1428L262.294 85.1318C262.15 84.8052 261.976 84.4166 261.774 83.9701L261.779 83.9716ZM240.103 37.3586C240.07 37.3826 240.036 37.4049 240.001 37.4267C239.655 37.6542 239.271 37.8216 238.856 37.9153C238.646 37.9627 238.436 37.9896 238.226 37.9966C237.06 38.0405 235.917 37.4928 235.038 36.5466C234.842 36.335 234.659 36.1046 234.491 35.8556C234.081 35.2448 233.766 34.5273 233.588 33.7349C233.019 31.207 234.027 28.7738 235.879 27.9269C236.093 27.8287 236.319 27.752 236.556 27.6982C236.883 27.6245 237.211 27.6006 237.535 27.621C238.397 27.6745 239.233 28.0454 239.944 28.6537C240.831 29.4116 241.522 30.5381 241.825 31.8785C242.332 34.1339 241.585 36.3135 240.103 37.3586Z" fill="#5379B2"/>
<path d="M261.686 75.1403L246.495 54.9731L244.392 52.1814L240.978 51.1331C240.957 51.1108 240.936 51.0915 240.917 51.0717C239.233 50.6277 236.994 49.941 234.436 48.8681C232.266 47.9586 231.532 47.4703 231.132 47.0688C231.041 46.9773 230.974 46.8961 230.946 46.8634C230.683 46.5565 230.509 46.2007 230.399 45.8052L230.399 45.8045C230.399 45.8045 230.399 45.8045 230.4 45.8037C230.026 44.4776 230.35 42.7267 230.351 41.0537C230.351 40.5544 230.323 40.061 230.239 39.5889C230.239 39.5889 230.238 39.5866 230.238 39.5854C230.231 39.5447 230.223 39.5043 230.214 39.4639C230.206 39.4235 230.198 39.3831 230.188 39.343C230.17 39.2596 230.149 39.1773 230.126 39.0943C230.119 39.0667 230.11 39.0382 230.102 39.0109C230.099 39.001 230.097 38.9916 230.093 38.9812C230.084 38.9497 230.074 38.9179 230.064 38.8866C230.062 38.8783 230.059 38.8703 230.057 38.8628C230.045 38.8275 230.033 38.7917 230.021 38.7567C230.006 38.7111 229.989 38.6652 229.972 38.6206C229.96 38.5891 229.948 38.5576 229.936 38.5257C229.891 38.4099 229.842 38.2969 229.789 38.1835C229.775 38.1514 229.759 38.1184 229.743 38.0861C229.74 38.0781 229.736 38.0708 229.732 38.0643C229.714 38.0292 229.697 37.9941 229.679 37.959C229.66 37.9218 229.641 37.8851 229.621 37.8482C229.602 37.811 229.581 37.7741 229.561 37.7384C229.499 37.6284 229.434 37.5197 229.366 37.4118C229.344 37.3759 229.321 37.3403 229.297 37.3046C229.274 37.269 229.251 37.2346 229.227 37.2004C229.227 37.2004 229.226 37.2 229.225 37.1995C229.204 37.1691 229.183 37.1391 229.162 37.1086C229.144 37.0835 229.126 37.0584 229.109 37.0345L229.072 36.9846C229.048 36.9516 229.024 36.92 228.999 36.8878C228.975 36.8555 228.95 36.824 228.926 36.7917C228.918 36.7818 228.91 36.7718 228.902 36.763C228.882 36.7373 228.86 36.7107 228.839 36.6857C228.784 36.6183 228.728 36.5523 228.672 36.4878C228.644 36.4569 228.617 36.4259 228.59 36.3949C228.572 36.3755 228.555 36.3559 228.536 36.3365C228.511 36.3088 228.486 36.2811 228.46 36.2548C228.46 36.2536 228.458 36.2527 228.458 36.2523C228.429 36.2223 228.4 36.1924 228.371 36.1624C228.328 36.1172 228.284 36.0739 228.239 36.0302C228.208 35.9996 228.176 35.969 228.144 35.9387C228.062 35.8608 227.978 35.7853 227.893 35.7113C227.866 35.6877 227.838 35.6643 227.811 35.6403C227.772 35.6075 227.734 35.576 227.696 35.5439C227.667 35.5201 227.638 35.4971 227.609 35.474C227.584 35.4532 227.557 35.4327 227.53 35.4122C227.496 35.3855 227.461 35.3593 227.427 35.3326C227.392 35.3059 227.356 35.28 227.321 35.254C227.285 35.2276 227.25 35.2029 227.214 35.1776C227.112 35.1063 227.009 35.0365 226.904 34.9703C226.852 34.9378 226.801 34.9062 226.748 34.8736C226.707 34.8484 226.667 34.8235 226.625 34.8004C226.623 34.799 226.621 34.7977 226.619 34.7963C226.574 34.7695 226.529 34.7446 226.484 34.7197C226.481 34.7179 226.478 34.7165 226.476 34.7147C226.438 34.6943 226.401 34.6744 226.363 34.654C226.31 34.6253 226.257 34.5985 226.204 34.5717C226.183 34.5605 226.161 34.5501 226.139 34.5392C226.106 34.5231 226.073 34.5066 226.04 34.4913L226.04 34.4908C226.031 34.4854 226.021 34.4815 226.012 34.4779C226.007 34.4743 226 34.4722 225.993 34.4681C225.976 34.4604 225.958 34.4526 225.942 34.4453C225.925 34.438 225.908 34.4295 225.892 34.4222C225.792 34.3777 225.692 34.3359 225.591 34.2954C225.552 34.2791 225.512 34.2647 225.473 34.2504C225.45 34.2414 225.427 34.2331 225.404 34.2248C225.372 34.213 225.34 34.2012 225.308 34.1906C225.298 34.1862 225.288 34.183 225.278 34.1798C225.229 34.163 225.181 34.147 225.132 34.1318C225.086 34.1176 225.041 34.1039 224.995 34.0904C224.974 34.083 224.952 34.0776 224.929 34.0717C224.904 34.0644 224.88 34.0571 224.855 34.0506C224.832 34.0447 224.809 34.0388 224.787 34.0329C224.766 34.0271 224.746 34.0214 224.724 34.0171C224.698 34.0101 224.672 34.0043 224.646 33.998C224.527 33.9694 224.406 33.9441 224.285 33.9227C224.067 33.8838 223.847 33.8568 223.628 33.8429C223.565 33.8384 223.502 33.8352 223.436 33.8338C223.366 33.8316 223.295 33.8302 223.223 33.8309C223.168 33.8308 223.111 33.8322 223.055 33.8336C223.029 33.8335 223.002 33.8354 222.976 33.836C222.945 33.837 222.914 33.8381 222.883 33.8403C222.862 33.841 222.841 33.8429 222.819 33.8436C222.803 33.8441 222.788 33.8454 222.77 33.8469C222.741 33.8495 222.71 33.851 222.681 33.8541C222.654 33.8562 222.625 33.8586 222.597 33.8614C222.565 33.8646 222.533 33.8671 222.5 33.8718C222.47 33.8752 222.439 33.8781 222.408 33.8822C222.361 33.8876 222.313 33.8944 222.267 33.9009C220.862 34.1012 219.333 34.7536 218.441 36.0822C218.385 36.1645 218.333 36.2502 218.283 36.3379C218.082 36.6869 217.945 37.0423 217.854 37.3917C217.506 38.7261 217.838 39.973 217.966 40.454C218.205 41.3529 218.62 42.1223 219.105 42.7703C220.37 44.4625 222.113 45.3272 222.474 45.5007C223.651 46.065 224.605 46.2027 225.503 46.2821C226.771 46.3935 227.926 46.3863 229.435 47.297C229.734 47.4772 230.008 47.6705 230.262 47.8712C231.197 48.6131 231.832 49.4588 232.25 50.1227C233 50.2529 234.143 50.5137 235.432 51.0916C235.93 51.3501 236.732 51.8038 237.619 52.4963C239.555 54.005 240.366 55.4481 242.552 58.2721C243.033 58.8936 243.737 59.7837 244.634 60.8482C244.789 61.031 244.948 61.2196 245.115 61.4127C245.724 61.3818 246.551 61.4055 247.454 61.6605C247.606 61.7037 247.761 61.7533 247.918 61.81C248.029 61.8505 248.141 61.8951 248.253 61.9435C248.451 62.0285 248.639 62.1212 248.82 62.2209C248.946 62.2909 249.068 62.3637 249.186 62.4399C249.447 62.6066 249.687 62.7872 249.91 62.9747C250.014 63.0623 250.113 63.1511 250.209 63.2407C250.428 63.4463 250.626 63.6577 250.804 63.8661C250.892 63.9676 250.974 64.0683 251.051 64.1685C251.242 64.412 251.407 64.648 251.546 64.8644C251.622 64.981 251.689 65.0927 251.751 65.1954C251.885 65.4186 251.987 65.6069 252.062 65.7424C252.098 65.8073 252.136 65.8739 252.175 65.9413C252.237 66.0506 252.303 66.1633 252.372 66.2785C252.509 66.5085 252.658 66.7517 252.82 67.007C252.888 67.1142 252.958 67.2237 253.03 67.3343C253.178 67.563 253.335 67.8006 253.501 68.0475C253.572 68.1541 253.644 68.2604 253.718 68.37C253.799 68.4887 253.881 68.6082 253.965 68.7298C255.443 70.8707 257.512 73.6243 260.129 76.957C261.598 78.8273 263.24 80.88 265.046 83.1094C265.055 83.1198 265.063 83.1314 265.072 83.1418C265.125 83.2067 265.221 83.2132 265.282 83.156C265.287 83.1518 265.292 83.1469 265.296 83.1427C266.102 82.3876 266.209 81.1473 265.545 80.2654L261.685 75.1418L261.686 75.1403ZM228.086 43.5302C227.268 44.4694 226.019 44.8648 224.694 44.7332C224.38 44.7022 224.063 44.6421 223.747 44.5527C223.742 44.5507 223.737 44.5499 223.733 44.5484C223.704 44.5403 223.673 44.5313 223.644 44.5221C223.61 44.5125 223.577 44.5017 223.544 44.4906C223.517 44.482 223.49 44.4734 223.464 44.4641C223.434 44.4544 223.404 44.4439 223.373 44.4331C223.343 44.4226 223.313 44.411 223.283 44.4006C223.253 44.3897 223.224 44.3778 223.194 44.3662C223.153 44.3497 223.111 44.3328 223.069 44.3152C223.038 44.3019 223.005 44.2878 222.974 44.2741C222.925 44.2531 222.877 44.2314 222.829 44.2077C222.794 44.1918 222.758 44.1747 222.723 44.1568C222.718 44.1536 222.712 44.1512 222.706 44.1488C222.686 44.1392 222.665 44.1292 222.645 44.1177C222.626 44.1079 222.606 44.0976 222.587 44.0878C222.569 44.0789 222.553 44.0697 222.536 44.06C222.482 44.032 222.429 44.0029 222.376 43.9723C222.356 43.9608 222.336 43.9493 222.315 43.9374C222.289 43.9212 222.262 43.9064 222.236 43.8901C222.203 43.8698 222.17 43.8502 222.137 43.8291C222.108 43.8111 222.08 43.7935 222.052 43.774C222.016 43.7506 221.981 43.7271 221.945 43.703C221.868 43.6509 221.79 43.5957 221.714 43.5382C221.686 43.518 221.659 43.497 221.631 43.476C221.604 43.4551 221.576 43.4329 221.549 43.4119C221.515 43.385 221.481 43.3576 221.448 43.3299C221.4 43.2905 221.352 43.2507 221.305 43.2095C221.254 43.1648 221.204 43.1194 221.155 43.0736C221.132 43.0527 221.11 43.033 221.089 43.0118C221.085 43.008 221.08 43.0041 221.076 42.9999C221.054 42.9778 221.031 42.9564 221.009 42.9336C220.986 42.9115 220.963 42.8895 220.941 42.8666C220.914 42.8399 220.888 42.8125 220.862 42.7851C220.841 42.7639 220.82 42.742 220.8 42.7193C220.754 42.6709 220.71 42.6222 220.667 42.5724C220.65 42.554 220.633 42.5343 220.617 42.5151C220.59 42.4846 220.564 42.4545 220.54 42.423C220.52 42.3996 220.501 42.376 220.482 42.3519C220.45 42.312 220.419 42.2726 220.389 42.2325C220.297 42.1132 220.211 41.991 220.129 41.8676C220.083 41.7992 220.04 41.7297 219.998 41.6598C219.984 41.6369 219.972 41.6138 219.958 41.5902C219.923 41.53 219.889 41.4695 219.856 41.4088C219.832 41.3646 219.809 41.3202 219.786 41.2757C219.763 41.2306 219.741 41.1854 219.719 41.1402C219.705 41.1116 219.692 41.0824 219.678 41.0526C219.422 40.4921 219.266 39.9135 219.216 39.3495C219.182 38.9757 219.195 38.6085 219.256 38.2541L219.257 38.2534C219.367 37.6163 219.632 37.0261 220.061 36.5337C220.061 36.533 220.062 36.5323 220.063 36.5308C220.357 36.1935 220.707 35.9264 221.096 35.7298C221.122 35.7161 221.15 35.7028 221.176 35.691C221.201 35.679 221.226 35.6675 221.251 35.6566C221.258 35.6531 221.266 35.6495 221.272 35.6474C221.295 35.6364 221.317 35.6269 221.34 35.6178C221.45 35.5713 221.564 35.5302 221.681 35.4942C221.704 35.4868 221.729 35.479 221.754 35.472C221.765 35.4688 221.777 35.466 221.789 35.4625C221.809 35.4566 221.828 35.4508 221.849 35.4465C221.893 35.4351 221.936 35.4248 221.98 35.4146C222.013 35.4068 222.046 35.3998 222.08 35.3929C222.087 35.3913 222.094 35.3903 222.1 35.3882C222.13 35.3825 222.16 35.3772 222.191 35.3726C222.2 35.3704 222.209 35.3689 222.219 35.3679C222.238 35.3646 222.257 35.3614 222.277 35.3586C222.293 35.3561 222.309 35.3542 222.325 35.351C222.351 35.3473 222.378 35.3436 222.404 35.3406C222.471 35.3324 222.539 35.3252 222.607 35.321C222.627 35.3194 222.647 35.3178 222.667 35.3161C222.737 35.311 222.807 35.3089 222.877 35.308C222.904 35.3073 222.931 35.3071 222.957 35.3072C223.021 35.3073 223.085 35.3077 223.148 35.3109C223.154 35.3114 223.16 35.3112 223.166 35.3117C223.183 35.3121 223.2 35.3137 223.217 35.3141C223.256 35.3161 223.294 35.3184 223.333 35.3216C223.379 35.3246 223.425 35.3288 223.47 35.3337C223.47 35.3337 223.474 35.3341 223.476 35.3343C223.52 35.3387 223.566 35.3441 223.612 35.3502C223.617 35.351 223.622 35.3511 223.627 35.3523C223.669 35.3585 223.711 35.3643 223.755 35.3709C223.763 35.3721 223.771 35.3728 223.778 35.3747C223.813 35.3802 223.849 35.3861 223.884 35.3928C223.905 35.3959 223.928 35.4006 223.949 35.4045C223.983 35.4107 224.017 35.4176 224.051 35.4258C224.093 35.4346 224.135 35.4446 224.177 35.4542C224.211 35.4623 224.245 35.4705 224.28 35.4798C224.331 35.4922 224.382 35.5069 224.433 35.5223C224.466 35.5307 224.498 35.5406 224.531 35.5516C224.589 35.5697 224.647 35.5885 224.705 35.6084C224.738 35.6195 224.77 35.6305 224.802 35.6423C224.804 35.6432 224.805 35.6429 224.806 35.6438C224.842 35.6555 224.876 35.6691 224.911 35.6827C224.965 35.7026 225.017 35.7239 225.069 35.746C225.1 35.7592 225.133 35.7734 225.164 35.7866C225.251 35.8246 225.339 35.865 225.425 35.9083C225.462 35.9263 225.499 35.9451 225.535 35.9646C225.625 36.0109 225.713 36.0598 225.801 36.1102C225.838 36.1313 225.875 36.1531 225.912 36.1762C225.944 36.196 225.977 36.2152 226.008 36.2358C226.016 36.2407 226.024 36.2457 226.032 36.2507C226.097 36.2916 226.161 36.3344 226.226 36.3784C226.254 36.398 226.283 36.4179 226.31 36.4382C226.337 36.4568 226.364 36.4766 226.391 36.4964C226.439 36.5312 226.488 36.5672 226.535 36.6046C226.556 36.6208 226.577 36.637 226.598 36.6539C226.653 36.697 226.707 36.7416 226.761 36.7874C226.789 36.8103 226.815 36.8335 226.842 36.8564C226.871 36.8813 226.899 36.907 226.928 36.9327C226.946 36.949 226.964 36.9653 226.982 36.9816C227.194 37.1765 227.388 37.3806 227.567 37.5926C227.598 37.6301 227.629 37.6676 227.66 37.7058C227.671 37.7183 227.68 37.7303 227.69 37.7436C227.762 37.8333 227.83 37.9238 227.896 38.0172C227.917 38.0465 227.937 38.0753 227.958 38.106C227.975 38.1307 227.992 38.1553 228.008 38.1807C228.01 38.1816 228.011 38.1844 228.013 38.1877C228.029 38.2131 228.046 38.2377 228.062 38.2638C228.08 38.2901 228.097 38.3174 228.114 38.344C228.13 38.3705 228.146 38.3974 228.162 38.4235C228.195 38.4762 228.226 38.5306 228.256 38.5845C228.27 38.6093 228.284 38.634 228.297 38.6583C228.301 38.6649 228.305 38.6726 228.308 38.6794C228.335 38.7284 228.361 38.7797 228.386 38.8297C228.4 38.8564 228.413 38.885 228.426 38.9119C228.453 38.9671 228.479 39.0222 228.502 39.0771C228.539 39.1594 228.573 39.2422 228.605 39.3244C228.627 39.3815 228.648 39.4377 228.667 39.4941C228.677 39.5223 228.686 39.5505 228.696 39.5776C228.716 39.6387 228.736 39.699 228.753 39.7603C228.76 39.7829 228.766 39.8069 228.773 39.8303C228.782 39.8588 228.789 39.8864 228.795 39.9147C228.803 39.9423 228.81 39.9711 228.816 39.9982C228.823 40.0265 228.83 40.0548 228.836 40.082C228.843 40.1103 228.848 40.1382 228.854 40.1668C228.86 40.1928 228.865 40.219 228.869 40.2448C228.87 40.2507 228.872 40.2559 228.873 40.2613C228.878 40.2864 228.882 40.3103 228.887 40.3353C228.891 40.3635 228.896 40.3916 228.9 40.4193C228.904 40.4409 228.907 40.4619 228.909 40.4837C228.921 40.5645 228.93 40.6457 228.937 40.7269C228.94 40.7641 228.943 40.8009 228.945 40.8377L228.946 40.8501C228.976 41.3683 228.917 41.8741 228.763 42.3436C228.62 42.7779 228.397 43.1802 228.091 43.5329L228.086 43.5302Z" fill="#5379B2"/>
<path d="M230.235 39.5828C230.228 39.5421 230.22 39.5017 230.212 39.4613C230.203 39.4209 230.195 39.3805 230.186 39.3404C230.167 39.257 230.146 39.1747 230.123 39.0917C230.116 39.0641 230.107 39.0356 230.099 39.0083C230.096 38.9984 230.094 38.989 230.09 38.9786C230.082 38.947 230.071 38.9153 230.061 38.884C230.059 38.8757 230.056 38.8677 230.054 38.8602C230.042 38.8249 230.03 38.7891 230.018 38.7541C230.003 38.7085 229.986 38.6626 229.969 38.618C229.957 38.5865 229.946 38.555 229.933 38.5231C229.888 38.4073 229.839 38.2943 229.786 38.1809C229.772 38.1488 229.756 38.1158 229.74 38.0835C229.737 38.0755 229.733 38.0682 229.729 38.0617C229.712 38.0266 229.694 37.9915 229.676 37.9564C229.657 37.9192 229.639 37.8825 229.618 37.8456C229.599 37.8084 229.578 37.7715 229.558 37.7358C229.496 37.6258 229.432 37.5171 229.363 37.4092C229.341 37.3733 229.318 37.3377 229.295 37.302C229.271 37.2664 229.248 37.232 229.224 37.1978C229.224 37.1978 229.223 37.1974 229.223 37.1969C229.201 37.1664 229.181 37.1365 229.159 37.106C229.141 37.0809 229.124 37.0558 229.106 37.0319L229.07 36.9819C229.046 36.949 229.021 36.9174 228.997 36.8852C228.972 36.8529 228.947 36.8214 228.923 36.7891C228.915 36.7792 228.907 36.7692 228.899 36.7604C228.879 36.7347 228.857 36.708 228.836 36.683C228.781 36.6157 228.726 36.5497 228.669 36.4852C228.642 36.4543 228.614 36.4233 228.587 36.3923C228.569 36.3729 228.552 36.3533 228.534 36.3339C228.508 36.3062 228.483 36.2785 228.457 36.2522C228.457 36.251 228.455 36.2501 228.455 36.2497C228.426 36.2197 228.397 36.1897 228.368 36.1598C228.325 36.1146 228.281 36.0713 228.237 36.0276C228.205 35.997 228.174 35.9664 228.141 35.9361C228.059 35.8582 227.975 35.7827 227.89 35.7087C227.863 35.6851 227.835 35.6617 227.808 35.6377C227.77 35.6049 227.732 35.5734 227.693 35.5413C227.664 35.5175 227.635 35.4945 227.606 35.4714C227.581 35.4506 227.554 35.4301 227.528 35.4096C227.493 35.3829 227.459 35.3567 227.424 35.33C227.389 35.3033 227.354 35.2774 227.318 35.2514C227.282 35.225 227.247 35.2003 227.211 35.175C227.109 35.1037 227.006 35.0339 226.901 34.9677C226.849 34.9352 226.798 34.9035 226.745 34.871C226.705 34.8457 226.664 34.8209 226.622 34.7978C226.62 34.7965 226.618 34.7951 226.616 34.7937C226.571 34.7669 226.526 34.742 226.481 34.7171C226.478 34.7153 226.476 34.7139 226.473 34.7121C226.435 34.6917 226.398 34.6718 226.36 34.6514C226.307 34.6227 226.254 34.5959 226.201 34.5691C226.18 34.5579 226.158 34.5475 226.136 34.5366C226.104 34.5205 226.07 34.504 226.038 34.4887L226.037 34.4882C226.028 34.4828 226.018 34.4788 226.01 34.4753C226.003 34.472 225.996 34.4691 225.989 34.4658C225.973 34.4578 225.956 34.45 225.939 34.442C225.923 34.4347 225.906 34.4262 225.889 34.4189C225.79 34.3744 225.69 34.3325 225.589 34.2921C225.549 34.2758 225.51 34.2614 225.47 34.247C225.448 34.238 225.425 34.2297 225.402 34.2215C225.37 34.2097 225.338 34.1979 225.306 34.1873C225.295 34.1829 225.285 34.1797 225.275 34.1764C225.227 34.1597 225.179 34.1437 225.13 34.1284C225.084 34.1143 225.039 34.1005 224.993 34.0871C224.971 34.0797 224.949 34.0742 224.927 34.0683C224.902 34.0611 224.877 34.0538 224.852 34.0473C224.83 34.0413 224.807 34.0354 224.785 34.0295C224.764 34.0238 224.743 34.018 224.722 34.0138C224.696 34.0068 224.67 34.001 224.644 33.9947C224.524 33.9661 224.404 33.9408 224.283 33.9194C224.064 33.8805 223.845 33.8535 223.626 33.8396C223.563 33.835 223.499 33.8319 223.434 33.8305C223.363 33.8283 223.293 33.8268 223.221 33.8276C223.165 33.8275 223.109 33.8289 223.053 33.8303C223.027 33.8302 223 33.832 222.974 33.8327C222.943 33.8337 222.912 33.8347 222.881 33.8369C222.86 33.8377 222.838 33.8396 222.817 33.8403C222.801 33.8408 222.785 33.842 222.768 33.8436C222.738 33.8462 222.708 33.8477 222.679 33.8508C222.651 33.8529 222.623 33.8553 222.595 33.8581C222.563 33.8613 222.531 33.8638 222.498 33.8685C222.467 33.8718 222.436 33.8748 222.405 33.8789C222.359 33.8842 222.311 33.8911 222.265 33.8976C222.074 34.197 221.875 34.5095 221.664 34.8398C221.494 35.1064 221.303 35.4034 221.09 35.7297C221.118 35.7164 221.145 35.7027 221.171 35.6901C221.196 35.6781 221.221 35.6666 221.246 35.6558C221.253 35.6522 221.261 35.6486 221.267 35.6465C221.29 35.6363 221.312 35.626 221.335 35.6169C221.445 35.5704 221.56 35.5293 221.676 35.4933C221.699 35.4859 221.724 35.4782 221.749 35.4712C221.76 35.4679 221.772 35.4652 221.784 35.4617C221.804 35.4558 221.824 35.4499 221.844 35.4456C221.888 35.4342 221.931 35.424 221.975 35.4137C222.008 35.4059 222.041 35.3989 222.075 35.3921C222.082 35.3904 222.089 35.3895 222.095 35.3874C222.125 35.3816 222.156 35.3763 222.186 35.3718C222.195 35.3695 222.204 35.3681 222.214 35.367C222.233 35.3638 222.252 35.3605 222.272 35.3577C222.288 35.3553 222.304 35.3533 222.32 35.3502C222.347 35.3464 222.373 35.3427 222.399 35.3397C222.466 35.3315 222.534 35.3243 222.602 35.3201C222.622 35.3185 222.642 35.3169 222.662 35.3153C222.732 35.3101 222.802 35.308 222.872 35.3071C222.899 35.3065 222.926 35.3063 222.952 35.3064C223.016 35.3064 223.08 35.3069 223.144 35.31C223.149 35.3105 223.155 35.3103 223.161 35.3108C223.178 35.3112 223.195 35.3128 223.212 35.3132C223.251 35.3152 223.289 35.3175 223.328 35.3208C223.374 35.3238 223.42 35.328 223.465 35.3329C223.465 35.3329 223.469 35.3332 223.471 35.3334C223.516 35.3379 223.562 35.3432 223.607 35.3493C223.612 35.3501 223.617 35.3502 223.622 35.3515C223.665 35.3577 223.706 35.3634 223.75 35.37C223.758 35.3712 223.766 35.3719 223.774 35.3738C223.808 35.3793 223.844 35.3852 223.879 35.3919C223.901 35.395 223.923 35.3998 223.944 35.4036C223.978 35.4098 224.012 35.4168 224.046 35.4249C224.088 35.4337 224.13 35.4438 224.172 35.4533C224.206 35.4615 224.241 35.4696 224.275 35.4789C224.326 35.4913 224.377 35.506 224.428 35.5214C224.461 35.5299 224.493 35.5397 224.526 35.5508C224.584 35.5688 224.642 35.5876 224.701 35.6075C224.733 35.6186 224.765 35.6297 224.797 35.6414C224.799 35.6423 224.8 35.6421 224.802 35.643C224.837 35.6547 224.872 35.6682 224.907 35.6818C224.96 35.7017 225.012 35.7231 225.064 35.7451C225.095 35.7584 225.128 35.7725 225.159 35.7857C225.246 35.8238 225.334 35.8641 225.42 35.9074C225.457 35.9255 225.494 35.9442 225.53 35.9637C225.62 36.01 225.708 36.0589 225.796 36.1093C225.833 36.1304 225.87 36.1523 225.907 36.1753C225.939 36.1952 225.972 36.2143 226.004 36.2349C226.012 36.2399 226.02 36.2448 226.028 36.2498C226.092 36.2907 226.156 36.3336 226.221 36.3776C226.249 36.3971 226.278 36.4171 226.306 36.4373C226.333 36.4564 226.359 36.4757 226.386 36.4955C226.434 36.5303 226.483 36.5663 226.53 36.6038C226.551 36.6199 226.573 36.6361 226.593 36.653C226.648 36.6962 226.702 36.7408 226.757 36.7865C226.784 36.8094 226.81 36.8326 226.837 36.8555C226.866 36.8805 226.894 36.9062 226.923 36.9319C226.941 36.9481 226.959 36.9644 226.977 36.9807C227.189 37.1757 227.383 37.3797 227.562 37.5917C227.594 37.6285 227.625 37.6667 227.655 37.7049C227.666 37.7174 227.675 37.7295 227.685 37.7427C227.757 37.8324 227.825 37.9229 227.891 38.0163C227.912 38.0456 227.932 38.0744 227.953 38.1052C227.97 38.1298 227.987 38.1545 228.003 38.1798C228.005 38.1807 228.006 38.1836 228.008 38.1868C228.025 38.2115 228.041 38.2369 228.058 38.263C228.076 38.2892 228.092 38.3165 228.109 38.3431C228.125 38.3697 228.142 38.3958 228.157 38.4226C228.19 38.4753 228.221 38.5297 228.251 38.5836C228.265 38.6084 228.279 38.6332 228.292 38.6575C228.296 38.664 228.3 38.6717 228.303 38.6785C228.33 38.7275 228.356 38.7788 228.381 38.8289C228.395 38.8555 228.409 38.8841 228.421 38.911C228.448 38.9663 228.474 39.0213 228.497 39.0762C228.534 39.1585 228.568 39.2413 228.6 39.3235C228.622 39.3806 228.643 39.4368 228.662 39.4932C228.672 39.5207 228.682 39.5489 228.691 39.5767C228.712 39.6379 228.731 39.6981 228.748 39.7594C228.755 39.782 228.762 39.8061 228.768 39.8294C228.777 39.8579 228.784 39.8855 228.791 39.9138C228.798 39.9419 228.805 39.9695 228.811 39.9973C228.819 40.0261 228.826 40.0537 228.831 40.0811C228.838 40.1094 228.844 40.1373 228.849 40.1659C228.855 40.1919 228.86 40.2181 228.864 40.2439C228.866 40.2498 228.867 40.255 228.868 40.2604C228.873 40.2855 228.877 40.3094 228.882 40.3345C228.886 40.3626 228.891 40.3908 228.895 40.4185C228.899 40.44 228.902 40.461 228.905 40.4828C228.916 40.5636 228.925 40.6449 228.932 40.726C228.935 40.7632 228.939 40.7997 228.94 40.8368L228.941 40.8492C229.071 40.7252 229.196 40.61 229.314 40.5019C229.533 40.3028 229.864 40.0005 230.235 39.589C230.235 39.589 230.235 39.5866 230.234 39.5854L230.235 39.5828Z" fill="#5379B2"/>
<path d="M170.879 20.4953C170.879 24.3741 155.915 27.519 137.456 27.519C118.998 27.519 104.033 24.3741 104.033 20.4953C104.033 20.4643 104.034 20.4333 104.035 20.4023H104.033V7.83557C104.086 9.68166 107.531 11.3601 113.123 12.6073C115.97 13.2428 119.375 13.7663 123.172 14.1444C127.503 14.5749 132.345 14.8164 137.456 14.8164C142.566 14.8164 147.406 14.5749 151.737 14.1444C155.634 13.7575 159.118 13.215 162.011 12.5573C167.263 11.3633 170.567 9.78335 170.858 8.04291V20.2451C170.872 20.3277 170.879 20.4119 170.879 20.4961V20.4953Z" fill="#FAFAFF"/>
<path d="M137.457 28.2879C128.478 28.2879 120.028 27.5516 113.664 26.2147C106.764 24.7642 103.264 22.8402 103.264 20.4953C103.264 20.473 103.264 20.4508 103.265 20.4293C103.265 20.4206 103.265 20.4118 103.265 20.4023V7.83555C103.265 7.41534 103.602 7.07297 104.023 7.06662C104.442 7.06026 104.79 7.39309 104.803 7.81331C104.832 8.81182 107.073 10.4697 113.292 11.8566C116.141 12.4929 119.492 13.0045 123.249 13.3794C127.707 13.8226 132.487 14.0474 137.457 14.0474C142.426 14.0474 147.206 13.8226 151.662 13.3786C155.513 12.9965 158.937 12.4675 161.841 11.8073C167.673 10.4816 169.931 8.92859 170.099 7.91658C170.165 7.52178 170.523 7.24455 170.921 7.27712C171.32 7.31048 171.627 7.64333 171.627 8.04368V20.1878C171.641 20.2903 171.649 20.3936 171.649 20.4961C171.649 22.841 168.15 24.7649 161.248 26.2155C154.885 27.5524 146.436 28.2887 137.456 28.2887L137.457 28.2879ZM104.803 20.3451C104.806 20.3777 104.806 20.4103 104.804 20.4436C104.803 20.4611 104.802 20.4786 104.802 20.4961C104.802 21.5502 107.206 23.2866 113.981 24.7101C120.243 26.0264 128.58 26.7508 137.456 26.7508C146.331 26.7508 154.669 26.0264 160.931 24.7101C167.705 23.2866 170.109 21.5502 170.109 20.4961C170.109 20.4556 170.106 20.4142 170.099 20.3729C170.092 20.3308 170.089 20.2879 170.089 20.245V10.3108C168.562 11.4547 165.919 12.4571 162.182 13.3063C159.216 13.9807 155.728 14.5193 151.814 14.9085C147.307 15.3573 142.477 15.5845 137.456 15.5845C132.435 15.5845 127.604 15.3573 123.096 14.9093C119.276 14.5288 115.865 14.0069 112.956 13.3571C109.08 12.4929 106.356 11.469 104.802 10.2973V20.3451H104.803Z" fill="#5379B2"/>
<path d="M170.879 7.79185C170.879 7.87605 170.872 7.95947 170.858 8.04288C170.568 9.78332 167.264 11.3625 162.011 12.5572C155.916 11.1973 147.269 10.3481 137.678 10.3481C128.087 10.3481 119.229 11.2179 113.123 12.6073C107.531 11.3601 104.086 9.68243 104.033 7.83554C104.033 7.82124 104.033 7.80694 104.033 7.79185C104.033 3.91299 118.997 0.768127 137.456 0.768127C155.916 0.768127 170.879 3.91299 170.879 7.79185Z" fill="#89A2C8"/>
<path d="M113.124 13.3754C113.068 13.3754 113.012 13.3691 112.956 13.3571C106.59 11.9376 103.33 10.0876 103.265 7.8578C103.265 7.84032 103.264 7.81648 103.264 7.79186C103.264 5.44691 106.763 3.52297 113.664 2.07327C120.028 0.73636 128.477 0 137.457 0C146.436 0 154.885 0.73636 161.249 2.07327C168.15 3.52377 171.649 5.4477 171.649 7.79186C171.649 7.91737 171.638 8.04447 171.618 8.16997C171.273 10.2329 168.1 11.9615 162.183 13.3063C162.072 13.3317 161.956 13.3317 161.845 13.3063C155.607 11.9146 146.799 11.1163 137.68 11.1163C128.561 11.1163 119.553 11.9329 113.295 13.3563C113.239 13.3691 113.181 13.3754 113.124 13.3754ZM137.457 1.53707C128.581 1.53707 120.243 2.26154 113.982 3.5778C107.207 5.00129 104.803 6.73774 104.803 7.79186V7.80776C104.832 8.8023 107.032 10.4395 113.124 11.8185C119.479 10.3942 128.414 9.57839 137.68 9.57839C146.946 9.57839 155.59 10.3553 162.009 11.7676C167.717 10.4506 169.933 8.91747 170.1 7.91499C170.107 7.87209 170.111 7.8308 170.111 7.79108C170.111 6.73697 167.707 5.00049 160.933 3.577C154.671 2.26075 146.333 1.53628 137.457 1.53628L137.457 1.53707Z" fill="#F7F3ED"/>
<path d="M145.49 28.2506H127.255C126.742 28.2506 126.327 27.8352 126.327 27.3236V14.7235C126.327 14.2111 126.743 13.7964 127.255 13.7964H145.512C146.024 13.7964 146.439 14.2119 146.439 14.7235C146.439 15.235 146.024 15.6505 145.512 15.6505H128.182V26.3958H145.49C146.002 26.3958 146.417 26.8112 146.417 27.3228C146.417 27.8344 146.001 28.2498 145.49 28.2498V28.2506Z" fill="#5379B2"/>
<path d="M144.95 21.7481H132.524C132.108 21.7481 131.771 21.4113 131.771 20.9958C131.771 20.5804 132.108 20.2435 132.524 20.2435H144.95C145.366 20.2435 145.703 20.5804 145.703 20.9958C145.703 21.4113 145.366 21.7481 144.95 21.7481Z" fill="#5379B2"/>
<path d="M150.131 22.0824C150.824 22.0824 151.385 21.5212 151.385 20.8289C151.385 20.1367 150.824 19.5754 150.131 19.5754C149.439 19.5754 148.877 20.1367 148.877 20.8289C148.877 21.5212 149.439 22.0824 150.131 22.0824Z" fill="#5379B2"/>
<path d="M155.926 21.4144C156.619 21.4144 157.18 20.8531 157.18 20.1609C157.18 19.4686 156.619 18.9073 155.926 18.9073C155.234 18.9073 154.672 19.4686 154.672 20.1609C154.672 20.8531 155.234 21.4144 155.926 21.4144Z" fill="#5379B2"/>
<path d="M161.582 20.4397C162.274 20.4397 162.836 19.8785 162.836 19.1862C162.836 18.494 162.274 17.9327 161.582 17.9327C160.889 17.9327 160.328 18.494 160.328 19.1862C160.328 19.8785 160.889 20.4397 161.582 20.4397Z" fill="#5379B2"/>
<path d="M12.3392 133.668H11.3805C11.1961 133.668 11.0324 133.577 10.9323 133.438C10.9143 133.413 10.8985 133.386 10.8846 133.357L10.8833 133.354V133.353C10.8487 133.282 10.8301 133.203 10.8301 133.119C10.8301 133.113 10.8301 133.108 10.8301 133.102C10.8384 132.806 11.0808 132.568 11.3792 132.568H11.6982L12.0083 133.102L12.3378 133.668H12.3392Z" fill="#5379B2"/>
<path d="M42.5695 133.119C42.5695 133.422 42.3236 133.668 42.0197 133.668H41.0618L41.3919 133.102L41.7034 132.568H42.0197C42.3181 132.568 42.5612 132.806 42.5688 133.102C42.5688 133.108 42.5688 133.113 42.5688 133.119H42.5695Z" fill="#5379B2"/>
<path d="M6.56599 123.756L6.88646 124.306H5.92989C5.626 124.306 5.38013 124.06 5.38013 123.756C5.38013 123.663 5.40361 123.574 5.44436 123.497L5.45334 123.482C5.46577 123.461 5.47889 123.441 5.4934 123.421C5.50099 123.412 5.50859 123.403 5.51619 123.394C5.52448 123.384 5.53276 123.376 5.54105 123.367C5.55003 123.358 5.55832 123.35 5.5673 123.342C5.57627 123.334 5.58525 123.327 5.59492 123.32C5.60459 123.313 5.61357 123.306 5.62324 123.299C5.6336 123.292 5.64465 123.285 5.6557 123.278C5.65708 123.278 5.65777 123.277 5.65915 123.276C5.66813 123.271 5.67642 123.267 5.6854 123.262C5.69507 123.258 5.70474 123.253 5.71441 123.249C5.72339 123.245 5.73167 123.242 5.73996 123.239C5.74894 123.235 5.75723 123.233 5.76621 123.23C5.77519 123.227 5.78347 123.224 5.79245 123.222C5.80972 123.218 5.82837 123.214 5.84633 123.211C5.8553 123.21 5.86428 123.209 5.87395 123.208C5.89191 123.206 5.90987 123.205 5.92851 123.205H5.93058C6.12604 123.205 6.30769 123.309 6.40576 123.478L6.56738 123.755L6.56599 123.756Z" fill="#5379B2"/>
<path d="M48.0216 123.756C48.0216 124.06 47.775 124.306 47.4718 124.306H46.5291L46.8233 123.801L47.0111 123.479C47.1078 123.312 47.2853 123.209 47.4773 123.206H47.4877C47.4911 123.206 47.4953 123.206 47.4987 123.206C47.7895 123.22 48.0209 123.461 48.0209 123.755L48.0216 123.756Z" fill="#5379B2"/>
<path d="M23.5997 154.093C23.338 154.245 23.0009 154.156 22.8483 153.894L10.9323 133.438L10.8847 133.357L10.8833 133.354V133.353L10.7369 133.102L6.38362 125.629L5.93193 124.853L1.18639 133.116L16.4514 159.274C16.6047 159.537 16.5156 159.874 16.2532 160.027C16.1662 160.078 16.0708 160.101 15.9769 160.101C15.7877 160.101 15.6033 160.004 15.501 159.829L0.0751131 133.395C-0.0243423 133.226 -0.0250328 133.015 0.0730411 132.845L5.44294 123.497L5.45192 123.481C5.46435 123.461 5.47747 123.44 5.49197 123.421C5.49957 123.411 5.50717 123.402 5.51477 123.393C5.52305 123.383 5.53134 123.376 5.53963 123.367C5.54861 123.358 5.5569 123.349 5.56587 123.342C5.57485 123.334 5.58383 123.327 5.5935 123.319C5.60317 123.312 5.61215 123.305 5.62182 123.298C5.63218 123.291 5.64323 123.285 5.65428 123.278C5.65566 123.278 5.65635 123.276 5.65773 123.276C5.66671 123.271 5.675 123.266 5.68398 123.262C5.69365 123.257 5.70332 123.252 5.71299 123.248C5.72196 123.245 5.73025 123.241 5.73854 123.238C5.74752 123.235 5.75581 123.233 5.76478 123.229C5.77376 123.227 5.78205 123.224 5.79103 123.222C5.8083 123.217 5.82695 123.213 5.8449 123.211C5.85388 123.209 5.86286 123.209 5.87253 123.207C5.89048 123.205 5.90844 123.204 5.92709 123.204H5.92916C6.12462 123.204 6.30626 123.309 6.40434 123.478L6.56595 123.755L6.88642 124.304L11.7003 132.568L12.0104 133.101L12.3399 133.667L23.7993 153.34C23.9527 153.603 23.8636 153.94 23.6004 154.092L23.5997 154.093Z" fill="#5379B2"/>
<path d="M53.3388 133.397L37.8618 159.764C37.7596 159.938 37.5759 160.036 37.3873 160.036C37.2927 160.036 37.1967 160.011 37.109 159.96C36.8472 159.806 36.7595 159.469 36.9135 159.207L52.2283 133.115L47.5822 125.683L46.8225 126.939L43.0963 133.102L30.5284 153.888C30.375 154.151 30.0387 154.24 29.7762 154.087C29.5138 153.933 29.4247 153.596 29.578 153.334L41.0603 133.668L41.3904 133.102L41.7019 132.568L46.5268 124.305L46.8211 123.8L47.0089 123.478C47.1056 123.311 47.2831 123.209 47.4751 123.205H47.4855C47.4889 123.205 47.4931 123.205 47.4965 123.205C47.6885 123.21 47.8647 123.313 47.9607 123.481L53.3395 132.844C53.4376 133.015 53.4362 133.226 53.3368 133.396L53.3388 133.397Z" fill="#5379B2"/>
<path d="M26.7001 178.024C19.6865 178.024 13.9802 172.32 13.9802 165.309C13.9802 158.298 19.6865 152.594 26.7001 152.594C33.7138 152.594 39.4201 158.298 39.4201 165.309C39.4201 172.32 33.7138 178.024 26.7001 178.024Z" fill="#5379B2"/>
<path d="M24.3457 164.765C24.0991 164.765 23.8484 164.709 23.608 164.595C22.9291 164.274 22.3669 163.522 22.1031 162.581C21.6631 161.009 22.157 159.408 23.2282 158.935C23.6626 158.744 24.1516 158.757 24.6061 158.971C25.285 159.291 25.8472 160.044 26.111 160.984C26.551 162.556 26.0571 164.157 24.9859 164.63C24.7815 164.72 24.5646 164.765 24.3457 164.765Z" fill="#F0E8DB"/>
<path d="M21.3743 169.343C21.3011 169.343 21.2272 169.339 21.1533 169.329C20.4391 169.242 19.7575 168.753 19.2816 167.985C18.4694 166.675 18.5136 164.985 19.3824 164.137C19.7685 163.76 20.2755 163.588 20.8114 163.654C21.5256 163.741 22.2079 164.231 22.6831 164.998C23.4953 166.308 23.4511 167.998 22.5823 168.846C22.2501 169.171 21.8274 169.343 21.3743 169.343Z" fill="#F0E8DB"/>
<path d="M29.0545 164.765C28.8348 164.765 28.6187 164.72 28.4142 164.63C27.343 164.157 26.8492 162.556 27.2891 160.984C27.5523 160.043 28.1152 159.291 28.7941 158.971C29.2485 158.756 29.7375 158.743 30.172 158.935C31.2432 159.408 31.7377 161.009 31.297 162.581C31.0339 163.522 30.471 164.274 29.7921 164.595C29.5517 164.708 29.301 164.765 29.0545 164.765Z" fill="#F0E8DB"/>
<path d="M32.0257 169.343C31.5726 169.343 31.1506 169.17 30.8177 168.846C29.9489 167.998 29.9047 166.308 30.7169 164.998C31.1928 164.231 31.8751 163.74 32.5886 163.653C33.1239 163.589 33.6315 163.76 34.0176 164.137C34.8864 164.985 34.9306 166.675 34.1184 167.985C33.6425 168.753 32.9602 169.242 32.2467 169.329C32.1721 169.338 32.0982 169.343 32.025 169.343H32.0257Z" fill="#F0E8DB"/>
<path d="M26.7001 171.819C25.4949 171.819 24.6184 171.444 24.0949 170.704C23.1673 169.392 23.7772 167.469 23.9084 167.097C24.2765 166.057 25.2027 164.946 26.7001 164.946C28.1974 164.946 29.1236 166.057 29.4917 167.097C29.6236 167.469 30.2335 169.392 29.3052 170.704C28.7817 171.444 27.9053 171.819 26.7001 171.819Z" fill="#F0E8DB"/>
<path d="M47.4781 123.206C47.2861 123.209 47.1079 123.312 47.0119 123.479L46.824 123.801L46.5298 124.306L41.7048 132.569L41.3933 133.103L41.0632 133.669H12.3407L12.0112 133.103L11.7011 132.569L6.88719 124.306L6.56672 123.756L6.40511 123.479C6.30703 123.31 6.12608 123.206 5.92993 123.206H47.4788H47.4781Z" fill="#E3D1B5"/>
<path d="M11.6996 132.569L12.0097 133.103H10.7368L6.38354 125.63V123.756H6.56588L6.88566 124.306L11.6996 132.569Z" fill="#5379B2"/>
<path d="M46.8232 123.801V126.94L43.0971 133.103H41.3918L41.7033 132.569L46.529 124.306L46.8232 123.801Z" fill="#5379B2"/>
<path d="M18.0576 218.667L18.063 218.679C18.0661 218.686 18.0692 218.693 18.0722 218.7C18.0685 218.688 18.0636 218.677 18.0576 218.667Z" fill="#5379B2"/>
<path d="M18.0576 218.667L18.063 218.679C18.0661 218.686 18.0692 218.693 18.0722 218.7C18.0685 218.688 18.0636 218.677 18.0576 218.667Z" fill="#5379B2"/>
<path d="M18.0576 218.667L18.063 218.679C18.0661 218.686 18.0692 218.693 18.0722 218.7C18.0685 218.688 18.0636 218.677 18.0576 218.667Z" fill="#5379B2"/>
<path d="M49.3799 223.61C49.363 223.578 49.3419 223.548 49.3175 223.52L49.307 223.507L37.9428 210.376L34.7957 203.34C34.7272 203.187 34.5859 203.078 34.4202 203.053C34.2548 203.026 34.0874 203.086 33.9748 203.21L31.3721 206.089L27.5714 206.076C27.4294 206.076 27.2934 206.136 27.1985 206.243L24.678 209.08L20.958 209.036C20.8169 209.034 20.6821 209.093 20.5867 209.197L17.9125 212.11L14.1096 212.097C13.9689 212.096 13.8339 212.156 13.7402 212.261L11.1429 215.136L7.39668 215.1C7.22796 215.099 7.06983 215.184 6.97652 215.325C6.88405 215.466 6.86984 215.645 6.93858 215.799L10.0852 222.834L12.2993 240.076C12.3051 240.124 12.3191 240.171 12.3388 240.215L22.2352 262.342C22.3468 262.592 22.6402 262.704 22.8903 262.592L59.041 246.424C59.2905 246.312 59.4029 246.019 59.2913 245.769L49.3949 223.642C49.39 223.631 49.3854 223.621 49.3791 223.61L49.3799 223.61Z" fill="#5379B2"/>
<path d="M48.8494 250.314C48.5993 250.426 48.3062 250.314 48.1943 250.064L38.298 227.937C38.2782 227.892 38.2648 227.845 38.259 227.797L36.0356 210.484C36.0009 210.213 36.1931 209.963 36.4647 209.929C36.7363 209.894 36.9851 210.086 37.02 210.358L39.2339 227.599L49.1005 249.659C49.2124 249.909 49.1004 250.202 48.8502 250.314L48.8494 250.314Z" fill="#FAFAFF"/>
<path d="M33.1396 212.479L31.6301 213.154C31.3799 213.266 31.0869 213.154 30.975 212.904C30.8632 212.654 30.9752 212.361 31.2253 212.249L32.7349 211.574C32.985 211.462 33.2781 211.574 33.3899 211.824C33.5018 212.074 33.3898 212.367 33.1396 212.479ZM29.3655 214.167L27.856 214.842C27.6058 214.954 27.3128 214.842 27.2009 214.592C27.0891 214.342 27.2011 214.049 27.4512 213.937L28.9607 213.262C29.2109 213.15 29.504 213.262 29.6158 213.512C29.7277 213.762 29.6157 214.055 29.3655 214.167ZM25.5914 215.855L24.0819 216.53C23.8317 216.642 23.5386 216.53 23.4268 216.28C23.315 216.03 23.427 215.737 23.6771 215.625L25.1866 214.95C25.4368 214.838 25.7299 214.95 25.8417 215.2C25.9535 215.45 25.8416 215.743 25.5914 215.855ZM21.8173 217.543L20.3078 218.218C20.0576 218.33 19.7645 218.218 19.6527 217.968C19.5409 217.718 19.6528 217.425 19.903 217.313L21.4125 216.638C21.6627 216.526 21.9558 216.638 22.0676 216.888C22.1794 217.138 22.0675 217.431 21.8173 217.543ZM18.0432 219.231L16.5337 219.906C16.2835 220.018 15.9904 219.906 15.8786 219.656C15.7668 219.406 15.8787 219.113 16.1289 219.001L17.6384 218.326C17.8886 218.214 18.1816 218.326 18.2935 218.576C18.4053 218.826 18.2933 219.119 18.0432 219.231ZM14.2691 220.919L12.7596 221.594C12.5094 221.706 12.2163 221.594 12.1045 221.344C11.9926 221.094 12.1046 220.801 12.3548 220.689L13.8643 220.014C14.1145 219.902 14.4075 220.014 14.5194 220.264C14.6312 220.514 14.5192 220.807 14.2691 220.919Z" fill="#FAFAFF"/>
<path d="M35.8801 229.544L14.7444 238.997C14.4943 239.109 14.2012 238.997 14.0893 238.747C13.9775 238.497 14.0895 238.204 14.3396 238.092L35.4753 228.639C35.7255 228.527 36.0186 228.639 36.1304 228.889C36.2422 229.139 36.1303 229.432 35.8801 229.544Z" fill="#FAFAFF"/>
<path d="M27.6594 246.259C27.4155 246.369 27.1425 246.423 26.8536 246.418C26.0177 246.4 25.0987 245.885 24.3954 245.039C23.2201 243.626 22.9816 241.764 23.8518 240.802C24.1954 240.422 24.6844 240.219 25.2277 240.23C26.0636 240.247 26.9826 240.762 27.6859 241.608C28.8612 243.021 29.1002 244.883 28.2295 245.845C28.0682 246.024 27.8751 246.163 27.6594 246.259Z" fill="#F0E8DB"/>
<path d="M26.6719 252.568C26.5996 252.6 26.5241 252.628 26.4468 252.653C25.6858 252.888 24.7693 252.697 23.9319 252.13C22.4937 251.156 21.7578 249.407 22.2559 248.148C22.4716 247.604 22.8988 247.209 23.4577 247.036C24.2187 246.801 25.1351 246.992 25.9726 247.559C27.4108 248.533 28.1467 250.282 27.6486 251.54C27.4632 252.009 27.1211 252.367 26.6724 252.568L26.6719 252.568Z" fill="#F0E8DB"/>
<path d="M32.6877 244.011C32.4719 244.107 32.2393 244.158 31.999 244.16C30.7007 244.166 29.4725 242.747 29.2029 240.93C29.0409 239.841 29.2697 238.813 29.8142 238.178C30.1685 237.765 30.6454 237.537 31.1578 237.534C32.4556 237.528 33.6843 238.947 33.954 240.764C34.1159 241.853 33.8872 242.881 33.3426 243.515C33.1548 243.734 32.9323 243.902 32.6879 244.011L32.6877 244.011Z" fill="#F0E8DB"/>
<path d="M38.0474 247.48C37.5987 247.681 37.1034 247.697 36.6304 247.523C35.3602 247.055 34.5471 245.341 34.78 243.62C34.9156 242.618 35.3842 241.807 36.0667 241.397C36.5687 241.095 37.1472 241.04 37.6969 241.242C38.9671 241.71 39.7799 243.424 39.5474 245.146C39.4117 246.148 38.9429 246.958 38.2606 247.369C38.1913 247.411 38.1196 247.448 38.0474 247.48Z" fill="#F0E8DB"/>
<path d="M33.5425 252.668C32.3015 253.223 31.2318 253.243 30.3628 252.729C28.8081 251.808 28.5492 249.528 28.5129 249.081C28.413 247.845 28.8509 246.281 30.38 245.597C31.909 244.913 33.3668 245.629 34.2217 246.528C34.5311 246.853 36.058 248.566 35.7079 250.339C35.512 251.329 34.7835 252.113 33.5425 252.668Z" fill="#F0E8DB"/>
<path d="M261.595 124.314L267.23 159.68C267.511 161.45 269.176 162.656 270.946 162.374L273.489 161.969L274.818 170.311C274.935 171.043 275.624 171.543 276.356 171.426C276.723 171.368 277.031 171.167 277.233 170.888C277.435 170.61 277.53 170.255 277.472 169.888L276.143 161.546L278.686 161.141C280.456 160.859 281.663 159.195 281.381 157.426L275.747 122.059C275.465 120.289 273.8 119.083 272.03 119.365L269.488 119.77L269.124 117.488L266.47 117.911L266.834 120.193L264.291 120.598C262.52 120.88 261.313 122.544 261.595 124.314Z" fill="#FAFAFF"/>
<path d="M265.889 114.264L268.543 113.841L273.262 143.466L270.608 143.889L265.889 114.264Z" fill="#5379B2"/>
<path d="M277.233 141.781L279.618 156.751C279.85 158.206 278.943 159.561 277.591 159.776L271.687 160.717C270.336 160.932 269.052 159.927 268.82 158.471L266.435 143.501C266.253 142.359 266.966 141.296 268.026 141.127L274.983 140.019C276.044 139.85 277.051 140.639 277.233 141.781L277.233 141.781Z" fill="#5379B2"/>
<path d="M276.476 172.18C277.032 172.092 277.52 171.792 277.851 171.336C278.181 170.881 278.315 170.324 278.226 169.769L277.017 162.18L278.806 161.895C280.99 161.547 282.484 159.488 282.136 157.306L276.502 121.939C276.154 119.756 274.095 118.263 271.911 118.611L264.172 119.844C261.988 120.192 260.494 122.251 260.841 124.434L266.476 159.8C266.823 161.983 268.883 163.476 271.067 163.128L272.856 162.843L274.065 170.432C274.248 171.579 275.33 172.363 276.477 172.18L276.476 172.18ZM272.15 120.118C273.503 119.903 274.778 120.827 274.993 122.179L280.627 157.546C280.843 158.897 279.918 160.172 278.565 160.387L276.023 160.793C275.607 160.859 275.323 161.25 275.389 161.666L276.718 170.008C276.742 170.161 276.706 170.315 276.614 170.44C276.523 170.566 276.389 170.648 276.236 170.673C275.92 170.723 275.622 170.507 275.571 170.191L274.242 161.849C274.176 161.433 273.785 161.149 273.369 161.215L270.826 161.62C269.474 161.836 268.198 160.912 267.983 159.56L262.349 124.194C262.134 122.842 263.058 121.567 264.411 121.351L272.15 120.118Z" fill="#5379B2"/>
<path d="M270.102 112.572L264.014 113.542C263.436 113.634 263.041 114.179 263.133 114.757L263.222 115.315C263.314 115.893 263.859 116.288 264.437 116.196L270.524 115.226C271.103 115.134 271.498 114.589 271.406 114.011L271.317 113.453C271.225 112.875 270.68 112.48 270.102 112.572Z" fill="#5379B2"/>
<path d="M274.781 147.715L279.36 146.986C279.777 146.92 280.06 146.528 279.994 146.112C279.928 145.696 279.536 145.413 279.12 145.479L274.541 146.209C274.124 146.275 273.841 146.666 273.907 147.082C273.973 147.498 274.364 147.782 274.781 147.715Z" fill="#5379B2"/>
<path d="M275.593 152.814L280.173 152.085C280.589 152.018 280.873 151.627 280.807 151.211C280.74 150.795 280.349 150.511 279.933 150.578L275.353 151.307C274.937 151.374 274.653 151.765 274.719 152.181C274.786 152.597 275.177 152.88 275.593 152.814Z" fill="#5379B2"/>
<path d="M277.33 225.001L272.506 251.508C272.318 252.539 271.33 253.223 270.298 253.035L248.81 249.125C247.778 248.937 247.095 247.948 247.282 246.918L252.106 220.41C252.743 216.911 254.745 214.005 257.463 212.14C258.254 211.597 258.789 210.754 258.96 209.811L259.621 206.181L275.309 209.036L274.649 212.666C274.475 213.621 274.696 214.604 275.25 215.401C275.253 215.405 275.256 215.41 275.258 215.413C277.126 218.11 277.963 221.519 277.33 225L277.33 225.001Z" fill="#AEBED6"/>
<path d="M276.357 204.538L260.225 201.602C259.725 201.511 259.245 201.842 259.154 202.343L258.422 206.363C258.331 206.863 258.663 207.343 259.164 207.434L275.296 210.37C275.796 210.461 276.276 210.129 276.367 209.629L277.099 205.608C277.19 205.108 276.858 204.629 276.357 204.538Z" fill="#5379B2"/>
<path d="M260.736 206.908C260.505 206.866 260.351 206.645 260.393 206.413L261.001 203.072C261.043 202.841 261.265 202.688 261.496 202.73C261.728 202.772 261.881 202.993 261.839 203.224L261.231 206.566C261.189 206.796 260.967 206.95 260.736 206.908Z" fill="#FAFAFF"/>
<path d="M264.1 207.52C263.869 207.478 263.716 207.257 263.758 207.026L264.366 203.684C264.408 203.454 264.629 203.3 264.86 203.342C265.091 203.384 265.244 203.605 265.202 203.837L264.594 207.178C264.552 207.409 264.331 207.562 264.1 207.52Z" fill="#FAFAFF"/>
<path d="M267.463 208.132C267.233 208.09 267.079 207.869 267.121 207.638L267.729 204.296C267.771 204.066 267.992 203.912 268.224 203.954C268.455 203.996 268.608 204.217 268.566 204.449L267.958 207.79C267.916 208.02 267.694 208.174 267.463 208.132Z" fill="#FAFAFF"/>
<path d="M270.827 208.744C270.596 208.702 270.442 208.481 270.484 208.25L271.092 204.909C271.134 204.678 271.356 204.524 271.587 204.566C271.818 204.608 271.971 204.829 271.929 205.061L271.321 208.402C271.279 208.633 271.057 208.786 270.827 208.744Z" fill="#FAFAFF"/>
<path d="M274.19 209.356C273.96 209.314 273.806 209.093 273.848 208.862L274.456 205.521C274.498 205.29 274.719 205.136 274.951 205.178C275.182 205.22 275.335 205.442 275.293 205.673L274.685 209.014C274.643 209.245 274.422 209.399 274.19 209.356Z" fill="#FAFAFF"/>
<path d="M268.902 231.309L257.771 229.283C256.563 229.064 255.406 229.864 255.186 231.071L255.186 231.072C254.966 232.279 255.767 233.436 256.975 233.656L268.107 235.682C269.314 235.902 270.472 235.101 270.691 233.894L270.691 233.893C270.911 232.686 270.11 231.529 268.902 231.309Z" fill="#E3D1B5"/>
<path d="M264.113 238.444L266.138 227.317C266.358 226.11 265.557 224.953 264.349 224.733L264.349 224.733C263.141 224.513 261.984 225.314 261.764 226.521L259.739 237.648C259.519 238.855 260.32 240.012 261.528 240.232L261.529 240.232C262.736 240.452 263.894 239.651 264.113 238.444Z" fill="#E3D1B5"/>
<path d="M72.9437 67.136L59.4724 90.469C58.9485 91.3764 57.7871 91.6873 56.8794 91.1632L37.9645 80.2427C37.0562 79.7183 36.7454 78.5574 37.2693 77.65L50.7406 54.317C52.5189 51.2369 55.3832 49.1749 58.5709 48.3344C59.4984 48.0898 60.2853 47.4765 60.765 46.6458L62.6096 43.4507L76.4191 51.4236L74.5744 54.6187C74.0888 55.4598 73.9663 56.4596 74.2192 57.3973C74.2203 57.4017 74.2217 57.4068 74.2229 57.4112C75.0725 60.5798 74.7131 64.0712 72.944 67.1354L72.9437 67.136Z" fill="#AEBED6"/>
<path d="M78.9212 47.5413L64.7208 39.3428C64.2802 39.0884 63.717 39.2392 63.4627 39.6796L61.4196 43.2183C61.1654 43.6587 61.3164 44.2219 61.7569 44.4763L75.9573 52.6749C76.3979 52.9292 76.9611 52.7784 77.2154 52.338L79.2585 48.7993C79.5127 48.3589 79.3617 47.7957 78.9212 47.5413Z" fill="#5379B2"/>
<path d="M63.4145 44.5109C63.2114 44.3936 63.1412 44.1334 63.2587 43.9298L64.9568 40.9887C65.074 40.7856 65.3342 40.7155 65.5379 40.8331C65.7416 40.9507 65.8113 41.2106 65.6937 41.4142L63.9957 44.3553C63.8784 44.5583 63.6182 44.6284 63.4145 44.5109Z" fill="#FAFAFF"/>
<path d="M66.3757 46.2204C66.1725 46.1031 66.1029 45.8432 66.2204 45.6396L67.9185 42.6985C68.0357 42.4955 68.2959 42.4253 68.499 42.5426C68.7021 42.6599 68.7724 42.9201 68.6548 43.1237L66.9568 46.0648C66.8396 46.2678 66.5793 46.338 66.3757 46.2204Z" fill="#FAFAFF"/>
<path d="M69.3364 47.9298C69.1333 47.8125 69.0631 47.5523 69.1806 47.3487L70.8787 44.4076C70.9959 44.2046 71.2561 44.1345 71.4598 44.252C71.6634 44.3696 71.7326 44.6292 71.615 44.8328L69.917 47.7739C69.7998 47.9769 69.5395 48.0471 69.3364 47.9298Z" fill="#FAFAFF"/>
<path d="M72.2971 49.6393C72.094 49.522 72.0238 49.2618 72.1413 49.0582L73.8394 46.1171C73.9566 45.9141 74.2168 45.8439 74.4205 45.9615C74.6241 46.0791 74.6933 46.3387 74.5757 46.5423L72.8777 49.4834C72.7605 49.6864 72.5002 49.7565 72.2971 49.6393Z" fill="#FAFAFF"/>
<path d="M75.258 51.3487C75.0549 51.2315 74.9847 50.9713 75.1022 50.7677L76.8003 47.8266C76.9175 47.6235 77.1777 47.5534 77.3814 47.671C77.5851 47.7886 77.6548 48.0484 77.5372 48.252L75.8392 51.1932C75.7219 51.3962 75.4617 51.4663 75.258 51.3487Z" fill="#FAFAFF"/>
<path d="M62.8834 70.2367L53.0849 64.5795C52.0218 63.9657 50.6625 64.3297 50.0489 65.3924L50.0486 65.3929C49.4351 66.4557 49.7995 67.8148 50.8626 68.4286L60.6612 74.0858C61.7243 74.6996 63.0835 74.3356 63.6971 73.2729L63.6974 73.2724C64.311 72.2096 63.9466 70.8505 62.8834 70.2367Z" fill="#E3D1B5"/>
<path d="M55.9706 75.3416L61.6256 65.5468C62.2392 64.4841 61.8747 63.125 60.8116 62.5112L60.811 62.5108C59.7479 61.897 58.3886 62.261 57.7751 63.3237L52.1201 73.1185C51.5065 74.1812 51.8709 75.5403 52.9341 76.1541L52.9346 76.1545C53.9978 76.7683 55.357 76.4043 55.9706 75.3416Z" fill="#E3D1B5"/>
<path d="M154.213 337.608V345.543C154.213 345.815 153.993 346.035 153.72 346.035C153.448 346.035 153.228 345.815 153.228 345.543V337.608C153.228 333.158 149.606 329.538 145.155 329.538C140.703 329.538 137.082 333.158 137.082 337.608V345.543C137.082 345.815 136.861 346.035 136.589 346.035C136.318 346.035 136.097 345.815 136.097 345.543V337.608C136.097 335.834 136.61 334.178 137.495 332.78C137.713 332.435 137.954 332.107 138.215 331.796C139.878 329.815 142.372 328.554 145.156 328.554C147.939 328.554 150.433 329.815 152.096 331.796C152.357 332.107 152.598 332.435 152.816 332.78C153.701 334.178 154.214 335.834 154.214 337.608H154.213Z" fill="#5379B2"/>
<path d="M137.081 345.543C137.081 345.814 136.861 346.035 136.589 346.035H128.401C128.673 346.035 128.894 345.815 128.894 345.543V345.051H136.589C136.861 345.051 137.081 345.271 137.081 345.543Z" fill="#5379B2"/>
<path d="M166.343 319.525V345.543C166.343 345.814 166.122 346.035 165.851 346.035H161.909C161.637 346.035 161.417 345.815 161.417 345.543V319.525H166.344H166.343Z" fill="#5379B2"/>
<path d="M161.908 346.035H153.72C153.449 346.035 153.228 345.815 153.228 345.543C153.228 345.271 153.449 345.051 153.72 345.051H161.416V345.543C161.416 345.814 161.636 346.035 161.908 346.035Z" fill="#5379B2"/>
<path d="M166.343 319.034V319.526H123.966V319.034C123.966 318.762 124.186 318.542 124.458 318.542H165.85C166.122 318.542 166.342 318.762 166.342 319.034H166.343Z" fill="#5379B2"/>
<path d="M161.416 325.168H128.894V326.153H161.416V325.168Z" fill="#5379B2"/>
<path d="M138.935 332.288C138.935 332.56 138.714 332.78 138.442 332.78H128.894V331.796H138.442C138.714 331.796 138.935 332.017 138.935 332.288Z" fill="#5379B2"/>
<path d="M137.081 338.916C137.081 339.187 136.861 339.408 136.589 339.408H128.894V338.423H136.589C136.861 338.423 137.081 338.644 137.081 338.916Z" fill="#5379B2"/>
<path d="M161.416 331.796V332.78H151.866C151.595 332.78 151.374 332.56 151.374 332.288C151.374 332.016 151.594 331.796 151.866 331.796H161.416Z" fill="#5379B2"/>
<path d="M161.416 332.78V338.423H154.213V337.608C154.213 335.834 153.7 334.178 152.815 332.78H161.416Z" fill="#D6BB8F"/>
<path d="M161.416 339.407H154.213V345.051H161.416V339.407Z" fill="#D6BB8F"/>
<path d="M161.416 338.423V339.407H153.747C153.475 339.407 153.254 339.187 153.254 338.915C153.254 338.643 153.474 338.423 153.747 338.423H161.416Z" fill="#5379B2"/>
<path d="M169.768 318.649L145.462 299.217C145.282 299.073 145.027 299.073 144.847 299.217L120.541 318.649C120.378 318.78 120.314 318.999 120.384 319.196C120.453 319.393 120.639 319.525 120.848 319.525H169.461C169.67 319.525 169.856 319.393 169.925 319.196C169.994 318.999 169.931 318.78 169.768 318.649H169.768Z" fill="#5379B2"/>
<path d="M158.415 315.11C158.307 315.11 158.198 315.075 158.107 315.002L145.155 304.647L139.832 308.903C139.619 309.073 139.31 309.038 139.139 308.826C138.97 308.614 139.004 308.304 139.217 308.134L144.848 303.632C145.028 303.489 145.283 303.489 145.463 303.632L158.723 314.233C158.935 314.403 158.97 314.713 158.8 314.925C158.703 315.047 158.56 315.11 158.415 315.11H158.415Z" fill="#FAFAFF"/>
<path d="M161.415 319.525H128.893V325.168H161.415V319.525Z" fill="#D6BB8F"/>
<path d="M161.415 326.153V331.796H152.094C150.432 329.815 147.938 328.554 145.154 328.554C142.37 328.554 139.876 329.815 138.214 331.796H128.893V326.153H161.415H161.415Z" fill="#D6BB8F"/>
<path d="M137.494 332.78C136.609 334.178 136.096 335.834 136.096 337.608V338.424H128.893V332.78H137.494Z" fill="#D6BB8F"/>
<path d="M136.096 339.407H128.893V345.051H136.096V339.407Z" fill="#D6BB8F"/>
<path d="M128.893 319.525V345.543C128.893 345.814 128.673 346.035 128.401 346.035H124.459C124.187 346.035 123.967 345.815 123.967 345.543V319.525H128.894H128.893Z" fill="#5379B2"/>
<path d="M128.893 319.034V319.526H127.909V319.034C127.909 318.762 128.129 318.542 128.401 318.542C128.673 318.542 128.893 318.762 128.893 319.034Z" fill="#5379B2"/>
<path d="M162.401 319.034V319.526H161.416V319.034C161.416 318.762 161.636 318.542 161.908 318.542C162.181 318.542 162.401 318.762 162.401 319.034Z" fill="#5379B2"/>
<path d="M230.194 296.276C223.822 290.775 217.449 285.275 211.076 279.774C211.565 279.195 212.401 278.281 213.597 277.354C216.09 275.417 217.848 275.204 220.94 273.294C221.75 272.793 222.956 271.989 224.331 270.815L237.351 282.172C237.032 282.408 236.548 282.818 236.126 283.442C235.135 284.906 235.184 286.516 235.178 286.942C235.159 288.452 234.265 291.136 230.194 296.276Z" fill="#6486B9"/>
<path d="M216.873 291.647C217.305 290.738 217.379 289.772 217.068 289.063C216.861 288.59 216.489 288.249 216.022 288.103C214.87 287.744 213.401 288.653 212.678 290.172C212.246 291.08 212.172 292.046 212.483 292.755C212.593 293.006 212.749 293.219 212.941 293.387C213.111 293.535 213.31 293.648 213.53 293.716C214.681 294.075 216.151 293.166 216.873 291.647L216.873 291.647Z" fill="#FAFAFF"/>
<path d="M211.491 292.442C211.642 291.523 211.443 290.681 210.948 290.129C210.576 289.716 210.066 289.505 209.511 289.536C208.262 289.606 207.083 290.889 206.826 292.456C206.675 293.375 206.873 294.217 207.368 294.769C207.42 294.827 207.474 294.88 207.531 294.93C207.883 295.237 208.328 295.389 208.806 295.363C209.457 295.326 210.09 294.96 210.583 294.395C211.034 293.877 211.369 293.192 211.491 292.442Z" fill="#FAFAFF"/>
<path d="M221.414 292.807C221.207 292.364 220.818 292.042 220.32 291.901C219.576 291.69 218.629 291.894 217.788 292.445C216.381 293.367 215.68 294.947 216.192 296.038C216.289 296.247 216.427 296.428 216.598 296.577C216.79 296.744 217.022 296.87 217.286 296.945C218.031 297.156 218.977 296.952 219.819 296.401C221.226 295.479 221.927 293.899 221.415 292.807L221.414 292.807Z" fill="#FAFAFF"/>
<path d="M220.877 299.452C220.834 298.898 220.555 298.421 220.095 298.109C219.788 297.901 219.419 297.776 219.016 297.739C218.613 297.7 218.175 297.748 217.73 297.886C216.212 298.353 215.101 299.695 215.202 300.943C215.24 301.42 215.451 301.84 215.803 302.147C215.86 302.196 215.92 302.242 215.984 302.286C216.597 302.702 217.46 302.784 218.349 302.51C219.867 302.043 220.978 300.7 220.878 299.453L220.877 299.452Z" fill="#FAFAFF"/>
<path d="M215.357 298.684C215.776 297.627 215.809 296.136 214.646 295.122C213.484 294.108 212.012 294.343 211.021 294.902C210.667 295.102 208.891 296.182 208.722 297.829C208.627 298.758 209.054 299.643 209.99 300.46C210.926 301.277 211.861 301.58 212.769 301.359C214.379 300.969 215.208 299.062 215.357 298.684Z" fill="#FAFAFF"/>
<path d="M242.874 273.251L232.483 264.187C231.509 263.337 229.919 263.563 228.937 264.688L223.749 270.636C223.543 270.872 223.567 271.23 223.804 271.436L236.87 282.835C237.106 283.04 237.464 283.016 237.67 282.78L242.859 276.832C243.84 275.707 243.848 274.101 242.874 273.251Z" fill="#6486B9"/>
<path d="M237.473 276.445L230.051 269.97C229.815 269.764 229.79 269.407 229.996 269.171C230.202 268.935 230.56 268.911 230.796 269.116L238.218 275.591C238.454 275.797 238.479 276.155 238.273 276.391C238.067 276.626 237.709 276.651 237.473 276.445Z" fill="#FAFAFF"/>
<path d="M228.529 299.525C228.574 299.473 228.619 299.421 228.663 299.368C228.753 299.265 228.84 299.161 228.927 299.058C228.948 299.034 228.97 299.009 228.99 298.984C229.054 298.908 229.118 298.83 229.182 298.756C229.67 298.168 230.123 297.598 230.541 297.047C230.55 297.037 230.556 297.027 230.563 297.017C230.75 296.75 230.626 296.397 230.469 296.26L230.468 296.259L230.013 295.865L227.072 293.317L227.067 293.313C226.579 292.888 226.294 292.255 226.284 291.578C226.244 289.115 225.15 286.767 223.28 285.136C221.411 283.505 219.001 282.785 216.557 283.065C215.898 283.14 215.244 282.945 214.762 282.528L211.829 279.995L211.344 279.576C211.167 279.424 210.922 279.399 210.725 279.496C210.639 279.581 210.552 279.668 210.465 279.755C209.75 280.474 209.009 281.268 208.241 282.149C202.665 288.541 195.571 297.211 193.93 300.613C193.328 301.86 193.44 303.339 194.221 304.474C194.827 305.355 197.082 307.501 200.925 310.853C204.767 314.205 207.2 316.148 208.155 316.629C208.486 316.795 208.835 316.91 209.191 316.975C209.232 316.983 209.272 316.989 209.314 316.995C209.375 317.004 209.435 317.012 209.497 317.018C209.533 317.022 209.569 317.025 209.605 317.027C209.662 317.031 209.721 317.034 209.779 317.037C209.805 317.038 209.832 317.037 209.857 317.037C209.878 317.037 209.897 317.037 209.918 317.038C209.968 317.037 210.018 317.036 210.068 317.033C210.101 317.032 210.133 317.029 210.165 317.027C210.218 317.023 210.272 317.019 210.326 317.012C210.922 316.943 211.503 316.736 212.02 316.393C215.167 314.306 222.794 306.1 228.37 299.708L228.393 299.683C228.438 299.63 228.484 299.578 228.53 299.526L228.529 299.525ZM217.788 292.445C218.629 291.894 219.576 291.69 220.32 291.901C220.818 292.042 221.206 292.364 221.414 292.807C221.926 293.9 221.225 295.478 219.818 296.401C218.977 296.952 218.029 297.156 217.285 296.944C217.021 296.87 216.789 296.744 216.597 296.577C216.426 296.428 216.289 296.247 216.191 296.038C215.68 294.946 216.38 293.367 217.787 292.445L217.788 292.445ZM216.022 288.103C216.489 288.248 216.861 288.59 217.067 289.063C217.378 289.773 217.304 290.738 216.872 291.647C216.15 293.166 214.68 294.075 213.529 293.715C213.309 293.648 213.11 293.535 212.94 293.386C212.748 293.219 212.592 293.006 212.482 292.754C212.172 292.045 212.246 291.08 212.677 290.172C213.4 288.653 214.87 287.743 216.021 288.103L216.022 288.103ZM208.805 295.362C208.327 295.389 207.882 295.237 207.53 294.93C207.473 294.88 207.419 294.826 207.367 294.769C206.872 294.218 206.674 293.375 206.825 292.456C207.082 290.889 208.261 289.606 209.51 289.536C210.065 289.504 210.575 289.715 210.947 290.129C211.443 290.68 211.64 291.523 211.49 292.441C211.367 293.191 211.033 293.877 210.581 294.395C210.089 294.959 209.456 295.325 208.805 295.362ZM212.769 301.359C211.861 301.58 210.926 301.277 209.99 300.46C209.053 299.643 208.627 298.759 208.722 297.829C208.89 296.182 210.667 295.101 211.021 294.902C212.011 294.343 213.483 294.108 214.646 295.122C215.809 296.136 215.776 297.626 215.357 298.684C215.207 299.062 214.378 300.969 212.769 301.359ZM218.349 302.509C217.46 302.783 216.598 302.701 215.984 302.285C215.92 302.241 215.859 302.195 215.802 302.146C215.451 301.839 215.24 301.419 215.201 300.942C215.101 299.694 216.212 298.352 217.73 297.885C218.174 297.747 218.613 297.699 219.016 297.738C219.419 297.775 219.787 297.9 220.094 298.109C220.554 298.421 220.833 298.898 220.877 299.451C220.977 300.699 219.866 302.041 218.348 302.508L218.349 302.509Z" fill="#D6BB8F"/>
<path d="M210.725 279.495C210.639 279.58 210.552 279.667 210.465 279.754C210.486 279.711 210.512 279.671 210.545 279.634C210.597 279.574 210.658 279.528 210.725 279.495Z" fill="#6486B9"/>
<path d="M224.603 271.38C224.478 271.525 224.346 271.661 224.209 271.789C223.339 272.604 222.25 273.121 220.92 273.753C218.653 274.828 215.701 276.229 211.829 279.995L211.343 279.576C211.166 279.423 210.921 279.399 210.724 279.495C214.916 275.347 218.163 273.806 220.434 272.729C221.91 272.028 222.976 271.522 223.749 270.636C223.954 270.4 224.312 270.376 224.549 270.582C224.785 270.788 224.809 271.146 224.603 271.381L224.603 271.38Z" fill="#6486B9"/>
<path d="M230.563 297.016C230.751 296.749 230.626 296.396 230.47 296.259L230.468 296.258L230.013 295.864C233.221 291.514 234.208 288.397 234.967 286.005C235.412 284.601 235.775 283.452 236.465 282.479C236.574 282.326 236.69 282.178 236.817 282.033C237.022 281.798 237.38 281.773 237.617 281.979C237.853 282.185 237.877 282.543 237.671 282.779C236.898 283.665 236.541 284.79 236.048 286.347C235.281 288.765 234.183 292.233 230.564 297.015L230.563 297.016Z" fill="#6486B9"/>
<path d="M233.948 299.781L232.6 301.326L236.62 304.832L237.968 303.287L233.948 299.781Z" fill="#D6BB8F"/>
<path d="M248.519 312.15L247.754 312.049C247.38 312 247.047 311.842 246.782 311.611C246.33 311.217 246.077 310.611 246.161 309.974L246.514 307.293C246.55 307.024 246.448 306.756 246.243 306.578L241.213 302.189L239.639 303.993C239.433 304.229 239.076 304.254 238.839 304.048L233.076 299.021C232.841 298.815 232.815 298.457 233.021 298.221L239.109 291.242C239.314 291.007 239.673 290.982 239.909 291.188L245.672 296.215C245.908 296.421 245.932 296.779 245.727 297.015L244.152 298.819L249.802 303.748C250.751 304.576 251.22 305.816 251.056 307.064L250.596 310.558C250.463 311.57 249.532 312.284 248.52 312.151L248.519 312.15Z" fill="#6486B9"/>
<path d="M247.113 314.268C247.171 314.058 247.103 313.835 246.939 313.692C246.775 313.548 246.544 313.512 246.344 313.597C245.536 313.942 241.46 315.711 240.607 316.689C239.592 317.852 239.712 319.626 240.877 320.642C242.042 321.658 243.815 321.537 244.831 320.373C245.684 319.395 246.883 315.116 247.114 314.269L247.113 314.268Z" fill="#D6BB8F"/>
<path d="M238.997 313.986L225.444 329.522C224.763 330.303 223.573 330.384 222.792 329.703L209.835 318.4C209.413 318.032 209.187 317.508 209.19 316.974C209.231 316.982 209.271 316.988 209.313 316.993C209.373 317.003 209.434 317.011 209.496 317.017C209.531 317.021 209.567 317.023 209.604 317.026C209.661 317.03 209.719 317.033 209.778 317.035C209.804 317.037 209.83 317.037 209.856 317.036C209.876 317.036 209.896 317.036 209.916 317.037C209.967 317.036 210.016 317.035 210.067 317.032C210.1 317.031 210.132 317.028 210.164 317.026C210.217 317.022 210.271 317.017 210.324 317.011C210.921 316.942 211.502 316.735 212.018 316.392C215.165 314.305 222.793 306.099 228.369 299.707L228.392 299.682C228.437 299.629 228.483 299.577 228.529 299.524C228.574 299.473 228.619 299.421 228.663 299.368C228.753 299.265 228.84 299.161 228.927 299.058C228.948 299.034 228.97 299.009 228.99 298.984C229.054 298.908 229.118 298.83 229.182 298.755C229.747 298.978 230.274 299.297 230.737 299.7L238.483 306.458C239.21 307.092 239.723 307.881 240.017 308.732C240.619 310.481 240.298 312.496 238.998 313.986L238.997 313.986Z" fill="#6486B9"/>
<path d="M52.5953 293.448L66.1151 288.064L92.3471 314.296L86.9068 327.957C86.8484 328.104 86.8016 328.256 86.7724 328.411C86.7343 328.616 86.653 328.784 86.5272 328.909C84.8295 330.607 75.6125 324.142 65.9403 314.47C56.2681 304.798 49.8033 295.581 51.501 293.883C51.6137 293.771 51.759 293.694 51.9358 293.651C52.1598 293.598 52.3807 293.532 52.5945 293.448L52.5953 293.448Z" fill="#5379B2"/>
<path d="M76.1569 304.253C83.4006 311.497 90.6489 315.993 92.3465 314.295C94.0442 312.598 89.5482 305.349 82.3045 298.106C75.0609 290.862 67.8125 286.366 66.1149 288.064C64.4173 289.761 68.9132 297.01 76.1569 304.253Z" fill="#5379B2"/>
<path d="M68.5438 290.493C68.1728 290.864 68.165 291.561 68.4663 292.495C68.7174 293.275 69.1835 294.22 69.8327 295.28C70.4479 296.284 71.2271 297.391 72.1445 298.557C72.5224 299.039 72.924 299.529 73.3469 300.028C73.3724 300.058 73.3983 300.088 73.4241 300.119C73.4612 300.162 73.4983 300.205 73.5361 300.249C73.5792 300.299 73.6223 300.35 73.6654 300.4C73.8261 300.586 73.9901 300.773 74.1568 300.961C74.9525 301.857 75.8122 302.771 76.7254 303.684C77.082 304.041 77.439 304.39 77.7945 304.729C77.8919 304.822 77.9885 304.914 78.0859 305.006C79.4902 306.33 80.8746 307.514 82.1774 308.519C83.8413 309.803 85.3725 310.796 86.6418 311.418C87.828 311.999 88.7861 312.256 89.4108 312.125C89.6167 312.081 89.7867 311.996 89.9167 311.866C90.2462 311.537 90.2895 310.95 90.0838 310.169C89.9009 309.473 89.5213 308.621 88.971 307.658C88.8987 307.531 88.8234 307.403 88.7454 307.273C88.0808 306.164 87.2076 304.922 86.1636 303.609C86.1467 303.587 86.1299 303.566 86.1126 303.545C85.5129 302.793 84.8577 302.017 84.1538 301.23C84.119 301.191 84.0834 301.152 84.0482 301.113C84.0048 301.064 83.9609 301.016 83.9167 300.967C83.2312 300.21 82.5019 299.442 81.7344 298.675C81.1946 298.135 80.6552 297.614 80.1191 297.114C79.9225 296.931 79.7262 296.75 79.5307 296.572C79.3509 296.409 79.1718 296.248 78.9939 296.09C78.9235 296.028 78.8534 295.966 78.7834 295.904C78.2863 295.468 77.7949 295.051 77.3117 294.656C76.879 294.303 76.4531 293.967 76.0363 293.65L75.9936 293.618C75.9479 293.584 75.9022 293.549 75.8568 293.515C75.1455 292.981 74.4616 292.502 73.8154 292.086C73.2128 291.698 72.6435 291.364 72.115 291.091C71.9973 291.03 71.8812 290.971 71.7677 290.916C70.2164 290.164 69.0617 289.973 68.5431 290.492L68.5438 290.493Z" fill="#C0CCDD"/>
<path d="M64.0972 295.128L59.3732 299.852C61.4685 303.276 64.5347 307.551 68.9031 311.85C72.9427 315.825 76.9285 318.672 80.1875 320.666L84.9115 315.942C81.7825 314.276 77.5412 310.977 73.3016 306.738C69.062 302.498 65.7636 298.257 64.0972 295.128Z" fill="#FAFAFF"/>
<path d="M73.417 320.01C73.2166 319.81 73.1955 319.486 73.3775 319.261C73.5722 319.02 73.9258 318.982 74.1666 319.178C76.4691 321.04 78.9034 322.783 81.4018 324.358C82.5067 325.055 83.6446 325.733 84.784 326.371C85.0545 326.523 85.1511 326.865 84.9991 327.135C84.8479 327.405 84.5056 327.502 84.2348 327.35C83.0785 326.703 81.9238 326.015 80.8027 325.308C78.2673 323.709 75.797 321.94 73.4604 320.051C73.4447 320.038 73.4297 320.025 73.4159 320.011L73.417 320.01Z" fill="#FAFAFF"/>
<mask id="mask0_138_8662" style="mask-type:alpha" maskUnits="userSpaceOnUse" x="68" y="73" width="155" height="212">
<path d="M222.195 178.785C219.891 236.399 188.203 284.218 143.922 284.218C101.307 284.218 68.3677 234.066 68.3677 178.785C68.3677 120.557 101.307 73.3529 143.922 73.3529C186.537 73.3529 222.195 120.557 222.195 178.785Z" fill="#D9D9D9"/>
</mask>
<g mask="url(#mask0_138_8662)">
<path d="M79.8949 287.314C85.9493 269.793 90.8591 257.12 94.746 243.463C101.082 221.198 100.187 195.736 99.1361 172.608C106.534 170.867 111.035 170.822 115.541 170.767C142.622 172.033 170.444 168.732 197.189 161.456C166.668 203.306 190.266 247.92 190.438 250.491C188.121 261.621 190.697 276.173 193.39 287.314H79.8894H79.8949Z" fill="#36454D"/>
<path d="M162.56 237.298C171.08 242.026 183.941 247.03 194.125 250.491C203.751 227.086 208.368 202.797 208.368 183.788C208.368 181.062 208.097 177.137 206.787 173.288C205.454 169.429 203.088 165.642 198.858 163.22C197.581 162.474 196.132 161.865 194.501 161.412C194.153 161.782 193.821 162.158 193.473 162.545C186.185 170.861 179.805 183.495 174.514 192.944C174.447 193.541 174.375 194.122 174.309 194.686C172.114 212.412 169.443 220.556 162.554 237.293L162.56 237.298Z" fill="#568F8F"/>
<path d="M174.314 194.686C180.208 191.645 185.118 186.801 190.232 182.467C195.087 178.359 200.665 174.494 206.792 173.283C205.459 169.424 203.093 165.636 198.863 163.214C197.121 162.639 195.286 162.368 193.478 162.545C186.19 170.861 179.81 183.495 174.519 192.944C174.452 193.541 174.38 194.122 174.314 194.686Z" fill="#496969"/>
<path d="M100.092 165C109.276 188.195 140.819 226.157 141.793 225.311C161.476 208.409 184.294 190.628 203.48 164.326C196.514 155.391 188.491 148.502 181.43 142.038C182.719 119.33 182.232 108.029 178.329 98.5299C174.585 89.4456 168.454 82.374 160.774 78.0779C153.287 73.8703 144.325 72.3055 134.699 74.0638C114.971 77.6743 105.455 93.2386 105.455 109.793C105.455 113.359 105.815 117.285 106.567 121.42C108.32 130.798 112.201 141.209 118.941 150.63C111.189 155.225 106.008 161.489 100.092 164.989V165Z" fill="#C96565"/>
<path d="M169.621 132.788C171.406 143.299 166.353 154.644 157.357 160.367C148.361 166.09 135.943 165.83 127.185 159.753C118.427 153.677 113.849 142.138 116.055 131.699C133.377 132.672 150.75 132.81 169.621 132.794V132.788Z" fill="#A64848"/>
<path d="M105.461 109.804C105.461 113.37 105.82 117.296 106.572 121.431C106.639 115.244 107.839 109.09 110.227 103.39C114.706 92.6967 123.42 83.7728 134.157 79.4269C142.55 76.0321 152.11 75.5455 160.774 78.0834C153.288 73.8758 144.325 72.311 134.699 74.0693C114.971 77.6798 105.456 93.2441 105.456 109.798L105.461 109.804Z" fill="#A64848"/>
<path d="M172.866 130.687C175.276 122.653 176.432 114.238 176.261 105.856C176.996 110.041 177.742 114.26 177.538 118.501C177.344 122.742 176.111 127.054 172.866 130.687Z" fill="#A64848"/>
<path d="M112.759 126.374C112.975 127.369 113.224 128.376 113.506 129.415C114.23 132.064 115.181 134.845 116.392 137.764C124.912 158.376 136.407 163.342 151.043 159.233C163.997 155.601 171.744 144.515 171.827 128.663C171.849 125.169 171.489 121.448 170.743 117.522C170.428 115.891 170.063 114.232 169.609 112.535C163.151 88.1352 141.566 85.4204 127.174 92.6911C115.297 98.6736 109.21 109.765 112.759 126.38V126.374Z" fill="#F3CAB9"/>
<path opacity="0.32" d="M112.76 126.374C112.727 121.238 112.998 116.112 114.308 111.158C116.138 104.247 120.313 97.6176 126.754 94.5269C131.586 92.2102 137.276 92.1051 142.445 93.4764C147.615 94.8476 152.32 97.6176 156.578 100.852C162.494 105.331 167.758 111.02 170.743 117.517C171.49 121.442 171.849 125.163 171.827 128.658C159.575 117.13 146.056 107.177 129.64 103.893C122.049 108.609 115.657 120.204 113.506 129.415" fill="#E78972"/>
<path d="M131.769 136.907C128.253 134.778 123.398 135.143 120.413 137.654C121.27 135.575 123.321 134.043 125.549 133.816C127.788 133.601 130.1 134.69 131.769 136.907Z" fill="#283445"/>
<path d="M118.179 128.403C119.13 126.391 121.054 124.887 123.216 124.445C125.378 124.002 127.739 124.638 129.641 126.435C128.983 125.053 128.269 123.654 127.208 122.554C126.135 121.448 124.653 120.663 123.133 120.779C121.38 120.917 119.887 122.239 119.058 123.787C118.223 125.335 117.913 127.115 118.184 128.403H118.179Z" fill="#762105"/>
<path d="M149.02 133.789C151.552 130.554 156.224 129.183 159.912 130.471C158.375 128.829 155.909 128.127 153.747 128.708C151.574 129.283 149.789 131.118 149.02 133.789Z" fill="#283445"/>
<path d="M159.132 121.039C157.291 119.546 154.709 119.004 152.354 119.601C149.998 120.209 147.93 121.935 146.83 124.577C146.874 122.924 146.957 121.238 147.543 119.657C148.118 118.075 149.252 116.616 150.833 116.013C152.641 115.322 154.703 115.886 156.229 116.986C157.756 118.092 158.834 119.679 159.138 121.039H159.132Z" fill="#762105"/>
<path d="M138.659 140.689C138.714 140.689 138.775 140.684 138.83 140.661C139.112 140.567 139.267 140.258 139.173 139.976C138.77 138.77 138.598 137.51 138.659 136.238C138.676 135.94 138.443 135.685 138.145 135.674C137.857 135.669 137.592 135.89 137.581 136.188C137.515 137.598 137.702 138.986 138.145 140.324C138.222 140.551 138.432 140.695 138.659 140.695V140.689Z" fill="#AD3F37"/>
<path d="M136.132 145.339C140.124 144.477 146.04 142.237 149.219 140.158C150.894 141.585 151.326 144.084 150.452 146.074C149.579 148.065 147.489 149.331 145.338 150.044C141.401 151.355 137.149 150.194 136.132 145.339Z" fill="#FAFAFF"/>
<path d="M174.292 133.999C164.572 116.405 148.145 102.223 127.704 97.391C118.891 107.255 113.279 121.896 114.717 134.397C108.303 124.837 107.026 111.977 111.648 101.433C116.265 90.8888 126.715 83.0707 138.154 81.8156C149.594 80.5605 161.592 86.0343 167.962 95.6272C174.707 105.751 174.917 118.794 174.298 133.999H174.292Z" fill="#C96565"/>
<path d="M94.5244 176.506C89.8081 198.976 84.1408 230.968 87.9282 239.715C91.4668 247.925 125.952 257.861 144.413 264.524C151.098 257.137 153.486 245.902 154.47 235.618C133.405 216.636 113.113 201.896 94.5244 176.506Z" fill="#496969"/>
<path d="M165.966 216.338C162.256 224.642 153.951 230.492 144.983 231.996C136.02 233.5 126.599 230.901 119.157 225.682C111.715 220.457 106.18 212.783 102.752 204.367C99.3129 195.952 97.8975 186.818 97.1621 178.055C104.494 176.733 111.599 174.228 118.814 171.785C125.045 180.111 133.25 186.956 142.241 191.38C145.033 188.316 149.517 186.923 153.553 187.863C157.589 188.803 160.995 192.049 162.433 196.19C162.024 192.806 162.671 189.301 164.279 186.293C164.982 184.971 166.237 183.6 167.685 183.926C168.863 184.186 169.665 185.397 169.936 186.586C171.644 194.21 172.23 205.186 172.23 212.357C172.241 219.948 165.723 218.793 165.971 216.338H165.966Z" fill="#EA9C69"/>
<path d="M171.086 207.309C170.964 203.953 170.378 201.255 169.787 201.277C169.195 201.299 168.803 204.036 168.93 207.392C169.051 210.748 169.637 213.446 170.229 213.424C170.821 213.402 171.213 210.665 171.086 207.309Z" fill="#B3673D"/>
<path d="M167.702 195.88C167.647 194.387 167.243 193.193 166.795 193.21C166.347 193.226 166.027 194.448 166.082 195.941C166.137 197.434 166.541 198.628 166.989 198.612C167.437 198.595 167.757 197.373 167.702 195.88Z" fill="#B3673D"/>
<path d="M169.665 191.838C169.609 190.346 169.206 189.151 168.758 189.168C168.31 189.184 167.989 190.406 168.045 191.899C168.1 193.392 168.504 194.586 168.952 194.57C169.399 194.553 169.72 193.331 169.665 191.838Z" fill="#B3673D"/>
<path d="M170.842 195.891C170.787 194.398 170.56 193.199 170.334 193.204C170.107 193.21 169.969 194.426 170.024 195.919C170.079 197.412 170.306 198.612 170.533 198.606C170.759 198.6 170.897 197.384 170.842 195.891Z" fill="#B3673D"/>
<path d="M135.047 196.383C138.995 203.134 140.035 211.251 144.032 217.969C144.646 218.997 145.298 220.048 145.525 221.214C145.763 222.392 145.481 223.747 144.541 224.482C143.081 225.605 140.975 224.742 139.448 223.714C132.742 219.202 128.059 211.798 126.859 203.803C126.499 201.404 126.494 198.772 127.832 196.743C129.164 194.719 133.101 193.066 135.047 196.383Z" fill="#DD804C"/>
<path d="M140.41 213.678C139.177 210.223 137.502 207.668 136.661 207.967C135.821 208.265 136.141 211.306 137.374 214.762C138.607 218.218 140.283 220.772 141.123 220.473C141.964 220.175 141.643 217.134 140.41 213.678Z" fill="#B3673D"/>
<path d="M133.328 203.709C132.952 202.659 132.249 201.945 131.752 202.122C131.254 202.299 131.16 203.295 131.536 204.345C131.912 205.396 132.614 206.109 133.112 205.932C133.61 205.755 133.704 204.76 133.328 203.709Z" fill="#B3673D"/>
<path d="M134.936 200.287C134.56 199.236 133.858 198.523 133.36 198.7C132.863 198.877 132.769 199.872 133.145 200.923C133.521 201.973 134.223 202.686 134.72 202.51C135.218 202.333 135.312 201.337 134.936 200.287Z" fill="#B3673D"/>
<path d="M137.48 203.184C137.104 202.134 136.518 201.382 136.169 201.503C135.821 201.625 135.843 202.581 136.219 203.632C136.595 204.682 137.181 205.434 137.529 205.313C137.878 205.186 137.856 204.235 137.48 203.184Z" fill="#B3673D"/>
<path d="M106.672 190.711C106.943 188.604 108.458 184.872 109.387 183.219C110.045 182.052 111.206 181.068 112.544 181.035C114.999 181.737 116.978 183.534 118.349 185.618C119.721 187.714 120.555 190.108 121.313 192.496C121.672 193.619 121.993 194.918 121.368 195.902C120.71 196.931 119.24 197.157 118.089 196.759C116.945 196.35 115.214 194.111 114.402 193.447C114.402 196.4 115.104 200.702 114.855 203.643C114.778 204.489 114.684 205.385 114.175 206.065C113.578 206.866 112.5 207.198 111.504 207.137C110.509 207.071 109.569 206.662 108.673 206.197C106.888 205.269 105.212 204.13 103.686 202.803" fill="#DD804C"/>
<path d="M120.655 174.942C123.348 176.457 126.256 179.581 129.004 178.563C130.044 178.176 130.635 172.896 131.719 170.159C132.045 169.346 132.443 168.473 133.256 168.113C134.119 167.737 135.125 168.124 135.971 168.567C139.034 170.176 141.671 172.581 143.584 175.456C144.286 176.517 144.906 177.855 144.397 179.022C143.911 180.133 142.506 180.62 141.295 180.438C140.084 180.255 139.023 179.575 137.779 178.923C137.668 180.504 137.928 182.091 137.906 183.672C137.873 185.264 137.486 186.94 136.314 188.018C135.103 189.129 133.35 189.35 131.708 189.522" fill="#EA9C69"/>
<path d="M116.243 147.506C114.59 137.847 108.878 128.851 100.679 122.99C94.4584 130.963 91.445 140.595 91.9427 150.641C99.7386 149.464 107.535 148.286 116.243 147.506Z" fill="#EA9C69"/>
<path d="M103.349 129.421C103.963 129.83 104.56 130.283 105.146 130.753C110.283 134.817 113.854 140.529 114.999 146.589C113.583 146.461 112.168 146.384 110.725 146.373C106.186 146.329 101.574 146.937 97.0017 148.679C96.5815 141.673 98.7876 134.967 103.349 129.426V129.421Z" fill="#DB8C9F"/>
<path d="M103.349 129.421C103.963 129.83 104.56 130.283 105.146 130.753C104.82 130.864 104.521 131.046 104.284 131.273C103.515 132.009 101.928 135.785 102.951 139.351C103.753 142.132 106.13 144.294 108.823 145.582C109.437 145.875 110.078 146.135 110.725 146.362C106.186 146.318 101.574 146.926 97.0017 148.668C96.5815 141.673 98.7876 134.967 103.349 129.426V129.421Z" fill="#C96387"/>
<path d="M80.4034 168.008C81.0171 170.552 82.1671 172.841 83.7208 174.831C83.7282 174.853 83.7356 174.861 83.7429 174.853C88.8241 181.355 98.2567 184.535 107.805 182.196C114.219 180.626 119.444 176.877 122.645 172.127C125.664 167.638 126.875 162.264 125.587 156.989C122.927 146.108 110.664 139.76 98.1959 142.801C85.7168 145.853 77.7549 157.133 80.4034 168.008Z" fill="#EA9C69"/>
<path d="M83.7427 174.853C88.8239 181.355 98.2565 184.535 107.805 182.196C114.219 180.625 119.444 176.877 122.645 172.127C117.962 175.915 112.588 178.768 106.727 180.012C98.7873 181.687 89.9297 180.001 83.7482 174.853H83.7427Z" fill="#DD804C"/>
<path d="M82.8693 172.216C74.2937 169.783 66.647 163.541 62.0303 155.203C69.7433 149.967 78.6838 147.938 87.7128 149.287C86.0043 156.629 84.2958 163.972 82.8693 172.216Z" fill="#EA9C69"/>
<path d="M67.6091 158.321C67.9353 158.946 68.2892 159.554 68.6596 160.151C71.9052 165.42 76.7597 169.324 82.134 170.944C82.134 169.584 82.1893 168.218 82.2943 166.847C82.6316 162.512 83.5605 158.161 85.5067 153.948C79.2257 152.941 72.9834 154.456 67.6091 158.327V158.321Z" fill="#DB8C9F"/>
<path d="M67.6091 158.321C67.9353 158.946 68.2892 159.554 68.6596 160.151C68.7868 159.847 68.9748 159.576 69.2015 159.372C69.9258 158.703 73.4644 157.514 76.5994 158.808C79.0432 159.814 80.7959 162.28 81.7359 164.962C81.9515 165.575 82.1229 166.206 82.2888 166.842C82.6261 162.507 83.555 158.155 85.5012 153.942C79.2312 152.936 72.9889 154.451 67.6146 158.321H67.6091Z" fill="#C96387"/>
<path d="M105.461 169.739C102.044 168.257 97.903 168.561 94.7349 170.53C96.084 168.97 98.1076 168.019 100.175 167.964C102.243 167.909 104.317 168.744 105.461 169.739Z" fill="#805539"/>
<path d="M116.514 165C116.481 161.821 118.753 158.758 121.8 157.873C120.036 157.569 118.123 158.338 117.062 159.775C115.978 161.213 115.807 163.259 116.509 165H116.514Z" fill="#805539"/>
<path d="M118.565 168.788C118.576 169.545 118.488 170.347 118.023 170.939C117.57 171.547 116.813 171.784 115.967 171.403C115.591 172.509 114.606 173.382 113.468 173.653C112.334 173.913 110.902 173.609 110.128 172.758C110.885 173.852 112.096 174.4 113.318 174.422C113.998 174.433 114.667 174.162 115.159 173.698C115.646 173.233 115.95 172.575 116.099 171.934C116.464 172.453 117.277 172.509 117.819 172.16C118.361 171.812 118.643 171.176 118.748 170.551C118.858 169.927 118.803 169.241 118.565 168.788Z" fill="#805539"/>
<path d="M115.928 171.89C116.066 170.806 115.668 169.833 115.115 168.904C115.895 169.706 116.381 170.762 115.928 171.89Z" fill="#805539"/>
<path d="M116.63 166.98C116.155 166.311 114.783 166.46 113.562 167.328C112.34 168.191 111.731 169.435 112.212 170.109C112.688 170.778 115.552 169.496 115.552 169.496C115.552 169.496 117.111 167.654 116.636 166.985L116.63 166.98Z" fill="#DB8C9F"/>
<path d="M153.409 238.985C155.549 243.364 157.711 247.787 159.121 252.608C160.525 257.43 161.167 262.732 160.171 267.703C158.28 277.163 150.418 283.792 142.545 283.881C140.51 283.903 138.055 283.123 137.508 280.713C137.076 278.844 138.083 276.875 139.354 275.736C140.632 274.603 142.158 273.984 143.496 272.966C147.239 270.102 148.947 264.208 148.632 258.779C148.317 253.338 146.304 248.279 144.015 243.629C147.184 241.694 150.363 239.792 153.415 238.979L153.409 238.985Z" fill="#EA9C69"/>
<path d="M95.5753 197.102C95.9347 199.922 97.328 202.576 99.1305 204.705C97.5326 206.878 98.1131 210.427 100.104 212.44C99.5175 213.313 98.9259 214.248 98.8153 215.304C98.7048 216.36 99.2687 217.576 100.037 218.699C99.2023 221.015 100.557 223.586 102.31 225.229C106.993 229.608 116.619 230.354 116.619 230.354C116.619 230.354 117.216 230.907 118.101 231.703C120.169 233.561 123.79 236.751 124.946 237.293C126.19 231.703 127.345 223.785 128.589 218.196C126.837 217.112 124.542 216.205 122.706 215.32C122.435 215.193 122.176 215.072 121.938 214.944C122.209 206.446 118.079 197.86 111.339 192.906C110.233 192.093 108.668 191.391 107.629 192.297C106.484 193.304 107.098 195.228 107.8 196.599C109.149 199.258 110.504 201.918 111.012 204.859C107.28 201.603 103.548 198.352 99.8327 195.095C98.9038 194.282 97.6487 193.42 96.565 193.989C95.5698 194.531 95.4205 195.936 95.5697 197.091L95.5753 197.102Z" fill="#F3CAB9"/>
<path opacity="0.32" d="M118.101 231.709C120.168 233.566 123.79 236.757 124.946 237.298C126.19 231.709 127.345 223.791 128.589 218.201C126.837 217.117 124.542 216.211 122.706 215.326C120.251 220.473 118.692 226.041 118.101 231.709Z" fill="#E78972"/>
<path d="M121.269 238.565C121.202 243.087 121.407 247.627 121.893 252.138C136.214 255.533 150.528 258.917 164.838 262.317C171.014 263.788 177.726 265.823 183.614 263.451C192.71 259.796 197.188 241.694 197.188 241.694C197.188 241.694 184.3 232.024 175.006 230.111C161.15 227.269 147.57 223.094 133.681 217.438C130.613 216.172 127.505 214.845 124.392 213.435C122.468 221.662 121.396 230.111 121.269 238.57V238.565Z" fill="#568F8F"/>
<path d="M167.663 229.348C171.965 230.083 175.73 232.842 178.467 236.237C181.204 239.643 183.028 243.679 184.676 247.721C185.749 242.982 184.416 237.779 181.226 234.136C178.025 230.492 173.026 228.502 167.663 229.348Z" fill="#496969"/>
<path d="M168.249 226.959C176.747 222.657 187.8 224.007 195.004 230.238C186.838 226.412 177.378 226.948 168.249 226.959Z" fill="#496969"/>
<path d="M121.269 238.565C122.153 234.268 123.596 230.105 125.543 226.179C126.925 223.387 128.633 220.656 131.143 218.804C131.912 218.229 132.775 217.764 133.687 217.432C130.618 216.166 127.511 214.839 124.398 213.429C122.474 221.657 121.401 230.105 121.274 238.565H121.269Z" fill="#496969"/>
</g>
<path d="M166.232 56.0052C164.788 56.3751 164.705 56.6445 164.484 61.3534C164.268 65.7547 164.309 66.0646 165.067 65.9443C166.446 65.742 166.623 65.1925 166.905 60.1903C167.127 56.1086 167.076 55.7867 166.232 56.0052Z" fill="#C89037"/>
<path d="M176.247 61.8711C174.673 61.4476 174.693 61.4942 171.345 64.9467C168.875 67.4982 168.423 68.2958 169.217 68.5991C170.09 68.9179 170.231 68.834 173.506 65.7085C176.612 62.7566 177.214 62.1265 176.247 61.8711Z" fill="#C89037"/>
</svg>
