<svg width="375" height="372" viewBox="0 0 375 372" fill="none" xmlns="http://www.w3.org/2000/svg">
<g clip-path="url(#clip0_328_1875)">
<path d="M185.145 323.016C99.584 308.646 23.7408 363.427 -38.143 283.915C-80.1982 229.88 -44.1069 213.677 -61.6831 125.742C-83.6534 15.8235 -65.6878 -89.4788 -19.161 -150.888C46.1569 -237.098 150.815 -166.422 224.108 -170.699C312.638 -175.864 379.719 -295.828 420.663 -222.118C461.608 -148.408 514.832 328.229 409.432 365.766C341.952 389.798 272.062 337.614 185.145 323.016Z" fill="#F0F2F8"/>
</g>
<g clip-path="url(#clip1_328_1875)">
<path d="M187.703 256.661C187.462 256.661 187.265 256.468 187.26 256.227C187.256 255.982 187.45 255.781 187.695 255.776C188.132 255.768 188.574 255.755 189.009 255.736C189.252 255.727 189.459 255.916 189.47 256.16C189.48 256.405 189.29 256.611 189.046 256.621C188.604 256.64 188.155 256.654 187.711 256.662C187.709 256.662 187.705 256.662 187.703 256.662V256.661ZM185.122 256.646C185.118 256.646 185.113 256.646 185.109 256.646C184.664 256.633 184.214 256.615 183.772 256.591C183.528 256.578 183.341 256.37 183.354 256.126C183.367 255.882 183.576 255.695 183.819 255.708C184.254 255.731 184.697 255.749 185.134 255.762C185.379 255.77 185.571 255.973 185.564 256.218C185.557 256.457 185.36 256.647 185.122 256.647V256.646ZM191.601 256.451C191.375 256.451 191.181 256.278 191.161 256.048C191.139 255.804 191.319 255.589 191.562 255.567C191.997 255.528 192.438 255.483 192.872 255.433C193.115 255.406 193.334 255.58 193.362 255.822C193.39 256.065 193.216 256.284 192.974 256.313C192.533 256.363 192.085 256.409 191.642 256.449C191.628 256.451 191.615 256.451 191.601 256.451ZM181.224 256.392C181.209 256.392 181.194 256.392 181.178 256.39C180.737 256.345 180.289 256.294 179.848 256.238C179.606 256.207 179.434 255.986 179.465 255.744C179.496 255.501 179.717 255.329 179.96 255.36C180.392 255.415 180.832 255.465 181.268 255.51C181.511 255.534 181.688 255.752 181.663 255.994C181.64 256.223 181.448 256.392 181.223 256.392H181.224ZM195.477 255.96C195.264 255.96 195.077 255.805 195.041 255.588C195.001 255.347 195.165 255.12 195.406 255.08C195.838 255.01 196.274 254.932 196.702 254.851C196.943 254.806 197.174 254.963 197.219 255.204C197.265 255.444 197.107 255.675 196.867 255.721C196.432 255.804 195.988 255.882 195.549 255.954C195.525 255.958 195.5 255.96 195.477 255.96ZM177.354 255.857C177.329 255.857 177.303 255.855 177.277 255.851C176.838 255.774 176.396 255.69 175.961 255.602C175.722 255.554 175.567 255.32 175.615 255.081C175.662 254.841 175.897 254.686 176.136 254.734C176.563 254.82 176.998 254.902 177.429 254.979C177.67 255.021 177.831 255.251 177.788 255.491C177.75 255.705 177.563 255.857 177.353 255.857H177.354ZM199.307 255.187C199.107 255.187 198.926 255.051 198.877 254.848C198.82 254.61 198.966 254.371 199.204 254.314C199.629 254.212 200.058 254.103 200.48 253.991C200.716 253.928 200.958 254.068 201.021 254.305C201.085 254.541 200.944 254.783 200.708 254.846C200.279 254.961 199.842 255.071 199.41 255.175C199.375 255.183 199.34 255.187 199.306 255.187H199.307ZM173.533 255.041C173.498 255.041 173.461 255.037 173.425 255.027C172.994 254.919 172.559 254.803 172.131 254.684C171.896 254.618 171.758 254.375 171.824 254.139C171.89 253.904 172.134 253.766 172.369 253.831C172.79 253.949 173.218 254.063 173.641 254.169C173.879 254.229 174.022 254.47 173.962 254.707C173.912 254.907 173.732 255.041 173.533 255.041ZM203.071 254.137C202.883 254.137 202.709 254.016 202.649 253.829C202.575 253.596 202.704 253.347 202.936 253.273C203.351 253.14 203.771 253 204.185 252.857C204.415 252.777 204.668 252.899 204.748 253.13C204.829 253.36 204.706 253.613 204.475 253.693C204.055 253.839 203.628 253.982 203.206 254.116C203.161 254.131 203.115 254.137 203.071 254.137V254.137ZM169.782 253.947C169.736 253.947 169.689 253.939 169.642 253.924C169.218 253.783 168.791 253.636 168.373 253.485C168.143 253.402 168.024 253.148 168.107 252.919C168.19 252.689 168.443 252.569 168.673 252.652C169.084 252.801 169.504 252.945 169.921 253.084C170.153 253.161 170.278 253.411 170.202 253.644C170.14 253.83 169.967 253.947 169.782 253.947ZM206.747 252.812C206.571 252.812 206.406 252.707 206.336 252.535C206.245 252.308 206.354 252.05 206.581 251.959C206.985 251.796 207.391 251.627 207.792 251.455C208.016 251.358 208.276 251.461 208.373 251.686C208.47 251.91 208.367 252.171 208.142 252.267C207.735 252.443 207.321 252.615 206.911 252.781C206.856 252.802 206.801 252.812 206.746 252.812H206.747ZM166.112 252.577C166.055 252.577 165.997 252.566 165.942 252.543C165.531 252.372 165.117 252.193 164.709 252.012C164.486 251.913 164.385 251.651 164.485 251.428C164.584 251.204 164.846 251.104 165.07 251.204C165.47 251.382 165.879 251.558 166.282 251.726C166.508 251.82 166.615 252.079 166.521 252.304C166.45 252.474 166.286 252.577 166.113 252.577H166.112ZM210.308 251.227C210.144 251.227 209.987 251.136 209.91 250.98C209.803 250.76 209.893 250.495 210.113 250.388C210.505 250.195 210.899 249.996 211.285 249.796C211.502 249.683 211.769 249.767 211.882 249.984C211.995 250.201 211.91 250.468 211.693 250.581C211.301 250.785 210.901 250.988 210.502 251.183C210.44 251.213 210.373 251.228 210.308 251.228V251.227ZM162.554 250.942C162.487 250.942 162.42 250.927 162.355 250.894C161.958 250.694 161.558 250.486 161.166 250.276C160.951 250.16 160.869 249.891 160.985 249.676C161.1 249.461 161.369 249.38 161.584 249.495C161.97 249.702 162.364 249.907 162.754 250.104C162.973 250.215 163.06 250.48 162.95 250.699C162.872 250.853 162.716 250.942 162.554 250.942ZM213.746 249.386C213.594 249.386 213.446 249.307 213.364 249.166C213.24 248.955 213.312 248.684 213.523 248.561C213.9 248.341 214.279 248.114 214.649 247.885C214.857 247.757 215.13 247.822 215.258 248.03C215.386 248.237 215.322 248.51 215.114 248.639C214.737 248.871 214.351 249.102 213.969 249.325C213.899 249.366 213.822 249.386 213.746 249.386ZM159.128 249.053C159.051 249.053 158.972 249.032 158.9 248.989C158.519 248.76 158.135 248.523 157.76 248.286C157.553 248.155 157.492 247.882 157.622 247.676C157.753 247.469 158.027 247.408 158.233 247.539C158.602 247.773 158.979 248.006 159.355 248.231C159.565 248.357 159.633 248.629 159.507 248.838C159.424 248.976 159.277 249.053 159.127 249.053L159.128 249.053ZM217.043 247.298C216.902 247.298 216.763 247.231 216.677 247.105C216.539 246.904 216.591 246.628 216.792 246.49C217.152 246.244 217.513 245.989 217.867 245.733C218.065 245.59 218.342 245.635 218.485 245.833C218.628 246.031 218.583 246.308 218.385 246.451C218.025 246.711 217.657 246.97 217.292 247.22C217.216 247.273 217.129 247.297 217.042 247.297L217.043 247.298ZM155.849 246.92C155.761 246.92 155.672 246.894 155.595 246.839C155.232 246.583 154.866 246.319 154.509 246.055C154.313 245.909 154.271 245.632 154.417 245.436C154.563 245.24 154.84 245.198 155.036 245.344C155.388 245.605 155.747 245.864 156.105 246.116C156.304 246.256 156.352 246.532 156.212 246.732C156.126 246.855 155.989 246.92 155.85 246.92H155.849ZM220.181 244.976C220.051 244.976 219.922 244.919 219.835 244.809C219.683 244.618 219.714 244.34 219.905 244.187C220.247 243.914 220.59 243.634 220.923 243.355C221.111 243.198 221.389 243.223 221.547 243.409C221.704 243.597 221.679 243.875 221.493 244.033C221.153 244.317 220.805 244.602 220.457 244.879C220.376 244.944 220.279 244.976 220.182 244.976H220.181ZM152.735 244.555C152.637 244.555 152.538 244.523 152.455 244.455C152.11 244.173 151.765 243.883 151.429 243.594C151.244 243.435 151.223 243.156 151.382 242.97C151.541 242.785 151.821 242.764 152.006 242.923C152.337 243.207 152.676 243.492 153.016 243.769C153.205 243.924 153.233 244.203 153.078 244.392C152.991 244.499 152.864 244.554 152.736 244.554L152.735 244.555ZM223.145 242.432C223.026 242.432 222.907 242.384 222.819 242.29C222.654 242.11 222.665 241.83 222.845 241.664C223.166 241.368 223.488 241.063 223.8 240.76C223.976 240.59 224.256 240.594 224.426 240.769C224.597 240.945 224.592 241.225 224.417 241.396C224.098 241.704 223.771 242.013 223.445 242.315C223.359 242.393 223.252 242.432 223.144 242.432L223.145 242.432ZM149.802 241.972C149.693 241.972 149.583 241.932 149.497 241.851C149.175 241.547 148.852 241.232 148.537 240.919C148.364 240.747 148.363 240.467 148.535 240.293C148.707 240.12 148.987 240.119 149.161 240.291C149.471 240.6 149.789 240.908 150.106 241.208C150.284 241.376 150.292 241.656 150.123 241.833C150.037 241.925 149.92 241.971 149.802 241.971V241.972ZM225.918 239.679C225.809 239.679 225.701 239.639 225.615 239.56C225.436 239.392 225.428 239.112 225.595 238.934C225.894 238.615 226.193 238.288 226.483 237.962C226.646 237.78 226.926 237.764 227.108 237.927C227.29 238.089 227.306 238.369 227.143 238.551C226.849 238.882 226.545 239.214 226.24 239.538C226.153 239.631 226.036 239.678 225.917 239.678L225.918 239.679ZM147.063 239.185C146.943 239.185 146.823 239.137 146.737 239.042C146.438 238.714 146.138 238.378 145.847 238.044C145.686 237.859 145.705 237.58 145.89 237.419C146.074 237.258 146.353 237.278 146.514 237.462C146.801 237.792 147.096 238.122 147.39 238.444C147.555 238.624 147.543 238.904 147.362 239.069C147.277 239.147 147.17 239.185 147.063 239.185ZM228.486 236.732C228.387 236.732 228.289 236.7 228.207 236.634C228.017 236.48 227.988 236.201 228.141 236.011C228.417 235.672 228.691 235.323 228.957 234.977C229.107 234.784 229.384 234.748 229.578 234.897C229.772 235.046 229.807 235.324 229.658 235.517C229.387 235.87 229.108 236.223 228.828 236.568C228.74 236.676 228.613 236.732 228.484 236.732H228.486ZM144.534 236.209C144.404 236.209 144.274 236.152 144.187 236.041C143.912 235.693 143.638 235.336 143.372 234.982C143.225 234.786 143.265 234.509 143.46 234.362C143.656 234.215 143.933 234.255 144.08 234.45C144.341 234.8 144.612 235.15 144.882 235.493C145.034 235.685 145.001 235.963 144.809 236.114C144.728 236.178 144.631 236.209 144.535 236.209H144.534ZM230.834 233.607C230.747 233.607 230.658 233.581 230.581 233.527C230.381 233.388 230.331 233.111 230.471 232.911C230.72 232.552 230.969 232.185 231.211 231.82C231.345 231.616 231.62 231.56 231.824 231.694C232.027 231.829 232.083 232.103 231.95 232.307C231.704 232.678 231.452 233.051 231.198 233.416C231.112 233.539 230.974 233.606 230.834 233.606V233.607ZM142.228 233.06C142.086 233.06 141.947 232.991 141.861 232.865C141.613 232.499 141.365 232.124 141.126 231.751C140.993 231.545 141.053 231.271 141.259 231.139C141.464 231.007 141.738 231.067 141.87 231.272C142.107 231.64 142.35 232.009 142.595 232.369C142.732 232.572 142.679 232.847 142.477 232.984C142.401 233.036 142.314 233.06 142.229 233.06L142.228 233.06ZM232.951 230.317C232.874 230.317 232.796 230.297 232.726 230.256C232.515 230.131 232.446 229.859 232.571 229.649C232.794 229.272 233.016 228.887 233.229 228.507C233.349 228.293 233.618 228.218 233.832 228.337C234.045 228.456 234.121 228.726 234.001 228.939C233.785 229.327 233.56 229.717 233.332 230.101C233.249 230.24 233.102 230.317 232.951 230.317ZM140.158 229.753C140.005 229.753 139.856 229.673 139.774 229.531C139.552 229.147 139.333 228.755 139.121 228.366C139.004 228.152 139.084 227.883 139.298 227.766C139.512 227.649 139.781 227.729 139.898 227.943C140.106 228.326 140.322 228.711 140.54 229.089C140.662 229.301 140.59 229.571 140.378 229.693C140.308 229.733 140.232 229.752 140.157 229.752L140.158 229.753ZM234.823 226.881C234.757 226.881 234.689 226.866 234.626 226.835C234.407 226.726 234.318 226.46 234.427 226.241C234.622 225.85 234.815 225.45 235.001 225.053C235.105 224.832 235.368 224.737 235.59 224.84C235.811 224.943 235.906 225.207 235.803 225.428C235.614 225.833 235.418 226.239 235.22 226.637C235.143 226.792 234.986 226.882 234.824 226.882L234.823 226.881ZM138.334 226.306C138.169 226.306 138.012 226.214 137.935 226.056C137.742 225.657 137.552 225.251 137.369 224.848C137.269 224.625 137.367 224.363 137.589 224.262C137.812 224.162 138.074 224.26 138.175 224.482C138.354 224.879 138.542 225.278 138.731 225.671C138.837 225.891 138.746 226.156 138.525 226.262C138.463 226.292 138.397 226.306 138.332 226.306H138.334ZM236.44 223.316C236.384 223.316 236.327 223.305 236.272 223.282C236.046 223.19 235.937 222.931 236.03 222.705C236.196 222.3 236.359 221.886 236.515 221.477C236.602 221.249 236.858 221.134 237.086 221.221C237.314 221.308 237.429 221.564 237.342 221.792C237.184 222.209 237.017 222.629 236.848 223.04C236.778 223.212 236.613 223.315 236.439 223.315L236.44 223.316ZM136.766 222.737C136.59 222.737 136.423 222.632 136.354 222.458C136.191 222.046 136.03 221.625 135.877 221.208C135.792 220.978 135.91 220.724 136.139 220.639C136.369 220.555 136.623 220.672 136.708 220.901C136.859 221.312 137.016 221.726 137.177 222.131C137.267 222.358 137.156 222.616 136.928 222.706C136.875 222.727 136.82 222.737 136.765 222.737L136.766 222.737ZM237.791 219.639C237.746 219.639 237.699 219.631 237.654 219.617C237.422 219.541 237.295 219.291 237.37 219.059C237.506 218.645 237.638 218.222 237.763 217.803C237.833 217.569 238.08 217.436 238.314 217.506C238.548 217.575 238.681 217.822 238.611 218.056C238.484 218.482 238.349 218.912 238.212 219.333C238.151 219.52 237.977 219.639 237.791 219.639ZM135.46 219.055C135.272 219.055 135.097 218.934 135.038 218.745C134.905 218.322 134.776 217.89 134.653 217.463C134.586 217.228 134.721 216.983 134.957 216.915C135.192 216.848 135.437 216.984 135.504 217.219C135.624 217.64 135.752 218.063 135.883 218.48C135.956 218.713 135.826 218.962 135.593 219.035C135.549 219.048 135.504 219.055 135.46 219.055ZM238.867 215.882C238.832 215.882 238.796 215.878 238.761 215.869C238.523 215.811 238.378 215.571 238.437 215.334C238.542 214.91 238.643 214.479 238.737 214.052C238.79 213.813 239.026 213.662 239.265 213.715C239.504 213.768 239.655 214.004 239.602 214.243C239.506 214.677 239.404 215.115 239.297 215.546C239.248 215.748 239.067 215.882 238.868 215.882H238.867ZM134.428 215.286C134.228 215.286 134.046 215.149 133.998 214.945C133.896 214.512 133.799 214.073 133.708 213.638C133.658 213.399 133.811 213.165 134.051 213.114C134.289 213.064 134.524 213.217 134.574 213.457C134.664 213.884 134.76 214.317 134.859 214.742C134.916 214.98 134.768 215.218 134.53 215.274C134.496 215.282 134.462 215.286 134.428 215.286ZM239.665 212.057C239.641 212.057 239.616 212.055 239.59 212.051C239.349 212.009 239.188 211.781 239.228 211.54C239.301 211.11 239.37 210.673 239.434 210.24C239.469 209.998 239.694 209.83 239.936 209.866C240.178 209.9 240.345 210.125 240.31 210.367C240.246 210.808 240.176 211.252 240.101 211.689C240.065 211.905 239.877 212.057 239.665 212.057ZM133.675 211.452C133.461 211.452 133.273 211.297 133.238 211.079C133.168 210.641 133.103 210.196 133.045 209.754C133.012 209.512 133.183 209.289 133.425 209.257C133.667 209.225 133.89 209.395 133.922 209.637C133.98 210.072 134.043 210.509 134.112 210.94C134.151 211.181 133.987 211.408 133.745 211.447C133.721 211.451 133.698 211.452 133.675 211.452ZM240.182 208.184C240.167 208.184 240.153 208.184 240.139 208.181C239.895 208.158 239.717 207.942 239.741 207.698C239.783 207.263 239.82 206.822 239.851 206.387C239.869 206.143 240.081 205.961 240.324 205.977C240.568 205.995 240.752 206.206 240.735 206.45C240.703 206.893 240.665 207.342 240.622 207.784C240.601 208.013 240.408 208.184 240.182 208.184H240.182ZM133.202 207.574C132.975 207.574 132.782 207.4 132.762 207.169C132.725 206.728 132.692 206.279 132.665 205.834C132.65 205.59 132.836 205.38 133.08 205.365C133.326 205.351 133.533 205.537 133.548 205.78C133.575 206.218 133.607 206.66 133.644 207.093C133.665 207.337 133.484 207.551 133.24 207.572C133.227 207.572 133.215 207.573 133.202 207.573V207.574ZM240.416 204.285C240.416 204.285 240.409 204.285 240.406 204.285C240.161 204.279 239.968 204.076 239.974 203.832C239.984 203.395 239.99 202.952 239.99 202.515C239.99 202.499 239.991 202.483 239.992 202.467C239.991 202.452 239.99 202.436 239.99 202.42C239.989 201.981 239.983 201.538 239.971 201.103C239.965 200.859 240.158 200.656 240.402 200.649C240.647 200.642 240.85 200.836 240.856 201.081C240.868 201.523 240.874 201.973 240.875 202.419C240.875 202.435 240.874 202.451 240.873 202.467C240.874 202.484 240.875 202.499 240.875 202.515C240.875 202.959 240.869 203.409 240.859 203.853C240.853 204.094 240.656 204.285 240.416 204.285V204.285ZM133.011 203.672C132.769 203.672 132.572 203.478 132.569 203.235C132.566 202.995 132.564 202.753 132.564 202.515C132.564 202.309 132.565 202.103 132.567 201.897C132.57 201.654 132.768 201.459 133.01 201.459C133.011 201.459 133.013 201.459 133.015 201.459C133.259 201.461 133.455 201.662 133.452 201.906C133.45 202.109 133.449 202.312 133.449 202.515C133.449 202.749 133.451 202.988 133.454 203.223C133.457 203.468 133.261 203.668 133.017 203.672C133.015 203.672 133.013 203.672 133.011 203.672ZM133.101 199.765C133.092 199.765 133.083 199.765 133.075 199.765C132.831 199.75 132.644 199.541 132.659 199.297C132.685 198.854 132.717 198.404 132.754 197.962C132.774 197.719 132.988 197.538 133.231 197.558C133.475 197.578 133.656 197.792 133.636 198.036C133.599 198.47 133.568 198.912 133.542 199.349C133.529 199.584 133.334 199.765 133.101 199.765ZM240.285 198.956C240.055 198.956 239.861 198.779 239.844 198.546C239.811 198.109 239.774 197.668 239.731 197.235C239.707 196.991 239.885 196.775 240.128 196.751C240.372 196.727 240.588 196.905 240.612 197.148C240.655 197.589 240.694 198.037 240.726 198.481C240.744 198.725 240.562 198.937 240.318 198.956C240.307 198.956 240.296 198.956 240.285 198.956ZM133.47 195.876C133.451 195.876 133.431 195.874 133.412 195.872C133.17 195.84 132.999 195.617 133.031 195.375C133.089 194.935 133.153 194.49 133.222 194.051C133.26 193.81 133.486 193.644 133.728 193.682C133.969 193.721 134.134 193.947 134.096 194.188C134.028 194.62 133.965 195.059 133.908 195.492C133.879 195.714 133.689 195.876 133.469 195.876L133.47 195.876ZM239.857 195.073C239.641 195.073 239.452 194.915 239.419 194.695C239.356 194.263 239.286 193.826 239.211 193.395C239.17 193.154 239.331 192.925 239.572 192.883C239.812 192.842 240.042 193.004 240.083 193.244C240.159 193.682 240.23 194.127 240.294 194.566C240.33 194.808 240.163 195.033 239.921 195.068C239.899 195.072 239.877 195.073 239.856 195.073H239.857ZM134.121 192.023C134.091 192.023 134.06 192.02 134.03 192.015C133.791 191.965 133.637 191.731 133.687 191.492C133.777 191.056 133.874 190.615 133.974 190.184C134.03 189.946 134.268 189.799 134.506 189.854C134.744 189.909 134.892 190.147 134.837 190.385C134.738 190.809 134.643 191.242 134.554 191.67C134.511 191.88 134.327 192.023 134.121 192.023H134.121ZM239.147 191.231C238.944 191.231 238.761 191.09 238.715 190.884C238.62 190.457 238.519 190.026 238.413 189.603C238.354 189.366 238.498 189.125 238.735 189.066C238.973 189.007 239.213 189.151 239.272 189.389C239.379 189.818 239.482 190.257 239.579 190.691C239.632 190.93 239.482 191.166 239.244 191.22C239.211 191.227 239.179 191.23 239.147 191.23V191.231ZM135.051 188.228C135.011 188.228 134.97 188.222 134.93 188.211C134.695 188.145 134.559 187.899 134.626 187.665C134.747 187.238 134.876 186.806 135.008 186.382C135.081 186.149 135.33 186.019 135.562 186.091C135.795 186.164 135.926 186.412 135.853 186.646C135.723 187.062 135.596 187.487 135.477 187.907C135.421 188.102 135.244 188.229 135.051 188.229V188.228ZM238.159 187.451C237.969 187.451 237.793 187.328 237.735 187.136C237.609 186.719 237.477 186.296 237.34 185.881C237.263 185.648 237.39 185.398 237.622 185.322C237.854 185.246 238.104 185.372 238.181 185.605C238.32 186.028 238.455 186.457 238.583 186.881C238.653 187.115 238.52 187.362 238.286 187.432C238.244 187.445 238.201 187.451 238.159 187.451ZM136.259 184.506C136.209 184.506 136.158 184.497 136.108 184.479C135.878 184.396 135.76 184.141 135.844 183.912C135.996 183.494 136.157 183.072 136.32 182.656C136.41 182.429 136.667 182.318 136.894 182.407C137.122 182.496 137.234 182.754 137.144 182.981C136.983 183.389 136.825 183.804 136.674 184.215C136.609 184.395 136.439 184.506 136.259 184.506H136.259ZM236.897 183.753C236.719 183.753 236.551 183.645 236.484 183.469C236.328 183.061 236.164 182.65 235.997 182.245C235.904 182.02 236.012 181.761 236.238 181.667C236.463 181.574 236.722 181.682 236.816 181.908C236.985 182.318 237.151 182.737 237.31 183.152C237.398 183.38 237.284 183.636 237.055 183.723C237.003 183.744 236.95 183.752 236.897 183.752V183.753ZM137.739 180.88C137.678 180.88 137.616 180.867 137.557 180.841C137.334 180.74 137.235 180.478 137.336 180.255C137.52 179.849 137.71 179.44 137.904 179.04C138.01 178.82 138.274 178.727 138.495 178.833C138.715 178.94 138.807 179.204 138.701 179.424C138.511 179.818 138.323 180.221 138.143 180.621C138.069 180.785 137.909 180.881 137.74 180.881L137.739 180.88ZM235.37 180.163C235.203 180.163 235.044 180.069 234.969 179.908C234.783 179.513 234.59 179.116 234.396 178.727C234.286 178.509 234.376 178.242 234.594 178.133C234.813 178.024 235.079 178.113 235.188 178.332C235.385 178.727 235.581 179.131 235.77 179.532C235.874 179.753 235.779 180.017 235.557 180.121C235.496 180.15 235.432 180.163 235.37 180.163ZM139.479 177.373C139.407 177.373 139.335 177.356 139.269 177.32C139.053 177.203 138.974 176.935 139.091 176.72C139.303 176.329 139.523 175.935 139.745 175.55C139.867 175.338 140.137 175.265 140.349 175.386C140.561 175.508 140.634 175.779 140.513 175.991C140.294 176.37 140.078 176.757 139.87 177.142C139.789 177.29 139.637 177.373 139.48 177.373H139.479ZM233.586 176.696C233.431 176.696 233.28 176.615 233.199 176.47C232.986 176.09 232.765 175.707 232.542 175.333C232.417 175.123 232.486 174.851 232.697 174.726C232.907 174.601 233.178 174.67 233.303 174.881C233.53 175.261 233.755 175.65 233.971 176.037C234.091 176.25 234.015 176.52 233.802 176.639C233.734 176.677 233.66 176.696 233.586 176.696H233.586ZM141.469 174.005C141.387 174.005 141.304 173.982 141.23 173.935C141.025 173.804 140.965 173.529 141.096 173.324C141.336 172.95 141.584 172.574 141.834 172.205C141.971 172.003 142.246 171.949 142.448 172.086C142.651 172.224 142.704 172.498 142.567 172.701C142.322 173.063 142.078 173.434 141.842 173.802C141.757 173.934 141.615 174.006 141.469 174.006V174.005ZM231.552 173.366C231.409 173.366 231.268 173.296 231.183 173.168C230.943 172.805 230.694 172.439 230.444 172.081C230.304 171.88 230.353 171.604 230.554 171.464C230.754 171.325 231.03 171.374 231.17 171.574C231.424 171.939 231.677 172.311 231.921 172.679C232.056 172.883 232 173.157 231.796 173.292C231.721 173.342 231.636 173.366 231.552 173.366ZM143.698 170.792C143.606 170.792 143.513 170.764 143.433 170.704C143.238 170.557 143.198 170.28 143.344 170.084C143.61 169.728 143.885 169.37 144.16 169.022C144.311 168.83 144.59 168.797 144.781 168.948C144.973 169.099 145.006 169.378 144.855 169.569C144.585 169.912 144.315 170.264 144.053 170.614C143.966 170.73 143.833 170.791 143.698 170.791V170.792ZM229.282 170.19C229.15 170.19 229.018 170.131 228.931 170.018C228.665 169.673 228.391 169.326 228.115 168.986C227.961 168.796 227.99 168.518 228.18 168.363C228.37 168.209 228.649 168.238 228.803 168.428C229.083 168.773 229.362 169.127 229.632 169.477C229.781 169.671 229.745 169.949 229.552 170.098C229.471 170.16 229.376 170.19 229.282 170.19V170.19ZM146.153 167.75C146.05 167.75 145.947 167.714 145.863 167.641C145.679 167.481 145.659 167.201 145.819 167.016C146.111 166.681 146.41 166.345 146.709 166.017C146.874 165.836 147.154 165.823 147.334 165.988C147.515 166.153 147.528 166.433 147.363 166.614C147.068 166.936 146.773 167.267 146.487 167.597C146.399 167.698 146.276 167.75 146.152 167.75H146.153ZM226.787 167.186C226.665 167.186 226.544 167.136 226.456 167.038C226.166 166.713 225.867 166.387 225.568 166.068C225.401 165.89 225.41 165.61 225.588 165.443C225.765 165.275 226.045 165.284 226.213 165.462C226.517 165.786 226.821 166.118 227.116 166.449C227.279 166.631 227.263 166.911 227.082 167.074C226.997 167.149 226.892 167.187 226.787 167.187V167.186ZM148.82 164.894C148.707 164.894 148.593 164.85 148.507 164.763C148.335 164.59 148.335 164.31 148.508 164.137C148.823 163.824 149.146 163.51 149.468 163.205C149.645 163.037 149.925 163.044 150.093 163.222C150.262 163.399 150.254 163.679 150.076 163.847C149.759 164.148 149.441 164.456 149.132 164.765C149.046 164.851 148.933 164.894 148.819 164.894H148.82ZM224.08 164.368C223.968 164.368 223.858 164.327 223.772 164.243C223.458 163.94 223.137 163.636 222.815 163.339C222.636 163.173 222.624 162.893 222.79 162.714C222.956 162.534 223.236 162.523 223.415 162.688C223.743 162.99 224.07 163.299 224.388 163.608C224.564 163.777 224.568 164.057 224.398 164.234C224.311 164.323 224.196 164.368 224.08 164.368ZM151.687 162.239C151.562 162.239 151.439 162.187 151.351 162.086C151.192 161.901 151.212 161.621 151.397 161.461C151.733 161.172 152.078 160.883 152.421 160.602C152.611 160.446 152.889 160.474 153.044 160.663C153.199 160.852 153.172 161.131 152.983 161.286C152.645 161.563 152.305 161.848 151.975 162.132C151.891 162.204 151.789 162.239 151.687 162.239ZM221.176 161.753C221.076 161.753 220.975 161.719 220.892 161.65C220.557 161.37 220.214 161.09 219.872 160.817C219.68 160.665 219.649 160.386 219.801 160.195C219.953 160.004 220.232 159.972 220.423 160.124C220.771 160.401 221.12 160.686 221.46 160.971C221.648 161.128 221.672 161.407 221.515 161.595C221.428 161.699 221.303 161.753 221.176 161.753ZM154.736 159.8C154.601 159.8 154.468 159.738 154.381 159.621C154.235 159.425 154.276 159.148 154.473 159.003C154.828 158.739 155.193 158.475 155.556 158.219C155.755 158.079 156.032 158.126 156.172 158.326C156.313 158.526 156.265 158.802 156.065 158.943C155.708 159.195 155.349 159.454 155 159.714C154.92 159.772 154.827 159.801 154.736 159.801V159.8ZM218.089 159.353C218 159.353 217.909 159.327 217.831 159.27C217.476 159.014 217.113 158.759 216.753 158.512C216.552 158.374 216.5 158.099 216.638 157.897C216.776 157.695 217.051 157.643 217.253 157.781C217.619 158.032 217.988 158.291 218.349 158.551C218.547 158.694 218.593 158.971 218.45 159.169C218.364 159.289 218.228 159.353 218.09 159.353L218.089 159.353ZM157.953 157.589C157.807 157.589 157.663 157.517 157.578 157.384C157.448 157.177 157.509 156.904 157.715 156.773C158.089 156.535 158.472 156.299 158.851 156.071C159.06 155.945 159.332 156.012 159.458 156.222C159.584 156.431 159.517 156.703 159.307 156.829C158.934 157.053 158.558 157.286 158.19 157.52C158.116 157.567 158.034 157.589 157.953 157.589ZM214.836 157.184C214.757 157.184 214.677 157.163 214.604 157.118C214.232 156.889 213.852 156.661 213.473 156.441C213.262 156.318 213.191 156.047 213.313 155.836C213.436 155.625 213.707 155.553 213.918 155.676C214.303 155.9 214.69 156.131 215.068 156.364C215.276 156.493 215.341 156.766 215.213 156.973C215.129 157.109 214.984 157.184 214.835 157.184H214.836ZM161.319 155.618C161.162 155.618 161.009 155.534 160.929 155.385C160.813 155.17 160.894 154.901 161.109 154.786C161.5 154.576 161.897 154.369 162.293 154.168C162.511 154.058 162.778 154.145 162.887 154.363C162.998 154.581 162.91 154.847 162.692 154.957C162.304 155.154 161.912 155.358 161.528 155.565C161.461 155.6 161.39 155.617 161.319 155.617L161.319 155.618ZM211.431 155.256C211.362 155.256 211.293 155.24 211.227 155.207C210.838 155.005 210.442 154.805 210.049 154.613C209.83 154.506 209.738 154.241 209.845 154.021C209.952 153.801 210.217 153.71 210.437 153.817C210.837 154.012 211.24 154.215 211.635 154.421C211.852 154.533 211.936 154.801 211.824 155.017C211.745 155.169 211.591 155.256 211.431 155.256ZM164.818 153.898C164.649 153.898 164.488 153.801 164.414 153.636C164.314 153.413 164.414 153.151 164.637 153.052C165.041 152.871 165.453 152.693 165.862 152.522C166.087 152.428 166.346 152.534 166.441 152.76C166.535 152.986 166.428 153.245 166.203 153.339C165.801 153.507 165.396 153.682 164.998 153.859C164.94 153.885 164.878 153.898 164.818 153.898ZM207.893 153.581C207.835 153.581 207.775 153.57 207.719 153.545C207.316 153.372 206.905 153.202 206.499 153.039C206.272 152.948 206.162 152.691 206.253 152.464C206.344 152.237 206.601 152.127 206.828 152.217C207.241 152.382 207.658 152.555 208.068 152.731C208.293 152.827 208.397 153.087 208.3 153.312C208.228 153.479 208.065 153.58 207.893 153.58V153.581ZM168.431 152.439C168.25 152.439 168.08 152.327 168.014 152.147C167.931 151.917 168.05 151.663 168.28 151.58C168.697 151.429 169.123 151.281 169.544 151.14C169.776 151.063 170.026 151.188 170.104 151.419C170.181 151.652 170.056 151.902 169.825 151.98C169.411 152.119 168.992 152.264 168.582 152.412C168.532 152.43 168.481 152.439 168.432 152.439H168.431ZM204.24 152.169C204.192 152.169 204.143 152.161 204.095 152.145C203.681 152.002 203.259 151.862 202.841 151.73C202.608 151.656 202.479 151.407 202.553 151.174C202.627 150.941 202.875 150.812 203.108 150.886C203.533 151.021 203.962 151.163 204.383 151.308C204.614 151.388 204.737 151.639 204.657 151.871C204.594 152.054 204.423 152.169 204.239 152.169H204.24ZM172.151 151.245C171.957 151.245 171.779 151.117 171.725 150.922C171.659 150.686 171.796 150.442 172.031 150.376C172.458 150.256 172.894 150.14 173.324 150.03C173.561 149.97 173.801 150.113 173.862 150.35C173.922 150.587 173.779 150.827 173.542 150.888C173.119 150.996 172.691 151.111 172.271 151.229C172.231 151.24 172.19 151.245 172.151 151.245ZM200.497 151.03C200.46 151.03 200.422 151.025 200.384 151.015C199.962 150.903 199.532 150.795 199.107 150.694C198.869 150.637 198.722 150.399 198.779 150.162C198.836 149.924 199.074 149.777 199.312 149.834C199.744 149.937 200.181 150.046 200.61 150.16C200.847 150.223 200.987 150.465 200.925 150.701C200.872 150.899 200.693 151.03 200.497 151.03L200.497 151.03ZM175.947 150.326C175.741 150.326 175.557 150.181 175.515 149.972C175.466 149.732 175.62 149.498 175.86 149.45C176.295 149.361 176.738 149.277 177.174 149.199C177.415 149.156 177.645 149.316 177.688 149.557C177.731 149.797 177.57 150.027 177.33 150.07C176.9 150.146 176.465 150.229 176.037 150.317C176.007 150.322 175.978 150.326 175.948 150.326H175.947ZM196.687 150.169C196.66 150.169 196.632 150.166 196.605 150.162C196.175 150.081 195.738 150.005 195.308 149.935C195.067 149.896 194.903 149.669 194.942 149.428C194.981 149.186 195.208 149.022 195.449 149.061C195.887 149.132 196.33 149.21 196.768 149.292C197.008 149.337 197.167 149.568 197.121 149.808C197.081 150.021 196.895 150.17 196.687 150.17V150.169ZM179.802 149.687C179.583 149.687 179.392 149.523 179.364 149.3C179.333 149.057 179.504 148.836 179.746 148.805C180.186 148.748 180.633 148.696 181.075 148.65C181.318 148.625 181.536 148.802 181.561 149.045C181.586 149.288 181.409 149.506 181.166 149.531C180.731 149.576 180.291 149.627 179.859 149.683C179.839 149.685 179.821 149.687 179.802 149.687ZM192.823 149.588C192.807 149.588 192.79 149.588 192.773 149.586C192.339 149.537 191.898 149.493 191.463 149.454C191.22 149.433 191.04 149.218 191.061 148.974C191.082 148.731 191.298 148.551 191.541 148.573C191.983 148.612 192.431 148.657 192.873 148.707C193.116 148.734 193.29 148.953 193.263 149.196C193.237 149.422 193.046 149.589 192.823 149.589V149.588ZM183.693 149.329C183.46 149.329 183.264 149.147 183.251 148.911C183.238 148.667 183.424 148.458 183.669 148.445C184.111 148.421 184.561 148.401 185.006 148.387C185.251 148.379 185.454 148.572 185.463 148.816C185.47 149.061 185.278 149.264 185.034 149.272C184.597 149.286 184.154 149.305 183.718 149.329C183.71 149.329 183.701 149.329 183.693 149.329ZM188.928 149.29C188.922 149.29 188.916 149.29 188.91 149.29C188.474 149.272 188.031 149.26 187.594 149.253C187.35 149.249 187.155 149.048 187.159 148.803C187.163 148.561 187.36 148.368 187.601 148.368C187.604 148.368 187.606 148.368 187.609 148.368C188.053 148.375 188.503 148.387 188.946 148.406C189.19 148.416 189.38 148.622 189.371 148.866C189.361 149.104 189.165 149.291 188.929 149.291L188.928 149.29Z" fill="#6486B9"/>
<path d="M210.267 135.538H190.977V159.617H210.267V135.538Z" fill="#305388"/>
<path d="M212.769 138.025H193.479V162.104H212.769V138.025Z" fill="#FAFAFF" stroke="#AEBED6" stroke-width="7.92" stroke-miterlimit="10"/>
<path d="M215.945 140.466H196.655V164.545H215.945V140.466Z" fill="#FAFAFF" stroke="#AEBED6" stroke-width="7.92" stroke-miterlimit="10"/>
<path d="M218.257 142.952H198.967V167.031H218.257V142.952Z" fill="#AEBED6"/>
<path d="M215.257 146.906H205.278V148.472H215.257V146.906Z" fill="#5379B2"/>
<path d="M215.256 150.585H202.327V152.151H215.256V150.585Z" fill="#5379B2"/>
<path d="M215.256 154.264H202.327V155.83H215.256V154.264Z" fill="#5379B2"/>
<path d="M215.256 157.944H202.327V159.51H215.256V157.944Z" fill="#5379B2"/>
<path d="M215.256 161.623H202.327V163.189H215.256V161.623Z" fill="#5379B2"/>
<path d="M153.474 166.565C156.135 163.904 156.135 159.59 153.474 156.93C150.813 154.269 146.499 154.269 143.838 156.93C141.178 159.59 141.178 163.904 143.838 166.565C146.499 169.226 150.813 169.226 153.474 166.565Z" fill="#E3D1B5"/>
<path d="M159.406 168.226C160.29 166.761 160.842 165.178 161.076 163.58L161.583 163.655L162.585 163.802H162.598C162.868 161.975 162.777 160.127 162.335 158.36L160.844 158.729C160.444 157.131 159.74 155.608 158.735 154.266L159.971 153.347C158.914 151.912 157.556 150.657 155.936 149.68L155.141 151C153.67 150.114 152.092 149.565 150.494 149.331L150.717 147.808C148.889 147.538 147.037 147.635 145.273 148.072L145.643 149.562C144.045 149.963 142.521 150.667 141.179 151.671L140.261 150.435C138.825 151.493 137.571 152.849 136.594 154.47L137.914 155.266C137.027 156.736 136.478 158.314 136.245 159.912L135.167 159.754L134.727 159.693L134.722 159.69C134.452 161.517 134.548 163.37 134.985 165.133L136.476 164.764C136.876 166.362 137.585 167.888 138.59 169.23L137.354 170.148C138.411 171.584 139.763 172.835 141.384 173.813L142.179 172.492C143.65 173.379 145.233 173.931 146.831 174.165L146.656 175.348L146.608 175.688C148.436 175.958 150.283 175.858 152.047 175.421L151.677 173.931C153.275 173.53 154.801 172.821 156.148 171.819L157.067 173.055C158.497 171.995 159.749 170.643 160.726 169.023L159.406 168.227V168.226ZM145.141 167.581C141.916 165.637 140.879 161.452 142.824 158.226C144.767 155.006 148.951 153.97 152.176 155.915C155.396 157.857 156.433 162.041 154.49 165.262C152.545 168.487 148.36 169.523 145.141 167.581Z" fill="#5379B2"/>
<path d="M133.907 167.322C133.41 166.571 132.782 165.951 132.075 165.478L132.225 165.253L132.522 164.81L132.525 164.804C131.717 164.263 130.817 163.888 129.877 163.699L129.715 164.492C128.865 164.321 127.982 164.312 127.116 164.486L126.959 163.691C126.037 163.87 125.134 164.231 124.303 164.781L124.751 165.458C123.997 165.957 123.379 166.584 122.907 167.29L122.233 166.84C121.691 167.648 121.319 168.551 121.128 169.488L121.92 169.65C121.749 170.5 121.74 171.383 121.915 172.249L121.12 172.406C121.298 173.328 121.66 174.231 122.209 175.062L122.887 174.614C123.385 175.368 124.012 175.986 124.718 176.458L124.399 176.935L124.271 177.131L124.269 177.132C125.077 177.674 125.979 178.047 126.916 178.237L127.078 177.445C127.928 177.616 128.814 177.623 129.68 177.449L129.837 178.244C130.759 178.065 131.659 177.705 132.49 177.156L132.042 176.479C132.795 175.98 133.416 175.351 133.888 174.645L134.411 174.996L134.561 175.095C135.103 174.287 135.473 173.386 135.663 172.449L134.871 172.287C135.041 171.437 135.049 170.551 134.877 169.684L135.672 169.526C135.491 168.606 135.131 167.706 134.582 166.875L133.905 167.323L133.907 167.322ZM130.377 173.961C128.723 175.055 126.499 174.602 125.405 172.948C124.312 171.297 124.766 169.073 126.42 167.979C128.07 166.886 130.294 167.339 131.387 168.989C132.482 170.644 132.029 172.868 130.378 173.96L130.377 173.961Z" fill="#1251B3"/>
<path d="M245.338 170.507H228.775C228.426 170.507 228.143 170.79 228.143 171.139V180.536C228.143 180.885 228.426 181.168 228.775 181.168H245.338C245.687 181.168 245.97 180.885 245.97 180.536V171.139C245.97 170.79 245.687 170.507 245.338 170.507Z" fill="#5379B2"/>
<path d="M245.97 172.52H228.143V174.36H245.97V172.52Z" fill="#AEBED6"/>
<path d="M232.226 179.122H229.605C229.439 179.122 229.303 179.257 229.303 179.425C229.303 179.591 229.438 179.727 229.605 179.727H232.226C232.393 179.727 232.528 179.592 232.528 179.425C232.528 179.258 232.394 179.122 232.226 179.122Z" fill="#F0E8DB"/>
<path d="M236.257 179.122H233.636C233.47 179.122 233.334 179.257 233.334 179.425C233.334 179.591 233.469 179.727 233.636 179.727H236.257C236.424 179.727 236.559 179.592 236.559 179.425C236.559 179.258 236.424 179.122 236.257 179.122Z" fill="#F0E8DB"/>
<path d="M240.288 179.122H237.667C237.5 179.122 237.365 179.257 237.365 179.425C237.365 179.591 237.5 179.727 237.667 179.727H240.288C240.454 179.727 240.59 179.592 240.59 179.425C240.59 179.258 240.455 179.122 240.288 179.122Z" fill="#F0E8DB"/>
<path d="M244.319 179.122H241.698C241.531 179.122 241.396 179.257 241.396 179.425C241.396 179.591 241.53 179.727 241.698 179.727H244.319C244.485 179.727 244.621 179.592 244.621 179.425C244.621 179.258 244.486 179.122 244.319 179.122Z" fill="#F0E8DB"/>
<path d="M229.484 171.048C229.301 171.048 229.151 171.197 229.151 171.381V171.498C229.151 171.681 229.301 171.831 229.484 171.831C229.668 171.831 229.817 171.681 229.817 171.498V171.381C229.817 171.197 229.668 171.048 229.484 171.048Z" fill="#F0E8DB"/>
<path d="M230.202 171.439C230.202 171.655 230.378 171.831 230.594 171.831H231.981C232.197 171.831 232.373 171.655 232.373 171.439C232.373 171.223 232.197 171.048 231.981 171.048H230.594C230.378 171.048 230.202 171.223 230.202 171.439Z" fill="#F0E8DB"/>
<path d="M231.813 175.349H230.02C229.733 175.349 229.5 175.582 229.5 175.869V177.414C229.5 177.701 229.733 177.934 230.02 177.934H231.813C232.1 177.934 232.332 177.701 232.332 177.414V175.869C232.332 175.582 232.1 175.349 231.813 175.349Z" fill="#AEBED6"/>
<path d="M237.497 210.155V208.902C237.497 208.333 237.036 207.87 236.466 207.87H225.488C224.919 207.87 224.457 208.333 224.457 208.902V231.071H252.852V210.155H237.497Z" fill="#1251B3"/>
<path d="M254.033 210.917H226.19L224.458 231.071H252.714L254.033 210.917Z" fill="#FAFAFF"/>
<path d="M252.853 231.071H224.458L227.471 211.168C227.56 210.586 228.06 210.155 228.649 210.155H254.634C255.363 210.155 255.921 210.804 255.812 211.524L252.853 231.071Z" fill="#AEBED6"/>
<path d="M255.826 217.423C259.419 217.423 262.331 214.51 262.331 210.917C262.331 207.324 259.419 204.411 255.826 204.411C252.233 204.411 249.32 207.324 249.32 210.917C249.32 214.51 252.233 217.423 255.826 217.423Z" fill="#5379B2"/>
<path d="M255.825 217.662C252.106 217.662 249.08 214.636 249.08 210.917C249.08 207.198 252.106 204.173 255.825 204.173C259.544 204.173 262.571 207.199 262.571 210.917C262.571 214.635 259.544 217.662 255.825 217.662ZM255.825 204.649C252.369 204.649 249.558 207.461 249.558 210.917C249.558 214.373 252.369 217.186 255.825 217.186C259.282 217.186 262.093 214.374 262.093 210.917C262.093 207.46 259.282 204.649 255.825 204.649Z" fill="#FAFAFF"/>
<path d="M252.693 209.741V214.347C252.693 214.86 258.956 214.86 258.956 214.347V209.741H252.693ZM256.142 212.187V213.493C256.142 213.667 256.001 213.811 255.827 213.811C255.653 213.811 255.509 213.667 255.509 213.493V212.184C255.241 212.063 255.051 211.792 255.051 211.479C255.051 211.052 255.399 210.707 255.827 210.707C256.255 210.707 256.599 211.052 256.599 211.479C256.599 211.794 256.413 212.065 256.142 212.186V212.187Z" fill="#FAFAFF"/>
<path d="M258.408 209.412H257.774V209.102C257.774 208.026 256.9 207.152 255.825 207.152C254.751 207.152 253.876 208.026 253.876 209.102V209.412H253.242V209.102C253.242 207.677 254.4 206.519 255.825 206.519C257.249 206.519 258.408 207.677 258.408 209.102V209.412H258.408Z" fill="#FAFAFF"/>
<path d="M135.378 202.934C135.37 202.926 135.361 202.918 135.354 202.91C132.167 206.324 127.081 209.123 121.639 210.315C121.637 210.678 121.628 212.692 121.587 221.974C121.531 234.356 133.315 240.407 135.145 241.335C129.77 219.579 133.98 206.419 135.378 202.935V202.934Z" fill="#6486B9"/>
<path d="M135.378 202.934C133.98 206.419 129.77 219.579 135.145 241.335C136.917 240.519 148.85 234.477 148.905 222.095C148.946 212.813 148.955 210.799 148.957 210.436C143.538 209.198 138.535 206.365 135.377 202.933L135.378 202.934Z" fill="#6486B9"/>
<path d="M135.378 202.934C135.37 202.926 135.361 202.918 135.354 202.91C132.167 206.324 127.081 209.123 121.639 210.315C121.637 210.678 121.628 212.692 121.587 221.974C121.531 234.356 133.315 240.407 135.145 241.335C136.917 240.519 148.85 234.478 148.905 222.096C148.946 212.814 148.955 210.8 148.957 210.436C143.538 209.199 138.535 206.366 135.377 202.934H135.378Z" stroke="#FAFAFF" stroke-width="11.86" stroke-miterlimit="10"/>
<path d="M135.335 239.038L134.952 239.016C133.672 238.351 131.17 236.88 128.78 234.504C125.121 230.861 123.276 226.655 123.298 222L123.344 211.748L123.688 211.658C128.092 210.523 132.109 208.437 134.999 205.786L135.324 205.487L135.637 205.8L135.336 206.149L135.651 205.811C138.517 208.479 142.506 210.592 146.884 211.762L147.227 211.853L147.181 222.106C147.16 226.761 145.278 230.951 141.588 234.559C139.255 236.84 136.804 238.276 135.549 238.929L135.336 239.037L135.335 239.038ZM124.262 212.461L124.219 222.003C124.2 226.403 125.953 230.388 129.43 233.85C131.608 236.018 133.884 237.401 135.167 238.088C136.378 237.455 138.717 236.076 140.941 233.901C144.449 230.471 146.238 226.501 146.258 222.102L146.301 212.559C142.058 211.373 138.182 209.325 135.308 206.748C132.413 209.295 128.52 211.311 124.262 212.461Z" fill="#89A2C8"/>
<path d="M129.815 220.293V228.421C129.815 229.325 140.865 229.325 140.865 228.421V220.293H129.815ZM135.899 224.609V226.913C135.899 227.22 135.65 227.475 135.343 227.475C135.036 227.475 134.781 227.22 134.781 226.913V224.604C134.307 224.391 133.974 223.912 133.974 223.361C133.974 222.607 134.588 221.998 135.342 221.998C136.095 221.998 136.704 222.607 136.704 223.361C136.704 223.917 136.376 224.395 135.898 224.609H135.899Z" fill="#FAFAFF"/>
<path d="M139.898 219.714H138.78V219.167C138.78 217.271 137.237 215.728 135.341 215.728C133.445 215.728 131.902 217.271 131.902 219.167V219.714H130.784V219.167C130.784 216.654 132.829 214.609 135.342 214.609C137.855 214.609 139.899 216.654 139.899 219.167V219.714H139.898Z" fill="#FAFAFF"/>
<path d="M203.675 192.559C203.733 192.129 203.774 191.694 203.774 191.248C203.774 185.885 199.425 181.536 194.062 181.536C190.039 181.536 186.587 183.984 185.113 187.471C183.914 186.403 182.339 185.749 180.607 185.749C176.858 185.749 173.821 188.788 173.821 192.535H172.554C168.95 192.535 166.002 195.483 166.002 199.087C166.002 202.691 168.95 205.639 172.554 205.639H203.191C206.794 205.639 209.743 202.691 209.743 199.087C209.743 195.647 207.053 192.81 203.674 192.559H203.675Z" fill="#FAFAFF"/>
<path d="M187.806 204.885L184.386 201.055L180.968 204.885H182.786V209.063H185.988V204.885H187.806Z" fill="#C0CCDD"/>
<path d="M187.285 205.903L190.704 209.732L194.123 205.903H192.305V201.724H189.103V205.903H187.285Z" fill="#C0CCDD"/>
<path d="M255.801 183.775C255.961 183.095 255.54 182.414 254.86 182.253C254.18 182.093 253.498 182.514 253.338 183.194C253.177 183.874 253.599 184.555 254.279 184.716C254.959 184.876 255.64 184.455 255.801 183.775Z" fill="#FAFAFF"/>
<path d="M149.558 185.517C149.718 184.837 149.295 184.157 148.615 183.997C147.935 183.838 147.254 184.26 147.095 184.94C146.935 185.62 147.358 186.301 148.038 186.461C148.718 186.62 149.399 186.198 149.558 185.517Z" fill="#FAFAFF"/>
<path d="M140.081 252.765C140.241 252.085 139.818 251.404 139.138 251.245C138.458 251.085 137.777 251.508 137.618 252.188C137.458 252.868 137.881 253.549 138.561 253.708C139.241 253.868 139.922 253.446 140.081 252.765Z" fill="#FAFAFF"/>
<path d="M223.857 198.817C223.626 198.817 223.438 198.63 223.438 198.398V193.912C223.438 193.681 223.626 193.493 223.857 193.493C224.089 193.493 224.276 193.681 224.276 193.912V198.398C224.276 198.63 224.089 198.817 223.857 198.817Z" fill="#FAFAFF"/>
<path d="M221.195 196.155C221.195 195.924 221.382 195.736 221.614 195.736H226.1C226.332 195.736 226.519 195.924 226.519 196.155C226.519 196.386 226.332 196.574 226.1 196.574H221.614C221.382 196.574 221.195 196.386 221.195 196.155Z" fill="#FAFAFF"/>
<path d="M226.593 252.933C226.361 252.933 226.174 252.746 226.174 252.514V248.028C226.174 247.796 226.361 247.609 226.593 247.609C226.824 247.609 227.012 247.796 227.012 248.028V252.514C227.012 252.746 226.824 252.933 226.593 252.933Z" fill="#FAFAFF"/>
<path d="M223.931 250.271C223.931 250.039 224.119 249.852 224.35 249.852H228.836C229.068 249.852 229.255 250.039 229.255 250.271C229.255 250.502 229.068 250.69 228.836 250.69H224.35C224.119 250.69 223.931 250.502 223.931 250.271Z" fill="#FAFAFF"/>
<path d="M111.349 209.836C111.076 209.836 110.856 209.615 110.856 209.343V204.075C110.856 203.803 111.076 203.583 111.349 203.583C111.621 203.583 111.841 203.803 111.841 204.075V209.343C111.841 209.615 111.621 209.836 111.349 209.836Z" fill="#FAFAFF"/>
<path d="M108.222 206.709C108.222 206.437 108.442 206.217 108.714 206.217H113.982C114.255 206.217 114.475 206.437 114.475 206.709C114.475 206.981 114.255 207.201 113.982 207.201H108.714C108.442 207.201 108.222 206.981 108.222 206.709Z" fill="#FAFAFF"/>
<path d="M165.625 142.954C165.39 142.954 165.2 142.764 165.2 142.53V137.98C165.2 137.745 165.39 137.555 165.625 137.555C165.86 137.555 166.05 137.745 166.05 137.98V142.53C166.05 142.764 165.86 142.954 165.625 142.954Z" fill="#5379B2"/>
<path d="M162.925 140.254C162.925 140.02 163.115 139.83 163.349 139.83H167.899C168.134 139.83 168.324 140.02 168.324 140.254C168.324 140.489 168.134 140.679 167.899 140.679H163.349C163.115 140.679 162.925 140.489 162.925 140.254Z" fill="#5379B2"/>
<path d="M177.786 141.21C177.555 141.21 177.367 141.023 177.367 140.791V136.305C177.367 136.073 177.555 135.886 177.786 135.886C178.018 135.886 178.205 136.073 178.205 136.305V140.791C178.205 141.023 178.018 141.21 177.786 141.21Z" fill="#C0CCDD"/>
<path d="M175.125 138.548C175.125 138.316 175.312 138.129 175.544 138.129H180.03C180.261 138.129 180.449 138.316 180.449 138.548C180.449 138.779 180.261 138.967 180.03 138.967H175.544C175.312 138.967 175.125 138.779 175.125 138.548Z" fill="#C0CCDD"/>
<path d="M234.638 158.613C235.974 158.613 237.056 157.53 237.056 156.195C237.056 154.859 235.974 153.777 234.638 153.777C233.303 153.777 232.22 154.859 232.22 156.195C232.22 157.53 233.303 158.613 234.638 158.613Z" fill="#C0CCDD"/>
<path d="M171.13 167.638C172.465 167.638 173.548 166.555 173.548 165.219C173.548 163.884 172.465 162.801 171.13 162.801C169.794 162.801 168.711 163.884 168.711 165.219C168.711 166.555 169.794 167.638 171.13 167.638Z" fill="#C0CCDD"/>
<path d="M138.976 248.319C140.311 248.319 141.394 247.237 141.394 245.901C141.394 244.566 140.311 243.483 138.976 243.483C137.64 243.483 136.558 244.566 136.558 245.901C136.558 247.237 137.64 248.319 138.976 248.319Z" fill="#C0CCDD"/>
<mask id="mask0_328_1875" style="mask-type:luminance" maskUnits="userSpaceOnUse" x="86" y="116" width="203" height="203">
<path d="M289 116H86V319H289V116Z" fill="white"/>
</mask>
<g mask="url(#mask0_328_1875)">
<path d="M166.868 256.623L151.644 276.638C149.756 284.436 154.031 291.448 162.082 293.295L197.478 277.069L166.868 256.623Z" fill="#E3D1B5"/>
<path d="M155.301 269.101L73.305 311.642C67.7355 314.305 88.232 342.491 109.466 333.488L163.175 292.728C173.724 289.212 165.85 265.585 155.301 269.101Z" fill="#E3D1B5"/>
<path d="M168.421 260.235C168.421 260.235 212.501 226.965 216.395 233.439C220.856 240.854 174.302 269.483 174.302 269.483L168.421 260.235Z" fill="#E3D1B5"/>
<path d="M170.578 295.15L202.328 294.958C204.309 294.946 205.912 293.257 205.908 291.187L205.788 222.544C205.785 220.547 204.207 218.926 202.265 218.92L171.132 218.825C169.174 218.82 167.572 220.439 167.556 222.444L166.992 291.403C166.975 293.484 168.581 295.161 170.578 295.149L170.578 295.15Z" fill="#FAFAFF"/>
<path d="M170.139 294.651C170.271 294.667 170.406 294.675 170.54 294.674L202.281 294.449C203.983 294.437 205.374 292.956 205.372 291.149L205.262 222.582C205.26 220.84 203.89 219.417 202.22 219.411L171.089 219.284C171.04 219.284 170.99 219.284 170.942 219.287C170.159 219.321 169.427 219.656 168.88 220.228C168.32 220.812 168.009 221.587 168.003 222.41L167.446 291.439C167.433 293.075 168.587 294.456 170.139 294.651Z" fill="#33201B"/>
<path d="M169.1 222.91L168.564 291.698L204.321 291.498L204.23 222.91H169.1Z" fill="#FAFAFF"/>
<path d="M193.454 264.486H198.145V259.795H193.454V264.486Z" fill="#F0E8DB" stroke="#CEA564" stroke-width="4.94" stroke-miterlimit="10"/>
<path d="M187.274 264.486H191.964V259.795H187.274V264.486Z" fill="#F0E8DB" stroke="#CEA564" stroke-width="4.94" stroke-miterlimit="10"/>
<path d="M181.092 264.486H185.782V259.795H181.092V264.486Z" fill="#F0E8DB" stroke="#CEA564" stroke-width="4.94" stroke-miterlimit="10"/>
<path d="M174.91 264.486H179.6V259.795H174.91V264.486Z" fill="#F0E8DB" stroke="#CEA564" stroke-width="4.94" stroke-miterlimit="10"/>
<path d="M195.85 263.207C196.386 263.207 196.821 262.772 196.821 262.236C196.821 261.699 196.386 261.264 195.85 261.264C195.314 261.264 194.879 261.699 194.879 262.236C194.879 262.772 195.314 263.207 195.85 263.207Z" fill="#F0E8DB"/>
<path d="M189.654 263.207C190.191 263.207 190.625 262.772 190.625 262.236C190.625 261.699 190.191 261.264 189.654 261.264C189.118 261.264 188.683 261.699 188.683 262.236C188.683 262.772 189.118 263.207 189.654 263.207Z" fill="#F0E8DB"/>
<path d="M183.46 263.207C183.996 263.207 184.431 262.772 184.431 262.236C184.431 261.699 183.996 261.264 183.46 261.264C182.924 261.264 182.489 261.699 182.489 262.236C182.489 262.772 182.924 263.207 183.46 263.207Z" fill="#F0E8DB"/>
<path d="M177.155 263.207C177.691 263.207 178.126 262.772 178.126 262.236C178.126 261.699 177.691 261.264 177.155 261.264C176.618 261.264 176.184 261.699 176.184 262.236C176.184 262.772 176.618 263.207 177.155 263.207Z" fill="#F0E8DB"/>
<path d="M184.554 239.256V238.316C184.554 237.89 184.208 237.544 183.781 237.544H175.56C175.134 237.544 174.788 237.89 174.788 238.316V254.92H196.054V239.256H184.554Z" fill="#FAFAFF"/>
<path d="M184.622 239.256V238.316C184.622 237.89 184.276 237.544 183.85 237.544H175.628C175.202 237.544 174.856 237.89 174.856 238.316V254.92H196.122V239.256H184.622Z" fill="#BFE1FF"/>
<path d="M184.813 239.25V238.311C184.813 237.884 184.467 237.539 184.041 237.539H175.82C175.393 237.539 175.047 237.884 175.047 238.311V254.915H196.314V239.25H184.813Z" fill="#5379B2"/>
<path d="M175.568 239.906V254.92H195.268V239.832L175.568 239.906Z" fill="#FAFAFF"/>
<path d="M176.48 239.906V254.92H196.349V239.832L176.48 239.906Z" fill="#6486B9"/>
<path d="M197.137 239.256H177.547C177.145 239.256 176.849 239.526 176.791 239.9V254.92H198.173V240.282C198.177 239.742 197.687 239.256 197.138 239.256H197.137Z" fill="#BFE1FF"/>
<path d="M194.483 235.131L180.024 235.172L180.055 246.16L194.514 246.119L194.483 235.131Z" fill="#D1D9E5"/>
<path d="M194.107 235.491L180.388 235.53L180.416 245.631L194.135 245.592L194.107 235.491Z" fill="#6486B9"/>
<path d="M181.573 244.816L190.389 244.791L185.569 240.167L181.573 244.816Z" fill="#D1D9E5"/>
<path d="M185.583 244.804L192.99 244.784L188.97 240.962L185.583 244.804Z" fill="#D1D9E5"/>
<path d="M189.045 239.86C189.444 239.461 189.444 238.815 189.045 238.416C188.646 238.018 188 238.018 187.602 238.416C187.203 238.815 187.203 239.461 187.602 239.86C188 240.259 188.646 240.259 189.045 239.86Z" fill="#D1D9E5"/>
<path d="M196.72 232.611L183.316 232.653L183.353 244.31L196.757 244.268L196.72 232.611Z" fill="#D1D9E5"/>
<path d="M196.332 232.995L183.688 233.035L183.722 243.751L196.365 243.712L196.332 232.995Z" fill="#5379B2"/>
<path d="M189.975 234.507H184.939V234.949H189.975V234.507Z" fill="#AEBED6"/>
<path d="M195.184 235.701H184.939V236.144H195.184V235.701Z" fill="#AEBED6"/>
<path d="M195.184 236.917H184.939V237.36H195.184V236.917Z" fill="#AEBED6"/>
<path d="M195.184 238.212H184.939V238.654H195.184V238.212Z" fill="#AEBED6"/>
<path d="M198.267 240.284V254.922H177.023V239.899C177.083 239.527 177.378 239.258 177.776 239.258H197.236C197.784 239.258 198.271 239.742 198.267 240.285V240.284Z" fill="#89A2C8"/>
<path d="M176.996 254.72H174.854V254.921H176.996V254.72Z" fill="#BFE1FF"/>
<path d="M190.328 246.424C190.611 244.68 189.426 243.037 187.682 242.754C185.938 242.471 184.295 243.655 184.012 245.399C183.729 247.143 184.913 248.787 186.657 249.07C188.401 249.353 190.044 248.168 190.328 246.424Z" fill="#FAFAFF"/>
<path d="M187.171 245.789C187.451 245.789 187.71 245.653 187.876 245.444C187.997 245.293 188.07 245.099 188.07 244.883C188.07 244.387 187.667 243.977 187.171 243.977C186.675 243.977 186.265 244.387 186.265 244.883C186.265 245.099 186.336 245.293 186.459 245.444C186.624 245.653 186.883 245.789 187.17 245.789H187.171Z" fill="#275880"/>
<path d="M188.762 247.403C188.762 247.975 185.57 247.975 185.57 247.403V246.738C185.698 245.827 188.503 245.788 188.763 246.738V247.403H188.762Z" fill="#275880"/>
<path d="M192.42 250.76H181.914V251.344H192.42V250.76Z" fill="#FAFAFF"/>
<path d="M191.188 251.973H183.146V252.556H191.188V251.973Z" fill="#FAFAFF"/>
<path d="M190.849 273.27H198.103V268.912H190.849V273.27Z" fill="#D1D9E5"/>
<path d="M182.625 273.27H189.88V268.912H182.625V273.27Z" fill="#D1D9E5"/>
<path d="M174.401 273.27H181.656V268.912H174.401V273.27Z" fill="#D1D9E5"/>
<path d="M190.849 278.399H198.103V274.041H190.849V278.399Z" fill="#D1D9E5"/>
<path d="M182.625 278.399H189.88V274.041H182.625V278.399Z" fill="#D1D9E5"/>
<path d="M174.401 278.399H181.656V274.041H174.401V278.399Z" fill="#D1D9E5"/>
<path d="M190.849 283.47H198.103V279.112H190.849V283.47Z" fill="#D1D9E5"/>
<path d="M182.625 283.47H189.88V279.112H182.625V283.47Z" fill="#D1D9E5"/>
<path d="M182.625 288.599H189.88V284.241H182.625V288.599Z" fill="#D1D9E5"/>
<path d="M174.401 283.47H181.656V279.112H174.401V283.47Z" fill="#D1D9E5"/>
<path d="M205.908 247.149C205.908 247.149 215.314 250.905 209.36 258.465C203.408 266.027 200.337 258.465 203.818 252.347C205.103 250.087 205.908 247.149 205.908 247.149Z" fill="#E3D1B5"/>
<path d="M205.908 255.672C205.908 255.672 215.314 259.428 209.36 266.988C203.408 274.549 200.337 266.988 203.818 260.87C205.103 258.61 205.908 255.672 205.908 255.672Z" fill="#E3D1B5"/>
<path d="M206.113 270.664C206.113 270.664 213.451 273.594 208.807 279.493C204.162 285.392 201.767 279.493 204.483 274.719C205.486 272.956 206.113 270.664 206.113 270.664Z" fill="#E3D1B5"/>
<path d="M152.433 275.61C157.503 263.235 168.565 239.863 168.565 239.863C168.565 239.863 171.488 238.816 172.487 244.286C173.485 249.757 168.712 260.458 168.712 260.458C168.712 260.458 175.109 286.702 161.395 288.725C151.868 290.13 149.322 280.761 152.433 275.609L152.433 275.61Z" fill="#E3D1B5"/>
<path d="M203.988 305.691C203.988 305.691 183.993 274.139 186.895 270.262C189.798 266.386 213.104 301.724 213.104 301.724L203.988 305.691Z" fill="#E3D1B5"/>
<path d="M196.449 311.036C198.326 313.995 217.562 327.176 217.562 327.176C233.184 319.148 206.185 304.597 206.185 304.597C206.185 304.597 211.912 293.295 206.096 292.194C201.851 291.388 199.309 294.475 198.248 296.201C198.102 296.436 197.985 296.647 197.894 296.818C197.74 297.109 197.665 297.289 197.665 297.289C197.665 297.289 194.571 308.075 196.449 311.035V311.036Z" fill="#E3D1B5"/>
<path d="M201.955 307.215L203.967 305.657L217.726 327.389L236.453 315.743C236.453 315.743 230.728 290.426 227.766 287.231C224.804 284.037 220.891 282.499 220.891 282.499C217.338 281.043 216.084 282.778 214.496 282.542C210.87 282.004 209.235 285.241 208.196 285.005C207.01 284.735 205.481 285.036 204.188 285.665C203.63 285.936 203.117 286.269 202.694 286.646L202.69 286.65C202.256 287.033 201.917 287.464 201.724 287.917L196.052 289.925L197.853 295.2L197.667 295.25L198.133 296.019L201.955 307.214V307.215Z" fill="#E3D1B5"/>
<path d="M201.013 305.657C202.677 310.46 206.284 309.482 204.946 306.661L198.194 296.29C198.048 296.526 197.985 296.647 197.894 296.818C199.888 299.904 201.013 305.656 201.013 305.656V305.657Z" fill="#CC6004"/>
<path d="M218.7 328.043C240.633 345.228 253.324 329.969 252.077 324.579L234.493 311.198L213.477 324.347L218.699 328.043H218.7Z" fill="#E3D1B5"/>
</g>
</g>
<defs>
<clipPath id="clip0_328_1875">
<rect width="375" height="372" fill="white"/>
</clipPath>
<clipPath id="clip1_328_1875">
<rect x="86" y="116" width="203" height="203" rx="90" fill="white"/>
</clipPath>
</defs>
</svg>
