<svg xmlns="http://www.w3.org/2000/svg" width="1254" height="1254" viewBox="0 0 1254 1254">
<path d="M 621 764 L 594 765 L 565 770 L 515 787 L 492 799 L 470 814 L 434 849 L 410 885 L 395 924 L 390 962 L 391 1047 L 471 1047 L 482 1045 L 506 1036 L 517 1029 L 531 1016 L 540 1004 L 548 988 L 554 965 L 555 846 L 562 817 L 570 802 L 586 784 L 594 780 L 593 779 L 598 775 Z" fill="#000000" fill-rule="evenodd"/>
<path d="M 640 669 L 630 669 L 629 670 L 628 670 L 627 671 L 624 671 L 622 673 L 621 673 L 620 674 L 619 674 L 617 676 L 616 676 L 616 677 L 620 677 L 621 676 L 622 676 L 623 675 L 626 675 L 627 674 L 630 674 L 631 673 L 634 673 L 635 672 L 637 672 L 638 671 L 640 671 Z" fill="#000000" fill-rule="evenodd"/>
<path d="M 625 626 L 624 627 L 623 627 L 622 628 L 621 628 L 619 630 L 619 631 L 618 632 L 618 634 L 617 635 L 617 637 L 618 638 L 618 640 L 619 641 L 619 642 L 621 644 L 622 644 L 623 645 L 625 645 L 626 646 L 629 646 L 630 645 L 632 645 L 634 643 L 635 643 L 636 642 L 636 641 L 637 640 L 637 638 L 638 637 L 638 636 L 637 635 L 637 633 L 636 632 L 636 631 L 632 627 L 631 627 L 630 626 Z" fill="#000000" fill-rule="evenodd"/>
<path d="M 549 587 L 549 588 L 547 590 L 547 591 L 546 592 L 546 600 L 547 601 L 547 603 L 549 605 L 549 606 L 553 610 L 554 610 L 555 611 L 556 611 L 557 612 L 559 612 L 560 613 L 562 613 L 563 614 L 575 614 L 576 613 L 580 613 L 581 612 L 581 609 L 582 608 L 582 603 L 581 602 L 581 599 L 580 598 L 580 596 L 579 595 L 579 594 L 577 592 L 577 591 L 571 585 L 570 585 L 569 584 L 568 584 L 567 583 L 565 583 L 564 582 L 557 582 L 556 583 L 554 583 L 552 585 L 551 585 Z" fill="#000000" fill-rule="evenodd"/>
<path d="M 371 525 L 370 525 L 370 526 Z" fill="#000000" fill-rule="evenodd"/>
<path d="M 453 515 L 453 516 L 460 516 L 458 516 L 457 515 Z" fill="#000000" fill-rule="evenodd"/>
<path d="M 416 486 L 415 486 L 414 487 L 416 487 Z" fill="#000000" fill-rule="evenodd"/>
<path d="M 867 447 L 846 437 L 818 437 L 793 448 L 773 468 L 765 483 L 753 516 L 747 525 L 713 558 L 691 592 L 682 628 L 683 641 L 692 648 L 685 677 L 674 688 L 674 694 L 670 702 L 663 708 L 652 711 L 647 715 L 640 744 L 627 763 L 687 761 L 715 756 L 741 748 L 773 733 L 793 720 L 829 686 L 855 644 L 867 607 L 870 571 L 868 551 L 861 528 L 877 515 L 885 516 L 895 524 L 899 512 L 896 492 L 886 481 L 877 482 L 871 488 L 882 470 L 877 458 Z" fill="#000000" fill-rule="evenodd"/>
<path d="M 735 663 L 736 662 L 737 663 L 736 664 Z" fill="#ffffff" fill-rule="evenodd"/>
<path d="M 703 658 L 704 657 L 705 658 L 704 659 Z" fill="#ffffff" fill-rule="evenodd"/>
<path d="M 746 655 L 747 654 L 748 655 L 747 656 Z" fill="#ffffff" fill-rule="evenodd"/>
<path d="M 747 654 L 748 653 L 749 654 L 748 655 Z" fill="#ffffff" fill-rule="evenodd"/>
<path d="M 748 653 L 749 652 L 750 653 L 749 654 Z" fill="#ffffff" fill-rule="evenodd"/>
<path d="M 714 654 L 713 655 L 712 655 L 711 656 L 710 656 L 709 657 L 708 657 L 707 658 L 705 658 L 704 657 L 705 656 L 706 656 L 710 652 L 711 652 L 712 653 L 713 653 Z" fill="#ffffff" fill-rule="evenodd"/>
<path d="M 747 652 L 748 651 L 749 652 L 748 653 Z" fill="#ffffff" fill-rule="evenodd"/>
<path d="M 746 651 L 748 653 L 747 654 L 746 654 L 746 655 L 747 656 L 746 657 L 745 657 L 742 660 L 741 660 L 738 663 L 737 663 L 736 662 L 744 654 L 744 653 Z" fill="#ffffff" fill-rule="evenodd"/>
<path d="M 715 652 L 716 651 L 717 652 L 716 653 Z" fill="#ffffff" fill-rule="evenodd"/>
<path d="M 746 651 L 747 650 L 748 651 L 747 652 Z" fill="#ffffff" fill-rule="evenodd"/>
<path d="M 741 621 L 742 620 L 743 621 L 743 622 L 742 623 L 741 622 Z" fill="#ffffff" fill-rule="evenodd"/>
<path d="M 744 616 L 745 617 L 745 618 L 744 619 L 744 620 L 743 621 L 742 620 L 741 620 L 741 622 L 742 623 L 742 624 L 741 625 L 741 626 L 739 628 L 739 629 L 738 630 L 738 631 L 736 633 L 736 634 L 733 637 L 733 638 L 721 650 L 720 650 L 719 649 L 720 650 L 718 652 L 717 652 L 716 651 L 715 652 L 716 653 L 715 654 L 714 654 L 713 653 L 712 653 L 711 652 L 725 638 L 725 637 L 730 632 L 730 631 L 734 627 L 734 626 L 736 624 L 736 623 L 738 621 L 738 620 L 740 618 L 740 617 L 742 615 L 743 616 Z" fill="#ffffff" fill-rule="evenodd"/>
<path d="M 774 613 L 775 612 L 776 613 L 775 614 Z" fill="#ffffff" fill-rule="evenodd"/>
<path d="M 775 611 L 776 610 L 777 611 L 777 612 L 776 613 L 775 612 Z" fill="#ffffff" fill-rule="evenodd"/>
<path d="M 745 610 L 747 612 L 747 614 L 746 615 L 746 616 L 745 617 L 744 616 L 744 615 L 743 616 L 742 615 L 742 614 L 743 613 L 743 612 Z" fill="#ffffff" fill-rule="evenodd"/>
<path d="M 749 602 L 750 603 L 750 606 L 749 607 L 749 608 L 748 609 L 748 611 L 747 612 L 745 610 L 745 609 L 746 608 L 746 607 L 747 606 L 747 605 L 748 604 L 748 603 Z" fill="#ffffff" fill-rule="evenodd"/>
<path d="M 749 601 L 750 600 L 751 601 L 751 602 L 750 603 L 749 602 Z" fill="#ffffff" fill-rule="evenodd"/>
<path d="M 750 599 L 751 598 L 752 599 L 751 600 Z" fill="#ffffff" fill-rule="evenodd"/>
<path d="M 783 597 L 784 598 L 784 600 L 783 601 L 783 604 L 782 605 L 782 607 L 781 608 L 781 609 L 780 610 L 780 612 L 779 613 L 779 614 L 778 615 L 778 616 L 777 617 L 777 618 L 776 619 L 776 620 L 775 621 L 775 622 L 774 623 L 774 624 L 772 626 L 772 627 L 771 628 L 771 629 L 769 631 L 769 632 L 765 636 L 765 637 L 762 640 L 762 641 L 757 646 L 757 647 L 753 651 L 752 651 L 750 653 L 747 650 L 747 649 L 749 647 L 749 646 L 752 643 L 752 642 L 755 639 L 755 638 L 760 633 L 760 632 L 764 628 L 764 627 L 767 624 L 767 623 L 769 621 L 769 620 L 771 618 L 771 617 L 773 615 L 773 614 L 774 613 L 775 614 L 778 611 L 778 610 L 777 611 L 776 610 L 776 609 L 778 607 L 778 606 L 779 605 L 779 604 L 780 603 L 780 602 L 781 601 L 781 600 L 782 599 L 782 598 Z" fill="#ffffff" fill-rule="evenodd"/>
<path d="M 783 596 L 784 595 L 785 596 L 785 597 L 784 598 L 783 597 Z" fill="#ffffff" fill-rule="evenodd"/>
<path d="M 784 594 L 785 593 L 786 594 L 785 595 Z" fill="#ffffff" fill-rule="evenodd"/>
<path d="M 824 539 L 830 549 L 831 556 L 833 559 L 833 565 L 834 566 L 833 585 L 830 596 L 826 606 L 821 614 L 821 616 L 804 639 L 782 659 L 765 670 L 747 679 L 724 687 L 717 686 L 720 687 L 708 690 L 695 690 L 694 689 L 695 688 L 698 688 L 701 686 L 703 686 L 705 688 L 706 687 L 704 687 L 703 686 L 719 678 L 724 674 L 732 673 L 759 661 L 777 649 L 799 628 L 815 605 L 823 586 L 825 574 L 826 573 L 826 552 L 823 542 Z" fill="#ffffff" fill-rule="evenodd"/>
<path d="M 822 539 L 823 538 L 824 539 L 823 540 Z" fill="#ffffff" fill-rule="evenodd"/>
<path d="M 870 489 L 871 488 L 872 489 L 872 490 L 871 491 L 870 490 Z" fill="#ffffff" fill-rule="evenodd"/>
<path d="M 875 484 L 876 483 L 877 484 L 876 485 Z" fill="#ffffff" fill-rule="evenodd"/>
<path d="M 876 483 L 877 482 L 878 483 L 877 484 Z" fill="#ffffff" fill-rule="evenodd"/>
<path d="M 840 468 L 847 468 L 848 469 L 849 469 L 852 472 L 852 473 L 853 474 L 853 478 L 852 479 L 852 480 L 851 481 L 851 482 L 849 484 L 848 484 L 847 485 L 846 485 L 845 486 L 843 486 L 842 485 L 840 485 L 839 484 L 838 484 L 836 482 L 836 481 L 835 480 L 835 473 L 836 472 L 836 471 L 837 470 L 838 470 Z" fill="#ffffff" fill-rule="evenodd"/>
<path d="M 473 355 L 471 365 L 477 412 L 446 418 L 414 436 L 397 455 L 381 494 L 359 516 L 363 523 L 375 523 L 369 530 L 369 538 L 376 551 L 387 561 L 416 573 L 422 583 L 419 597 L 394 647 L 385 682 L 384 880 L 401 814 L 427 747 L 449 707 L 472 675 L 503 643 L 537 619 L 528 607 L 526 590 L 539 570 L 554 565 L 572 568 L 588 581 L 594 591 L 632 599 L 650 610 L 664 625 L 639 550 L 601 484 L 567 448 L 534 426 L 508 386 Z" fill="#000000" fill-rule="evenodd"/>
<path d="M 574 571 L 575 570 L 576 571 L 575 572 Z" fill="#ffffff" fill-rule="evenodd"/>
<path d="M 459 561 L 460 560 L 461 561 L 460 562 Z" fill="#ffffff" fill-rule="evenodd"/>
<path d="M 430 547 L 431 546 L 433 546 L 434 547 L 436 547 L 437 546 L 438 546 L 439 547 L 440 547 L 441 548 L 440 549 L 441 550 L 442 550 L 441 550 L 440 549 L 441 548 L 443 548 L 444 549 L 445 549 L 447 551 L 446 552 L 447 553 L 446 552 L 447 551 L 448 551 L 449 552 L 450 552 L 453 555 L 454 555 L 456 557 L 457 557 L 460 560 L 459 561 L 458 561 L 457 560 L 456 560 L 455 559 L 454 559 L 453 558 L 452 558 L 450 556 L 448 556 L 447 555 L 446 555 L 445 554 L 444 554 L 443 553 L 442 553 L 441 552 L 440 552 L 439 551 L 438 551 L 437 550 L 435 550 L 434 549 L 433 549 L 432 548 L 431 548 Z" fill="#ffffff" fill-rule="evenodd"/>
<path d="M 431 545 L 432 544 L 434 544 L 435 545 L 436 545 L 437 546 L 436 547 L 434 547 L 433 546 L 432 546 Z" fill="#ffffff" fill-rule="evenodd"/>
<path d="M 479 544 L 480 543 L 481 544 L 480 545 Z" fill="#ffffff" fill-rule="evenodd"/>
<path d="M 477 543 L 478 542 L 479 542 L 480 543 L 479 544 L 478 544 Z" fill="#ffffff" fill-rule="evenodd"/>
<path d="M 474 542 L 475 541 L 476 541 L 477 542 L 476 543 L 475 543 Z" fill="#ffffff" fill-rule="evenodd"/>
<path d="M 411 540 L 412 539 L 416 539 L 417 540 L 422 540 L 423 541 L 425 541 L 426 542 L 428 542 L 429 543 L 431 543 L 432 544 L 431 545 L 429 545 L 430 545 L 431 546 L 430 547 L 428 547 L 427 546 L 425 546 L 424 545 L 423 545 L 422 544 L 423 543 L 422 544 L 420 544 L 419 543 L 418 543 L 417 542 L 415 542 L 414 541 L 412 541 Z" fill="#ffffff" fill-rule="evenodd"/>
<path d="M 454 534 L 455 533 L 457 533 L 458 534 L 457 535 L 455 535 Z" fill="#ffffff" fill-rule="evenodd"/>
<path d="M 444 534 L 445 533 L 449 533 L 448 533 L 447 532 L 448 531 L 450 531 L 451 532 L 454 532 L 455 533 L 454 534 L 451 534 L 453 534 L 454 535 L 457 535 L 458 534 L 461 534 L 462 535 L 463 535 L 464 536 L 465 536 L 466 537 L 468 537 L 469 538 L 470 538 L 471 539 L 472 539 L 473 540 L 474 540 L 475 541 L 474 542 L 472 542 L 471 541 L 468 541 L 467 540 L 464 540 L 463 539 L 460 539 L 459 538 L 457 538 L 456 537 L 453 537 L 452 536 L 449 536 L 448 535 L 445 535 Z" fill="#ffffff" fill-rule="evenodd"/>
<path d="M 411 529 L 412 528 L 421 528 L 422 527 L 423 527 L 424 528 L 436 528 L 437 529 L 443 529 L 444 530 L 447 530 L 448 531 L 447 532 L 443 532 L 444 532 L 445 533 L 444 534 L 440 534 L 439 533 L 434 533 L 433 532 L 434 531 L 439 531 L 436 531 L 435 530 L 430 530 L 433 530 L 434 531 L 433 532 L 428 532 L 427 531 L 421 531 L 420 530 L 412 530 Z" fill="#ffffff" fill-rule="evenodd"/>
<path d="M 479 522 L 480 521 L 481 522 L 480 523 Z" fill="#ffffff" fill-rule="evenodd"/>
<path d="M 476 521 L 477 520 L 478 520 L 479 521 L 478 522 L 477 522 Z" fill="#ffffff" fill-rule="evenodd"/>
<path d="M 408 518 L 409 517 L 412 517 L 413 518 L 412 519 L 409 519 Z" fill="#ffffff" fill-rule="evenodd"/>
<path d="M 412 517 L 413 516 L 416 516 L 417 515 L 423 515 L 424 514 L 428 514 L 429 513 L 437 513 L 438 512 L 451 512 L 452 513 L 458 513 L 459 514 L 462 514 L 463 515 L 465 515 L 466 516 L 465 517 L 464 517 L 465 517 L 466 516 L 468 516 L 469 517 L 471 517 L 472 518 L 473 518 L 474 519 L 476 519 L 477 520 L 476 521 L 473 521 L 472 520 L 468 520 L 467 519 L 462 519 L 461 518 L 452 518 L 451 517 L 421 517 L 420 518 L 413 518 Z" fill="#ffffff" fill-rule="evenodd"/>
<path d="M 442 484 L 443 483 L 444 483 L 445 484 L 444 485 L 443 485 Z" fill="#ffffff" fill-rule="evenodd"/>
<path d="M 410 488 L 417 481 L 418 481 L 419 480 L 421 480 L 422 479 L 425 479 L 426 478 L 431 478 L 432 479 L 435 479 L 436 480 L 438 480 L 439 481 L 440 481 L 441 482 L 442 482 L 443 483 L 442 484 L 438 484 L 442 484 L 443 485 L 442 486 L 438 486 L 437 487 L 434 487 L 433 488 L 427 488 L 426 489 L 411 489 Z" fill="#ffffff" fill-rule="evenodd"/>
<path d="M 478 409 L 479 410 L 479 412 L 478 413 L 477 412 L 477 410 Z" fill="#ffffff" fill-rule="evenodd"/>
<path d="M 586 196 L 546 207 L 507 225 L 460 258 L 445 273 L 412 319 L 390 366 L 380 410 L 380 455 L 395 434 L 414 417 L 434 406 L 462 399 L 458 349 L 461 340 L 470 339 L 508 367 L 547 410 L 577 431 L 609 463 L 636 502 L 659 553 L 660 522 L 666 495 L 689 451 L 715 429 L 736 420 L 764 414 L 814 411 L 842 401 L 859 385 L 870 366 L 884 327 L 886 309 L 879 302 L 821 292 L 795 283 L 786 273 L 777 247 L 767 232 L 749 217 L 727 206 L 658 192 Z" fill="#000000" fill-rule="evenodd"/>
<path d="M 501 363 L 502 362 L 503 363 L 502 364 Z" fill="#ffffff" fill-rule="evenodd"/>
<path d="M 489 353 L 490 352 L 491 353 L 490 354 Z" fill="#ffffff" fill-rule="evenodd"/>
<path d="M 707 289 L 708 288 L 709 289 L 708 290 Z" fill="#ffffff" fill-rule="evenodd"/>
<path d="M 748 287 L 749 286 L 750 287 L 749 288 Z" fill="#ffffff" fill-rule="evenodd"/>
<path d="M 708 288 L 712 284 L 713 284 L 715 282 L 716 282 L 717 281 L 718 281 L 719 280 L 721 280 L 722 279 L 726 279 L 727 278 L 734 278 L 735 279 L 737 279 L 738 280 L 740 280 L 741 281 L 742 281 L 743 282 L 744 282 L 745 283 L 746 283 L 749 286 L 747 288 L 749 288 L 750 287 L 752 289 L 751 290 L 712 290 L 711 289 L 709 289 Z" fill="#ffffff" fill-rule="evenodd"/>
<path d="M 447 271 L 448 270 L 449 271 L 448 272 Z" fill="#ffffff" fill-rule="evenodd"/>
<path d="M 459 259 L 460 258 L 461 259 L 460 260 Z" fill="#ffffff" fill-rule="evenodd"/>
<path d="M 622 224 L 625 254 L 638 291 L 643 313 L 644 337 L 642 351 L 638 363 L 632 373 L 617 386 L 607 389 L 585 388 L 568 382 L 548 371 L 529 357 L 514 342 L 505 330 L 497 315 L 493 304 L 490 287 L 492 287 L 495 295 L 494 298 L 495 296 L 498 301 L 497 303 L 496 302 L 496 304 L 498 302 L 512 323 L 532 343 L 531 344 L 534 344 L 556 360 L 575 369 L 589 373 L 607 372 L 613 369 L 621 361 L 624 356 L 629 337 L 628 305 L 617 257 L 618 237 Z" fill="#ffffff" fill-rule="evenodd"/>
</svg>