<svg width="32" height="32" viewBox="0 0 32 32" fill="none" xmlns="http://www.w3.org/2000/svg">
<path d="M25.5 12.6847C25.588 12.686 25.6719 12.7219 25.7337 12.7845C25.7954 12.8472 25.83 12.9317 25.83 13.0197C25.8201 13.1008 25.7807 13.1756 25.7195 13.2297C25.6583 13.2839 25.5793 13.3138 25.4975 13.3138C25.4158 13.3138 25.3368 13.2839 25.2756 13.2297C25.2143 13.1756 25.175 13.1008 25.165 13.0197C25.165 12.9308 25.2003 12.8456 25.2631 12.7828C25.326 12.72 25.4112 12.6847 25.5 12.6847ZM3.61503 19.3247C3.74181 19.0642 3.93841 18.844 4.18295 18.6886C4.42748 18.5332 4.71034 18.4488 5.00003 18.4447C5.25939 18.4732 5.51006 18.555 5.73634 18.6849C5.96262 18.8148 6.15963 18.9901 6.31503 19.1997C6.4387 17.7279 7.0151 16.3306 7.96503 15.1997C9.96503 12.8947 13.64 12.1597 18.825 13.0047C19.0156 13.0336 19.2095 13.0336 19.4 13.0047C17 12.5497 13.63 11.2797 12 7.66467C11.9437 7.54466 11.9373 7.40719 11.9823 7.28248C12.0273 7.15778 12.12 7.05605 12.24 6.99967C12.7518 6.78666 13.29 6.6437 13.84 6.57467C13.7968 6.44062 13.7633 6.30359 13.74 6.16467C13.7216 6.07142 13.7302 5.97485 13.7648 5.88629C13.7993 5.79774 13.8584 5.72086 13.935 5.66467C14.9358 5.03423 16.1423 4.8173 17.3 5.05967C19.45 5.45467 21.54 7.14468 23.505 10.0597C23.9686 9.98926 24.4417 10.0148 24.895 10.1347C25.92 10.4147 26.77 11.1797 27.43 12.4147C27.9177 12.619 28.366 12.9066 28.755 13.2647C29.255 13.7397 29.99 14.6847 29.755 15.6847C29.605 16.3547 29.055 16.8647 28.12 17.1847C27.7255 17.3173 27.3112 17.3816 26.895 17.3747C26.399 17.3682 25.9056 17.3028 25.425 17.1797C25.4582 18.5767 24.9819 19.938 24.085 21.0097C23.3242 21.8762 22.4213 22.6066 21.415 23.1697H21.37C21.3685 23.358 21.3972 23.5454 21.455 23.7247C21.6901 24.0428 21.9858 24.3113 22.325 24.5147C22.7177 24.6701 23.0512 24.9459 23.2775 25.3025C23.5039 25.6591 23.6115 26.0781 23.585 26.4997C23.585 26.6323 23.5324 26.7595 23.4386 26.8532C23.3448 26.947 23.2176 26.9997 23.085 26.9997H20.43C20.3521 26.9968 20.2755 26.9781 20.205 26.9447C20.1411 26.9766 20.0714 26.9953 20 26.9997H7.59003C7.49881 26.9989 7.40931 26.9748 7.33003 26.9297C7.22003 26.8597 4.58003 25.2597 3.62003 23.6597C3.27129 22.9906 3.08876 22.2473 3.08789 21.4928C3.08702 20.7382 3.26783 19.9946 3.61503 19.3247ZM17.15 6.07467C16.3623 5.90967 15.5424 6.00077 14.81 6.33467C14.8314 6.39451 14.8564 6.45296 14.885 6.50967C16.85 6.50967 19.665 7.19467 22.475 10.4047C20.77 7.90467 18.93 6.41467 17.15 6.07467ZM16.405 23.9997H18.185C18.225 23.9997 18.375 23.9997 18.565 23.9997C18.475 23.8597 18.38 23.7297 18.29 23.6147C17.869 23.0934 17.5316 22.5097 17.29 21.8847C17.0591 22.6148 16.7629 23.3227 16.405 23.9997ZM4.50003 23.1447C5.23003 24.3647 7.25003 25.6847 7.75503 25.9997H19.5C19.4879 25.8446 19.4266 25.6975 19.325 25.5797C19.04 25.2647 18.44 25.2247 18.205 24.9997H15.56C15.38 25.2297 15.215 25.1347 15.125 24.9997C15.0811 24.9237 15.058 24.8374 15.058 24.7497C15.058 24.6619 15.0811 24.5757 15.125 24.4997C17.045 21.1797 16.715 19.7897 16.345 19.2547C15.76 18.4097 14.405 18.5297 13.845 18.6247C12.19 18.8947 10.56 19.9397 10.285 20.9047C10.2486 21.0326 10.1628 21.1409 10.0465 21.2056C9.93021 21.2703 9.793 21.2861 9.66503 21.2497C9.53706 21.2132 9.42882 21.1274 9.36412 21.0111C9.29942 20.8949 9.28356 20.7576 9.32003 20.6297C9.76503 19.0797 11.9 17.9297 13.685 17.6297C15.255 17.3747 16.525 17.7547 17.185 18.6797C17.5139 19.1764 17.6767 19.7646 17.65 20.3597C17.8356 20.2078 18.0329 20.0707 18.24 19.9497C18.5926 19.7812 18.8957 19.5246 19.12 19.2047C19.1902 19.1095 19.2917 19.0423 19.4067 19.0149C19.5217 18.9875 19.6427 19.0017 19.7482 19.0551C19.8537 19.1084 19.9369 19.1974 19.983 19.3063C20.0291 19.4151 20.0351 19.5368 20 19.6497C19.6957 20.1352 19.2654 20.5292 18.755 20.7897C18.5436 20.8932 18.3536 21.0357 18.195 21.2097C18.08 21.4847 18.315 22.2397 19.095 23.2447C19.7091 24.1211 20.2573 25.042 20.735 25.9997H22.5C22.41 25.7904 22.2411 25.6251 22.03 25.5397C21.4683 25.2639 20.9863 24.8491 20.63 24.3347C20.4358 23.8985 20.3534 23.4207 20.39 22.9447C20.3921 22.864 20.4136 22.7851 20.4528 22.7145C20.492 22.644 20.5476 22.584 20.615 22.5397L20.94 22.3497C21.8595 21.8387 22.6833 21.1721 23.375 20.3797C24.405 19.2697 24.46 17.5997 24.44 16.9247C23.865 16.719 23.3135 16.4525 22.795 16.1297C22.6911 16.0548 22.6199 15.943 22.5961 15.8172C22.5722 15.6914 22.5975 15.5613 22.6667 15.4536C22.7359 15.3459 22.8438 15.2689 22.9682 15.2384C23.0925 15.2079 23.2238 15.2262 23.335 15.2897C24.235 15.8697 26.47 16.7597 27.805 16.2897C28.21 16.1497 28.715 15.8947 28.805 15.5047C28.895 15.1147 28.61 14.5597 28.065 14.0047C27.7286 13.7055 27.3407 13.4701 26.92 13.3097C26.8005 13.266 26.7022 13.1784 26.645 13.0647C26.11 12.0047 25.44 11.3547 24.645 11.1347C24.1116 11.0035 23.5506 11.0419 23.04 11.2447C23.0409 11.319 23.0252 11.3925 22.994 11.46C22.9629 11.5275 22.9171 11.5871 22.86 11.6347C22.757 11.717 22.6257 11.7553 22.4946 11.7413C22.3635 11.7272 22.2432 11.6619 22.16 11.5597C19.29 7.99968 16.5 7.40467 14.665 7.49967C14.6218 7.50477 14.5782 7.50477 14.535 7.49967C14.0653 7.52956 13.6006 7.61345 13.15 7.74967C15.695 12.5247 21.915 12.2497 21.98 12.2497C22.1076 12.2494 22.2304 12.298 22.3234 12.3854C22.4163 12.4727 22.4724 12.5923 22.48 12.7197C22.4869 12.8515 22.4413 12.9807 22.3532 13.079C22.2652 13.1774 22.1418 13.2369 22.01 13.2447H21.735C21.535 13.2447 21.235 13.2447 20.85 13.2097C20.105 14.2097 18.7 14.0397 18.63 14.0297C13.82 13.2197 10.5 13.8447 8.70003 15.8697C6.27003 18.6397 7.61003 23.2147 7.62503 23.2597C7.66236 23.3863 7.64808 23.5226 7.58532 23.6387C7.52256 23.7549 7.41641 23.8415 7.29003 23.8797C7.24333 23.8956 7.19438 23.9041 7.14503 23.9047C7.03834 23.9039 6.93468 23.8691 6.84922 23.8052C6.76376 23.7413 6.70097 23.6518 6.67003 23.5497C6.43632 22.7061 6.29713 21.8391 6.25503 20.9647C5.70003 19.8597 5.21503 19.4647 4.94503 19.4647C4.67503 19.4647 4.56503 19.7047 4.48003 19.8547C4.23233 20.3683 4.10536 20.9318 4.10883 21.502C4.11229 22.0722 4.2461 22.6341 4.50003 23.1447Z" fill="#5379B2"/>
</svg>
