<svg width="375" height="541" viewBox="0 0 375 541" fill="none" xmlns="http://www.w3.org/2000/svg">
<path d="M150.645 492.016C65.084 477.646 -10.7592 532.427 -72.643 452.915C-114.698 398.88 -78.6069 382.677 -96.1831 294.742C-118.153 184.823 -100.188 79.5212 -53.661 18.1125C11.6569 -68.0979 116.315 2.57751 189.608 -1.69861C278.138 -6.86371 345.219 -126.828 386.163 -53.1176C427.108 20.5924 480.332 497.229 374.932 534.766C307.452 558.798 237.562 506.614 150.645 492.016Z" fill="#F0F2F8"/>
<path d="M256.17 359.892C256.17 359.892 256.167 359.895 256.165 359.896L256.17 359.889L244.526 355.19C245.07 334.663 245.408 314.692 245.147 304.914C204.758 284.635 160.642 293.749 137.817 302.414C135.583 303.256 133.555 304.1 131.751 304.914C131.584 311.066 131.853 332.419 132.365 355.252L120.898 359.888L120.902 359.897L120.897 359.892C120.217 376.346 120.165 390.24 120.482 402.018C121.096 424.88 123.072 439.788 124.418 450.108C166.929 456.76 210.196 457.188 252.641 450.108C252.929 447.911 253.506 443.664 254.142 437.471C255.681 422.453 257.516 396.033 256.169 359.891L256.17 359.892Z" fill="#E3D1B5"/>
<path d="M256.17 359.892C256.17 359.892 256.167 359.895 256.165 359.896L256.17 359.889L244.526 355.19C244.453 357.961 244.376 360.742 244.296 363.51C244.244 365.325 244.191 367.134 244.137 368.93C241.534 370.782 238.999 372.516 236.539 374.14C236.204 374.361 235.871 374.58 235.539 374.797C206.847 393.546 188.467 397.248 188.467 397.248C168.233 390.585 152.484 382.313 141.301 375.247C140.965 375.034 140.632 374.823 140.304 374.613C137.463 372.793 134.931 371.059 132.712 369.464C132.588 364.744 132.471 359.966 132.365 355.253L120.898 359.889L120.902 359.898L120.897 359.893C120.217 376.347 120.165 390.241 120.482 402.019C121.096 424.881 123.072 439.789 124.418 450.109C166.929 456.761 210.196 457.189 252.641 450.109C252.929 447.912 253.506 443.665 254.142 437.472C255.681 422.454 257.517 396.034 256.17 359.892Z" fill="#89A2C8"/>
<path d="M236.769 366.626C237.281 349.334 237.698 330.776 237.698 318.773C237.698 315.842 237.673 313.303 237.618 311.265L237.61 310.974L237.352 310.841C221.809 302.925 205.631 300.129 190.74 300.129C168.963 300.131 149.936 306.101 139.566 310.833L139.289 310.959L139.281 311.264C139.252 312.336 139.239 313.926 139.239 315.944C139.239 318.563 139.261 321.904 139.304 325.762C138.007 321.321 137.26 316.703 137.153 311.985C137.078 308.782 137.308 305.571 137.818 302.412C135.585 303.255 133.556 304.099 131.752 304.912C131.585 311.064 131.854 332.417 132.367 355.25C132.472 359.963 132.588 364.741 132.714 369.461C134.934 371.056 137.465 372.789 140.305 374.61C140.634 374.82 140.966 375.031 141.302 375.244C152.485 382.309 168.234 390.582 188.469 397.245C188.469 397.245 206.849 393.543 235.54 374.794C235.872 374.577 236.205 374.359 236.54 374.137C239 372.513 241.535 370.778 244.139 368.927C244.192 367.131 244.245 365.322 244.297 363.507C241.857 364.665 239.342 365.704 236.77 366.623L236.769 366.626ZM235.78 366.973C225.816 370.398 215.032 372.035 204.366 371.738C199.745 374.528 194.327 376.135 188.535 376.135C175.35 376.135 164.107 367.813 159.776 356.132C151.02 348.939 144.102 339.494 140.319 328.895C140.252 323.701 140.216 319.247 140.216 315.946C140.216 314.118 140.227 312.644 140.25 311.597C150.56 306.938 169.339 301.106 190.739 301.108C205.426 301.108 221.348 303.851 236.647 311.582C236.696 313.557 236.718 315.987 236.718 318.773C236.718 330.842 236.297 349.579 235.779 366.972L235.78 366.973Z" fill="#E3D1B5"/>
<path d="M218.14 352.478C218.674 350.227 218.952 347.881 218.952 345.473C218.952 328.675 205.333 315.055 188.534 315.055C177.218 315.055 167.34 321.238 162.105 330.413C161.987 330.347 161.838 330.389 161.772 330.506C159.287 334.933 157.873 340.036 157.873 345.473C157.873 349.221 158.545 352.813 159.776 356.132C164.107 367.813 175.349 376.135 188.535 376.135C194.328 376.135 199.745 374.528 204.366 371.738C211.247 367.582 216.362 360.799 218.32 352.773C218.352 352.641 218.272 352.509 218.141 352.478H218.14Z" fill="#F7F3ED"/>
<path d="M218.14 352.477C218.008 352.446 217.877 352.527 217.845 352.657C217.812 352.79 217.778 352.923 217.744 353.056C211.694 359.059 203.075 362.437 194.525 362.173C192.221 362.102 189.933 361.772 187.703 361.208C193.312 349.304 199.722 337.413 207.448 327.119C207.529 327.011 207.506 326.857 207.399 326.776C207.297 326.7 207.155 326.715 207.071 326.807C207.066 326.813 207.061 326.819 207.056 326.824C197.242 339.904 189.56 355.52 182.947 370.468C182.46 369.853 181.579 368.793 180.452 367.462C176.36 362.629 169.068 354.252 166.108 351.04C166.089 351.018 166.065 351.001 166.041 350.989C166.63 349.869 167.373 348.797 168.232 347.816C164.777 342.885 162.668 337.045 162.029 331.052C162.085 330.949 162.141 330.847 162.198 330.745C162.264 330.628 162.223 330.479 162.105 330.413C161.987 330.347 161.838 330.389 161.772 330.506C159.287 334.933 157.873 340.036 157.873 345.473C157.873 349.221 158.545 352.813 159.776 356.132C164.107 367.813 175.349 376.135 188.535 376.135C194.328 376.135 199.745 374.528 204.366 371.738C211.247 367.582 216.362 360.798 218.32 352.773C218.352 352.641 218.272 352.509 218.141 352.477H218.14Z" fill="#F7F3ED"/>
<path d="M244.137 368.93C248 366.184 252.015 363.18 256.166 359.896L256.171 359.889L244.527 355.19C244.453 357.961 244.376 360.742 244.296 363.51C244.245 365.325 244.192 367.134 244.138 368.93H244.137Z" fill="#F0E8DB"/>
<path d="M132.365 355.252L120.898 359.889L120.902 359.898C121.063 360.056 125.019 363.935 132.711 369.463C132.587 364.744 132.47 359.966 132.364 355.252H132.365Z" fill="#F7F3ED"/>
<path d="M237.697 318.774C237.697 315.843 237.672 313.304 237.617 311.266L237.609 310.975L237.351 310.842C221.808 302.926 205.63 300.13 190.739 300.13C168.962 300.132 149.935 306.102 139.565 310.834L139.288 310.96L139.28 311.265C139.252 312.337 139.238 313.927 139.238 315.945C139.238 318.564 139.26 321.905 139.303 325.763C139.418 336.178 139.679 350.361 140.027 364.286C140.114 367.766 140.206 371.228 140.304 374.612C140.633 374.822 140.965 375.033 141.301 375.246C141.197 371.653 141.098 367.966 141.005 364.262C140.69 351.696 140.448 338.917 140.319 328.894C140.252 323.7 140.216 319.246 140.216 315.945C140.216 314.117 140.227 312.643 140.25 311.596C150.56 306.937 169.339 301.105 190.739 301.107C205.426 301.107 221.348 303.85 236.647 311.581C236.696 313.556 236.718 315.986 236.718 318.772C236.718 330.841 236.297 349.578 235.779 366.971C235.736 368.405 235.693 369.83 235.65 371.242C235.613 372.437 235.576 373.622 235.538 374.794C235.871 374.577 236.203 374.359 236.538 374.137C236.616 371.677 236.694 369.164 236.768 366.623C237.28 349.331 237.697 330.773 237.697 318.77V318.774Z" fill="#FFFBF1"/>
<path d="M125.285 371.819C125.361 371.917 137.464 387.45 188.374 405.227C188.464 405.258 188.563 405.262 188.655 405.238C188.696 405.227 219.964 397.278 250.654 371.896C250.862 371.723 250.891 371.415 250.719 371.207C250.546 371 250.238 370.97 250.031 371.143C234.774 383.763 219.361 392.054 207.765 397.187C201.967 399.754 197.125 401.531 193.733 402.666C192.038 403.234 190.706 403.641 189.798 403.905C189.344 404.038 188.997 404.135 188.764 404.198C188.679 404.222 188.609 404.24 188.555 404.254C163.242 395.405 147.603 387.129 138.3 381.073C133.64 378.04 130.569 375.564 128.669 373.853C127.719 372.997 127.062 372.333 126.643 371.886C126.434 371.662 126.285 371.493 126.189 371.38C126.141 371.324 126.107 371.282 126.085 371.255L126.062 371.226L126.057 371.219C125.891 371.006 125.585 370.967 125.371 371.133C125.157 371.299 125.119 371.605 125.285 371.819Z" fill="#0D2345"/>
<path d="M168.603 437.169C155.678 432.515 143.241 426.056 133.054 416.845C128.245 412.495 123.953 407.508 120.483 402.018C121.097 424.88 123.073 439.788 124.419 450.108C166.931 456.76 210.197 457.188 252.642 450.108C252.93 447.911 253.507 443.664 254.143 437.471C243.542 441.932 232.104 444.478 220.614 445.188C202.983 446.276 185.219 443.147 168.603 437.169Z" fill="#89A2C8"/>
<path d="M166.108 351.04C169.067 354.252 176.36 362.63 180.452 367.462C181.579 368.794 182.46 369.853 182.947 370.468C189.56 355.52 197.241 339.905 207.056 326.825C207.061 326.819 207.066 326.812 207.071 326.807C204.509 324.486 200.282 321.443 196.693 321.443C190.248 331.935 185.617 343.394 181.132 354.863C178.408 351.331 176.01 347.503 173.625 343.734C171.609 344.653 169.742 346.093 168.232 347.816C167.373 348.797 166.63 349.869 166.041 350.989C166.065 351.002 166.089 351.018 166.108 351.04Z" fill="#83D27F"/>
<path d="M182.947 370.469C182.46 369.854 181.579 368.794 180.452 367.463C176.36 362.629 169.068 354.253 166.108 351.04C166.089 351.019 166.065 351.002 166.041 350.99C165.952 350.943 165.841 350.955 165.763 351.027C165.664 351.118 165.657 351.273 165.75 351.372C167.714 353.504 171.613 357.941 175.204 362.091C176.999 364.166 178.718 366.17 180.079 367.779C181.44 369.387 182.448 370.605 182.809 371.091C182.861 371.16 182.945 371.197 183.033 371.188C183.12 371.178 183.193 371.123 183.229 371.044C184.667 367.786 186.155 364.498 187.703 361.21C193.312 349.306 199.722 337.415 207.448 327.12C207.529 327.013 207.506 326.859 207.399 326.778C207.297 326.702 207.156 326.717 207.071 326.809C207.066 326.815 207.061 326.821 207.057 326.826C197.242 339.906 189.56 355.522 182.947 370.47V370.469Z" fill="#F7F3ED"/>
<path d="M218.32 352.773C218.352 352.641 218.272 352.509 218.141 352.478C218.009 352.446 217.878 352.527 217.846 352.657C217.813 352.79 217.779 352.924 217.745 353.056C214.383 366.052 202.582 375.646 188.535 375.646C180.203 375.646 172.661 372.27 167.2 366.81C161.739 361.349 158.363 353.808 158.363 345.473C158.363 340.246 159.691 335.338 162.03 331.053C162.085 330.95 162.142 330.848 162.199 330.746C162.265 330.629 162.224 330.48 162.106 330.414C161.988 330.348 161.839 330.39 161.773 330.507C159.288 334.934 157.874 340.037 157.874 345.474C157.874 349.222 158.546 352.814 159.777 356.133C164.108 367.814 175.35 376.136 188.536 376.136C194.329 376.136 199.746 374.529 204.367 371.739C211.248 367.583 216.363 360.799 218.321 352.774L218.32 352.773Z" fill="#F7F3ED"/>
</svg>
