<svg width="375" height="618" viewBox="0 0 375 618" fill="none" xmlns="http://www.w3.org/2000/svg">
<g clip-path="url(#clip0_18_28)">
<path d="M204.145 546.268C118.584 525.225 42.7408 605.446 -19.143 489.008C-61.1982 409.879 -25.1069 386.152 -42.6831 257.38C-64.6534 96.4141 -46.6878 -57.7904 -0.16106 -147.717C65.1568 -273.964 169.815 -170.467 243.108 -176.729C331.638 -184.292 398.719 -359.967 439.663 -252.027C480.608 -144.086 533.832 553.902 428.432 608.871C360.952 644.064 291.062 567.645 204.145 546.268Z" fill="#F0F2F8"/>
<path d="M218.357 460.253C269.12 458.647 298.574 419.754 305.825 384.946C313.077 350.139 301.054 286.028 250.027 260.626C220.843 246.098 188.325 255.031 173.207 265.064C158.089 275.098 148.296 269.329 139.03 269.14C128.558 268.924 98.8697 280.132 81.4514 306.016C61.0329 336.361 63.4529 385.177 81.182 417.112C88.6509 430.566 105.674 447.668 119.833 453.423C166.59 472.428 218.357 460.251 218.357 460.251V460.253Z" fill="#F7F3ED"/>
<path d="M224.575 296.701L112.825 297.149L113.109 367.758L224.859 367.31L224.575 296.701Z" fill="#5379B2"/>
<path d="M240.952 306.939L129.202 307.387L129.486 377.998L241.236 377.55L240.952 306.939Z" fill="#D6BB8F"/>
<path d="M256.072 317.129L144.323 317.577L144.606 388.186L256.356 387.738L256.072 317.129Z" fill="#5379B2"/>
<path d="M163.914 361.52C166.303 357.764 168.738 354.037 171.253 350.361C173.612 346.893 176.028 343.46 178.576 340.111C177.322 339.3 176.068 338.487 174.819 337.668L168.635 333.63L162.469 329.56C158.373 326.823 154.274 324.092 150.222 321.289C154.501 323.735 158.733 326.255 162.97 328.77L169.302 332.575L175.614 336.411C179.827 338.962 184.001 341.572 188.197 344.154L200.208 351.666L212.22 344.059C216.413 341.445 220.588 338.802 224.8 336.218C226.904 334.922 229.001 333.615 231.111 332.33L237.443 328.474C241.678 325.926 245.91 323.374 250.188 320.893C246.137 323.728 242.04 326.492 237.945 329.26L231.782 333.38C229.728 334.753 227.66 336.104 225.599 337.468C224.338 338.304 223.072 339.135 221.805 339.965C224.372 343.287 226.809 346.692 229.192 350.133C231.735 353.788 234.201 357.496 236.619 361.232C239.034 364.972 241.403 368.741 243.692 372.561C245.991 376.374 248.235 380.225 250.321 384.177C247.572 380.653 244.982 377.027 242.447 373.366C239.901 369.711 237.437 366.003 235.017 362.268C232.602 358.53 230.233 354.761 227.942 350.941C225.782 347.357 223.675 343.739 221.701 340.035C218.868 341.888 216.028 343.726 213.194 345.578L200.728 353.598L200.218 353.926L199.705 353.6L187.235 345.681C184.386 343.843 181.531 342.019 178.683 340.179C176.733 343.908 174.652 347.552 172.513 351.161C170.254 354.999 167.914 358.786 165.529 362.543C163.137 366.297 160.704 370.024 158.188 373.7C155.682 377.381 153.119 381.027 150.4 384.573C152.454 380.604 154.666 376.737 156.935 372.905C159.194 369.067 161.534 365.279 163.918 361.521L163.914 361.52Z" fill="#E2F2F1"/>
<path d="M267.824 334.541C277.579 324.796 277.579 308.995 267.824 299.249C258.069 289.503 242.253 289.503 232.498 299.249C222.743 308.995 222.743 324.796 232.498 334.541C242.253 344.287 258.069 344.287 267.824 334.541Z" fill="#D1D9E5"/>
<path d="M237.861 324.183C238.428 324.238 239.088 324.175 239.981 324.08C241.502 323.862 242.933 323.226 244.031 322.173C245.307 321.002 246.222 319.294 246.566 316.993H246.478C245.41 318.316 243.863 319.101 241.921 319.113C238.426 319.135 236.169 316.524 236.148 313.212C236.125 309.54 238.762 306.301 242.734 306.275C246.706 306.248 249.176 309.455 249.209 314.409C249.236 318.676 247.823 321.672 245.924 323.533C244.44 325.006 242.383 325.914 240.296 326.165C239.342 326.322 238.505 326.356 237.878 326.332L237.864 324.183H237.861ZM238.744 313.014C238.759 315.431 240.234 317.122 242.504 317.109C244.267 317.098 245.637 316.223 246.315 315.055C246.464 314.816 246.55 314.517 246.547 314.099C246.525 310.787 245.286 308.258 242.537 308.276C240.298 308.291 238.727 310.272 238.745 313.015L238.744 313.014Z" fill="#FAFAFF"/>
<path d="M260.093 310.011L260.139 317.024L266.888 316.98L266.899 318.771L260.15 318.815L260.195 325.888L258.284 325.9L258.238 318.827L251.486 318.871L251.475 317.08L258.227 317.036L258.182 310.023L260.093 310.011Z" fill="#FAFAFF"/>
<path d="M145.031 388.19L144.17 388.194L143.887 317.154L212.889 316.706L212.894 317.566L144.751 318.009L145.031 388.19Z" fill="#1D1D1B"/>
<path d="M129.435 368.369L112.674 368.188L112.672 367.765L112.391 296.725L112.822 296.722L183.544 296.442L183.547 297.303L113.255 297.582L113.532 367.337L129.445 367.509L129.435 368.369Z" fill="#1D1D1B"/>
<path d="M229.98 420.628C222.655 416.247 220.136 416.684 220.136 416.684C220.136 416.684 214.412 411.958 207.998 412.292C207.998 412.292 200.089 406.157 193.203 412.548L193.215 412.155L193.95 388.224C193.95 388.224 194.63 362.11 191.992 359.833C187.658 356.092 182.31 358.833 181.598 364.994C181.043 369.804 172.936 431.116 172.936 431.116C172.936 431.116 168.46 415.674 164.284 409.884C160.109 404.095 151.16 403.825 149.909 408.692C149.909 408.692 149.974 409.013 150.086 409.572C150.092 409.605 150.1 409.638 150.107 409.673C150.146 409.863 150.188 410.079 150.235 410.317C150.671 412.497 151.467 416.522 152.153 420.204C152.783 423.588 153.319 426.681 153.396 427.793C153.447 428.511 153.729 430.607 154.207 433.506C154.242 433.719 154.277 433.934 154.314 434.156C154.426 434.814 154.544 435.507 154.673 436.233C154.71 436.445 154.749 436.66 154.787 436.877C156.415 445.906 159.33 459.167 162.854 465.881C165.629 471.168 168.695 480.852 170.997 488.91C170.997 488.91 170.997 488.912 170.997 488.916C171.184 489.57 171.367 490.214 171.542 490.844C171.543 490.853 171.546 490.86 171.548 490.868C172.691 495.463 173.26 499.751 173.637 503.54H219.296C219.526 500.434 219.714 497.997 219.757 497.939C221.414 487.37 225.661 460.327 226.401 455.98C227.323 450.559 237.299 425.008 229.977 420.628H229.98Z" fill="#E3D1B5"/>
<path d="M158.798 432.84C158.753 432.881 158.695 432.908 158.629 432.918C157.103 433.132 155.53 433.667 154.315 434.157C154.277 433.936 154.242 433.719 154.207 433.507C155.435 433.02 156.997 432.502 158.54 432.285C158.716 432.26 158.877 432.381 158.903 432.555C158.918 432.667 158.877 432.771 158.798 432.84Z" fill="#5F3D07"/>
<path d="M158.815 435.742C158.77 435.782 158.712 435.811 158.647 435.819C157.308 436.009 155.927 436.444 154.789 436.878C154.75 436.661 154.712 436.447 154.675 436.234C155.82 435.801 157.197 435.378 158.556 435.186C158.731 435.162 158.895 435.285 158.919 435.459C158.935 435.569 158.892 435.673 158.815 435.743V435.742Z" fill="#5F3D07"/>
<path d="M148.141 410.478C148.139 410.489 148.138 410.5 148.139 410.512C148.139 410.5 148.139 410.49 148.139 410.478H148.141Z" fill="#E3D1B5"/>
<path d="M154.776 418.31C153.965 419.225 152.858 419.86 152.153 420.204C151.467 416.523 150.671 412.498 150.235 410.317C150.188 410.079 150.146 409.863 150.107 409.672C150.595 409.499 151.107 409.339 151.637 409.194C152.554 408.947 153.549 409.493 153.961 410.439C153.982 410.484 154.001 410.531 154.017 410.578L155.947 415.886C155.947 415.886 156.061 416.862 154.776 418.309V418.31Z" fill="#E3D1B5"/>
<path d="M153.968 410.447C153.968 410.447 153.965 410.442 153.962 410.44C153.547 409.881 152.524 409.613 151.883 409.785C151.305 409.942 150.756 410.122 150.236 410.317C150.189 410.079 150.147 409.863 150.108 409.673C150.1 409.637 150.093 409.604 150.088 409.572C150.552 409.403 151.042 409.247 151.553 409.109C152.362 408.891 153.582 409.385 153.895 410.249L153.968 410.447Z" fill="#FDC9BC"/>
<path d="M191.538 361.715C191.567 361.073 191.051 360.504 190.35 360.436L185.943 360.004C185.205 359.932 184.589 360.408 184.534 361.069H184.53L184.528 361.134L184.389 366.888V366.946H184.391C184.411 367.521 184.952 368.003 185.627 368.045L189.661 368.286C190.305 368.325 190.871 367.922 190.959 367.371H190.962L190.967 367.316L191.533 361.778L191.538 361.715Z" fill="#E3D1B5"/>
<path d="M191.538 361.715C191.567 361.073 191.051 360.504 190.35 360.436L185.943 360.004C185.205 359.932 184.589 360.408 184.534 361.069H184.53L184.528 361.134L184.516 361.661H184.52C184.574 361.01 185.187 360.539 185.92 360.609L190.299 361.025C190.996 361.091 191.509 361.651 191.48 362.285H191.483L191.535 361.778L191.542 361.715H191.538Z" fill="#FDC9BC"/>
<path d="M176.375 480.597C176.321 480.694 176.318 480.815 176.379 480.918C178.399 484.368 184.128 487.152 184.371 487.269C184.534 487.347 184.726 487.278 184.805 487.118C184.883 486.957 184.814 486.762 184.653 486.685C184.596 486.657 178.858 483.869 176.94 480.591C176.849 480.436 176.651 480.385 176.496 480.475C176.443 480.505 176.403 480.547 176.376 480.597H176.375Z" fill="#5F3D07"/>
<path d="M176.541 476.121C176.498 476.197 176.487 476.289 176.516 476.378C177.743 480.182 182.738 484.135 182.95 484.301C183.091 484.413 183.295 484.388 183.405 484.246C183.516 484.105 183.491 483.902 183.35 483.792C183.299 483.752 178.3 479.793 177.134 476.179C177.079 476.009 176.896 475.915 176.725 475.97C176.644 475.996 176.579 476.051 176.541 476.121Z" fill="#5F3D07"/>
<path d="M153.114 427.812C153.048 426.861 152.631 424.32 151.875 420.255C151.182 416.533 150.376 412.465 149.958 410.372L149.831 409.727C149.824 409.695 149.815 409.657 149.809 409.623C149.697 409.068 149.633 408.747 149.633 408.747L149.62 408.683L149.637 408.62C150.1 406.817 151.622 405.546 153.811 405.134C157.048 404.524 161.764 405.902 164.517 409.719C168.019 414.575 171.661 425.934 172.831 429.768C174.012 420.835 180.816 369.324 181.32 364.962C181.699 361.693 183.375 359.176 185.806 358.228C187.891 357.416 190.215 357.922 192.18 359.62L191.81 360.048C190.009 358.495 187.896 358.024 186.012 358.756C183.78 359.625 182.236 361.969 181.884 365.027C181.334 369.785 173.302 430.54 173.22 431.153L173.043 432.491L172.668 431.194C172.624 431.04 168.158 415.732 164.059 410.049C161.445 406.424 156.978 405.112 153.918 405.689C151.951 406.06 150.635 407.127 150.205 408.699C150.229 408.819 150.286 409.102 150.368 409.515C150.375 409.549 150.381 409.579 150.387 409.611L150.517 410.26C150.935 412.354 151.742 416.424 152.435 420.151C153.195 424.236 153.615 426.8 153.682 427.771L153.117 427.811L153.114 427.812Z" fill="#5F3D07"/>
<path d="M193.32 412.503L193.338 419.222L195.285 411.073L193.32 412.503Z" fill="#E3D1B5"/>
<path d="M207.907 412.581L207.616 423.187L209.656 412.354L208.098 412.322L207.907 412.581Z" fill="#E3D1B5"/>
<path d="M219.953 416.865L219.867 426.934L221.535 416.966L219.953 416.865Z" fill="#E3D1B5"/>
<path d="M220.127 497.416C220.011 497.586 219.889 497.761 219.76 497.939C219.644 498.1 219.523 498.265 219.395 498.43C220.99 488.262 225.375 460.327 226.124 455.932C226.329 454.728 226.964 452.581 227.767 449.863C229.17 445.12 231.091 438.621 231.935 432.936C232.898 426.446 232.225 422.411 229.939 420.935C229.904 420.913 229.87 420.891 229.834 420.869C225.545 418.305 222.919 417.412 221.511 417.107C220.593 416.909 220.191 416.961 220.18 416.963L220.055 416.982L219.955 416.902H219.952C219.82 416.792 215.124 413.008 209.608 412.596C209.083 412.554 208.549 412.548 208.01 412.575L207.906 412.581L207.822 412.517C207.803 412.501 205.843 411.002 203.091 410.293C200.202 409.55 197.562 409.909 195.213 411.359C194.585 411.747 193.979 412.212 193.393 412.756L193.319 412.677L193.2 412.549L193.008 412.342C193.077 412.278 193.145 412.217 193.214 412.156C196.806 408.957 200.643 409.075 203.252 409.751C205.817 410.416 207.668 411.701 208.083 412.006C214.126 411.74 219.441 415.77 220.223 416.394C220.849 416.362 223.63 416.502 230.123 420.387C230.165 420.411 230.207 420.438 230.247 420.464C235.96 424.151 231.175 440.332 228.309 450.027C227.512 452.726 226.879 454.858 226.681 456.031C225.958 460.273 221.843 486.472 220.125 497.417L220.127 497.416Z" fill="#5F3D07"/>
</g>
<defs>
<clipPath id="clip0_18_28">
<rect width="375" height="618" fill="white"/>
</clipPath>
</defs>
</svg>
