<svg width="375" height="562" viewBox="0 0 375 562" fill="none" xmlns="http://www.w3.org/2000/svg">
<g clip-path="url(#clip0_17_55)">
<path d="M150.145 498.828C64.5838 480.296 -11.2594 550.944 -73.1432 448.402C-115.198 378.716 -79.1071 357.82 -96.6833 244.415C-118.653 102.659 -100.688 -33.1434 -54.1612 -112.338C11.1567 -223.519 115.815 -132.373 189.108 -137.888C277.638 -144.549 344.719 -299.26 385.663 -204.2C426.608 -109.14 479.832 505.551 374.432 553.961C306.952 584.953 237.062 517.655 150.145 498.828Z" fill="#F0F2F8"/>
<path d="M255.17 359.892C255.17 359.892 255.167 359.895 255.165 359.896L255.17 359.889L243.526 355.19C244.07 334.663 244.408 314.692 244.147 304.914C203.758 284.635 159.642 293.749 136.817 302.414C134.583 303.256 132.555 304.1 130.751 304.914C130.584 311.066 130.853 332.419 131.365 355.252L119.898 359.888L119.902 359.897L119.897 359.892C119.217 376.346 119.165 390.24 119.482 402.018C120.096 424.88 122.072 439.788 123.418 450.108C165.929 456.76 209.196 457.188 251.641 450.108C251.929 447.911 252.506 443.664 253.142 437.471C254.681 422.453 256.516 396.033 255.169 359.891L255.17 359.892Z" fill="#E3D1B5"/>
<path d="M255.17 359.892C255.17 359.892 255.167 359.895 255.165 359.896L255.17 359.889L243.526 355.19C243.453 357.961 243.376 360.742 243.296 363.51C243.244 365.325 243.191 367.134 243.137 368.93C240.534 370.782 237.999 372.516 235.539 374.14C235.204 374.361 234.871 374.58 234.539 374.797C205.847 393.546 187.467 397.248 187.467 397.248C167.233 390.585 151.484 382.313 140.301 375.247C139.965 375.034 139.632 374.823 139.304 374.613C136.463 372.792 133.931 371.059 131.712 369.464C131.588 364.744 131.471 359.966 131.365 355.253L119.898 359.889L119.902 359.898L119.897 359.893C119.217 376.347 119.165 390.241 119.482 402.019C120.096 424.881 122.072 439.789 123.418 450.109C165.929 456.761 209.196 457.189 251.641 450.109C251.929 447.912 252.506 443.665 253.142 437.472C254.681 422.454 256.517 396.034 255.17 359.892Z" fill="#89A2C8"/>
<path d="M235.769 366.626C236.281 349.334 236.698 330.776 236.698 318.773C236.698 315.842 236.673 313.303 236.618 311.265L236.61 310.974L236.352 310.841C220.809 302.925 204.631 300.129 189.74 300.129C167.963 300.131 148.936 306.101 138.566 310.833L138.289 310.959L138.281 311.264C138.252 312.336 138.239 313.926 138.239 315.944C138.239 318.563 138.261 321.904 138.304 325.762C137.007 321.321 136.26 316.703 136.153 311.985C136.078 308.782 136.308 305.571 136.818 302.412C134.585 303.255 132.556 304.099 130.752 304.912C130.585 311.064 130.854 332.417 131.367 355.25C131.472 359.963 131.588 364.741 131.714 369.461C133.934 371.056 136.465 372.789 139.305 374.61C139.634 374.82 139.966 375.031 140.302 375.244C151.485 382.309 167.234 390.582 187.469 397.245C187.469 397.245 205.849 393.543 234.54 374.794C234.872 374.577 235.205 374.359 235.54 374.137C238 372.513 240.535 370.778 243.139 368.927C243.192 367.131 243.245 365.322 243.297 363.507C240.857 364.665 238.342 365.704 235.77 366.623L235.769 366.626ZM234.78 366.973C224.816 370.398 214.032 372.035 203.366 371.738C198.745 374.528 193.327 376.135 187.535 376.135C174.35 376.135 163.107 367.813 158.776 356.132C150.02 348.939 143.102 339.494 139.319 328.895C139.252 323.701 139.216 319.247 139.216 315.946C139.216 314.118 139.227 312.644 139.25 311.597C149.56 306.938 168.339 301.106 189.739 301.108C204.426 301.108 220.348 303.851 235.647 311.582C235.696 313.557 235.718 315.987 235.718 318.773C235.718 330.842 235.297 349.579 234.779 366.972L234.78 366.973Z" fill="#E3D1B5"/>
<path d="M217.14 352.478C217.674 350.227 217.952 347.881 217.952 345.473C217.952 328.675 204.333 315.055 187.534 315.055C176.218 315.055 166.34 321.238 161.105 330.413C160.987 330.347 160.838 330.389 160.772 330.506C158.287 334.933 156.873 340.036 156.873 345.473C156.873 349.221 157.545 352.813 158.776 356.132C163.107 367.813 174.349 376.135 187.535 376.135C193.328 376.135 198.745 374.528 203.366 371.738C210.247 367.582 215.362 360.799 217.32 352.773C217.352 352.641 217.272 352.509 217.141 352.478H217.14Z" fill="#F7F3ED"/>
<path d="M217.14 352.478C217.008 352.446 216.877 352.527 216.845 352.657C216.812 352.79 216.778 352.924 216.744 353.056C210.694 359.059 202.075 362.438 193.525 362.173C191.221 362.102 188.933 361.772 186.703 361.208C192.312 349.304 198.722 337.413 206.448 327.119C206.529 327.011 206.506 326.857 206.399 326.777C206.297 326.7 206.155 326.715 206.071 326.807C206.066 326.813 206.061 326.819 206.056 326.825C196.242 339.904 188.56 355.52 181.947 370.468C181.46 369.853 180.579 368.793 179.452 367.462C175.36 362.629 168.068 354.252 165.108 351.04C165.089 351.018 165.065 351.001 165.041 350.989C165.63 349.869 166.373 348.797 167.232 347.816C163.777 342.885 161.668 337.045 161.029 331.052C161.085 330.949 161.141 330.847 161.198 330.745C161.264 330.628 161.223 330.479 161.105 330.413C160.987 330.347 160.838 330.389 160.772 330.506C158.287 334.933 156.873 340.036 156.873 345.473C156.873 349.221 157.545 352.813 158.776 356.132C163.107 367.813 174.349 376.135 187.535 376.135C193.328 376.135 198.745 374.528 203.366 371.738C210.247 367.582 215.362 360.799 217.32 352.773C217.352 352.641 217.272 352.509 217.141 352.478H217.14Z" fill="#F7F3ED"/>
<path d="M243.137 368.93C247 366.184 251.015 363.179 255.166 359.896L255.171 359.889L243.527 355.19C243.453 357.961 243.376 360.742 243.296 363.51C243.245 365.325 243.192 367.134 243.138 368.93H243.137Z" fill="#F0E8DB"/>
<path d="M131.365 355.253L119.898 359.889L119.902 359.898C120.063 360.057 124.019 363.935 131.711 369.464C131.587 364.744 131.47 359.966 131.364 355.253H131.365Z" fill="#F7F3ED"/>
<path d="M236.697 318.774C236.697 315.843 236.672 313.304 236.617 311.266L236.609 310.975L236.351 310.842C220.808 302.926 204.63 300.13 189.739 300.13C167.962 300.132 148.935 306.102 138.565 310.834L138.288 310.96L138.28 311.265C138.252 312.337 138.238 313.927 138.238 315.945C138.238 318.564 138.26 321.905 138.303 325.763C138.418 336.178 138.679 350.361 139.027 364.286C139.114 367.766 139.206 371.228 139.304 374.612C139.633 374.822 139.965 375.033 140.301 375.246C140.197 371.653 140.098 367.966 140.005 364.262C139.69 351.696 139.448 338.917 139.319 328.894C139.252 323.7 139.216 319.246 139.216 315.945C139.216 314.117 139.227 312.643 139.25 311.596C149.56 306.937 168.339 301.105 189.739 301.107C204.426 301.107 220.348 303.85 235.647 311.581C235.696 313.556 235.718 315.986 235.718 318.772C235.718 330.841 235.297 349.578 234.779 366.971C234.736 368.405 234.693 369.83 234.65 371.242C234.613 372.437 234.576 373.622 234.538 374.794C234.871 374.577 235.203 374.359 235.538 374.137C235.616 371.677 235.694 369.164 235.768 366.623C236.28 349.331 236.697 330.773 236.697 318.77V318.774Z" fill="#FFFBF1"/>
<path d="M124.285 371.819C124.361 371.917 136.464 387.45 187.374 405.226C187.464 405.258 187.563 405.262 187.655 405.238C187.696 405.226 218.964 397.278 249.654 371.895C249.862 371.723 249.891 371.415 249.719 371.207C249.546 371 249.238 370.97 249.031 371.143C233.774 383.763 218.361 392.053 206.765 397.187C200.967 399.754 196.125 401.531 192.733 402.666C191.038 403.234 189.706 403.64 188.798 403.905C188.344 404.037 187.997 404.134 187.764 404.198C187.679 404.222 187.609 404.24 187.555 404.254C162.242 395.405 146.603 387.129 137.3 381.073C132.64 378.04 129.569 375.564 127.669 373.853C126.719 372.997 126.062 372.333 125.643 371.886C125.434 371.662 125.285 371.493 125.189 371.38C125.141 371.324 125.107 371.282 125.085 371.255L125.062 371.226L125.057 371.219C124.891 371.005 124.585 370.967 124.371 371.133C124.157 371.298 124.119 371.605 124.285 371.819Z" fill="#0D2345"/>
<path d="M167.603 437.168C154.678 432.514 142.241 426.056 132.054 416.845C127.245 412.495 122.953 407.508 119.483 402.018C120.097 424.88 122.073 439.788 123.419 450.108C165.931 456.76 209.197 457.188 251.642 450.108C251.93 447.911 252.507 443.664 253.143 437.471C242.542 441.932 231.104 444.478 219.614 445.188C201.983 446.276 184.219 443.147 167.603 437.168Z" fill="#89A2C8"/>
<path d="M165.108 351.04C168.067 354.252 175.36 362.63 179.452 367.462C180.579 368.794 181.46 369.853 181.947 370.468C188.56 355.52 196.241 339.904 206.056 326.825C206.061 326.819 206.066 326.812 206.071 326.807C203.509 324.486 199.282 321.443 195.693 321.443C189.248 331.935 184.617 343.394 180.132 354.862C177.408 351.331 175.01 347.503 172.625 343.734C170.609 344.653 168.742 346.093 167.232 347.816C166.373 348.797 165.63 349.869 165.041 350.989C165.065 351.001 165.089 351.018 165.108 351.04Z" fill="#83D27F"/>
<path d="M181.947 370.469C181.46 369.854 180.579 368.794 179.452 367.463C175.36 362.63 168.068 354.253 165.108 351.041C165.089 351.019 165.065 351.002 165.041 350.99C164.952 350.944 164.841 350.955 164.763 351.027C164.664 351.118 164.657 351.273 164.75 351.372C166.714 353.504 170.613 357.941 174.204 362.091C175.999 364.167 177.718 366.17 179.079 367.78C180.44 369.387 181.448 370.606 181.809 371.091C181.861 371.16 181.945 371.198 182.033 371.188C182.12 371.178 182.193 371.123 182.229 371.044C183.667 367.786 185.155 364.498 186.703 361.21C192.312 349.306 198.722 337.415 206.448 327.121C206.529 327.013 206.506 326.859 206.399 326.779C206.297 326.702 206.156 326.717 206.071 326.809C206.066 326.815 206.061 326.821 206.057 326.827C196.242 339.906 188.56 355.522 181.947 370.47V370.469Z" fill="#F7F3ED"/>
<path d="M217.32 352.773C217.352 352.641 217.272 352.509 217.141 352.478C217.009 352.446 216.878 352.527 216.846 352.657C216.813 352.79 216.779 352.924 216.745 353.056C213.383 366.053 201.582 375.646 187.535 375.646C179.203 375.646 171.661 372.27 166.2 366.81C160.739 361.35 157.363 353.808 157.363 345.473C157.363 340.247 158.691 335.338 161.03 331.053C161.085 330.95 161.142 330.848 161.199 330.746C161.265 330.629 161.224 330.48 161.106 330.414C160.988 330.348 160.839 330.39 160.773 330.507C158.288 334.934 156.874 340.037 156.874 345.474C156.874 349.222 157.546 352.814 158.777 356.133C163.108 367.814 174.35 376.136 187.536 376.136C193.329 376.136 198.746 374.529 203.367 371.739C210.248 367.583 215.363 360.8 217.321 352.774L217.32 352.773Z" fill="#F7F3ED"/>
</g>
<defs>
<clipPath id="clip0_17_55">
<rect width="375" height="562" fill="white"/>
</clipPath>
</defs>
</svg>
