<svg width="47" height="48" viewBox="0 0 47 48" fill="none" xmlns="http://www.w3.org/2000/svg">
<rect y="0.5" width="47" height="47" rx="8" fill="#5379B2"/>
<g clip-path="url(#clip0_182_641)">
<path d="M23.07 24.2517L17.1307 27.6807M17.4118 28.5564L18.1229 32.0541C18.5123 33.9697 18.707 34.9276 19.1852 35.3105C19.6005 35.6431 20.1481 35.7608 20.6635 35.6285C21.2568 35.4761 21.8282 34.683 22.9709 33.0971L30.2968 22.9291C31.4121 21.381 31.9699 20.607 31.9308 20.0015C31.8969 19.4755 31.6196 18.9953 31.181 18.703C30.6763 18.3665 29.7271 18.4624 27.8287 18.6543L15.3386 19.9169C13.3996 20.1129 12.4301 20.2109 12.0015 20.6478C11.6294 21.0271 11.4571 21.5593 11.5364 22.0848C11.6278 22.6899 12.3561 23.3374 13.8126 24.6323L16.5579 27.073C16.808 27.2954 16.9331 27.4066 17.0324 27.5368C17.1205 27.6525 17.1933 27.779 17.249 27.9132C17.3118 28.0644 17.3451 28.2284 17.4118 28.5564Z" stroke="#FAFAFF" stroke-width="2" stroke-linecap="round" stroke-linejoin="round"/>
</g>
<defs>
<clipPath id="clip0_182_641">
<rect width="25" height="26" fill="white" transform="translate(11 11)"/>
</clipPath>
</defs>
</svg>
