<svg width="49" height="48" viewBox="0 0 49 48" fill="none" xmlns="http://www.w3.org/2000/svg">
<path d="M19.6667 22.7918C21.0014 22.7918 22.0833 21.7099 22.0833 20.3752C22.0833 19.0405 21.0014 17.9585 19.6667 17.9585C18.332 17.9585 17.25 19.0405 17.25 20.3752C17.25 21.7099 18.332 22.7918 19.6667 22.7918Z" stroke="#626568" stroke-width="1.5" stroke-linecap="round" stroke-linejoin="round"/>
<path d="M17.9272 34.8749C24.6576 20.254 30.2522 17.6923 36.5838 27.1778" stroke="#626568" stroke-width="1.5" stroke-linecap="round" stroke-linejoin="round"/>
<path d="M31.7498 13.125H17.2498C14.5805 13.125 12.4165 15.289 12.4165 17.9583V30.0417C12.4165 32.711 14.5805 34.875 17.2498 34.875H31.7498C34.4192 34.875 36.5832 32.711 36.5832 30.0417V17.9583C36.5832 15.289 34.4192 13.125 31.7498 13.125Z" stroke="#626568" stroke-width="1.5" stroke-linecap="round" stroke-linejoin="round"/>
</svg>
