<svg width="20" height="20" viewBox="0 0 20 20" fill="none" xmlns="http://www.w3.org/2000/svg">
<g clip-path="url(#clip0_2323_6013)">
<path d="M14.991 6.663C14.991 9.67201 11.7688 12.8501 10.4996 13.9877C10.3544 14.0986 10.1768 14.1587 9.99405 14.1587C9.81135 14.1587 9.63372 14.0986 9.48852 13.9877C8.22012 12.8501 4.99707 9.67201 4.99707 6.663C4.99707 5.33771 5.52354 4.06671 6.46065 3.1296C7.39777 2.19248 8.66877 1.66602 9.99405 1.66602C11.3193 1.66602 12.5903 2.19248 13.5275 3.1296C14.4646 4.06671 14.991 5.33771 14.991 6.663Z" stroke="#4A5565" stroke-width="1.66566" stroke-linecap="round" stroke-linejoin="round"/>
<path d="M9.99403 8.32741C10.9139 8.32741 11.6597 7.58167 11.6597 6.66175C11.6597 5.74184 10.9139 4.99609 9.99403 4.99609C9.07411 4.99609 8.32837 5.74184 8.32837 6.66175C8.32837 7.58167 9.07411 8.32741 9.99403 8.32741Z" stroke="#4A5565" stroke-width="1.66566" stroke-linecap="round" stroke-linejoin="round"/>
<path d="M7.25728 11.6602H4.16748C3.99286 11.6602 3.82268 11.7152 3.681 11.8173C3.53933 11.9193 3.43331 12.0634 3.37796 12.229L1.70897 17.226C1.66713 17.3511 1.65564 17.4845 1.67545 17.615C1.69526 17.7455 1.74581 17.8694 1.82292 17.9765C1.90003 18.0836 2.00149 18.1709 2.11895 18.2311C2.23641 18.2913 2.3665 18.3227 2.49849 18.3228H17.4894C17.6213 18.3227 17.7513 18.2913 17.8687 18.2311C17.9861 18.171 18.0875 18.0838 18.1646 17.9768C18.2416 17.8697 18.2922 17.7459 18.3121 17.6156C18.332 17.4852 18.3206 17.3519 18.279 17.2268L16.6133 12.2298C16.558 12.0639 16.452 11.9196 16.3101 11.8174C16.1682 11.7151 15.9978 11.6601 15.8229 11.6602H12.7315" stroke="#4A5565" stroke-width="1.66566" stroke-linecap="round" stroke-linejoin="round"/>
</g>
<defs>
<clipPath id="clip0_2323_6013">
<rect width="19.9879" height="19.9879" fill="white"/>
</clipPath>
</defs>
</svg>
