<svg width="51" height="44" viewBox="0 0 51 44" fill="none" xmlns="http://www.w3.org/2000/svg">
<path d="M25.5 13.4966C28.3931 13.4967 30.7206 15.7066 30.7207 18.3901C30.7206 19.0137 30.5359 19.4816 30.2256 19.7935C29.9152 20.1052 29.4493 20.2905 28.8291 20.2905C28.2337 20.2905 27.5803 20.1381 26.9131 19.981C26.4232 19.8656 25.8669 19.733 25.5 19.7329C25.0846 19.7329 24.5017 19.8705 23.9834 19.9917C23.3349 20.1434 22.7008 20.2905 22.1309 20.2905C21.5245 20.2904 21.0695 20.1063 20.7656 19.7954C20.4611 19.4837 20.2794 19.0151 20.2793 18.3901C20.2793 15.7065 22.6069 13.4966 25.5 13.4966ZM25.5 14.7622C23.3332 14.7622 21.5285 16.3667 21.5283 18.3892C21.5283 18.675 21.5837 18.81 21.6211 18.8687L21.9248 19.3442L22.0127 19.0181C22.0483 19.0206 22.0875 19.0249 22.1309 19.0249C22.5711 19.0249 23.1692 18.8833 23.7031 18.7583C24.3371 18.61 24.9552 18.4663 25.5 18.4663C25.9965 18.4663 26.5593 18.5977 27.1953 18.7476C27.7479 18.8777 28.3645 19.0249 28.8291 19.0249C28.9782 19.0249 29.0854 19.0097 29.1621 18.9897C29.2004 18.9798 29.2314 18.9681 29.2568 18.9565C29.2696 18.9507 29.2811 18.9447 29.291 18.939C29.296 18.9361 29.3004 18.933 29.3047 18.9302C29.3068 18.9288 29.3096 18.9276 29.3115 18.9263C29.3124 18.9257 29.3136 18.9249 29.3145 18.9243L29.3154 18.9233H29.3164L29.3447 18.9028L29.3662 18.8745C29.3945 18.8384 29.4107 18.7984 29.418 18.7788C29.4281 18.7513 29.4366 18.7193 29.4443 18.6831C29.46 18.6099 29.4717 18.5126 29.4717 18.3892C29.4715 16.3668 27.6668 14.7623 25.5 14.7622Z" fill="#FAFAFF" stroke="#5379B2" stroke-width="0.5"/>
<path d="M20.0295 8.9375C21.3997 8.9375 22.5149 10.0526 22.5149 11.4229C22.5149 12.7929 21.3997 13.9081 20.0295 13.9082C18.6593 13.9082 17.5442 12.793 17.5442 11.4229C17.5442 10.0527 18.6593 8.93753 20.0295 8.9375ZM20.0295 10.1514C19.7539 10.1514 19.5063 10.3211 19.3391 10.541C19.1671 10.7673 19.054 11.0764 19.054 11.4229C19.054 11.769 19.1672 12.0774 19.3391 12.3037C19.5063 12.5237 19.7538 12.6942 20.0295 12.6943C20.3053 12.6943 20.5528 12.5237 20.72 12.3037C20.8918 12.0774 21.0051 11.7691 21.0051 11.4229C21.0051 11.0765 20.892 10.7673 20.72 10.541C20.5528 10.3211 20.3052 10.1514 20.0295 10.1514Z" fill="#FAFAFF" stroke="#5379B2" stroke-width="0.5"/>
<path d="M25.0439 7.11426C26.122 7.11426 27.0732 8.18481 27.0732 9.59961C27.0732 11.0144 26.122 12.085 25.0439 12.085C23.9659 12.0849 23.0147 11.0144 23.0146 9.59961C23.0146 8.18483 23.9659 7.1143 25.0439 7.11426ZM25.0439 8.32812C24.7759 8.32816 24.5587 8.52262 24.4238 8.73535C24.2812 8.9606 24.1895 9.26346 24.1895 9.59961C24.1895 9.93577 24.2812 10.2386 24.4238 10.4639C24.5587 10.6766 24.7759 10.8711 25.0439 10.8711C25.3122 10.8711 25.5302 10.6768 25.665 10.4639C25.8077 10.2386 25.8984 9.93577 25.8984 9.59961C25.8984 9.26346 25.8077 8.9606 25.665 8.73535C25.5302 8.52244 25.3122 8.32812 25.0439 8.32812Z" fill="#FAFAFF" stroke="#5379B2" stroke-width="0.5"/>
<path d="M30.5146 8.9375C31.5927 8.9375 32.5439 10.008 32.5439 11.4229C32.5439 12.8376 31.5927 13.9082 30.5146 13.9082C29.4366 13.9081 28.4854 12.8376 28.4854 11.4229C28.4854 10.0081 29.4366 8.93758 30.5146 8.9375ZM30.5146 10.1514C30.2466 10.1514 30.0294 10.3458 29.8945 10.5586C29.7518 10.7839 29.6602 11.0867 29.6602 11.4229C29.6602 11.7589 29.7519 12.0609 29.8945 12.2861C30.0294 12.499 30.2465 12.6943 30.5146 12.6943C30.7829 12.6943 31.0009 12.499 31.1357 12.2861C31.2782 12.061 31.3691 11.7587 31.3691 11.4229C31.3691 11.0867 31.2784 10.7838 31.1357 10.5586C31.0009 10.3457 30.7829 10.1514 30.5146 10.1514Z" fill="#FAFAFF" stroke="#5379B2" stroke-width="0.5"/>
<path d="M31.9893 1.64355C36.8221 1.64355 40.75 5.53256 40.75 10.3066C40.75 12.7327 39.9483 15.1116 38.3535 17.3799C37.1049 19.1559 35.3679 20.8672 33.1855 22.4639C29.5042 25.1572 25.8736 26.5748 25.7285 26.6309C25.6552 26.6592 25.5775 26.6729 25.5 26.6729C25.4119 26.6729 25.324 26.6546 25.2422 26.6182C25.0965 26.5534 21.478 24.93 17.8057 22.1357C15.6286 20.4791 13.895 18.7587 12.6494 17.0234C11.0498 14.7949 10.25 12.5359 10.25 10.3066C10.25 5.53257 14.178 1.64355 19.0107 1.64355C21.4288 1.64367 23.6758 2.59945 25.3203 4.2959L25.5 4.48145L25.6797 4.2959C27.3242 2.59945 29.571 1.64367 31.9893 1.64355ZM31.9893 2.87793C29.6184 2.87807 27.4339 3.9527 26 5.82715C25.8819 5.98143 25.6973 6.07324 25.5 6.07324C25.3026 6.07324 25.1179 5.98134 25 5.82715C23.566 3.95271 21.3816 2.87807 19.0107 2.87793C14.8735 2.87793 11.5029 6.20753 11.5029 10.3066C11.503 14.3386 14.4922 17.8461 17.6758 20.4473C20.872 23.0588 24.3341 24.8132 25.4141 25.332L25.5166 25.3818L25.6201 25.3369C26.7058 24.8746 30.1612 23.3031 33.3486 20.7666C36.5281 18.2364 39.497 14.7011 39.4971 10.3066C39.4971 6.20753 36.1265 2.87793 31.9893 2.87793Z" fill="#FAFAFF" stroke="#5379B2" stroke-width="0.5"/>
<path d="M1.41477 40.3936H0.306818L3.51136 31.6663H4.60227L7.80682 40.3936H6.69886L4.09091 33.047H4.02273L1.41477 40.3936ZM1.82386 36.9845H6.28977V37.922H1.82386V36.9845ZM11.3814 40.5299C10.836 40.5299 10.3544 40.3921 9.93682 40.1166C9.5192 39.8382 9.1925 39.4461 8.9567 38.9404C8.72091 38.4319 8.60301 37.8311 8.60301 37.1379C8.60301 36.4504 8.72091 35.8538 8.9567 35.3481C9.1925 34.8424 9.52063 34.4518 9.94108 34.1762C10.3615 33.9007 10.8473 33.7629 11.3985 33.7629C11.8246 33.7629 12.1613 33.8339 12.4084 33.9759C12.6584 34.1151 12.8488 34.2742 12.9794 34.4532C13.113 34.6293 13.2166 34.7742 13.2905 34.8879H13.3757V31.6663H14.3814V40.3936H13.4098V39.3879H13.2905C13.2166 39.5072 13.1115 39.6578 12.9752 39.8396C12.8388 40.0186 12.6442 40.1791 12.3914 40.3211C12.1385 40.4603 11.8019 40.5299 11.3814 40.5299ZM11.5178 39.6265C11.9212 39.6265 12.2621 39.5214 12.5405 39.3112C12.8189 39.0981 13.0306 38.8041 13.1755 38.4291C13.3203 38.0512 13.3928 37.6151 13.3928 37.1208C13.3928 36.6322 13.3218 36.2046 13.1797 35.8382C13.0377 35.4688 12.8274 35.1819 12.549 34.9774C12.2706 34.77 11.9269 34.6663 11.5178 34.6663C11.0916 34.6663 10.7365 34.7757 10.4524 34.9944C10.1712 35.2103 9.95955 35.5044 9.8175 35.8765C9.6783 36.2458 9.60869 36.6606 9.60869 37.1208C9.60869 37.5867 9.67972 38.01 9.82176 38.3907C9.96665 38.7686 10.1797 39.0697 10.461 39.2941C10.7451 39.5157 11.0973 39.6265 11.5178 39.6265ZM18.902 40.5299C18.3111 40.5299 17.7927 40.3893 17.3466 40.108C16.9035 39.8268 16.5569 39.4333 16.3069 38.9276C16.0597 38.422 15.9361 37.8311 15.9361 37.1549C15.9361 36.4731 16.0597 35.8779 16.3069 35.3694C16.5569 34.8609 16.9035 34.466 17.3466 34.1847C17.7927 33.9035 18.3111 33.7629 18.902 33.7629C19.493 33.7629 20.01 33.9035 20.4532 34.1847C20.8992 34.466 21.2458 34.8609 21.493 35.3694C21.743 35.8779 21.868 36.4731 21.868 37.1549C21.868 37.8311 21.743 38.422 21.493 38.9276C21.2458 39.4333 20.8992 39.8268 20.4532 40.108C20.01 40.3893 19.493 40.5299 18.902 40.5299ZM18.902 39.6265C19.3509 39.6265 19.7202 39.5115 20.01 39.2813C20.2998 39.0512 20.5143 38.7487 20.6535 38.3737C20.7927 37.9987 20.8623 37.5924 20.8623 37.1549C20.8623 36.7174 20.7927 36.3097 20.6535 35.9319C20.5143 35.5541 20.2998 35.2487 20.01 35.0157C19.7202 34.7828 19.3509 34.6663 18.902 34.6663C18.4532 34.6663 18.0839 34.7828 17.7941 35.0157C17.5043 35.2487 17.2898 35.5541 17.1506 35.9319C17.0114 36.3097 16.9418 36.7174 16.9418 37.1549C16.9418 37.5924 17.0114 37.9987 17.1506 38.3737C17.2898 38.7487 17.5043 39.0512 17.7941 39.2813C18.0839 39.5115 18.4532 39.6265 18.902 39.6265ZM23.2831 42.8481V33.8481H24.2547V34.8879H24.374C24.4479 34.7742 24.5502 34.6293 24.6808 34.4532C24.8144 34.2742 25.0047 34.1151 25.2519 33.9759C25.5019 33.8339 25.8399 33.7629 26.2661 33.7629C26.8172 33.7629 27.303 33.9007 27.7235 34.1762C28.1439 34.4518 28.472 34.8424 28.7078 35.3481C28.9436 35.8538 29.0615 36.4504 29.0615 37.1379C29.0615 37.8311 28.9436 38.4319 28.7078 38.9404C28.472 39.4461 28.1453 39.8382 27.7277 40.1166C27.3101 40.3921 26.8286 40.5299 26.2831 40.5299C25.8627 40.5299 25.526 40.4603 25.2732 40.3211C25.0203 40.1791 24.8257 40.0186 24.6894 39.8396C24.553 39.6578 24.4479 39.5072 24.374 39.3879H24.2888V42.8481H23.2831ZM24.2717 37.1208C24.2717 37.6151 24.3442 38.0512 24.4891 38.4291C24.634 38.8041 24.8456 39.0981 25.124 39.3112C25.4024 39.5214 25.7433 39.6265 26.1467 39.6265C26.5672 39.6265 26.9181 39.5157 27.1993 39.2941C27.4834 39.0697 27.6965 38.7686 27.8385 38.3907C27.9834 38.01 28.0558 37.5867 28.0558 37.1208C28.0558 36.6606 27.9848 36.2458 27.8428 35.8765C27.7036 35.5044 27.4919 35.2103 27.2078 34.9944C26.9266 34.7757 26.5729 34.6663 26.1467 34.6663C25.7377 34.6663 25.3939 34.77 25.1155 34.9774C24.8371 35.1819 24.6269 35.4688 24.4848 35.8382C24.3428 36.2046 24.2717 36.6322 24.2717 37.1208ZM33.3222 33.8481V34.7004H29.9302V33.8481H33.3222ZM30.9188 32.2799H31.9245V38.5186C31.9245 38.8026 31.9657 39.0157 32.0481 39.1578C32.1333 39.297 32.2412 39.3907 32.3719 39.439C32.5054 39.4845 32.6461 39.5072 32.7938 39.5072C32.9046 39.5072 32.9955 39.5015 33.0665 39.4901C33.1375 39.4759 33.1944 39.4646 33.237 39.4561L33.4415 40.3595C33.3733 40.385 33.2782 40.4106 33.156 40.4362C33.0339 40.4646 32.879 40.4788 32.6915 40.4788C32.4074 40.4788 32.129 40.4177 31.8563 40.2955C31.5864 40.1734 31.362 39.9873 31.183 39.7373C31.0069 39.4873 30.9188 39.172 30.9188 38.7913V32.2799ZM34.715 40.3936V33.8481H35.7207V40.3936H34.715ZM35.2264 32.7572C35.0303 32.7572 34.8613 32.6904 34.7192 32.5569C34.58 32.4234 34.5104 32.2629 34.5104 32.0754C34.5104 31.8879 34.58 31.7274 34.7192 31.5938C34.8613 31.4603 35.0303 31.3936 35.2264 31.3936C35.4224 31.3936 35.59 31.4603 35.7292 31.5938C35.8712 31.7274 35.9423 31.8879 35.9423 32.0754C35.9423 32.2629 35.8712 32.4234 35.7292 32.5569C35.59 32.6904 35.4224 32.7572 35.2264 32.7572ZM40.1017 40.5299C39.5108 40.5299 38.9924 40.3893 38.5463 40.108C38.1032 39.8268 37.7566 39.4333 37.5066 38.9276C37.2594 38.422 37.1358 37.8311 37.1358 37.1549C37.1358 36.4731 37.2594 35.8779 37.5066 35.3694C37.7566 34.8609 38.1032 34.466 38.5463 34.1847C38.9924 33.9035 39.5108 33.7629 40.1017 33.7629C40.6926 33.7629 41.2097 33.9035 41.6529 34.1847C42.0989 34.466 42.4455 34.8609 42.6926 35.3694C42.9426 35.8779 43.0676 36.4731 43.0676 37.1549C43.0676 37.8311 42.9426 38.422 42.6926 38.9276C42.4455 39.4333 42.0989 39.8268 41.6529 40.108C41.2097 40.3893 40.6926 40.5299 40.1017 40.5299ZM40.1017 39.6265C40.5506 39.6265 40.9199 39.5115 41.2097 39.2813C41.4995 39.0512 41.7139 38.7487 41.8532 38.3737C41.9924 37.9987 42.062 37.5924 42.062 37.1549C42.062 36.7174 41.9924 36.3097 41.8532 35.9319C41.7139 35.5541 41.4995 35.2487 41.2097 35.0157C40.9199 34.7828 40.5506 34.6663 40.1017 34.6663C39.6529 34.6663 39.2835 34.7828 38.9938 35.0157C38.704 35.2487 38.4895 35.5541 38.3503 35.9319C38.2111 36.3097 38.1415 36.7174 38.1415 37.1549C38.1415 37.5924 38.2111 37.9987 38.3503 38.3737C38.4895 38.7487 38.704 39.0512 38.9938 39.2813C39.2835 39.5115 39.6529 39.6265 40.1017 39.6265ZM45.4885 36.4561V40.3936H44.4828V33.8481H45.4544V34.8708H45.5396C45.693 34.5384 45.926 34.2714 46.2385 34.0697C46.551 33.8651 46.9544 33.7629 47.4487 33.7629C47.8919 33.7629 48.2797 33.8538 48.6121 34.0356C48.9444 34.2146 49.203 34.4873 49.3876 34.8538C49.5723 35.2174 49.6646 35.6776 49.6646 36.2345V40.3936H48.6589V36.3026C48.6589 35.7884 48.5254 35.3879 48.2584 35.1009C47.9913 34.8112 47.6248 34.6663 47.1589 34.6663C46.8379 34.6663 46.551 34.7359 46.2981 34.8751C46.0481 35.0143 45.8507 35.2174 45.7058 35.4845C45.5609 35.7515 45.4885 36.0754 45.4885 36.4561Z" fill="#FAFAFF"/>
</svg>
