<svg width="51" height="40" viewBox="0 0 51 40" fill="none" xmlns="http://www.w3.org/2000/svg">
<path d="M25.5 19.103C28.3931 19.1031 30.7206 21.313 30.7207 23.9966C30.7206 24.6202 30.5359 25.088 30.2256 25.3999C29.9152 25.7117 29.4493 25.8969 28.8291 25.897C28.2337 25.8969 27.5803 25.7445 26.9131 25.5874C26.4232 25.472 25.8669 25.3394 25.5 25.3394C25.0846 25.3394 24.5017 25.4769 23.9834 25.5981C23.3349 25.7498 22.7008 25.897 22.1309 25.897C21.5245 25.8969 21.0695 25.7128 20.7656 25.4019C20.4611 25.0902 20.2794 24.6216 20.2793 23.9966C20.2793 21.313 22.6069 19.103 25.5 19.103ZM25.5 20.3687C23.3332 20.3687 21.5285 21.9732 21.5283 23.9956C21.5283 24.2814 21.5837 24.4164 21.6211 24.4751L21.9248 24.9507L22.0127 24.6245C22.0483 24.627 22.0875 24.6313 22.1309 24.6313C22.5711 24.6313 23.1692 24.4898 23.7031 24.3647C24.3371 24.2164 24.9552 24.0728 25.5 24.0728C25.9965 24.0728 26.5593 24.2041 27.1953 24.354C27.7479 24.4842 28.3645 24.6313 28.8291 24.6313C28.9782 24.6313 29.0854 24.6161 29.1621 24.5962C29.2004 24.5862 29.2314 24.5745 29.2568 24.563C29.2696 24.5572 29.2811 24.5512 29.291 24.5454C29.296 24.5425 29.3004 24.5394 29.3047 24.5366C29.3068 24.5352 29.3096 24.5341 29.3115 24.5327C29.3124 24.5321 29.3136 24.5313 29.3145 24.5308L29.3154 24.5298H29.3164L29.3447 24.5093L29.3662 24.481C29.3945 24.4448 29.4107 24.4049 29.418 24.3853C29.4281 24.3578 29.4366 24.3257 29.4443 24.2896C29.46 24.2163 29.4717 24.119 29.4717 23.9956C29.4715 21.9732 27.6668 20.3688 25.5 20.3687Z" fill="#FAFAFF" stroke="#5379B2" stroke-width="0.5"/>
<path d="M20.0295 14.5439C21.3997 14.5439 22.5149 15.6591 22.5149 17.0293C22.5149 18.3994 21.3997 19.5146 20.0295 19.5146C18.6593 19.5146 17.5442 18.3994 17.5442 17.0293C17.5442 15.6591 18.6593 14.544 20.0295 14.5439ZM20.0295 15.7578C19.7539 15.7579 19.5063 15.9276 19.3391 16.1475C19.1671 16.3738 19.054 16.6829 19.054 17.0293C19.054 17.3754 19.1672 17.6839 19.3391 17.9102C19.5063 18.1301 19.7538 18.3007 20.0295 18.3008C20.3053 18.3008 20.5528 18.1301 20.72 17.9102C20.8918 17.6839 21.0051 17.3755 21.0051 17.0293C21.0051 16.6829 20.892 16.3738 20.72 16.1475C20.5528 15.9276 20.3052 15.7578 20.0295 15.7578Z" fill="#FAFAFF" stroke="#5379B2" stroke-width="0.5"/>
<path d="M25.0439 12.7207C26.122 12.7207 27.0732 13.7913 27.0732 15.2061C27.0732 16.6208 26.122 17.6914 25.0439 17.6914C23.9659 17.6914 23.0147 16.6208 23.0146 15.2061C23.0146 13.7913 23.9659 12.7207 25.0439 12.7207ZM25.0439 13.9346C24.7759 13.9346 24.5587 14.1291 24.4238 14.3418C24.2812 14.567 24.1895 14.8699 24.1895 15.2061C24.1895 15.5422 24.2812 15.8451 24.4238 16.0703C24.5587 16.2831 24.7759 16.4775 25.0439 16.4775C25.3122 16.4775 25.5302 16.2832 25.665 16.0703C25.8077 15.8451 25.8984 15.5422 25.8984 15.2061C25.8984 14.8699 25.8077 14.567 25.665 14.3418C25.5302 14.1289 25.3122 13.9346 25.0439 13.9346Z" fill="#FAFAFF" stroke="#5379B2" stroke-width="0.5"/>
<path d="M30.5146 14.5439C31.5927 14.5439 32.5439 15.6145 32.5439 17.0293C32.5439 18.4441 31.5927 19.5146 30.5146 19.5146C29.4366 19.5146 28.4854 18.444 28.4854 17.0293C28.4854 15.6145 29.4366 14.544 30.5146 14.5439ZM30.5146 15.7578C30.2466 15.7579 30.0294 15.9523 29.8945 16.165C29.7518 16.3903 29.6602 16.6931 29.6602 17.0293C29.6602 17.3653 29.7519 17.6674 29.8945 17.8926C30.0294 18.1055 30.2465 18.3007 30.5146 18.3008C30.7829 18.3008 31.0009 18.1055 31.1357 17.8926C31.2782 17.6674 31.3691 17.3652 31.3691 17.0293C31.3691 16.6931 31.2784 16.3903 31.1357 16.165C31.0009 15.9521 30.7829 15.7578 30.5146 15.7578Z" fill="#FAFAFF" stroke="#5379B2" stroke-width="0.5"/>
<path d="M31.9893 7.25C36.8221 7.25 40.75 11.139 40.75 15.9131C40.75 18.3391 39.9483 20.7181 38.3535 22.9863C37.1049 24.7623 35.3679 26.4736 33.1855 28.0703C29.5042 30.7637 25.8736 32.1812 25.7285 32.2373C25.6552 32.2656 25.5775 32.2793 25.5 32.2793C25.4119 32.2793 25.324 32.261 25.2422 32.2246C25.0965 32.1599 21.478 30.5365 17.8057 27.7422C15.6286 26.0855 13.895 24.3651 12.6494 22.6299C11.0498 20.4014 10.25 18.1424 10.25 15.9131C10.25 11.139 14.178 7.25 19.0107 7.25C21.4288 7.25012 23.6758 8.2059 25.3203 9.90234L25.5 10.0879L25.6797 9.90234C27.3242 8.2059 29.571 7.25012 31.9893 7.25ZM31.9893 8.48438C29.6184 8.48451 27.4339 9.55915 26 11.4336C25.8819 11.5879 25.6973 11.6797 25.5 11.6797C25.3026 11.6797 25.1179 11.5878 25 11.4336C23.566 9.55915 21.3816 8.48451 19.0107 8.48438C14.8735 8.48438 11.5029 11.814 11.5029 15.9131C11.503 19.945 14.4922 23.4525 17.6758 26.0537C20.872 28.6652 24.3341 30.4197 25.4141 30.9385L25.5166 30.9883L25.6201 30.9434C26.7058 30.481 30.1612 28.9096 33.3486 26.373C36.5281 23.8429 39.497 20.3076 39.4971 15.9131C39.4971 11.814 36.1265 8.48438 31.9893 8.48438Z" fill="#FAFAFF" stroke="#5379B2" stroke-width="0.5"/>
</svg>
