<svg width="29" height="31" viewBox="0 0 29 31" fill="none" xmlns="http://www.w3.org/2000/svg">
<g clip-path="url(#clip0_182_597)">
<path d="M11.5 28H17.5C21.7135 28 23.8201 28 25.3335 26.9786C25.9885 26.5364 26.551 25.9682 26.9888 25.3065C28 23.7779 28 21.6499 28 17.3939C28 13.1381 28 11.01 26.9888 9.48139C26.551 8.81964 25.9885 8.25144 25.3335 7.80928C24.3609 7.15296 23.1436 6.91837 21.2797 6.83453C20.3902 6.83453 19.6245 6.15372 19.45 5.27272C19.1883 3.95124 18.0396 3 16.7055 3H12.2945C10.9604 3 9.81165 3.95124 9.55 5.27272C9.37556 6.15372 8.60975 6.83453 7.7203 6.83453C5.8564 6.91837 4.63899 7.15296 3.66657 7.80928C3.01143 8.25144 2.44893 8.81964 2.01118 9.48139C1 11.01 1 13.1381 1 17.3939C1 21.6499 1 23.7779 2.01118 25.3065C2.44893 25.9682 3.01143 26.5364 3.66657 26.9786C5.17992 28 7.28661 28 11.5 28Z" stroke="#626568" stroke-width="1.5"/>
<path d="M14.5 21C17.2614 21 19.5 18.7614 19.5 16C19.5 13.2386 17.2614 11 14.5 11C11.7386 11 9.5 13.2386 9.5 16C9.5 18.7614 11.7386 21 14.5 21Z" stroke="#626568" stroke-width="1.5"/>
<path d="M22.5 9H20.5" stroke="#626568" stroke-width="1.5" stroke-linecap="round"/>
</g>
<defs>
<clipPath id="clip0_182_597">
<rect width="28" height="31" fill="white" transform="translate(0.5)"/>
</clipPath>
</defs>
</svg>
