<svg width="50" height="40" viewBox="0 0 50 40" fill="none" xmlns="http://www.w3.org/2000/svg">
<mask id="path-1-inside-1_205_1029" fill="white">
<path d="M36.1081 7H13.8919C11.7459 7 10 8.76547 10 10.9355V29.0646C10 31.2346 11.7459 33 13.8919 33H36.1081C38.2541 33 40 31.2346 40 29.0646V10.9355C40 8.76547 38.2541 7 36.1081 7ZM38.8281 29.0645C38.8281 30.5811 37.608 31.8149 36.1081 31.8149H13.8919C12.392 31.8149 11.1719 30.5811 11.1719 29.0645V10.9355C11.1719 9.41881 12.392 8.185 13.8919 8.185H36.1081C37.608 8.185 38.8281 9.41881 38.8281 10.9354V29.0645Z"/>
</mask>
<path d="M36.1081 7H13.8919C11.7459 7 10 8.76547 10 10.9355V29.0646C10 31.2346 11.7459 33 13.8919 33H36.1081C38.2541 33 40 31.2346 40 29.0646V10.9355C40 8.76547 38.2541 7 36.1081 7ZM38.8281 29.0645C38.8281 30.5811 37.608 31.8149 36.1081 31.8149H13.8919C12.392 31.8149 11.1719 30.5811 11.1719 29.0645V10.9355C11.1719 9.41881 12.392 8.185 13.8919 8.185H36.1081C37.608 8.185 38.8281 9.41881 38.8281 10.9354V29.0645Z" fill="#FAFAFF"/>
<path d="M13.8919 31.8149V30.2524H13.8918L13.8919 31.8149ZM36.1081 7V5.4375H13.8919V7V8.5625H36.1081V7ZM13.8919 7V5.4375C10.8665 5.4375 8.4375 7.919 8.4375 10.9355H10H11.5625C11.5625 9.61193 12.6252 8.5625 13.8919 8.5625V7ZM10 10.9355H8.4375V29.0646H10H11.5625V10.9355H10ZM10 29.0646H8.4375C8.4375 32.0811 10.8666 34.5625 13.8919 34.5625V33V31.4375C12.6252 31.4375 11.5625 30.3881 11.5625 29.0646H10ZM13.8919 33V34.5625H36.1081V33V31.4375H13.8919V33ZM36.1081 33V34.5625C39.1334 34.5625 41.5625 32.0811 41.5625 29.0646H40H38.4375C38.4375 30.3881 37.3748 31.4375 36.1081 31.4375V33ZM40 29.0646H41.5625V10.9355H40H38.4375V29.0646H40ZM40 10.9355H41.5625C41.5625 7.919 39.1335 5.4375 36.1081 5.4375V7V8.5625C37.3748 8.5625 38.4375 9.61193 38.4375 10.9355H40ZM38.8281 29.0645H37.2656C37.2656 29.7346 36.7287 30.2524 36.1081 30.2524V31.8149V33.3774C38.4873 33.3774 40.3906 31.4276 40.3906 29.0645H38.8281ZM36.1081 31.8149V30.2524H13.8919V31.8149V33.3774H36.1081V31.8149ZM13.8919 31.8149L13.8918 30.2524C13.2714 30.2524 12.7344 29.7346 12.7344 29.0645H11.1719H9.60938C9.60938 31.4275 11.5127 33.3775 13.8919 33.3774L13.8919 31.8149ZM11.1719 29.0645H12.7344V10.9355H11.1719H9.60938V29.0645H11.1719ZM11.1719 10.9355H12.7344C12.7344 10.2653 13.2714 9.7475 13.8919 9.7475V8.185V6.6225C11.5127 6.6225 9.60938 8.57234 9.60938 10.9355H11.1719ZM13.8919 8.185V9.7475H36.1081V8.185V6.6225H13.8919V8.185ZM36.1081 8.185V9.7475C36.7287 9.7475 37.2656 10.2653 37.2656 10.9354H38.8281H40.3906C40.3906 8.57232 38.4873 6.6225 36.1081 6.6225V8.185ZM38.8281 10.9354H37.2656V29.0645H38.8281H40.3906V10.9354H38.8281Z" fill="#FAFAFF" mask="url(#path-1-inside-1_205_1029)"/>
<mask id="path-3-inside-2_205_1029" fill="white">
<path d="M12.5 11C12.2239 11 12 11.239 12 11.5337V14.4663C12 14.761 12.2239 15 12.5 15C12.7761 15 13 14.761 13 14.4663V11.5337C13 11.2389 12.7761 11 12.5 11Z"/>
</mask>
<path d="M12.5 11C12.2239 11 12 11.239 12 11.5337V14.4663C12 14.761 12.2239 15 12.5 15C12.7761 15 13 14.761 13 14.4663V11.5337C13 11.2389 12.7761 11 12.5 11Z" fill="#FAFAFF"/>
<path d="M12.5 11V9.4375C11.2666 9.4375 10.4375 10.4736 10.4375 11.5337H12H13.5625C13.5625 12.0044 13.1812 12.5625 12.5 12.5625V11ZM12 11.5337H10.4375V14.4663H12H13.5625V11.5337H12ZM12 14.4663H10.4375C10.4375 15.5264 11.2666 16.5625 12.5 16.5625V15V13.4375C13.1812 13.4375 13.5625 13.9956 13.5625 14.4663H12ZM12.5 15V16.5625C13.7334 16.5625 14.5625 15.5264 14.5625 14.4663H13H11.4375C11.4375 13.9956 11.8188 13.4375 12.5 13.4375V15ZM13 14.4663H14.5625V11.5337H13H11.4375V14.4663H13ZM13 11.5337H14.5625C14.5625 10.4735 13.7335 9.4375 12.5 9.4375V11V12.5625C11.8188 12.5625 11.4375 12.0044 11.4375 11.5337H13Z" fill="#FAFAFF" mask="url(#path-3-inside-2_205_1029)"/>
<mask id="path-5-inside-3_205_1029" fill="white">
<path d="M12.5 17C12.2239 17 12 17.2535 12 17.566V28.434C12 28.7465 12.2239 29 12.5 29C12.7761 29 13 28.7465 13 28.434V17.566C13 17.2535 12.7761 17 12.5 17Z"/>
</mask>
<path d="M12.5 17C12.2239 17 12 17.2535 12 17.566V28.434C12 28.7465 12.2239 29 12.5 29C12.7761 29 13 28.7465 13 28.434V17.566C13 17.2535 12.7761 17 12.5 17Z" fill="#FAFAFF"/>
<path d="M12.5 17V15.4375C11.1844 15.4375 10.4375 16.5783 10.4375 17.566H12H13.5625C13.5625 17.9286 13.2634 18.5625 12.5 18.5625V17ZM12 17.566H10.4375V28.434H12H13.5625V17.566H12ZM12 28.434H10.4375C10.4375 29.4217 11.1844 30.5625 12.5 30.5625V29V27.4375C13.2634 27.4375 13.5625 28.0714 13.5625 28.434H12ZM12.5 29V30.5625C13.8156 30.5625 14.5625 29.4217 14.5625 28.434H13H11.4375C11.4375 28.0714 11.7366 27.4375 12.5 27.4375V29ZM13 28.434H14.5625V17.566H13H11.4375V28.434H13ZM13 17.566H14.5625C14.5625 16.5786 13.8158 15.4375 12.5 15.4375V17V18.5625C11.7365 18.5625 11.4375 17.9285 11.4375 17.566H13Z" fill="#FAFAFF" mask="url(#path-5-inside-3_205_1029)"/>
<mask id="path-7-inside-4_205_1029" fill="white">
<path d="M19 9.5C19 9.2239 18.7398 9 18.4189 9H14.5811C14.2602 9 14 9.2239 14 9.5C14 9.7761 14.2602 10 14.5811 10H18.4189C18.7398 10 19 9.77615 19 9.5Z"/>
</mask>
<path d="M19 9.5C19 9.2239 18.7398 9 18.4189 9H14.5811C14.2602 9 14 9.2239 14 9.5C14 9.7761 14.2602 10 14.5811 10H18.4189C18.7398 10 19 9.77615 19 9.5Z" fill="#FAFAFF"/>
<path d="M19 9.5H20.5625C20.5625 8.14883 19.3741 7.4375 18.4189 7.4375V9V10.5625C18.2192 10.5625 17.9993 10.4932 17.8107 10.3309C17.6188 10.1658 17.4375 9.87668 17.4375 9.5H19ZM18.4189 9V7.4375H14.5811V9V10.5625H18.4189V9ZM14.5811 9V7.4375C13.6259 7.4375 12.4375 8.14883 12.4375 9.5H14H15.5625C15.5625 9.87668 15.3812 10.1658 15.1893 10.3309C15.0007 10.4932 14.7808 10.5625 14.5811 10.5625V9ZM14 9.5H12.4375C12.4375 10.8512 13.6259 11.5625 14.5811 11.5625V10V8.4375C14.7808 8.4375 15.0007 8.50681 15.1893 8.66914C15.3812 8.83424 15.5625 9.12332 15.5625 9.5H14ZM14.5811 10V11.5625H18.4189V10V8.4375H14.5811V10ZM18.4189 10V11.5625C19.374 11.5625 20.5625 10.8513 20.5625 9.5H19H17.4375C17.4375 9.12339 17.6187 8.83428 17.8107 8.66912C17.9994 8.50676 18.2193 8.4375 18.4189 8.4375V10Z" fill="#FAFAFF" mask="url(#path-7-inside-4_205_1029)"/>
<mask id="path-9-inside-5_205_1029" fill="white">
<path d="M31.5521 16.0561H28.9439V13.4479C28.9439 12.6495 28.2944 12 27.4961 12H22.5039C21.7056 12 21.0561 12.6495 21.0561 13.4479V16.0561H18.4479C17.6495 16.0561 17 16.7056 17 17.5039V22.4961C17 23.2944 17.6495 23.9439 18.4479 23.9439H21.0561V26.5521C21.0561 27.3505 21.7056 28 22.5039 28H27.4961C28.2944 28 28.9439 27.3505 28.9439 26.5521V23.9439H31.5521C32.3505 23.9439 33 23.2944 33 22.4961V17.5039C32.9999 16.7056 32.3504 16.0561 31.5521 16.0561ZM31.7683 22.4961C31.7683 22.6132 31.6693 22.7122 31.5521 22.7122H28.328C27.9879 22.7122 27.7122 22.988 27.7122 23.328V26.5521C27.7122 26.6693 27.6132 26.7683 27.496 26.7683H22.5039C22.3867 26.7683 22.2877 26.6694 22.2877 26.5521V23.328C22.2877 22.988 22.012 22.7122 21.6719 22.7122H18.4478C18.3306 22.7122 18.2316 22.6133 18.2316 22.4961V17.5039C18.2316 17.3868 18.3306 17.2878 18.4478 17.2878H21.6719C22.012 17.2878 22.2877 17.012 22.2877 16.6719V13.4479C22.2877 13.3307 22.3867 13.2317 22.5039 13.2317H27.496C27.6131 13.2317 27.7122 13.3306 27.7122 13.4479V16.6719C27.7122 17.012 27.9879 17.2878 28.328 17.2878H31.5521C31.6692 17.2878 31.7683 17.3867 31.7683 17.5039V22.4961Z"/>
</mask>
<path d="M31.5521 16.0561H28.9439V13.4479C28.9439 12.6495 28.2944 12 27.4961 12H22.5039C21.7056 12 21.0561 12.6495 21.0561 13.4479V16.0561H18.4479C17.6495 16.0561 17 16.7056 17 17.5039V22.4961C17 23.2944 17.6495 23.9439 18.4479 23.9439H21.0561V26.5521C21.0561 27.3505 21.7056 28 22.5039 28H27.4961C28.2944 28 28.9439 27.3505 28.9439 26.5521V23.9439H31.5521C32.3505 23.9439 33 23.2944 33 22.4961V17.5039C32.9999 16.7056 32.3504 16.0561 31.5521 16.0561ZM31.7683 22.4961C31.7683 22.6132 31.6693 22.7122 31.5521 22.7122H28.328C27.9879 22.7122 27.7122 22.988 27.7122 23.328V26.5521C27.7122 26.6693 27.6132 26.7683 27.496 26.7683H22.5039C22.3867 26.7683 22.2877 26.6694 22.2877 26.5521V23.328C22.2877 22.988 22.012 22.7122 21.6719 22.7122H18.4478C18.3306 22.7122 18.2316 22.6133 18.2316 22.4961V17.5039C18.2316 17.3868 18.3306 17.2878 18.4478 17.2878H21.6719C22.012 17.2878 22.2877 17.012 22.2877 16.6719V13.4479C22.2877 13.3307 22.3867 13.2317 22.5039 13.2317H27.496C27.6131 13.2317 27.7122 13.3306 27.7122 13.4479V16.6719C27.7122 17.012 27.9879 17.2878 28.328 17.2878H31.5521C31.6692 17.2878 31.7683 17.3867 31.7683 17.5039V22.4961Z" fill="#FAFAFF"/>
<path d="M28.9439 16.0561H27.3814V17.6186H28.9439V16.0561ZM21.0561 16.0561V17.6186H22.6186V16.0561H21.0561ZM21.0561 23.9439H22.6186V22.3814H21.0561V23.9439ZM28.9439 23.9439V22.3814H27.3814V23.9439H28.9439ZM33 17.5039H34.5625V17.5038L33 17.5039ZM31.5521 16.0561V14.4936H28.9439V16.0561V17.6186H31.5521V16.0561ZM28.9439 16.0561H30.5064V13.4479H28.9439H27.3814V16.0561H28.9439ZM28.9439 13.4479H30.5064C30.5064 11.7866 29.1574 10.4375 27.4961 10.4375V12V13.5625C27.4314 13.5625 27.3814 13.5124 27.3814 13.4479H28.9439ZM27.4961 12V10.4375H22.5039V12V13.5625H27.4961V12ZM22.5039 12V10.4375C20.8426 10.4375 19.4936 11.7866 19.4936 13.4479H21.0561H22.6186C22.6186 13.5124 22.5686 13.5625 22.5039 13.5625V12ZM21.0561 13.4479H19.4936V16.0561H21.0561H22.6186V13.4479H21.0561ZM21.0561 16.0561V14.4936H18.4479V16.0561V17.6186H21.0561V16.0561ZM18.4479 16.0561V14.4936C16.7866 14.4936 15.4375 15.8426 15.4375 17.5039H17H18.5625C18.5625 17.5686 18.5124 17.6186 18.4479 17.6186V16.0561ZM17 17.5039H15.4375V22.4961H17H18.5625V17.5039H17ZM17 22.4961H15.4375C15.4375 24.1574 16.7866 25.5064 18.4479 25.5064V23.9439V22.3814C18.5124 22.3814 18.5625 22.4314 18.5625 22.4961H17ZM18.4479 23.9439V25.5064H21.0561V23.9439V22.3814H18.4479V23.9439ZM21.0561 23.9439H19.4936V26.5521H21.0561H22.6186V23.9439H21.0561ZM21.0561 26.5521H19.4936C19.4936 28.2134 20.8426 29.5625 22.5039 29.5625V28V26.4375C22.5686 26.4375 22.6186 26.4876 22.6186 26.5521H21.0561ZM22.5039 28V29.5625H27.4961V28V26.4375H22.5039V28ZM27.4961 28V29.5625C29.1574 29.5625 30.5064 28.2134 30.5064 26.5521H28.9439H27.3814C27.3814 26.4876 27.4314 26.4375 27.4961 26.4375V28ZM28.9439 26.5521H30.5064V23.9439H28.9439H27.3814V26.5521H28.9439ZM28.9439 23.9439V25.5064H31.5521V23.9439V22.3814H28.9439V23.9439ZM31.5521 23.9439V25.5064C33.2134 25.5064 34.5625 24.1574 34.5625 22.4961H33H31.4375C31.4375 22.4314 31.4876 22.3814 31.5521 22.3814V23.9439ZM33 22.4961H34.5625V17.5039H33H31.4375V22.4961H33ZM33 17.5039L34.5625 17.5038C34.5624 15.8427 33.2134 14.4936 31.5521 14.4936V16.0561V17.6186C31.4875 17.6186 31.4375 17.5686 31.4375 17.5041L33 17.5039ZM31.7683 22.4961H30.2058C30.2058 21.7502 30.8064 21.1497 31.5521 21.1497V22.7122V24.2747C32.5323 24.2747 33.3308 23.4761 33.3308 22.4961H31.7683ZM31.5521 22.7122V21.1497H28.328V22.7122V24.2747H31.5521V22.7122ZM28.328 22.7122V21.1497C27.125 21.1497 26.1497 22.125 26.1497 23.328H27.7122H29.2747C29.2747 23.8509 28.8509 24.2747 28.328 24.2747V22.7122ZM27.7122 23.328H26.1497V26.5521H27.7122H29.2747V23.328H27.7122ZM27.7122 26.5521H26.1497C26.1497 25.8069 26.7497 25.2058 27.496 25.2058V26.7683V28.3308C28.4767 28.3308 29.2747 27.5317 29.2747 26.5521H27.7122ZM27.496 26.7683V25.2058H22.5039V26.7683V28.3308H27.496V26.7683ZM22.5039 26.7683V25.2058C23.2497 25.2058 23.8502 25.8064 23.8502 26.5521H22.2877H20.7252C20.7252 27.5323 21.5238 28.3308 22.5039 28.3308V26.7683ZM22.2877 26.5521H23.8502V23.328H22.2877H20.7252V26.5521H22.2877ZM22.2877 23.328H23.8502C23.8502 22.125 22.8749 21.1497 21.6719 21.1497V22.7122V24.2747C21.149 24.2747 20.7252 23.8509 20.7252 23.328H22.2877ZM21.6719 22.7122V21.1497H18.4478V22.7122V24.2747H21.6719V22.7122ZM18.4478 22.7122V21.1497C19.193 21.1497 19.7941 21.7497 19.7941 22.4961H18.2316H16.6691C16.6691 23.4768 17.4683 24.2747 18.4478 24.2747V22.7122ZM18.2316 22.4961H19.7941V17.5039H18.2316H16.6691V22.4961H18.2316ZM18.2316 17.5039H19.7941C19.7941 18.2497 19.1935 18.8503 18.4478 18.8503V17.2878V15.7253C17.4676 15.7253 16.6691 16.5239 16.6691 17.5039H18.2316ZM18.4478 17.2878V18.8503H21.6719V17.2878V15.7253H18.4478V17.2878ZM21.6719 17.2878V18.8503C22.8749 18.8503 23.8502 17.875 23.8502 16.6719H22.2877H20.7252C20.7252 16.1491 21.149 15.7253 21.6719 15.7253V17.2878ZM22.2877 16.6719H23.8502V13.4479H22.2877H20.7252V16.6719H22.2877ZM22.2877 13.4479H23.8502C23.8502 14.1931 23.2502 14.7942 22.5039 14.7942V13.2317V11.6692C21.5232 11.6692 20.7252 12.4683 20.7252 13.4479H22.2877ZM22.5039 13.2317V14.7942H27.496V13.2317V11.6692H22.5039V13.2317ZM27.496 13.2317V14.7942C26.7502 14.7942 26.1497 14.1936 26.1497 13.4479H27.7122H29.2747C29.2747 12.4677 28.4761 11.6692 27.496 11.6692V13.2317ZM27.7122 13.4479H26.1497V16.6719H27.7122H29.2747V13.4479H27.7122ZM27.7122 16.6719H26.1497C26.1497 17.875 27.125 18.8503 28.328 18.8503V17.2878V15.7253C28.8509 15.7253 29.2747 16.1491 29.2747 16.6719H27.7122ZM28.328 17.2878V18.8503H31.5521V17.2878V15.7253H28.328V17.2878ZM31.5521 17.2878V18.8503C30.8069 18.8503 30.2058 18.2503 30.2058 17.5039H31.7683H33.3308C33.3308 16.5232 32.5316 15.7253 31.5521 15.7253V17.2878ZM31.7683 17.5039H30.2058V22.4961H31.7683H33.3308V17.5039H31.7683Z" fill="#FAFAFF" mask="url(#path-9-inside-5_205_1029)"/>
</svg>
