<svg width="57" height="44" viewBox="0 0 57 44" fill="none" xmlns="http://www.w3.org/2000/svg">
<mask id="path-1-inside-1_205_1062" fill="white">
<path d="M40.1081 1H17.8919C15.7459 1 14 2.76547 14 4.93549V23.0646C14 25.2346 15.7459 27 17.8919 27H40.1081C42.2541 27 44 25.2346 44 23.0646V4.93549C44 2.76547 42.2541 1 40.1081 1ZM42.8281 23.0645C42.8281 24.5811 41.608 25.8149 40.1081 25.8149H17.8919C16.392 25.8149 15.1719 24.5811 15.1719 23.0645V4.93549C15.1719 3.41881 16.392 2.185 17.8919 2.185H40.1081C41.608 2.185 42.8281 3.41881 42.8281 4.93543V23.0645Z"/>
</mask>
<path d="M40.1081 1H17.8919C15.7459 1 14 2.76547 14 4.93549V23.0646C14 25.2346 15.7459 27 17.8919 27H40.1081C42.2541 27 44 25.2346 44 23.0646V4.93549C44 2.76547 42.2541 1 40.1081 1ZM42.8281 23.0645C42.8281 24.5811 41.608 25.8149 40.1081 25.8149H17.8919C16.392 25.8149 15.1719 24.5811 15.1719 23.0645V4.93549C15.1719 3.41881 16.392 2.185 17.8919 2.185H40.1081C41.608 2.185 42.8281 3.41881 42.8281 4.93543V23.0645Z" fill="#FAFAFF"/>
<path d="M17.8919 25.8149V24.2524H17.8918L17.8919 25.8149ZM40.1081 1V-0.5625H17.8919V1V2.5625H40.1081V1ZM17.8919 1V-0.5625C14.8665 -0.5625 12.4375 1.919 12.4375 4.93549H14H15.5625C15.5625 3.61193 16.6252 2.5625 17.8919 2.5625V1ZM14 4.93549H12.4375V23.0646H14H15.5625V4.93549H14ZM14 23.0646H12.4375C12.4375 26.0811 14.8666 28.5625 17.8919 28.5625V27V25.4375C16.6252 25.4375 15.5625 24.3881 15.5625 23.0646H14ZM17.8919 27V28.5625H40.1081V27V25.4375H17.8919V27ZM40.1081 27V28.5625C43.1334 28.5625 45.5625 26.0811 45.5625 23.0646H44H42.4375C42.4375 24.3881 41.3748 25.4375 40.1081 25.4375V27ZM44 23.0646H45.5625V4.93549H44H42.4375V23.0646H44ZM44 4.93549H45.5625C45.5625 1.919 43.1335 -0.5625 40.1081 -0.5625V1V2.5625C41.3748 2.5625 42.4375 3.61193 42.4375 4.93549H44ZM42.8281 23.0645H41.2656C41.2656 23.7346 40.7287 24.2524 40.1081 24.2524V25.8149V27.3774C42.4873 27.3774 44.3906 25.4276 44.3906 23.0645H42.8281ZM40.1081 25.8149V24.2524H17.8919V25.8149V27.3774H40.1081V25.8149ZM17.8919 25.8149L17.8918 24.2524C17.2714 24.2524 16.7344 23.7346 16.7344 23.0645H15.1719H13.6094C13.6094 25.4275 15.5127 27.3775 17.8919 27.3774L17.8919 25.8149ZM15.1719 23.0645H16.7344V4.93549H15.1719H13.6094V23.0645H15.1719ZM15.1719 4.93549H16.7344C16.7344 4.26529 17.2714 3.7475 17.8919 3.7475V2.185V0.622496C15.5127 0.622496 13.6094 2.57234 13.6094 4.93549H15.1719ZM17.8919 2.185V3.7475H40.1081V2.185V0.622496H17.8919V2.185ZM40.1081 2.185V3.7475C40.7287 3.7475 41.2656 4.26531 41.2656 4.93543H42.8281H44.3906C44.3906 2.57232 42.4873 0.622496 40.1081 0.622496V2.185ZM42.8281 4.93543H41.2656V23.0645H42.8281H44.3906V4.93543H42.8281Z" fill="#FAFAFF" mask="url(#path-1-inside-1_205_1062)"/>
<mask id="path-3-inside-2_205_1062" fill="white">
<path d="M16.5 5C16.2239 5 16 5.23898 16 5.53368V8.46632C16 8.76102 16.2239 9 16.5 9C16.7761 9 17 8.76102 17 8.46632V5.53368C17 5.23893 16.7761 5 16.5 5Z"/>
</mask>
<path d="M16.5 5C16.2239 5 16 5.23898 16 5.53368V8.46632C16 8.76102 16.2239 9 16.5 9C16.7761 9 17 8.76102 17 8.46632V5.53368C17 5.23893 16.7761 5 16.5 5Z" fill="#FAFAFF"/>
<path d="M16.5 5V3.4375C15.2666 3.4375 14.4375 4.47355 14.4375 5.53368H16H17.5625C17.5625 6.00441 17.1812 6.5625 16.5 6.5625V5ZM16 5.53368H14.4375V8.46632H16H17.5625V5.53368H16ZM16 8.46632H14.4375C14.4375 9.52645 15.2666 10.5625 16.5 10.5625V9V7.4375C17.1812 7.4375 17.5625 7.99559 17.5625 8.46632H16ZM16.5 9V10.5625C17.7334 10.5625 18.5625 9.52645 18.5625 8.46632H17H15.4375C15.4375 7.99559 15.8188 7.4375 16.5 7.4375V9ZM17 8.46632H18.5625V5.53368H17H15.4375V8.46632H17ZM17 5.53368H18.5625C18.5625 4.4735 17.7335 3.4375 16.5 3.4375V5V6.5625C15.8188 6.5625 15.4375 6.00436 15.4375 5.53368H17Z" fill="#FAFAFF" mask="url(#path-3-inside-2_205_1062)"/>
<mask id="path-5-inside-3_205_1062" fill="white">
<path d="M16.5 11C16.2239 11 16 11.2535 16 11.566V22.434C16 22.7465 16.2239 23 16.5 23C16.7761 23 17 22.7465 17 22.434V11.566C17 11.2535 16.7761 11 16.5 11Z"/>
</mask>
<path d="M16.5 11C16.2239 11 16 11.2535 16 11.566V22.434C16 22.7465 16.2239 23 16.5 23C16.7761 23 17 22.7465 17 22.434V11.566C17 11.2535 16.7761 11 16.5 11Z" fill="#FAFAFF"/>
<path d="M16.5 11V9.4375C15.1844 9.4375 14.4375 10.5783 14.4375 11.566H16H17.5625C17.5625 11.9286 17.2634 12.5625 16.5 12.5625V11ZM16 11.566H14.4375V22.434H16H17.5625V11.566H16ZM16 22.434H14.4375C14.4375 23.4217 15.1844 24.5625 16.5 24.5625V23V21.4375C17.2634 21.4375 17.5625 22.0714 17.5625 22.434H16ZM16.5 23V24.5625C17.8156 24.5625 18.5625 23.4217 18.5625 22.434H17H15.4375C15.4375 22.0714 15.7366 21.4375 16.5 21.4375V23ZM17 22.434H18.5625V11.566H17H15.4375V22.434H17ZM17 11.566H18.5625C18.5625 10.5786 17.8158 9.4375 16.5 9.4375V11V12.5625C15.7365 12.5625 15.4375 11.9285 15.4375 11.566H17Z" fill="#FAFAFF" mask="url(#path-5-inside-3_205_1062)"/>
<mask id="path-7-inside-4_205_1062" fill="white">
<path d="M23 3.5C23 3.2239 22.7398 3 22.4189 3H18.5811C18.2602 3 18 3.2239 18 3.5C18 3.7761 18.2602 4 18.5811 4H22.4189C22.7398 4 23 3.77615 23 3.5Z"/>
</mask>
<path d="M23 3.5C23 3.2239 22.7398 3 22.4189 3H18.5811C18.2602 3 18 3.2239 18 3.5C18 3.7761 18.2602 4 18.5811 4H22.4189C22.7398 4 23 3.77615 23 3.5Z" fill="#FAFAFF"/>
<path d="M23 3.5H24.5625C24.5625 2.14883 23.3741 1.4375 22.4189 1.4375V3V4.5625C22.2192 4.5625 21.9993 4.49319 21.8107 4.33086C21.6188 4.16576 21.4375 3.87668 21.4375 3.5H23ZM22.4189 3V1.4375H18.5811V3V4.5625H22.4189V3ZM18.5811 3V1.4375C17.6259 1.4375 16.4375 2.14883 16.4375 3.5H18H19.5625C19.5625 3.87668 19.3812 4.16576 19.1893 4.33086C19.0007 4.49319 18.7808 4.5625 18.5811 4.5625V3ZM18 3.5H16.4375C16.4375 4.85117 17.6259 5.5625 18.5811 5.5625V4V2.4375C18.7808 2.4375 19.0007 2.50681 19.1893 2.66914C19.3812 2.83424 19.5625 3.12332 19.5625 3.5H18ZM18.5811 4V5.5625H22.4189V4V2.4375H18.5811V4ZM22.4189 4V5.5625C23.374 5.5625 24.5625 4.85131 24.5625 3.5H23H21.4375C21.4375 3.12339 21.6187 2.83428 21.8107 2.66912C21.9994 2.50676 22.2193 2.4375 22.4189 2.4375V4Z" fill="#FAFAFF" mask="url(#path-7-inside-4_205_1062)"/>
<mask id="path-9-inside-5_205_1062" fill="white">
<path d="M35.5521 10.0561H32.9439V7.44788C32.9439 6.64952 32.2944 6 31.4961 6H26.5039C25.7056 6 25.0561 6.64952 25.0561 7.44788V10.0561H22.4479C21.6495 10.0561 21 10.7056 21 11.5039V16.4961C21 17.2944 21.6495 17.9439 22.4479 17.9439H25.0561V20.5521C25.0561 21.3505 25.7056 22 26.5039 22H31.4961C32.2944 22 32.9439 21.3505 32.9439 20.5521V17.9439H35.5521C36.3505 17.9439 37 17.2944 37 16.4961V11.5039C36.9999 10.7056 36.3504 10.0561 35.5521 10.0561ZM35.7683 16.4961C35.7683 16.6132 35.6693 16.7122 35.5521 16.7122H32.328C31.9879 16.7122 31.7122 16.988 31.7122 17.328V20.5521C31.7122 20.6693 31.6132 20.7683 31.496 20.7683H26.5039C26.3867 20.7683 26.2877 20.6694 26.2877 20.5521V17.328C26.2877 16.988 26.012 16.7122 25.6719 16.7122H22.4478C22.3306 16.7122 22.2316 16.6133 22.2316 16.4961V11.5039C22.2316 11.3868 22.3306 11.2878 22.4478 11.2878H25.6719C26.012 11.2878 26.2877 11.012 26.2877 10.6719V7.44788C26.2877 7.33069 26.3867 7.23166 26.5039 7.23166H31.496C31.6131 7.23166 31.7122 7.33063 31.7122 7.44788V10.6719C31.7122 11.012 31.9879 11.2878 32.328 11.2878H35.5521C35.6692 11.2878 35.7683 11.3867 35.7683 11.5039V16.4961Z"/>
</mask>
<path d="M35.5521 10.0561H32.9439V7.44788C32.9439 6.64952 32.2944 6 31.4961 6H26.5039C25.7056 6 25.0561 6.64952 25.0561 7.44788V10.0561H22.4479C21.6495 10.0561 21 10.7056 21 11.5039V16.4961C21 17.2944 21.6495 17.9439 22.4479 17.9439H25.0561V20.5521C25.0561 21.3505 25.7056 22 26.5039 22H31.4961C32.2944 22 32.9439 21.3505 32.9439 20.5521V17.9439H35.5521C36.3505 17.9439 37 17.2944 37 16.4961V11.5039C36.9999 10.7056 36.3504 10.0561 35.5521 10.0561ZM35.7683 16.4961C35.7683 16.6132 35.6693 16.7122 35.5521 16.7122H32.328C31.9879 16.7122 31.7122 16.988 31.7122 17.328V20.5521C31.7122 20.6693 31.6132 20.7683 31.496 20.7683H26.5039C26.3867 20.7683 26.2877 20.6694 26.2877 20.5521V17.328C26.2877 16.988 26.012 16.7122 25.6719 16.7122H22.4478C22.3306 16.7122 22.2316 16.6133 22.2316 16.4961V11.5039C22.2316 11.3868 22.3306 11.2878 22.4478 11.2878H25.6719C26.012 11.2878 26.2877 11.012 26.2877 10.6719V7.44788C26.2877 7.33069 26.3867 7.23166 26.5039 7.23166H31.496C31.6131 7.23166 31.7122 7.33063 31.7122 7.44788V10.6719C31.7122 11.012 31.9879 11.2878 32.328 11.2878H35.5521C35.6692 11.2878 35.7683 11.3867 35.7683 11.5039V16.4961Z" fill="#FAFAFF"/>
<path d="M32.9439 10.0561H31.3814V11.6186H32.9439V10.0561ZM25.0561 10.0561V11.6186H26.6186V10.0561H25.0561ZM25.0561 17.9439H26.6186V16.3814H25.0561V17.9439ZM32.9439 17.9439V16.3814H31.3814V17.9439H32.9439ZM37 11.5039H38.5625V11.5038L37 11.5039ZM35.5521 10.0561V8.49362H32.9439V10.0561V11.6186H35.5521V10.0561ZM32.9439 10.0561H34.5064V7.44788H32.9439H31.3814V10.0561H32.9439ZM32.9439 7.44788H34.5064C34.5064 5.78662 33.1574 4.4375 31.4961 4.4375V6V7.5625C31.4314 7.5625 31.3814 7.51242 31.3814 7.44788H32.9439ZM31.4961 6V4.4375H26.5039V6V7.5625H31.4961V6ZM26.5039 6V4.4375C24.8426 4.4375 23.4936 5.78661 23.4936 7.44788H25.0561H26.6186C26.6186 7.51242 26.5686 7.5625 26.5039 7.5625V6ZM25.0561 7.44788H23.4936V10.0561H25.0561H26.6186V7.44788H25.0561ZM25.0561 10.0561V8.49362H22.4479V10.0561V11.6186H25.0561V10.0561ZM22.4479 10.0561V8.49362C20.7866 8.49362 19.4375 9.84265 19.4375 11.5039H21H22.5625C22.5625 11.5686 22.5124 11.6186 22.4479 11.6186V10.0561ZM21 11.5039H19.4375V16.4961H21H22.5625V11.5039H21ZM21 16.4961H19.4375C19.4375 18.1574 20.7866 19.5064 22.4479 19.5064V17.9439V16.3814C22.5124 16.3814 22.5625 16.4314 22.5625 16.4961H21ZM22.4479 17.9439V19.5064H25.0561V17.9439V16.3814H22.4479V17.9439ZM25.0561 17.9439H23.4936V20.5521H25.0561H26.6186V17.9439H25.0561ZM25.0561 20.5521H23.4936C23.4936 22.2134 24.8426 23.5625 26.5039 23.5625V22V20.4375C26.5686 20.4375 26.6186 20.4876 26.6186 20.5521H25.0561ZM26.5039 22V23.5625H31.4961V22V20.4375H26.5039V22ZM31.4961 22V23.5625C33.1574 23.5625 34.5064 22.2134 34.5064 20.5521H32.9439H31.3814C31.3814 20.4876 31.4314 20.4375 31.4961 20.4375V22ZM32.9439 20.5521H34.5064V17.9439H32.9439H31.3814V20.5521H32.9439ZM32.9439 17.9439V19.5064H35.5521V17.9439V16.3814H32.9439V17.9439ZM35.5521 17.9439V19.5064C37.2134 19.5064 38.5625 18.1574 38.5625 16.4961H37H35.4375C35.4375 16.4314 35.4876 16.3814 35.5521 16.3814V17.9439ZM37 16.4961H38.5625V11.5039H37H35.4375V16.4961H37ZM37 11.5039L38.5625 11.5038C38.5624 9.84269 37.2134 8.49362 35.5521 8.49362V10.0561V11.6186C35.4875 11.6186 35.4375 11.5686 35.4375 11.5041L37 11.5039ZM35.7683 16.4961H34.2058C34.2058 15.7502 34.8064 15.1497 35.5521 15.1497V16.7122V18.2747C36.5323 18.2747 37.3308 17.4761 37.3308 16.4961H35.7683ZM35.5521 16.7122V15.1497H32.328V16.7122V18.2747H35.5521V16.7122ZM32.328 16.7122V15.1497C31.125 15.1497 30.1497 16.125 30.1497 17.328H31.7122H33.2747C33.2747 17.8509 32.8509 18.2747 32.328 18.2747V16.7122ZM31.7122 17.328H30.1497V20.5521H31.7122H33.2747V17.328H31.7122ZM31.7122 20.5521H30.1497C30.1497 19.8069 30.7497 19.2058 31.496 19.2058V20.7683V22.3308C32.4767 22.3308 33.2747 21.5317 33.2747 20.5521H31.7122ZM31.496 20.7683V19.2058H26.5039V20.7683V22.3308H31.496V20.7683ZM26.5039 20.7683V19.2058C27.2497 19.2058 27.8502 19.8064 27.8502 20.5521H26.2877H24.7252C24.7252 21.5323 25.5238 22.3308 26.5039 22.3308V20.7683ZM26.2877 20.5521H27.8502V17.328H26.2877H24.7252V20.5521H26.2877ZM26.2877 17.328H27.8502C27.8502 16.125 26.8749 15.1497 25.6719 15.1497V16.7122V18.2747C25.149 18.2747 24.7252 17.8509 24.7252 17.328H26.2877ZM25.6719 16.7122V15.1497H22.4478V16.7122V18.2747H25.6719V16.7122ZM22.4478 16.7122V15.1497C23.193 15.1497 23.7941 15.7497 23.7941 16.4961H22.2316H20.6691C20.6691 17.4768 21.4683 18.2747 22.4478 18.2747V16.7122ZM22.2316 16.4961H23.7941V11.5039H22.2316H20.6691V16.4961H22.2316ZM22.2316 11.5039H23.7941C23.7941 12.2497 23.1935 12.8503 22.4478 12.8503V11.2878V9.72528C21.4676 9.72528 20.6691 10.5239 20.6691 11.5039H22.2316ZM22.4478 11.2878V12.8503H25.6719V11.2878V9.72528H22.4478V11.2878ZM25.6719 11.2878V12.8503C26.8749 12.8503 27.8502 11.875 27.8502 10.6719H26.2877H24.7252C24.7252 10.1491 25.149 9.72528 25.6719 9.72528V11.2878ZM26.2877 10.6719H27.8502V7.44788H26.2877H24.7252V10.6719H26.2877ZM26.2877 7.44788H27.8502C27.8502 8.19306 27.2502 8.79416 26.5039 8.79416V7.23166V5.66916C25.5232 5.66916 24.7252 6.46832 24.7252 7.44788H26.2877ZM26.5039 7.23166V8.79416H31.496V7.23166V5.66916H26.5039V7.23166ZM31.496 7.23166V8.79416C30.7502 8.79416 30.1497 8.19358 30.1497 7.44788H31.7122H33.2747C33.2747 6.46768 32.4761 5.66916 31.496 5.66916V7.23166ZM31.7122 7.44788H30.1497V10.6719H31.7122H33.2747V7.44788H31.7122ZM31.7122 10.6719H30.1497C30.1497 11.875 31.125 12.8503 32.328 12.8503V11.2878V9.72528C32.8509 9.72528 33.2747 10.1491 33.2747 10.6719H31.7122ZM32.328 11.2878V12.8503H35.5521V11.2878V9.72528H32.328V11.2878ZM35.5521 11.2878V12.8503C34.8069 12.8503 34.2058 12.2503 34.2058 11.5039H35.7683H37.3308C37.3308 10.5232 36.5316 9.72528 35.5521 9.72528V11.2878ZM35.7683 11.5039H34.2058V16.4961H35.7683H37.3308V11.5039H35.7683Z" fill="#FAFAFF" mask="url(#path-9-inside-5_205_1062)"/>
<path d="M1.41477 31.6663L4.00568 39.0129H4.10795L6.69886 31.6663H7.80682L4.60227 40.3936H3.51136L0.306818 31.6663H1.41477ZM11.0448 40.5299C10.4141 40.5299 9.87006 40.3907 9.41267 40.1123C8.95813 39.8311 8.60727 39.439 8.36011 38.9362C8.1158 38.4305 7.99364 37.8424 7.99364 37.172C7.99364 36.5015 8.1158 35.9106 8.36011 35.3992C8.60727 34.885 8.95102 34.4845 9.39136 34.1975C9.83455 33.9078 10.3516 33.7629 10.9425 33.7629C11.2834 33.7629 11.6201 33.8197 11.9524 33.9333C12.2848 34.047 12.5874 34.2316 12.8601 34.4873C13.1328 34.7401 13.3502 35.0754 13.5121 35.493C13.674 35.9106 13.755 36.4248 13.755 37.0356V37.4617H8.70955V36.5924H12.7323C12.7323 36.2231 12.6584 35.8936 12.5107 35.6038C12.3658 35.314 12.1584 35.0853 11.8885 34.9177C11.6215 34.7501 11.3061 34.6663 10.9425 34.6663C10.5419 34.6663 10.1953 34.7657 9.90273 34.9646C9.61295 35.1606 9.38994 35.4163 9.23369 35.7316C9.07744 36.047 8.99932 36.385 8.99932 36.7458V37.3254C8.99932 37.8197 9.08455 38.2387 9.255 38.5825C9.4283 38.9234 9.66835 39.1833 9.97517 39.3623C10.282 39.5384 10.6385 39.6265 11.0448 39.6265C11.309 39.6265 11.5476 39.5896 11.7607 39.5157C11.9766 39.439 12.1627 39.3254 12.3189 39.1748C12.4752 39.0214 12.5959 38.8311 12.6811 38.6038L13.6527 38.8765C13.5505 39.2061 13.3786 39.4958 13.1371 39.7458C12.8956 39.993 12.5973 40.1862 12.2422 40.3254C11.8871 40.4617 11.488 40.5299 11.0448 40.5299ZM18.0114 33.8481V34.7004H14.6194V33.8481H18.0114ZM15.608 32.2799H16.6137V38.5186C16.6137 38.8026 16.6549 39.0157 16.7373 39.1578C16.8225 39.297 16.9305 39.3907 17.0611 39.439C17.1947 39.4845 17.3353 39.5072 17.483 39.5072C17.5938 39.5072 17.6847 39.5015 17.7557 39.4901C17.8268 39.4759 17.8836 39.4646 17.9262 39.4561L18.1307 40.3595C18.0626 40.385 17.9674 40.4106 17.8452 40.4362C17.7231 40.4646 17.5682 40.4788 17.3807 40.4788C17.0966 40.4788 16.8182 40.4177 16.5455 40.2955C16.2756 40.1734 16.0512 39.9873 15.8722 39.7373C15.6961 39.4873 15.608 39.172 15.608 38.7913V32.2799ZM22.0782 40.5299C21.4475 40.5299 20.9035 40.3907 20.4461 40.1123C19.9916 39.8311 19.6407 39.439 19.3936 38.9362C19.1492 38.4305 19.0271 37.8424 19.0271 37.172C19.0271 36.5015 19.1492 35.9106 19.3936 35.3992C19.6407 34.885 19.9845 34.4845 20.4248 34.1975C20.868 33.9078 21.385 33.7629 21.9759 33.7629C22.3168 33.7629 22.6535 33.8197 22.9859 33.9333C23.3183 34.047 23.6208 34.2316 23.8936 34.4873C24.1663 34.7401 24.3836 35.0754 24.5455 35.493C24.7075 35.9106 24.7884 36.4248 24.7884 37.0356V37.4617H19.743V36.5924H23.7657C23.7657 36.2231 23.6918 35.8936 23.5441 35.6038C23.3992 35.314 23.1918 35.0853 22.922 34.9177C22.6549 34.7501 22.3396 34.6663 21.9759 34.6663C21.5754 34.6663 21.2288 34.7657 20.9362 34.9646C20.6464 35.1606 20.4234 35.4163 20.2671 35.7316C20.1109 36.047 20.0328 36.385 20.0328 36.7458V37.3254C20.0328 37.8197 20.118 38.2387 20.2884 38.5825C20.4617 38.9234 20.7018 39.1833 21.0086 39.3623C21.3154 39.5384 21.672 39.6265 22.0782 39.6265C22.3424 39.6265 22.5811 39.5896 22.7941 39.5157C23.01 39.439 23.1961 39.3254 23.3524 39.1748C23.5086 39.0214 23.6293 38.8311 23.7146 38.6038L24.6862 38.8765C24.5839 39.2061 24.412 39.4958 24.1705 39.7458C23.9291 39.993 23.6308 40.1862 23.2757 40.3254C22.9205 40.4617 22.5214 40.5299 22.0782 40.5299ZM26.1983 40.3936V33.8481H27.1699V34.8367H27.238C27.3574 34.5129 27.5733 34.2501 27.8858 34.0484C28.1983 33.8467 28.5505 33.7458 28.9426 33.7458C29.0164 33.7458 29.1088 33.7472 29.2196 33.7501C29.3304 33.7529 29.4142 33.7572 29.471 33.7629V34.7856C29.4369 34.7771 29.3588 34.7643 29.2366 34.7472C29.1173 34.7274 28.9909 34.7174 28.8574 34.7174C28.5392 34.7174 28.2551 34.7842 28.0051 34.9177C27.7579 35.0484 27.5619 35.2302 27.417 35.4632C27.275 35.6933 27.2039 35.9561 27.2039 36.2515V40.3936H26.1983ZM30.5431 40.3936V33.8481H31.5488V40.3936H30.5431ZM31.0545 32.7572C30.8585 32.7572 30.6894 32.6904 30.5474 32.5569C30.4082 32.4234 30.3386 32.2629 30.3386 32.0754C30.3386 31.8879 30.4082 31.7274 30.5474 31.5938C30.6894 31.4603 30.8585 31.3936 31.0545 31.3936C31.2505 31.3936 31.4181 31.4603 31.5573 31.5938C31.6994 31.7274 31.7704 31.8879 31.7704 32.0754C31.7704 32.2629 31.6994 32.4234 31.5573 32.5569C31.4181 32.6904 31.2505 32.7572 31.0545 32.7572ZM34.2764 36.4561V40.3936H33.2708V33.8481H34.2424V34.8708H34.3276C34.481 34.5384 34.7139 34.2714 35.0264 34.0697C35.3389 33.8651 35.7424 33.7629 36.2367 33.7629C36.6799 33.7629 37.0676 33.8538 37.4 34.0356C37.7324 34.2146 37.9909 34.4873 38.1756 34.8538C38.3603 35.2174 38.4526 35.6776 38.4526 36.2345V40.3936H37.4469V36.3026C37.4469 35.7884 37.3134 35.3879 37.0463 35.1009C36.7793 34.8112 36.4128 34.6663 35.9469 34.6663C35.6259 34.6663 35.3389 34.7359 35.0861 34.8751C34.8361 35.0143 34.6387 35.2174 34.4938 35.4845C34.3489 35.7515 34.2764 36.0754 34.2764 36.4561ZM42.0964 40.547C41.6817 40.547 41.3052 40.4688 40.9672 40.3126C40.6291 40.1535 40.3606 39.9248 40.1618 39.6265C39.9629 39.3254 39.8635 38.9617 39.8635 38.5356C39.8635 38.1606 39.9373 37.8566 40.0851 37.6237C40.2328 37.3879 40.4302 37.2032 40.6774 37.0697C40.9246 36.9362 41.1973 36.8367 41.4956 36.7714C41.7967 36.7032 42.0993 36.6492 42.4033 36.6095C42.801 36.5583 43.1234 36.52 43.3706 36.4944C43.6206 36.466 43.8024 36.4191 43.916 36.3538C44.0325 36.2884 44.0908 36.1748 44.0908 36.0129V35.9788C44.0908 35.5583 43.9757 35.2316 43.7456 34.9987C43.5183 34.7657 43.1731 34.6492 42.7101 34.6492C42.23 34.6492 41.8535 34.7544 41.5808 34.9646C41.3081 35.1748 41.1163 35.3992 41.0055 35.6379L40.051 35.297C40.2214 34.8992 40.4487 34.5896 40.7328 34.368C41.0197 34.1436 41.3322 33.9873 41.6703 33.8992C42.0112 33.8083 42.3464 33.7629 42.676 33.7629C42.8862 33.7629 43.1277 33.7884 43.4004 33.8396C43.676 33.8879 43.9416 33.9887 44.1973 34.1421C44.4558 34.2955 44.6703 34.5271 44.8408 34.8367C45.0112 35.1464 45.0964 35.5612 45.0964 36.0811V40.3936H44.0908V39.5072H44.0396C43.9714 39.6492 43.8578 39.8012 43.6987 39.9632C43.5396 40.1251 43.328 40.2629 43.0638 40.3765C42.7996 40.4901 42.4771 40.547 42.0964 40.547ZM42.2498 39.6436C42.6476 39.6436 42.9828 39.5654 43.2555 39.4092C43.5311 39.2529 43.7385 39.0512 43.8777 38.8041C44.0197 38.5569 44.0908 38.297 44.0908 38.0242V37.1038C44.0481 37.1549 43.9544 37.2018 43.8095 37.2444C43.6675 37.2842 43.5027 37.3197 43.3152 37.3509C43.1305 37.3794 42.9501 37.4049 42.774 37.4276C42.6007 37.4475 42.4601 37.4646 42.3521 37.4788C42.0908 37.5129 41.8464 37.5683 41.6192 37.645C41.3947 37.7188 41.2129 37.8311 41.0737 37.9816C40.9373 38.1294 40.8692 38.3311 40.8692 38.5867C40.8692 38.9362 40.9984 39.2004 41.2569 39.3794C41.5183 39.5555 41.8493 39.6436 42.2498 39.6436ZM46.812 40.3936V33.8481H47.7836V34.8367H47.8518C47.9711 34.5129 48.187 34.2501 48.4995 34.0484C48.812 33.8467 49.1643 33.7458 49.5563 33.7458C49.6302 33.7458 49.7225 33.7472 49.8333 33.7501C49.9441 33.7529 50.0279 33.7572 50.0847 33.7629V34.7856C50.0507 34.7771 49.9725 34.7643 49.8504 34.7472C49.7311 34.7274 49.6046 34.7174 49.4711 34.7174C49.1529 34.7174 48.8688 34.7842 48.6188 34.9177C48.3717 35.0484 48.1757 35.2302 48.0308 35.4632C47.8887 35.6933 47.8177 35.9561 47.8177 36.2515V40.3936H46.812ZM52.0038 42.8481C51.8334 42.8481 51.6814 42.8339 51.5478 42.8055C51.4143 42.7799 51.322 42.7544 51.2709 42.7288L51.5265 41.8424C51.7709 41.9049 51.9868 41.9276 52.1743 41.9106C52.3618 41.8936 52.528 41.8097 52.6728 41.6592C52.8206 41.5115 52.9555 41.2714 53.0777 40.939L53.2652 40.4276L50.8447 33.8481H51.9356L53.7424 39.064H53.8106L55.6174 33.8481H56.7084L53.9299 41.3481C53.8049 41.6862 53.6501 41.966 53.4655 42.1876C53.2808 42.412 53.0663 42.5782 52.822 42.6862C52.5805 42.7941 52.3078 42.8481 52.0038 42.8481Z" fill="#FAFAFF"/>
</svg>
