<svg width="20" height="20" viewBox="0 0 20 20" fill="none" xmlns="http://www.w3.org/2000/svg">
<g clip-path="url(#clip0_2321_3704)">
<path d="M9.99401 2.49805H4.1642C3.72243 2.49805 3.29877 2.67354 2.9864 2.98591C2.67402 3.29828 2.49854 3.72195 2.49854 4.16371V15.8233C2.49854 16.2651 2.67402 16.6888 2.9864 17.0011C3.29877 17.3135 3.72243 17.489 4.1642 17.489H15.8238C16.2656 17.489 16.6892 17.3135 17.0016 17.0011C17.314 16.6888 17.4895 16.2651 17.4895 15.8233V9.99352" stroke="#4A5565" stroke-width="1.66566" stroke-linecap="round" stroke-linejoin="round"/>
<path d="M15.3034 2.18542C15.6347 1.8541 16.0841 1.66797 16.5526 1.66797C17.0212 1.66797 17.4705 1.8541 17.8019 2.18542C18.1332 2.51674 18.3193 2.96611 18.3193 3.43467C18.3193 3.90323 18.1332 4.35259 17.8019 4.68391L10.2956 12.191C10.0978 12.3886 9.8535 12.5333 9.58516 12.6116L7.19243 13.3112C7.12077 13.3321 7.04481 13.3334 6.97249 13.3148C6.90018 13.2963 6.83417 13.2587 6.78139 13.2059C6.7286 13.1531 6.69098 13.0871 6.67245 13.0148C6.65393 12.9425 6.65518 12.8665 6.67608 12.7948L7.37566 10.4021C7.45438 10.134 7.5993 9.88998 7.79707 9.69255L15.3034 2.18542Z" stroke="#4A5565" stroke-width="1.66566" stroke-linecap="round" stroke-linejoin="round"/>
</g>
<defs>
<clipPath id="clip0_2321_3704">
<rect width="19.9879" height="19.9879" fill="white"/>
</clipPath>
</defs>
</svg>
