<svg width="17" height="16" viewBox="0 0 17 16" fill="none" xmlns="http://www.w3.org/2000/svg">
<path d="M2.25 1.5C2.25 1.36739 2.30268 1.24021 2.39645 1.14645C2.49021 1.05268 2.61739 1 2.75 1H14.75C14.8826 1 15.0098 1.05268 15.1036 1.14645C15.1973 1.24021 15.25 1.36739 15.25 1.5V3.5C15.25 3.62331 15.2044 3.74226 15.122 3.834L10.75 8.692V13.5C10.7499 13.6049 10.7169 13.7071 10.6555 13.7922C10.5941 13.8772 10.5075 13.9409 10.408 13.974L7.408 14.974C7.33287 14.999 7.25288 15.0058 7.1746 14.9939C7.09632 14.982 7.022 14.9516 6.95775 14.9053C6.8935 14.859 6.84116 14.7982 6.80504 14.7277C6.76893 14.6572 6.75006 14.5792 6.75 14.5V8.692L2.378 3.834C2.29561 3.74226 2.25002 3.62331 2.25 3.5V1.5ZM3.25 2V3.308L7.622 8.166C7.70439 8.25774 7.74998 8.37669 7.75 8.5V13.806L9.75 13.14V8.5C9.75002 8.37669 9.79561 8.25774 9.878 8.166L14.25 3.308V2H3.25Z" fill="#A0A1AC"/>
</svg>
