<svg width="20" height="20" viewBox="0 0 20 20" fill="none" xmlns="http://www.w3.org/2000/svg">
<g clip-path="url(#clip0_2323_6182)">
<path d="M9.99407 18.3226C14.5937 18.3226 18.3224 14.5939 18.3224 9.99432C18.3224 5.39472 14.5937 1.66602 9.99407 1.66602C5.39448 1.66602 1.66577 5.39472 1.66577 9.99432C1.66577 14.5939 5.39448 18.3226 9.99407 18.3226Z" stroke="#4A5565" stroke-width="1.66566" stroke-linecap="round" stroke-linejoin="round"/>
<path d="M7.57031 7.49556C7.76611 6.93895 8.15259 6.4696 8.66128 6.17064C9.16998 5.87167 9.76806 5.76239 10.3496 5.86214C10.9312 5.96189 11.4586 6.26424 11.8386 6.71564C12.2186 7.16703 12.4266 7.73835 12.4257 8.32839C12.4257 9.99405 9.92722 10.8269 9.92722 10.8269" stroke="#4A5565" stroke-width="1.66566" stroke-linecap="round" stroke-linejoin="round"/>
<path d="M9.9939 14.1582H10.0022" stroke="#4A5565" stroke-width="1.66566" stroke-linecap="round" stroke-linejoin="round"/>
</g>
<defs>
<clipPath id="clip0_2323_6182">
<rect width="19.9879" height="19.9879" fill="white"/>
</clipPath>
</defs>
</svg>
