<svg width="51" height="40" viewBox="0 0 51 40" fill="none" xmlns="http://www.w3.org/2000/svg">
<path d="M37 20.2243V21.8975C37 26.1884 37 28.3339 35.7112 29.6669C34.4226 31 32.3483 31 28.2 31H23.8C19.6516 31 17.5775 31 16.2887 29.6669C15 28.3339 15 26.1884 15 21.8975V20.2243C15 17.707 15 16.4484 15.5711 15.405C16.1422 14.3616 17.1856 13.7141 19.2724 12.4189L21.4724 11.0536C23.6783 9.68452 24.7813 9 26 9C27.2187 9 28.3217 9.68452 30.5276 11.0536L32.7276 12.4189C34.8144 13.7141 35.8578 14.3616 36.4289 15.405" stroke="#FAFAFF" stroke-linecap="round"/>
<path d="M31 27H22" stroke="#FAFAFF" stroke-width="1.5" stroke-linecap="round"/>
</svg>
