<svg width="32" height="10" viewBox="0 0 32 10" fill="none" xmlns="http://www.w3.org/2000/svg">
<path d="M0.0568182 9V0.272727H1.11364V4.15909H5.76705V0.272727H6.82386V9H5.76705V5.09659H1.11364V9H0.0568182ZM11.3424 9.13636C10.7514 9.13636 10.233 8.99574 9.78696 8.71449C9.34378 8.43324 8.99719 8.03977 8.74719 7.53409C8.50003 7.02841 8.37645 6.4375 8.37645 5.76136C8.37645 5.07955 8.50003 4.48437 8.74719 3.97585C8.99719 3.46733 9.34378 3.07244 9.78696 2.79119C10.233 2.50994 10.7514 2.36932 11.3424 2.36932C11.9333 2.36932 12.4503 2.50994 12.8935 2.79119C13.3395 3.07244 13.6861 3.46733 13.9333 3.97585C14.1833 4.48437 14.3083 5.07955 14.3083 5.76136C14.3083 6.4375 14.1833 7.02841 13.9333 7.53409C13.6861 8.03977 13.3395 8.43324 12.8935 8.71449C12.4503 8.99574 11.9333 9.13636 11.3424 9.13636ZM11.3424 8.23295C11.7912 8.23295 12.1605 8.1179 12.4503 7.88778C12.7401 7.65767 12.9546 7.35511 13.0938 6.98011C13.233 6.60511 13.3026 6.19886 13.3026 5.76136C13.3026 5.32386 13.233 4.91619 13.0938 4.53835C12.9546 4.16051 12.7401 3.85511 12.4503 3.62216C12.1605 3.3892 11.7912 3.27273 11.3424 3.27273C10.8935 3.27273 10.5242 3.3892 10.2344 3.62216C9.94463 3.85511 9.73014 4.16051 9.59094 4.53835C9.45173 4.91619 9.38213 5.32386 9.38213 5.76136C9.38213 6.19886 9.45173 6.60511 9.59094 6.98011C9.73014 7.35511 9.94463 7.65767 10.2344 7.88778C10.5242 8.1179 10.8935 8.23295 11.3424 8.23295ZM15.7234 9V2.45455H16.695V3.47727H16.7802C16.9166 3.12784 17.1368 2.85653 17.4408 2.66335C17.7447 2.46733 18.1098 2.36932 18.5359 2.36932C18.9677 2.36932 19.3271 2.46733 19.614 2.66335C19.9038 2.85653 20.1297 3.12784 20.2916 3.47727H20.3598C20.5274 3.1392 20.7788 2.87074 21.114 2.67188C21.4493 2.47017 21.8513 2.36932 22.32 2.36932C22.9052 2.36932 23.3839 2.55256 23.7561 2.91903C24.1283 3.28267 24.3143 3.84943 24.3143 4.61932V9H23.3087V4.61932C23.3087 4.13636 23.1765 3.79119 22.9123 3.58381C22.6481 3.37642 22.3371 3.27273 21.9791 3.27273C21.5189 3.27273 21.1623 3.41193 20.9095 3.69034C20.6567 3.96591 20.5302 4.31534 20.5302 4.73864V9H19.5075V4.51705C19.5075 4.14489 19.3868 3.84517 19.1453 3.6179C18.9038 3.38778 18.5927 3.27273 18.2121 3.27273C17.9507 3.27273 17.7064 3.34233 17.4791 3.48153C17.2547 3.62074 17.0729 3.81392 16.9337 4.06108C16.7973 4.3054 16.7291 4.58807 16.7291 4.90909V9H15.7234ZM28.7774 9.13636C28.1467 9.13636 27.6027 8.99716 27.1453 8.71875C26.6908 8.4375 26.3399 8.04545 26.0928 7.54261C25.8485 7.03693 25.7263 6.44886 25.7263 5.77841C25.7263 5.10795 25.8485 4.51705 26.0928 4.00568C26.3399 3.49148 26.6837 3.09091 27.124 2.80398C27.5672 2.5142 28.0842 2.36932 28.6752 2.36932C29.0161 2.36932 29.3527 2.42614 29.6851 2.53977C30.0175 2.65341 30.32 2.83807 30.5928 3.09375C30.8655 3.34659 31.0828 3.68182 31.2448 4.09943C31.4067 4.51705 31.4877 5.03125 31.4877 5.64205V6.06818H26.4422V5.19886H30.4649C30.4649 4.82955 30.3911 4.5 30.2433 4.21023C30.0985 3.92045 29.8911 3.69176 29.6212 3.52415C29.3541 3.35653 29.0388 3.27273 28.6752 3.27273C28.2746 3.27273 27.928 3.37216 27.6354 3.57102C27.3456 3.76705 27.1226 4.02273 26.9663 4.33807C26.8101 4.65341 26.732 4.99148 26.732 5.35227V5.93182C26.732 6.42614 26.8172 6.84517 26.9877 7.18892C27.161 7.52983 27.401 7.78977 27.7078 7.96875C28.0146 8.14489 28.3712 8.23295 28.7774 8.23295C29.0416 8.23295 29.2803 8.19602 29.4933 8.12216C29.7092 8.04545 29.8953 7.93182 30.0516 7.78125C30.2078 7.62784 30.3286 7.4375 30.4138 7.21023L31.3854 7.48295C31.2831 7.8125 31.1112 8.10227 30.8698 8.35227C30.6283 8.59943 30.33 8.79261 29.9749 8.93182C29.6198 9.06818 29.2206 9.13636 28.7774 9.13636Z" fill="#FAFAFF"/>
</svg>
