<svg width="30" height="30" viewBox="0 0 30 30" fill="none" xmlns="http://www.w3.org/2000/svg">
<path d="M6 3.15039H14C15.5741 3.15039 16.8496 4.42599 16.8496 6V10.1504H24C25.5741 10.1504 26.8496 11.426 26.8496 13V24C26.8496 25.5741 25.5741 26.8496 24 26.8496H16C14.4259 26.8496 13.1504 25.5741 13.1504 24V19.8496H6C4.42599 19.8496 3.15039 18.5741 3.15039 17V6C3.15039 4.42599 4.42599 3.15039 6 3.15039ZM16.8496 14.1504H19.1504V14C19.1504 13.5305 19.5305 13.1504 20 13.1504C20.4695 13.1504 20.8496 13.5305 20.8496 14V14.1504H23C23.4695 14.1504 23.8496 14.5305 23.8496 15C23.8496 15.4695 23.4695 15.8496 23 15.8496H22.6816L22.6533 15.9629C22.2826 17.4242 21.7176 18.7599 20.9609 19.9668L20.9004 20.0625L20.9756 20.1465C21.6853 20.9414 22.517 21.6566 23.4717 22.293C23.8621 22.5535 23.9673 23.0812 23.707 23.4717C23.4465 23.862 22.9188 23.9673 22.5283 23.707C21.575 23.0714 20.7276 22.3623 19.9863 21.5811L19.8721 21.4609L19.7637 21.5869C19.1069 22.3479 18.3553 23.0456 17.5098 23.6797C17.1343 23.9614 16.602 23.8853 16.3203 23.5098C16.0386 23.1343 16.1147 22.602 16.4902 22.3203C17.3372 21.6851 18.0759 20.9793 18.707 20.2012L18.7783 20.1133L18.7139 20.0205C18.3512 19.4995 18.0265 18.9525 17.7402 18.3799C17.5303 17.96 17.7003 17.4502 18.1201 17.2402C18.54 17.0303 19.0509 17.2003 19.2607 17.6201C19.3877 17.8738 19.5228 18.122 19.667 18.3643L19.8037 18.5928L19.9287 18.3584C20.3143 17.6348 20.6274 16.8626 20.8691 16.042L20.9258 15.8496H16.8496V17C16.8496 18.2406 16.0572 19.2961 14.9502 19.6875L14.8496 19.7236V24C14.8496 24.6351 15.3649 25.1504 16 25.1504H24C24.6351 25.1504 25.1504 24.6351 25.1504 24V13C25.1504 12.3649 24.6351 11.8496 24 11.8496H16.8496V14.1504ZM11.0908 6.63672C10.7413 5.58827 9.25866 5.58827 8.90918 6.63672L5.90918 15.6367C5.70852 16.2391 6.0343 16.89 6.63672 17.0908C7.23916 17.2914 7.89001 16.9658 8.09082 16.3633L8.66211 14.6504H11.3379L11.9092 16.3633C12.11 16.9658 12.7609 17.2914 13.3633 17.0908C13.9658 16.8899 14.2914 16.2391 14.0908 15.6367L11.0908 6.63672ZM10.5703 12.3496H9.42969L10 10.6367L10.5703 12.3496Z" fill="#737582" stroke="white" stroke-width="0.3"/>
</svg>
