<svg width="36" height="36" viewBox="0 0 36 36" fill="none" xmlns="http://www.w3.org/2000/svg">
<path d="M19.71 9.855C19.71 10.8795 18.8795 11.71 17.855 11.71C16.8305 11.71 16 10.8795 16 9.855C16 8.83051 16.8305 8 17.855 8C18.8795 8 19.71 8.83051 19.71 9.855Z" fill="#030D1B"/>
<path d="M19.71 17.565C19.71 18.5894 18.8795 19.42 17.855 19.42C16.8305 19.42 16 18.5894 16 17.565C16 16.5405 16.8305 15.71 17.855 15.71C18.8795 15.71 19.71 16.5405 19.71 17.565Z" fill="#030D1B"/>
<path d="M17.855 27.1299C18.8795 27.1299 19.71 26.2994 19.71 25.2749C19.71 24.2504 18.8795 23.4199 17.855 23.4199C16.8305 23.4199 16 24.2504 16 25.2749C16 26.2994 16.8305 27.1299 17.855 27.1299Z" fill="#030D1B"/>
</svg>
