<svg width="20" height="20" viewBox="0 0 20 20" fill="none" xmlns="http://www.w3.org/2000/svg">
<g clip-path="url(#clip0_2323_6001)">
<path d="M9.16118 18.098C9.41439 18.2442 9.70162 18.3212 9.99401 18.3212C10.2864 18.3212 10.5736 18.2442 10.8268 18.098L16.6566 14.7667C16.9096 14.6206 17.1197 14.4106 17.2659 14.1577C17.4121 13.9049 17.4892 13.618 17.4895 13.3259V6.66324C17.4892 6.37115 17.4121 6.08427 17.2659 5.83138C17.1197 5.57849 16.9096 5.36849 16.6566 5.22245L10.8268 1.89112C10.5736 1.74493 10.2864 1.66797 9.99401 1.66797C9.70162 1.66797 9.41439 1.74493 9.16118 1.89112L3.33137 5.22245C3.0784 5.36849 2.8683 5.57849 2.72212 5.83138C2.57594 6.08427 2.49883 6.37115 2.49854 6.66324V13.3259C2.49883 13.618 2.57594 13.9049 2.72212 14.1577C2.8683 14.4106 3.0784 14.6206 3.33137 14.7667L9.16118 18.098Z" stroke="#4A5565" stroke-width="1.66566" stroke-linecap="round" stroke-linejoin="round"/>
<path d="M9.9939 18.3224V9.99414" stroke="#4A5565" stroke-width="1.66566" stroke-linecap="round" stroke-linejoin="round"/>
<path d="M2.73999 5.83008L9.99394 9.99423L17.2479 5.83008" stroke="#4A5565" stroke-width="1.66566" stroke-linecap="round" stroke-linejoin="round"/>
<path d="M6.24634 3.55664L13.7418 7.84572" stroke="#4A5565" stroke-width="1.66566" stroke-linecap="round" stroke-linejoin="round"/>
</g>
<defs>
<clipPath id="clip0_2323_6001">
<rect width="19.9879" height="19.9879" fill="white"/>
</clipPath>
</defs>
</svg>
