<svg width="20" height="20" viewBox="0 0 20 20" fill="none" xmlns="http://www.w3.org/2000/svg">
<path d="M12.4924 1.66602H4.99696C4.5552 1.66602 4.13153 1.8415 3.81916 2.15388C3.50679 2.46625 3.3313 2.88992 3.3313 3.33168V16.657C3.3313 17.0987 3.50679 17.5224 3.81916 17.8348C4.13153 18.1471 4.5552 18.3226 4.99696 18.3226H14.9909C15.4327 18.3226 15.8563 18.1471 16.1687 17.8348C16.4811 17.5224 16.6566 17.0987 16.6566 16.657V5.83017L12.4924 1.66602Z" stroke="#4A5565" stroke-width="1.66566" stroke-linecap="round" stroke-linejoin="round"/>
<path d="M11.6597 1.66602V4.99734C11.6597 5.4391 11.8352 5.86276 12.1475 6.17514C12.4599 6.48751 12.8836 6.663 13.3253 6.663H16.6566" stroke="#4A5565" stroke-width="1.66566" stroke-linecap="round" stroke-linejoin="round"/>
<path d="M8.32826 7.49609H6.6626" stroke="#4A5565" stroke-width="1.66566" stroke-linecap="round" stroke-linejoin="round"/>
<path d="M13.3252 10.8262H6.6626" stroke="#4A5565" stroke-width="1.66566" stroke-linecap="round" stroke-linejoin="round"/>
<path d="M13.3252 14.1582H6.6626" stroke="#4A5565" stroke-width="1.66566" stroke-linecap="round" stroke-linejoin="round"/>
</svg>
