<svg width="20" height="20" viewBox="0 0 20 20" fill="none" xmlns="http://www.w3.org/2000/svg">
<g clip-path="url(#clip0_2321_3791)">
<path d="M12.4924 1.66602H7.49543C7.03547 1.66602 6.6626 2.03889 6.6626 2.49885V4.16451C6.6626 4.62447 7.03547 4.99734 7.49543 4.99734H12.4924C12.9524 4.99734 13.3252 4.62447 13.3252 4.16451V2.49885C13.3252 2.03889 12.9524 1.66602 12.4924 1.66602Z" stroke="#4A5565" stroke-width="1.66566" stroke-linecap="round" stroke-linejoin="round"/>
<path d="M13.3253 3.33203H14.9909C15.4327 3.33203 15.8563 3.50752 16.1687 3.81989C16.4811 4.13226 16.6566 4.55593 16.6566 4.99769V16.6573C16.6566 17.0991 16.4811 17.5227 16.1687 17.8351C15.8563 18.1475 15.4327 18.323 14.9909 18.323H4.99696C4.5552 18.323 4.13153 18.1475 3.81916 17.8351C3.50679 17.5227 3.3313 17.0991 3.3313 16.6573V4.99769C3.3313 4.55593 3.50679 4.13226 3.81916 3.81989C4.13153 3.50752 4.5552 3.33203 4.99696 3.33203H6.66262" stroke="#4A5565" stroke-width="1.66566" stroke-linecap="round" stroke-linejoin="round"/>
<path d="M9.9939 9.16016H13.3252" stroke="#4A5565" stroke-width="1.66566" stroke-linecap="round" stroke-linejoin="round"/>
<path d="M9.9939 13.3262H13.3252" stroke="#4A5565" stroke-width="1.66566" stroke-linecap="round" stroke-linejoin="round"/>
<path d="M6.6626 9.16016H6.67093" stroke="#4A5565" stroke-width="1.66566" stroke-linecap="round" stroke-linejoin="round"/>
<path d="M6.6626 13.3262H6.67093" stroke="#4A5565" stroke-width="1.66566" stroke-linecap="round" stroke-linejoin="round"/>
</g>
<defs>
<clipPath id="clip0_2321_3791">
<rect width="19.9879" height="19.9879" fill="white"/>
</clipPath>
</defs>
</svg>
