<svg width="16" height="16" viewBox="0 0 16 16" fill="none" xmlns="http://www.w3.org/2000/svg">
<g clip-path="url(#clip0_450_4607)">
<path d="M3.85395 0.145917C3.8075 0.099354 3.75233 0.0624111 3.69158 0.0372047C3.63084 0.0119982 3.56572 -0.000976563 3.49995 -0.000976562C3.43418 -0.000976562 3.36906 0.0119982 3.30832 0.0372047C3.24757 0.0624111 3.1924 0.099354 3.14595 0.145917L0.145949 3.14592C0.0993862 3.19236 0.0624437 3.24754 0.0372372 3.30828C0.0120306 3.36903 -0.000944138 3.43415 -0.000944138 3.49992C-0.000944138 3.56568 0.0120306 3.63081 0.0372372 3.69155C0.0624437 3.7523 0.0993862 3.80747 0.145949 3.85392L10.1459 13.8539C10.1939 13.9016 10.2511 13.939 10.314 13.9639L15.3139 15.9639C15.4048 16.0003 15.5044 16.0092 15.6002 15.9895C15.6961 15.9699 15.7841 15.9225 15.8533 15.8533C15.9225 15.7841 15.9699 15.6961 15.9896 15.6002C16.0092 15.5043 16.0003 15.4048 15.9639 15.3139L13.9639 10.3139C13.939 10.2511 13.9016 10.1939 13.8539 10.1459L3.85395 0.145917ZM4.79295 2.49992L2.49995 4.79292L1.20695 3.49992L3.49995 1.20692L4.79295 2.49992ZM3.20695 5.49992L5.49995 3.20692L11.9999 9.70692V9.99992H11.4999C11.3673 9.99992 11.2402 10.0526 11.1464 10.1464C11.0526 10.2401 10.9999 10.3673 10.9999 10.4999V10.9999H10.4999C10.3673 10.9999 10.2402 11.0526 10.1464 11.1464C10.0526 11.2401 9.99995 11.3673 9.99995 11.4999V11.9999H9.70695L3.20695 5.49992ZM12.9679 10.6749L13.0739 10.7809L14.6019 14.6019L10.781 13.0739L10.675 12.9679C10.7703 12.9323 10.8526 12.8684 10.9106 12.7847C10.9687 12.7011 10.9999 12.6017 10.9999 12.4999V11.9999H11.4999C11.6326 11.9999 11.7597 11.9472 11.8535 11.8535C11.9473 11.7597 11.9999 11.6325 11.9999 11.4999V10.9999H12.4999C12.6018 10.9998 12.7011 10.9687 12.7848 10.9106C12.8684 10.8525 12.9323 10.7703 12.9679 10.6749Z" fill="#A0A1AC"/>
</g>
<defs>
<clipPath id="clip0_450_4607">
<rect width="16" height="16" fill="white" transform="matrix(-1 0 0 1 16 0)"/>
</clipPath>
</defs>
</svg>
