<svg width="30" height="30" viewBox="0 0 30 30" fill="none" xmlns="http://www.w3.org/2000/svg">
<g clip-path="url(#clip0_450_4751)">
<path d="M14.6558 2.93848C14.8473 2.75349 15.1546 2.75349 15.3462 2.93848C17.8248 5.33253 21.2383 6.70703 24.7095 6.70703C24.974 6.70716 25.2004 6.91536 25.2007 7.1875V17.3438C25.2007 22.7848 20.618 27.2002 15.0005 27.2002C9.38293 27.2002 4.80029 22.7848 4.80029 17.3438V7.1875C4.80056 6.91536 5.02696 6.70716 5.2915 6.70703C8.76271 6.70703 12.1763 5.33259 14.6558 2.93848ZM15.0005 3.94531C12.4918 6.20889 9.18121 7.54144 5.78271 7.65918V17.3438C5.78271 22.2407 9.91173 26.2373 15.0005 26.2373C20.0892 26.2373 24.2183 22.2407 24.2183 17.3438V7.65918C20.8198 7.54144 17.5092 6.20889 15.0005 3.94531ZM15.0005 9.83203C16.6034 9.83203 17.9183 11.0918 17.9185 12.6562C17.9185 13.4159 17.6037 14.1338 17.0757 14.6582C18.5753 15.3884 19.5365 16.8443 19.5366 18.5156V19.8877H18.5542V18.5156C18.5541 17.0778 17.6335 15.8342 16.2163 15.3447L15.9263 15.2568C15.7304 15.205 15.585 15.0406 15.564 14.8389V14.8379C15.5442 14.6333 15.6579 14.4436 15.8403 14.3574L15.9624 14.2949C16.5586 13.9628 16.936 13.3322 16.936 12.6562C16.9358 11.6359 16.0736 10.7939 14.9995 10.7939C13.9256 10.794 13.0642 11.6367 13.064 12.6562C13.064 13.3763 13.4925 14.0459 14.1597 14.3574C14.3427 14.4427 14.4568 14.6333 14.437 14.8379C14.417 15.042 14.2686 15.2053 14.0757 15.2568H14.0747C12.4945 15.6691 11.4459 16.9829 11.4458 18.5156V19.8877H10.4634V18.5156C10.4635 16.8447 11.4243 15.3886 12.9233 14.6582C12.3963 14.1339 12.0825 13.4156 12.0825 12.6562C12.0827 11.0918 13.3976 9.83203 15.0005 9.83203Z" fill="#737582" stroke="#737582" stroke-width="0.4"/>
</g>
<defs>
<clipPath id="clip0_450_4751">
<rect width="30" height="30" fill="white"/>
</clipPath>
</defs>
</svg>
