<svg width="30" height="30" viewBox="0 0 30 30" fill="none" xmlns="http://www.w3.org/2000/svg">
<path d="M21.1351 8.66684L20.0389 10.0303C22.4018 11.8105 23.5804 14.6925 23.1152 17.5525C22.7744 19.6511 21.6098 21.4956 19.836 22.7466C18.0617 23.9969 15.8912 24.5051 13.7237 24.1734C9.24925 23.4913 6.18126 19.4119 6.88461 15.0793C7.22538 12.9805 8.3904 11.1358 10.1644 9.8852C11.7132 8.79354 13.564 8.26923 15.4514 8.37323L13.9088 9.94016L15.0531 10.9975L17.4883 8.5223L17.4888 8.52321L18.5798 7.41407L17.4362 6.35783L17.4356 6.35817L14.8801 4L13.7883 5.10915L15.4535 6.64474C13.1899 6.54108 10.9728 7.17859 9.11428 8.48881C6.95509 10.011 5.53736 12.2561 5.12224 14.8111C4.26598 20.0844 7.99991 25.0504 13.4463 25.8802C13.9727 25.9606 14.4988 26 15.0216 26C17.1195 26 19.1579 25.3616 20.8861 24.143C23.0455 22.6206 24.463 20.3755 24.8782 17.821C25.4444 14.3406 24.01 10.8328 21.1351 8.66684Z" fill="#737582"/>
<path d="M15.8485 21V20.9997L15.8486 20.0392C16.9391 19.9121 18 19.1927 18 17.827C18 15.9713 16.3478 15.7586 15.141 15.6034C14.3694 15.5071 13.7789 15.3953 13.7789 14.9071C13.7789 14.2284 14.6949 14.1553 15.0888 14.1553C15.6735 14.1553 16.2973 14.4423 16.5092 14.8086L16.5708 14.9151L17.7829 14.3294L17.723 14.2017C17.2713 13.2373 16.4617 12.9583 15.8483 12.8456V12H14.4289V12.842C13.1076 13.0456 12.3228 13.8115 12.3228 14.9071C12.3228 16.6938 13.8762 16.8751 15.0095 17.0078C16.0195 17.1322 16.4897 17.3928 16.4897 17.827C16.4897 18.6565 15.3897 18.7213 15.0525 18.7213C14.3019 18.7213 13.5782 18.3302 13.3689 17.8109L13.3169 17.6827L12 18.2657L12.0525 18.3939C12.4425 19.3471 13.2839 19.9445 14.4292 20.0857V21H15.8485Z" fill="#737582"/>
</svg>
