<svg width="18" height="26" viewBox="0 0 18 26" fill="none" xmlns="http://www.w3.org/2000/svg">
<path d="M5.33022 5.83291C5.76514 5.38903 6.47034 5.38903 6.90524 5.83291L12.3484 11.394C13.2175 12.2818 13.2172 13.7207 12.3477 14.6082L6.90123 20.1671C6.46632 20.611 5.76113 20.611 5.3262 20.1671C4.89127 19.7232 4.89127 19.0034 5.3262 18.5595L9.98775 13.8017C10.4228 13.3578 10.4228 12.6381 9.98775 12.1942L5.33022 7.44043C4.89529 6.99655 4.89529 6.2769 5.33022 5.83291Z" fill="#152A1C"/>
<path d="M5.33022 5.83291C5.76514 5.38903 6.47034 5.38903 6.90524 5.83291L12.3484 11.394C13.2175 12.2818 13.2172 13.7207 12.3477 14.6082L6.90123 20.1671C6.46632 20.611 5.76113 20.611 5.3262 20.1671C4.89127 19.7232 4.89127 19.0034 5.3262 18.5595L9.98775 13.8017C10.4228 13.3578 10.4228 12.6381 9.98775 12.1942L5.33022 7.44043C4.89529 6.99655 4.89529 6.2769 5.33022 5.83291Z" fill="black" fill-opacity="0.2"/>
<path d="M5.33022 5.83291C5.76514 5.38903 6.47034 5.38903 6.90524 5.83291L12.3484 11.394C13.2175 12.2818 13.2172 13.7207 12.3477 14.6082L6.90123 20.1671C6.46632 20.611 5.76113 20.611 5.3262 20.1671C4.89127 19.7232 4.89127 19.0034 5.3262 18.5595L9.98775 13.8017C10.4228 13.3578 10.4228 12.6381 9.98775 12.1942L5.33022 7.44043C4.89529 6.99655 4.89529 6.2769 5.33022 5.83291Z" fill="black" fill-opacity="0.2"/>
<path d="M5.33022 5.83291C5.76514 5.38903 6.47034 5.38903 6.90524 5.83291L12.3484 11.394C13.2175 12.2818 13.2172 13.7207 12.3477 14.6082L6.90123 20.1671C6.46632 20.611 5.76113 20.611 5.3262 20.1671C4.89127 19.7232 4.89127 19.0034 5.3262 18.5595L9.98775 13.8017C10.4228 13.3578 10.4228 12.6381 9.98775 12.1942L5.33022 7.44043C4.89529 6.99655 4.89529 6.2769 5.33022 5.83291Z" fill="black" fill-opacity="0.2"/>
<path d="M5.33022 5.83291C5.76514 5.38903 6.47034 5.38903 6.90524 5.83291L12.3484 11.394C13.2175 12.2818 13.2172 13.7207 12.3477 14.6082L6.90123 20.1671C6.46632 20.611 5.76113 20.611 5.3262 20.1671C4.89127 19.7232 4.89127 19.0034 5.3262 18.5595L9.98775 13.8017C10.4228 13.3578 10.4228 12.6381 9.98775 12.1942L5.33022 7.44043C4.89529 6.99655 4.89529 6.2769 5.33022 5.83291Z" fill="black" fill-opacity="0.2"/>
<path d="M5.33022 5.83291C5.76514 5.38903 6.47034 5.38903 6.90524 5.83291L12.3484 11.394C13.2175 12.2818 13.2172 13.7207 12.3477 14.6082L6.90123 20.1671C6.46632 20.611 5.76113 20.611 5.3262 20.1671C4.89127 19.7232 4.89127 19.0034 5.3262 18.5595L9.98775 13.8017C10.4228 13.3578 10.4228 12.6381 9.98775 12.1942L5.33022 7.44043C4.89529 6.99655 4.89529 6.2769 5.33022 5.83291Z" fill="black" fill-opacity="0.2"/>
</svg>
