<svg width="16" height="16" viewBox="0 0 16 16" fill="none" xmlns="http://www.w3.org/2000/svg">
<g clip-path="url(#clip0_450_4609)">
<path d="M0.146069 0.14615C0.0768433 0.215482 0.0295134 0.303624 0.00995731 0.399627C-0.00959873 0.49563 -0.000518799 0.595263 0.0360689 0.68615L5.85507 15.2331C5.90635 15.3613 5.99198 15.4727 6.10254 15.5553C6.21309 15.6379 6.34429 15.6884 6.48168 15.7012C6.61908 15.714 6.75735 15.6887 6.88127 15.628C7.0052 15.5673 7.10997 15.4736 7.18407 15.3572L10.3621 10.3622L15.3571 7.18415C15.4738 7.11013 15.5677 7.00532 15.6286 6.88128C15.6895 6.75723 15.7149 6.61878 15.7021 6.4812C15.6893 6.34362 15.6387 6.21226 15.5559 6.10161C15.4731 5.99096 15.3614 5.90532 15.2331 5.85415L0.686069 0.0371498C0.595182 0.000562027 0.495548 -0.0085177 0.399546 0.0110385C0.303543 0.0305947 0.215401 0.0779249 0.146069 0.14715V0.14615ZM9.36407 10.0701L6.60307 14.4081L1.87007 2.57615L9.36407 10.0701ZM2.57707 1.86915L14.4091 6.60215L10.0701 9.36215L2.57707 1.86915Z" fill="#AEBED6"/>
</g>
<defs>
<clipPath id="clip0_450_4609">
<rect width="16" height="16" fill="white" transform="matrix(-1 0 0 1 16 0)"/>
</clipPath>
</defs>
</svg>
