<svg width="20" height="20" viewBox="0 0 20 20" fill="none" xmlns="http://www.w3.org/2000/svg">
<g clip-path="url(#clip0_2323_6172)">
<path d="M8.05438 3.4441C8.10026 2.96134 8.32449 2.51303 8.68325 2.18676C9.04201 1.86049 9.50952 1.67969 9.99445 1.67969C10.4794 1.67969 10.9469 1.86049 11.3057 2.18676C11.6644 2.51303 11.8886 2.96134 11.9345 3.4441C11.9621 3.75596 12.0644 4.05658 12.2328 4.32052C12.4012 4.58446 12.6307 4.80395 12.9018 4.96041C13.173 5.11688 13.4779 5.2057 13.7907 5.21938C14.1034 5.23305 14.4149 5.17117 14.6987 5.03897C15.1394 4.83891 15.6387 4.80996 16.0995 4.95776C16.5603 5.10556 16.9497 5.41953 17.1918 5.83857C17.4339 6.25762 17.5114 6.75174 17.4093 7.22479C17.3071 7.69784 17.0326 8.11596 16.6392 8.39777C16.383 8.57754 16.1739 8.81636 16.0295 9.09404C15.8851 9.37172 15.8097 9.68009 15.8097 9.99306C15.8097 10.306 15.8851 10.6144 16.0295 10.8921C16.1739 11.1698 16.383 11.4086 16.6392 11.5883C17.0326 11.8702 17.3071 12.2883 17.4093 12.7613C17.5114 13.2344 17.4339 13.7285 17.1918 14.1475C16.9497 14.5666 16.5603 14.8806 16.0995 15.0284C15.6387 15.1762 15.1394 15.1472 14.6987 14.9472C14.4149 14.815 14.1034 14.7531 13.7907 14.7667C13.4779 14.7804 13.173 14.8692 12.9018 15.0257C12.6307 15.1822 12.4012 15.4017 12.2328 15.6656C12.0644 15.9295 11.9621 16.2302 11.9345 16.542C11.8886 17.0248 11.6644 17.4731 11.3057 17.7994C10.9469 18.1256 10.4794 18.3064 9.99445 18.3064C9.50952 18.3064 9.04201 18.1256 8.68325 17.7994C8.32449 17.4731 8.10026 17.0248 8.05438 16.542C8.02685 16.2301 7.92454 15.9293 7.75611 15.6653C7.58769 15.4012 7.35811 15.1817 7.08682 15.0252C6.81554 14.8687 6.51053 14.7799 6.19765 14.7663C5.88476 14.7528 5.57321 14.8148 5.28938 14.9472C4.84872 15.1472 4.34939 15.1762 3.88856 15.0284C3.42773 14.8806 3.03838 14.5666 2.79629 14.1475C2.55419 13.7285 2.47668 13.2344 2.57882 12.7613C2.68096 12.2883 2.95546 11.8702 3.34889 11.5883C3.60508 11.4086 3.81421 11.1698 3.95859 10.8921C4.10297 10.6144 4.17835 10.306 4.17835 9.99306C4.17835 9.68009 4.10297 9.37172 3.95859 9.09404C3.81421 8.81636 3.60508 8.57754 3.34889 8.39777C2.95601 8.11581 2.682 7.69786 2.5801 7.22513C2.47821 6.75241 2.55571 6.25868 2.79754 5.83991C3.03937 5.42114 3.42827 5.10724 3.88864 4.95922C4.34901 4.81119 4.84797 4.83962 5.28855 5.03897C5.57234 5.17117 5.88381 5.23305 6.19658 5.21938C6.50936 5.2057 6.81424 5.11688 7.08541 4.96041C7.35658 4.80395 7.58607 4.58446 7.75445 4.32052C7.92282 4.05658 8.02513 3.75596 8.05271 3.4441" stroke="#4A5565" stroke-width="1.66566" stroke-linecap="round" stroke-linejoin="round"/>
<path d="M9.99385 12.4931C11.3737 12.4931 12.4923 11.3745 12.4923 9.99458C12.4923 8.61471 11.3737 7.49609 9.99385 7.49609C8.61397 7.49609 7.49536 8.61471 7.49536 9.99458C7.49536 11.3745 8.61397 12.4931 9.99385 12.4931Z" stroke="#4A5565" stroke-width="1.66566" stroke-linecap="round" stroke-linejoin="round"/>
</g>
<defs>
<clipPath id="clip0_2323_6172">
<rect width="19.9879" height="19.9879" fill="white"/>
</clipPath>
</defs>
</svg>
