<svg width="41" height="41" viewBox="0 0 41 41" fill="none" xmlns="http://www.w3.org/2000/svg">
<path d="M17.75 15L20.5 12.25M20.5 12.25L23.25 15M20.5 12.25V21.4167M15.9168 18.6667C15.0626 18.6667 14.6355 18.6667 14.2986 18.8062C13.8494 18.9923 13.4923 19.3494 13.3062 19.7987C13.1666 20.1355 13.1666 20.5624 13.1666 21.4167V25.8167C13.1666 26.8434 13.1666 27.3565 13.3665 27.7486C13.5422 28.0936 13.8225 28.3746 14.1674 28.5504C14.5592 28.75 15.0724 28.75 16.0971 28.75H24.9033C25.928 28.75 26.4404 28.75 26.8322 28.5504C27.1771 28.3746 27.4579 28.0936 27.6336 27.7486C27.8333 27.3569 27.8333 26.8443 27.8333 25.8195V21.4167C27.8333 20.5624 27.8332 20.1355 27.6937 19.7987C27.5076 19.3494 27.1507 18.9923 26.7016 18.8062C26.3646 18.6667 25.9375 18.6667 25.0833 18.6667" stroke="black" stroke-linecap="round" stroke-linejoin="round"/>
</svg>
