<svg width="52" height="44" viewBox="0 0 52 44" fill="none" xmlns="http://www.w3.org/2000/svg">
<path d="M15.0251 6.03813C15.0251 6.03813 14.4893 9.51264 18.1666 10.041C18.7035 10.1142 19.2515 10.0714 19.7672 9.91598C20.283 9.76053 20.7522 9.49672 21.1377 9.14549C21.4809 9.48615 21.898 9.75698 22.362 9.94053C22.8261 10.1241 23.3267 10.2163 23.8319 10.2112C24.337 10.2062 24.8354 10.1039 25.2949 9.91114C25.7545 9.71834 26.165 9.43922 26.5002 9.09176C27.1223 9.74157 27.9964 10.1417 28.9354 10.2066C29.9702 10.1298 30.9631 9.79719 31.8091 9.24399C32.0999 9.53499 32.4508 9.76995 32.8412 9.93521C33.2317 10.1005 33.654 10.1927 34.0836 10.2066C34.6504 10.209 35.2109 10.0977 35.726 9.88045C36.2412 9.66321 36.6985 9.34527 37.0663 8.94882C37.434 8.55237 37.7032 8.08694 37.8552 7.585C38.0071 7.08306 38.0381 6.55669 37.946 6.04261L35.6471 1.50246C35.6123 1.41676 35.5497 1.34293 35.4679 1.2909C35.386 1.23887 35.2888 1.21113 35.1893 1.21143H17.7331C17.633 1.21147 17.5354 1.23986 17.4534 1.29273C17.3715 1.34561 17.3093 1.4204 17.2753 1.50694L15.0251 6.03813Z" stroke="#FAFAFF" stroke-width="1.2"/>
<path d="M35.9978 10.2164V22.8124C35.9929 23.0012 35.9521 23.1872 35.8778 23.3597C35.8035 23.5322 35.6972 23.6879 35.5648 23.8178C35.4325 23.9476 35.2768 24.0492 35.1066 24.1166C34.9363 24.1841 34.755 24.2161 34.5728 24.2109H18.4228C18.2406 24.2161 18.0593 24.1841 17.8891 24.1166C17.7188 24.0492 17.5631 23.9476 17.4308 23.8178C17.2984 23.6879 17.1921 23.5322 17.1178 23.3597C17.0435 23.1872 17.0027 23.0012 16.9978 22.8124V10.2114" stroke="#FAFAFF" stroke-width="1.2"/>
<path d="M23.9978 24.2114V14.2114H28.9978V24.2114" stroke="#FAFAFF" stroke-width="1.2"/>
<path d="M14.9978 7.21143L37.9978 7.21143" stroke="#FAFAFF" stroke-width="1.2"/>
<path d="M20.9978 7.21143V1.21143" stroke="#FAFAFF" stroke-width="1.2"/>
<path d="M26.9978 7.21143V1.21143" stroke="#FAFAFF" stroke-width="1.2"/>
<path d="M31.9978 7.21143V1.21143" stroke="#FAFAFF" stroke-width="1.2"/>
<path d="M17.6628 33.8481C17.6117 33.4163 17.4043 33.0811 17.0406 32.8424C16.677 32.6038 16.231 32.4845 15.7026 32.4845C15.3162 32.4845 14.9781 32.547 14.6884 32.672C14.4014 32.797 14.177 32.9688 14.0151 33.1876C13.856 33.4063 13.7764 33.6549 13.7764 33.9333C13.7764 34.1663 13.8318 34.3666 13.9426 34.5342C14.0563 34.699 14.2011 34.8367 14.3773 34.9475C14.5534 35.0555 14.7381 35.145 14.9313 35.216C15.1244 35.2842 15.302 35.3396 15.4639 35.3822L16.3503 35.6208C16.5776 35.6805 16.8304 35.7629 17.1088 35.868C17.3901 35.9731 17.6585 36.1166 17.9142 36.2984C18.1727 36.4774 18.3858 36.7075 18.5534 36.9887C18.721 37.27 18.8048 37.6151 18.8048 38.0242C18.8048 38.4958 18.6813 38.922 18.4341 39.3026C18.1898 39.6833 17.8318 39.9859 17.3602 40.2103C16.8915 40.4347 16.3219 40.547 15.6514 40.547C15.0264 40.547 14.4852 40.4461 14.0279 40.2444C13.5733 40.0427 13.2154 39.7615 12.954 39.4007C12.6955 39.0399 12.5492 38.6208 12.5151 38.1436H13.606C13.6344 38.4731 13.7452 38.7458 13.9384 38.9617C14.1344 39.1748 14.3815 39.3339 14.6798 39.439C14.981 39.5413 15.3048 39.5924 15.6514 39.5924C16.0548 39.5924 16.4171 39.5271 16.7381 39.3964C17.0591 39.2629 17.3134 39.0782 17.5009 38.8424C17.6884 38.6038 17.7821 38.3254 17.7821 38.0072C17.7821 37.7174 17.7011 37.4816 17.5392 37.2998C17.3773 37.118 17.1642 36.9703 16.9 36.8566C16.6358 36.743 16.3503 36.6436 16.0435 36.5583L14.9696 36.2515C14.2878 36.0555 13.748 35.7757 13.3503 35.412C12.9526 35.0484 12.7537 34.5725 12.7537 33.9845C12.7537 33.4958 12.8858 33.0697 13.15 32.7061C13.4171 32.3396 13.775 32.0555 14.2239 31.8538C14.6756 31.6492 15.1798 31.547 15.7367 31.547C16.2992 31.547 16.7992 31.6478 17.2367 31.8495C17.6742 32.0484 18.0208 32.3211 18.2764 32.6677C18.535 33.0143 18.6713 33.4078 18.6855 33.8481H17.6628ZM23.1326 33.8481V34.7004H19.7406V33.8481H23.1326ZM20.7292 32.2799H21.7349V38.5186C21.7349 38.8026 21.7761 39.0157 21.8585 39.1578C21.9437 39.297 22.0517 39.3907 22.1824 39.439C22.3159 39.4845 22.4565 39.5072 22.6042 39.5072C22.715 39.5072 22.8059 39.5015 22.877 39.4901C22.948 39.4759 23.0048 39.4646 23.0474 39.4561L23.252 40.3595C23.1838 40.385 23.0886 40.4106 22.9664 40.4362C22.8443 40.4646 22.6895 40.4788 22.502 40.4788C22.2179 40.4788 21.9395 40.4177 21.6667 40.2955C21.3968 40.1734 21.1724 39.9873 20.9934 39.7373C20.8173 39.4873 20.7292 39.172 20.7292 38.7913V32.2799ZM27.1142 40.5299C26.5233 40.5299 26.0048 40.3893 25.5588 40.108C25.1156 39.8268 24.769 39.4333 24.519 38.9276C24.2719 38.422 24.1483 37.8311 24.1483 37.1549C24.1483 36.4731 24.2719 35.8779 24.519 35.3694C24.769 34.8609 25.1156 34.466 25.5588 34.1847C26.0048 33.9035 26.5233 33.7629 27.1142 33.7629C27.7051 33.7629 28.2222 33.9035 28.6653 34.1847C29.1114 34.466 29.458 34.8609 29.7051 35.3694C29.9551 35.8779 30.0801 36.4731 30.0801 37.1549C30.0801 37.8311 29.9551 38.422 29.7051 38.9276C29.458 39.4333 29.1114 39.8268 28.6653 40.108C28.2222 40.3893 27.7051 40.5299 27.1142 40.5299ZM27.1142 39.6265C27.5631 39.6265 27.9324 39.5115 28.2222 39.2813C28.5119 39.0512 28.7264 38.7487 28.8656 38.3737C29.0048 37.9987 29.0744 37.5924 29.0744 37.1549C29.0744 36.7174 29.0048 36.3097 28.8656 35.9319C28.7264 35.5541 28.5119 35.2487 28.2222 35.0157C27.9324 34.7828 27.5631 34.6663 27.1142 34.6663C26.6653 34.6663 26.296 34.7828 26.0062 35.0157C25.7165 35.2487 25.502 35.5541 25.3628 35.9319C25.2236 36.3097 25.154 36.7174 25.154 37.1549C25.154 37.5924 25.2236 37.9987 25.3628 38.3737C25.502 38.7487 25.7165 39.0512 26.0062 39.2813C26.296 39.5115 26.6653 39.6265 27.1142 39.6265ZM31.4953 40.3936V33.8481H32.4669V34.8367H32.535C32.6544 34.5129 32.8703 34.2501 33.1828 34.0484C33.4953 33.8467 33.8475 33.7458 34.2396 33.7458C34.3135 33.7458 34.4058 33.7472 34.5166 33.7501C34.6274 33.7529 34.7112 33.7572 34.768 33.7629V34.7856C34.7339 34.7771 34.6558 34.7643 34.5336 34.7472C34.4143 34.7274 34.2879 34.7174 34.1544 34.7174C33.8362 34.7174 33.5521 34.7842 33.3021 34.9177C33.0549 35.0484 32.8589 35.2302 32.714 35.4632C32.572 35.6933 32.501 35.9561 32.501 36.2515V40.3936H31.4953ZM38.3852 40.5299C37.7545 40.5299 37.2105 40.3907 36.7531 40.1123C36.2986 39.8311 35.9477 39.439 35.7006 38.9362C35.4562 38.4305 35.3341 37.8424 35.3341 37.172C35.3341 36.5015 35.4562 35.9106 35.7006 35.3992C35.9477 34.885 36.2915 34.4845 36.7318 34.1975C37.175 33.9078 37.692 33.7629 38.2829 33.7629C38.6238 33.7629 38.9605 33.8197 39.2929 33.9333C39.6253 34.047 39.9278 34.2316 40.2006 34.4873C40.4733 34.7401 40.6906 35.0754 40.8525 35.493C41.0145 35.9106 41.0954 36.4248 41.0954 37.0356V37.4617H36.05V36.5924H40.0727C40.0727 36.2231 39.9988 35.8936 39.8511 35.6038C39.7062 35.314 39.4988 35.0853 39.229 34.9177C38.9619 34.7501 38.6466 34.6663 38.2829 34.6663C37.8824 34.6663 37.5358 34.7657 37.2432 34.9646C36.9534 35.1606 36.7304 35.4163 36.5741 35.7316C36.4179 36.047 36.3398 36.385 36.3398 36.7458V37.3254C36.3398 37.8197 36.425 38.2387 36.5954 38.5825C36.7687 38.9234 37.0088 39.1833 37.3156 39.3623C37.6224 39.5384 37.979 39.6265 38.3852 39.6265C38.6494 39.6265 38.8881 39.5896 39.1011 39.5157C39.317 39.439 39.5031 39.3254 39.6594 39.1748C39.8156 39.0214 39.9363 38.8311 40.0216 38.6038L40.9932 38.8765C40.8909 39.2061 40.719 39.4958 40.4775 39.7458C40.2361 39.993 39.9378 40.1862 39.5827 40.3254C39.2275 40.4617 38.8284 40.5299 38.3852 40.5299Z" fill="#FAFAFF"/>
</svg>
