<svg width="52" height="40" viewBox="0 0 52 40" fill="none" xmlns="http://www.w3.org/2000/svg">
<path d="M14.8605 14.8267C14.8605 14.8267 14.3248 18.3012 18.0021 18.8296C18.5389 18.9028 19.087 18.86 19.6027 18.7045C20.1184 18.5491 20.5876 18.2853 20.9731 17.9341C21.3164 18.2747 21.7335 18.5456 22.1975 18.7291C22.6615 18.9127 23.1622 19.0049 23.6673 18.9998C24.1724 18.9947 24.6708 18.8925 25.1304 18.6997C25.5899 18.5069 26.0005 18.2278 26.3356 17.8803C26.9578 18.5301 27.8319 18.9303 28.7709 18.9952C29.8057 18.9184 30.7986 18.5858 31.6445 18.0326C31.9354 18.3236 32.2862 18.5585 32.6767 18.7238C33.0672 18.889 33.4895 18.9813 33.9191 18.9952C34.4858 18.9976 35.0463 18.8863 35.5615 18.669C36.0766 18.4518 36.534 18.1338 36.9017 17.7374C37.2695 17.3409 37.5387 16.8755 37.6906 16.3736C37.8426 15.8716 37.8736 15.3453 37.7815 14.8312L35.4825 10.291C35.4477 10.2053 35.3852 10.1315 35.3033 10.0795C35.2215 10.0274 35.1242 9.99971 35.0247 10H17.5686C17.4685 10 17.3708 10.0284 17.2889 10.0813C17.207 10.1342 17.1448 10.209 17.1107 10.2955L14.8605 14.8267Z" stroke="#FAFAFF" stroke-width="1.2"/>
<path d="M35.8333 19.0049V31.601C35.8283 31.7898 35.7876 31.9758 35.7133 32.1483C35.639 32.3208 35.5326 32.4765 35.4003 32.6063C35.268 32.7362 35.1122 32.8378 34.942 32.9052C34.7718 32.9727 34.5904 33.0047 34.4083 32.9994H18.2583C18.0761 33.0047 17.8947 32.9727 17.7245 32.9052C17.5543 32.8378 17.3986 32.7362 17.2662 32.6063C17.1339 32.4765 17.0275 32.3208 16.9532 32.1483C16.8789 31.9758 16.8382 31.7898 16.8333 31.601V19" stroke="#FAFAFF" stroke-width="1.2"/>
<path d="M23.9978 31.418V22.1587H28.9978V31.418" stroke="#FAFAFF" stroke-width="1.2"/>
<path d="M14.9978 15.6772L37.9978 15.6772" stroke="#FAFAFF" stroke-width="1.2"/>
<path d="M20.9978 15.6771V10.1216" stroke="#FAFAFF" stroke-width="1.2"/>
<path d="M26.9978 15.6771V10.1216" stroke="#FAFAFF" stroke-width="1.2"/>
<path d="M31.9978 15.6771V10.1216" stroke="#FAFAFF" stroke-width="1.2"/>
</svg>
