<svg width="17" height="16" viewBox="0 0 17 16" fill="none" xmlns="http://www.w3.org/2000/svg">
<g clip-path="url(#clip0_578_1989)">
<path d="M12.9768 1.14406C12.716 0.88234 12.716 0.458009 12.9768 0.196289C13.2377 -0.0654298 13.6605 -0.0654298 13.9213 0.196289L15.4358 1.71598L15.4446 1.72489C15.9623 2.24827 15.9611 3.09371 15.441 3.61561L13.9247 5.13717C13.664 5.39872 13.2414 5.39872 12.9808 5.13717C12.7201 4.87561 12.7201 4.45155 12.9808 4.19L13.8345 3.33333H3.83325C3.46507 3.33333 3.16659 3.63181 3.16659 4V8.66667C3.16659 9.03487 2.86811 9.33333 2.49992 9.33333C2.13173 9.33333 1.83325 9.03487 1.83325 8.66667V4C1.83325 2.89543 2.72869 2 3.83325 2H13.8298L12.9768 1.14406Z" fill="#D1D9E5"/>
<path d="M15.1666 7.33366C15.1666 6.96546 14.8682 6.66699 14.5 6.66699C14.1318 6.66699 13.8333 6.96546 13.8333 7.33366V12.0003C13.8333 12.3685 13.5348 12.667 13.1666 12.667H3.16841L4.0214 11.8111C4.28221 11.5493 4.28221 11.125 4.02139 10.8633C3.76058 10.6016 3.33771 10.6016 3.07689 10.8633L1.56244 12.383L1.55365 12.3919C1.03594 12.9153 1.03713 13.7607 1.55723 14.2826L3.07355 15.8042C3.3342 16.0657 3.7568 16.0657 4.01745 15.8042C4.2781 15.5426 4.2781 15.1185 4.01745 14.857L3.16373 14.0003H13.1666C14.2712 14.0003 15.1666 13.1049 15.1666 12.0003V7.33366Z" fill="#D1D9E5"/>
</g>
<defs>
<clipPath id="clip0_578_1989">
<rect width="16" height="16" fill="white" transform="translate(0.5)"/>
</clipPath>
</defs>
</svg>
