<svg width="30" height="30" viewBox="0 0 30 30" fill="none" xmlns="http://www.w3.org/2000/svg">
<path d="M16 18.1C16 18.3387 15.8946 18.5676 15.7071 18.7364C15.5196 18.9052 15.2652 19 15 19C14.7348 19 14.4804 18.9052 14.2929 18.7364C14.1054 18.5676 14 18.3387 14 18.1C14 17.8613 14.1054 17.6324 14.2929 17.4636C14.4804 17.2948 14.7348 17.2 15 17.2C15.2652 17.2 15.5196 17.2948 15.7071 17.4636C15.8946 17.6324 16 17.8613 16 18.1ZM15.75 10.675C15.75 10.496 15.671 10.3243 15.5303 10.1977C15.3897 10.0711 15.1989 10 15 10C14.8011 10 14.6103 10.0711 14.4697 10.1977C14.329 10.3243 14.25 10.496 14.25 10.675V14.725C14.25 14.904 14.329 15.0757 14.4697 15.2023C14.6103 15.3289 14.8011 15.4 15 15.4C15.1989 15.4 15.3897 15.3289 15.5303 15.2023C15.671 15.0757 15.75 14.904 15.75 14.725V10.675Z" fill="#737582"/>
<path fill-rule="evenodd" clip-rule="evenodd" d="M14.514 4.08011C14.8299 3.9733 15.1701 3.9733 15.486 4.08011L22.911 6.58932C23.2274 6.6963 23.5032 6.90494 23.6988 7.18534C23.8945 7.46574 23.9999 7.8035 24 8.15019V12.8628C24 18.6692 20.607 22.9044 15.5391 24.8977C15.1916 25.0341 14.8084 25.0341 14.4609 24.8977C9.3939 22.9034 6 18.6692 6 12.8628V8.15019C6 7.43729 6.441 6.80882 7.089 6.58932L14.514 4.08011ZM15.0693 5.41773C15.0243 5.40253 14.9757 5.40253 14.9307 5.41773L7.5057 7.92882C7.4605 7.94391 7.42108 7.97358 7.39309 8.01353C7.36511 8.05348 7.35002 8.10166 7.35 8.15113V12.8628C7.35 17.9854 10.302 21.7581 14.937 23.5807C14.9776 23.5965 15.0224 23.5965 15.063 23.5807C19.698 21.7581 22.65 17.9844 22.65 12.8628V8.15019C22.6498 8.10076 22.6347 8.05265 22.6067 8.01272C22.5788 7.9728 22.5394 7.9431 22.4943 7.92788L15.0693 5.41773Z" fill="#737582"/>
</svg>
