<svg width="119" height="104" viewBox="0 0 119 104" fill="none" xmlns="http://www.w3.org/2000/svg">
<path d="M0.999995 1.00018C4.23948 10.448 8.52873 19.8196 13.9834 28.2021C28.4372 50.4118 50.9677 66.7995 75.8363 75.9513C100.704 85.1031 127.806 87.292 154.172 84.6446C154.172 84.6446 170.488 82.9502 181 77.4661" stroke="#C89037" stroke-width="0.820124" stroke-miterlimit="10" stroke-linecap="round" stroke-linejoin="round"/>
<path d="M37.0685 53.2833L33.2796 76.9456L53.676 64.9701L37.0685 53.2833Z" fill="#5379B2"/>
<path d="M14.6171 28.0643L3.5802 49.5315L26.919 43.7491L14.6171 28.0643Z" fill="#6CD067"/>
<path d="M62.2871 69.5828L64.143 93.3516L81.355 77.579L62.2871 69.5828Z" fill="#D0B07C"/>
<path d="M90.7933 80.178L97.1817 102.834L110.879 84.0377L90.7933 80.178Z" fill="#89A2C8"/>
</svg>
