<svg width="115" height="104" viewBox="0 0 115 104" fill="none" xmlns="http://www.w3.org/2000/svg">
<path d="M114 1.00018C110.761 10.448 106.471 19.8196 101.017 28.2021C86.5628 50.4118 64.0323 66.7995 39.1637 75.9513C14.2959 85.1031 -12.8059 87.292 -39.1721 84.6446C-39.1721 84.6446 -55.4877 82.9502 -66 77.4661" stroke="#C89037" stroke-width="0.820124" stroke-miterlimit="10" stroke-linecap="round" stroke-linejoin="round"/>
<path d="M77.9315 53.2833L81.7204 76.9456L61.324 64.9701L77.9315 53.2833Z" fill="#5379B2"/>
<path d="M100.383 28.0643L111.42 49.5315L88.081 43.7491L100.383 28.0643Z" fill="#6CD067"/>
<path d="M52.7129 69.5828L50.857 93.3516L33.645 77.579L52.7129 69.5828Z" fill="#D0B07C"/>
<path d="M24.2067 80.178L17.8183 102.834L4.12062 84.0377L24.2067 80.178Z" fill="#89A2C8"/>
</svg>
